<svg xmlns="http://www.w3.org/2000/svg" width="171" height="56" viewBox="0 0 171 56">
    <g fill="none" fill-rule="evenodd">
        <path fill="#FFF" d="M53.139 21.741c-.028-.112.037-.223.15-.249l1.472-.362c.107-.028.216.04.244.146.026.11-.04.221-.148.247l-1.475.364c-.015.005-.033.007-.047.007-.092 0-.174-.063-.196-.153zm-2.685-2.348c.03.085.113.137.198.137.026 0 .052-.004.076-.013l3.163-1.205c.108-.043.163-.166.121-.277-.041-.114-.165-.168-.276-.129l-3.158 1.207c-.11.042-.165.166-.124.28zm-2.65-1.908c.042.076.122.12.205.12.032 0 .07-.009.104-.024l4.429-2.34c.113-.059.156-.196.095-.305-.054-.114-.195-.157-.304-.099L47.9 17.175c-.11.057-.154.197-.096.31zm-2.57-1.535c.051.068.123.105.2.105.046 0 .092-.017.133-.043l5.272-3.656c.108-.077.136-.227.063-.334-.078-.111-.228-.138-.332-.059l-5.276 3.651c-.104.08-.135.227-.06.336zm-2.469-1.217c.053.056.122.085.19.085.056 0 .117-.022.169-.064l5.682-5.058c.102-.092.11-.254.017-.357-.09-.104-.25-.113-.35-.021l-5.684 5.059c-.104.094-.113.253-.024.356zm-2.363-.952c.048.044.111.066.174.066.074 0 .146-.029.198-.088l5.693-6.458c.093-.111.087-.278-.024-.376-.113-.091-.277-.084-.376.024l-5.686 6.459c-.1.109-.09.275.021.373zm-2.263-.742c.05.033.1.048.152.048.087 0 .172-.041.224-.116l5.332-7.77c.085-.122.054-.29-.067-.373-.122-.085-.287-.055-.372.07l-5.339 7.77c-.08.12-.052.286.07.371zm-2.172-.559c.041.024.087.035.133.035.1 0 .197-.054.247-.15l4.661-8.928c.072-.137.022-.308-.115-.38-.141-.071-.308-.019-.38.12l-4.66 8.928c-.075.135-.023.308.114.375zm-2.096-.395c.032.013.067.02.105.02.114 0 .225-.072.27-.19l3.73-9.885c.054-.155-.017-.321-.167-.38-.152-.055-.322.02-.378.17l-3.727 9.89c-.059.149.015.316.167.375zm-2.04-.268c.027.008.053.01.076.01.137 0 .259-.093.294-.23l2.597-10.6c.044-.163-.054-.331-.219-.37-.163-.04-.328.06-.367.224l-2.6 10.599c-.041.163.056.328.22.367zm-1.992-.147h.037c.157 0 .292-.117.313-.278L31.523.354c.024-.173-.103-.332-.276-.351-.171-.023-.33.102-.351.274l-1.332 11.037c-.024.175.1.33.275.356zm-2.312-.37c0 .183.154.337.336.337.185 0 .337-.154.337-.337V.834c0-.188-.152-.339-.337-.339-.182 0-.336.151-.336.339V11.3zm-1.984.397c.023.177.172.307.348.307.013 0 .026 0 .041-.002.19-.024.329-.198.304-.39l-1.044-8.64c-.022-.187-.196-.325-.389-.3-.187.022-.324.196-.302.39l1.042 8.635zm-1.948.401c.04.166.187.278.35.278.028 0 .059-.005.09-.011.19-.046.308-.243.26-.44l-1.64-6.682c-.048-.197-.244-.317-.435-.264-.195.045-.313.244-.265.436l1.64 6.683zm-1.89.64c.055.15.198.242.348.242.043 0 .09-.009.132-.026.194-.072.29-.288.216-.482l-1.856-4.924c-.073-.195-.288-.291-.48-.219-.193.075-.29.29-.216.485l1.856 4.924zm-1.794.862c.068.131.203.207.342.207.058 0 .119-.015.177-.045.187-.099.261-.332.161-.518l-1.78-3.411c-.1-.19-.333-.262-.517-.164-.192.1-.266.334-.164.524l1.781 3.407zm-1.678 1.076c.075.111.2.173.325.173.076 0 .155-.025.224-.072.182-.125.226-.374.104-.555l-1.483-2.156c-.129-.182-.374-.227-.556-.1-.178.121-.226.372-.098.551l1.484 2.159zm-1.538 1.27c.08.092.193.14.308.14.094 0 .191-.032.267-.103.17-.15.187-.41.04-.58l-1.046-1.186c-.15-.168-.41-.185-.58-.035-.166.154-.184.415-.034.581l1.045 1.183zM15.322 17.4c.08.07.18.104.28.104.117 0 .233-.048.315-.141.152-.175.137-.444-.035-.598l-.531-.474c-.177-.152-.441-.135-.594.037-.156.177-.141.443.035.596l.53.476zm6.066-14.95c.027.097.107.158.198.158.017 0 .033-.002.05-.004.11-.027.176-.138.148-.249L21.419.873c-.026-.11-.135-.174-.243-.149-.113.03-.179.136-.152.247l.364 1.48zm-2.367 2.728c.035.084.113.137.2.137.026 0 .05-.005.076-.016.113-.04.165-.166.126-.275L18.224 1.85c-.043-.11-.166-.168-.276-.127-.11.041-.165.166-.126.28l1.199 3.176zm-1.927 2.69c.04.077.118.12.198.12.037 0 .074-.009.107-.028.115-.055.154-.197.097-.305L15.17 3.2c-.06-.112-.198-.156-.306-.095-.113.057-.157.196-.095.305l2.325 4.457zm-1.553 2.613c.046.068.12.105.196.105.048 0 .098-.015.139-.046.104-.072.135-.223.059-.332l-3.636-5.295c-.079-.11-.227-.138-.333-.061-.11.072-.136.223-.063.334l3.638 5.295zm-1.233 2.52c.048.058.12.086.188.086.06 0 .118-.02.166-.061.104-.094.112-.256.023-.358L9.65 6.961c-.092-.108-.25-.119-.356-.024-.102.093-.114.253-.02.355l5.035 5.71zm-.962 2.424c.047.043.108.065.171.065.072 0 .144-.03.198-.087.093-.112.087-.28-.022-.375L7.266 9.306c-.108-.095-.276-.087-.371.025-.098.11-.087.275.023.373l6.428 5.72zm-.743 2.315c.048.033.1.048.152.048.087 0 .169-.041.22-.115.086-.125.053-.29-.066-.376l-7.73-5.363c-.122-.085-.289-.054-.372.07-.087.123-.054.29.066.373l7.73 5.363zm-.556 2.233c.041.022.084.033.128.033.102 0 .198-.052.247-.15.07-.14.022-.31-.115-.38l-8.883-4.684c-.137-.072-.307-.018-.38.117-.072.136-.017.306.117.38l8.886 4.684zm-.393 2.159c.032.013.07.02.102.02.117 0 .228-.07.271-.188.056-.15-.015-.32-.167-.378l-9.842-3.75c-.15-.059-.317.02-.376.17-.056.154.022.32.17.378l9.842 3.748zm-.257 2.102c.024.004.048.008.072.008.137 0 .258-.093.29-.233.042-.162-.058-.33-.22-.371L.992 21.028c-.163-.037-.328.06-.369.224-.039.164.058.332.224.371l10.55 2.61zm-.137 2.058c.015.002.026.002.037.002.159 0 .296-.118.317-.279.02-.173-.104-.335-.275-.354L.355 24.323c-.174-.021-.33.103-.352.275-.024.175.1.334.276.354l10.981 1.34zm-.015 2.045c.183 0 .337-.15.337-.338 0-.188-.154-.339-.337-.339H.825c-.18 0-.333.15-.333.339 0 .187.154.338.338.338h10.415zm-8.586 2.74c.022.176.17.305.346.305.013 0 .028 0 .04-.005l8.598-1.045c.191-.026.327-.198.304-.393-.024-.19-.198-.328-.387-.301l-8.594 1.045c-.196.027-.33.2-.307.393zm2.296 2.6c.039.158.183.272.346.272.028 0 .058-.005.089-.011l6.655-1.648c.19-.046.308-.244.26-.438-.045-.19-.243-.31-.439-.265l-6.65 1.646c-.194.05-.311.247-.261.443zm2.344 2.16c.056.148.2.242.351.242.044 0 .087-.006.129-.024l4.897-1.87c.192-.07.29-.284.215-.483-.074-.194-.284-.289-.48-.216l-4.897 1.87c-.194.07-.29.286-.215.48zm2.326 1.783c.067.128.202.205.34.205.06 0 .12-.015.177-.046l3.395-1.787c.188-.099.26-.332.16-.522-.098-.188-.33-.26-.519-.162l-3.392 1.788c-.187.1-.261.334-.161.524zm2.283 1.449c.076.111.197.173.323.173.078 0 .159-.024.229-.072l2.145-1.492c.185-.124.228-.37.104-.554-.126-.181-.373-.226-.556-.1l-2.145 1.488c-.183.125-.226.376-.1.557zm2.209 1.17c.078.092.191.135.304.135.098 0 .195-.032.273-.1l1.178-1.047c.169-.154.186-.415.032-.582-.148-.169-.406-.185-.578-.04l-1.177 1.053c-.167.15-.182.41-.032.581zm2.132.932c.081.074.18.11.281.11.117 0 .23-.049.313-.147l.47-.533c.155-.172.14-.44-.034-.597-.174-.151-.44-.138-.595.039l-.472.532c-.151.175-.137.443.037.596zM.724 34.721c.022.094.104.157.195.157.016 0 .033-.002.048-.006l1.477-.367c.106-.028.176-.135.146-.246-.028-.11-.137-.177-.241-.151l-1.477.367c-.109.028-.176.137-.148.247zm.99 3.244c.035.086.116.14.205.14.024 0 .05-.007.076-.014l3.156-1.207c.115-.041.165-.165.125-.275-.043-.113-.167-.165-.277-.129L1.84 37.688c-.11.04-.169.167-.126.277zm1.378 3.1c.039.078.117.121.2.121.034 0 .071-.006.106-.026l4.433-2.336c.109-.06.152-.196.091-.312-.054-.106-.195-.152-.304-.091l-4.433 2.335c-.11.062-.155.199-.093.308zm1.737 2.913c.046.066.12.102.195.102.048 0 .096-.013.137-.04l5.272-3.659c.109-.077.135-.224.063-.331-.078-.11-.226-.139-.335-.064l-5.273 3.658c-.109.077-.135.225-.059.334zm2.077 2.682c.05.057.117.085.186.085.06 0 .12-.021.168-.065l5.68-5.062c.104-.089.112-.248.023-.353-.095-.105-.254-.112-.354-.02l-5.684 5.06c-.102.089-.113.25-.02.355zm2.382 2.41c.048.046.11.067.173.067.075 0 .146-.03.198-.088l5.692-6.457c.097-.112.086-.278-.025-.374-.108-.098-.273-.087-.371.025l-5.689 6.456c-.097.109-.087.275.022.37zm2.661 2.104c.046.028.098.046.15.046.085 0 .17-.041.221-.118l5.335-7.768c.087-.122.054-.29-.068-.373-.121-.086-.289-.055-.369.07l-5.338 7.768c-.083.118-.053.29.07.375zm2.889 1.766c.04.022.087.032.13.032.1 0 .197-.056.247-.15l4.661-8.925c.075-.142.02-.312-.114-.38-.141-.074-.313-.021-.38.116l-4.662 8.93c-.071.136-.02.307.118.377zm3.084 1.408c.035.013.07.019.102.019.12 0 .23-.072.274-.19l3.727-9.885c.056-.153-.018-.32-.17-.382-.15-.054-.319.022-.373.173l-3.73 9.887c-.054.148.018.321.17.378zm3.228 1.023c.026.007.05.011.073.011.137 0 .259-.096.293-.233l2.598-10.6c.046-.16-.056-.328-.217-.368-.163-.042-.328.061-.37.22l-2.6 10.604c-.038.162.062.327.223.366zm3.33.627l.043.002c.154 0 .29-.116.308-.277l1.336-11.038c.02-.174-.105-.332-.276-.353-.174-.023-.332.1-.352.274l-1.333 11.04c-.022.175.102.33.273.352zm3.047-.83c0 .186.154.339.336.339.185 0 .337-.153.337-.338V44.7c0-.187-.152-.338-.337-.338-.182 0-.336.151-.336.338V55.17zm3.007-2.143c.025.174.174.306.348.306h.041c.192-.027.327-.199.304-.393l-1.044-8.635c-.022-.192-.195-.33-.389-.305-.189.024-.323.196-.302.386l1.042 8.64zm2.54-2.27c.041.166.191.277.354.277.028 0 .056-.002.085-.011.193-.048.308-.242.262-.438l-1.644-6.686c-.046-.194-.243-.312-.436-.264-.19.048-.307.245-.26.439l1.639 6.683zm2.11-2.305c.055.15.197.242.347.242.043 0 .089-.01.132-.024.191-.071.286-.29.215-.482l-1.853-4.926c-.076-.194-.29-.29-.484-.216-.191.072-.29.288-.215.482l1.857 4.924zm1.735-2.283c.069.131.201.207.339.207.06 0 .123-.015.18-.045.188-.1.26-.334.162-.52l-1.783-3.411c-.1-.188-.33-.262-.517-.162-.189.099-.263.332-.163.522l1.782 3.41zm1.41-2.235c.075.116.201.177.327.177.076 0 .156-.024.224-.072.18-.127.223-.374.097-.56l-1.479-2.153c-.126-.184-.373-.227-.553-.103-.183.13-.224.374-.103.555l1.486 2.156zm1.137-2.154c.08.092.194.138.306.138.1 0 .194-.031.274-.1.168-.152.182-.411.03-.582l-1.044-1.182c-.148-.173-.409-.188-.574-.037-.17.152-.184.412-.037.577l1.045 1.186zm.91-2.071c.083.072.18.104.282.104.116 0 .23-.048.314-.142.153-.172.136-.442-.035-.596l-.533-.471c-.171-.155-.438-.142-.593.035-.156.175-.14.444.037.594l.528.476zm-6.066 15.42c.022.092.104.153.195.153.018 0 .033-.002.05-.007.109-.027.176-.137.15-.244l-.367-1.486c-.026-.106-.137-.174-.246-.147-.106.026-.171.137-.147.249l.365 1.482zm3.195-.976c.032.086.113.14.198.14.025 0 .052-.007.077-.014.113-.045.168-.17.127-.279l-1.2-3.175c-.043-.11-.167-.168-.278-.123-.108.038-.164.167-.121.276l1.197 3.175zM40.56 52.8c.037.076.117.12.2.12.032 0 .072-.01.104-.028.11-.055.154-.195.098-.308l-2.329-4.45c-.056-.111-.197-.157-.306-.098-.108.058-.155.196-.096.309l2.329 4.455zm2.873-1.71c.044.065.12.101.196.101.048 0 .096-.012.137-.043.104-.08.134-.223.058-.336l-3.64-5.295c-.074-.105-.221-.138-.33-.061-.109.076-.137.226-.06.336l3.64 5.297zm2.646-2.048c.05.055.117.082.185.082.06 0 .121-.02.167-.063.106-.091.115-.251.021-.356l-5.034-5.711c-.09-.103-.248-.111-.352-.022-.107.096-.113.253-.022.36l5.035 5.71zm2.383-2.353c.047.046.11.067.173.067.074 0 .148-.028.198-.09.093-.106.089-.277-.023-.375l-6.428-5.718c-.105-.096-.271-.083-.367.021-.1.112-.087.278.02.376l6.427 5.719zm2.09-2.628c.045.035.097.05.149.05.085 0 .17-.042.22-.115.082-.125.053-.293-.068-.374l-7.73-5.362c-.12-.086-.286-.055-.371.067-.086.122-.055.289.067.375l7.732 5.359zm1.754-2.853c.041.022.087.03.128.03.1 0 .198-.054.248-.148.074-.14.02-.306-.117-.379l-8.886-4.684c-.135-.073-.304-.02-.374.113-.073.142-.021.31.115.384l8.886 4.684zm1.403-3.047c.033.013.068.02.104.02.116 0 .226-.072.272-.19.057-.15-.02-.317-.17-.375l-9.841-3.753c-.148-.056-.32.02-.376.173-.058.148.022.319.17.375l9.841 3.75zm1.025-3.19c.024.003.048.006.072.006.139 0 .265-.092.297-.231.042-.164-.06-.328-.22-.37l-10.549-2.61c-.162-.04-.33.056-.37.225-.04.161.06.328.223.367l10.547 2.612zm.675-3.294c.16 0 .294-.116.316-.278.02-.174-.102-.331-.274-.351l-10.986-1.34c-.171-.024-.326.103-.352.274-.02.175.104.335.276.354l10.984 1.34h.036zm-.507-3.34c.182 0 .332-.148.332-.338 0-.188-.15-.339-.337-.339H44.483c-.186 0-.334.156-.334.339 0 .19.148.338.334.338h10.42zM43.785 26.06c.02.175.17.306.342.306l.043-.002 8.595-1.05c.194-.024.33-.198.307-.388-.027-.194-.2-.332-.391-.308l-8.595 1.05c-.189.024-.328.198-.301.392zm-.364-1.914c.044.164.187.276.35.276.028 0 .059-.003.089-.012l6.65-1.645c.194-.05.314-.245.264-.441-.046-.194-.241-.312-.434-.264l-6.656 1.648c-.191.045-.308.244-.263.438zm-.583-1.85c.054.15.192.242.344.242.046 0 .09-.01.135-.026l4.9-1.869c.193-.071.287-.288.215-.482-.074-.195-.289-.288-.482-.216l-4.898 1.866c-.191.072-.287.29-.214.485zm-.81-1.766c.073.129.208.205.347.205.058 0 .119-.013.173-.044l3.395-1.79c.189-.096.263-.331.16-.521-.099-.188-.331-.262-.518-.166l-3.393 1.792c-.189.098-.26.332-.163.524zm-1.007-1.657c.078.114.2.175.328.175.078 0 .159-.022.226-.072l2.146-1.49c.18-.128.224-.375.1-.555-.122-.183-.372-.227-.55-.103l-2.15 1.49c-.178.127-.224.374-.1.555zm-1.196-1.519c.08.092.193.14.304.14.095 0 .193-.035.271-.103l1.18-1.05c.166-.148.182-.41.032-.58-.15-.17-.41-.186-.576-.033l-1.181 1.048c-.167.15-.183.408-.03.578zm-1.375-1.362c.08.072.18.107.278.107.117 0 .232-.048.317-.144l.469-.53c.156-.177.139-.444-.035-.599-.173-.152-.44-.139-.595.037l-.471.535c-.154.173-.137.44.037.594zM70.996 28.384L70.996 5.37 75.61 5.37 75.61 15.589 84.934 5.37 91.139 5.37 82.533 14.334 91.607 28.384 85.635 28.384 79.352 17.583 75.61 21.429 75.61 28.384zM94.661 28.384L99.241 28.384 99.241 5.37 94.661 5.37zM102.295 28.384L102.295 24.192 114.633 9.263 103.689 9.263 103.689 5.37 120.882 5.37 120.882 8.981 108.015 24.506 121.379 24.506 121.379 28.384zM138.85 19.278l-3.145-8.54-3.083 8.54h6.228zm8.485 9.106h-5.013l-1.992-5.228h-9.125l-1.883 5.228h-4.889l8.89-23.014h4.873l9.139 23.014zM155.932 9.263v15.243h3.57c1.334 0 2.298-.073 2.89-.22.775-.188 1.419-.507 1.93-.958.512-.45.93-1.19 1.252-2.22.323-1.031.484-2.436.484-4.216 0-1.779-.161-3.144-.484-4.097-.323-.952-.775-1.695-1.357-2.23-.582-.533-1.319-.894-2.212-1.082-.669-.146-1.976-.22-3.925-.22h-2.148zm-4.78-3.893h8.737c1.97 0 3.472.147 4.505.44 1.39.397 2.58 1.104 3.57 2.119.99 1.015 1.745 2.258 2.26 3.728.518 1.47.776 3.284.776 5.44 0 1.893-.242 3.526-.726 4.897-.593 1.675-1.438 3.03-2.535 4.065-.83.786-1.95 1.397-3.36 1.837-1.055.325-2.466.488-4.231.488h-8.996V5.37z"/>
        <path fill="#E10E49" d="M72.514 36.055c.423 0 .772-.356.772-.775 0-.417-.35-.76-.772-.76-.406 0-.755.343-.755.76 0 .419.35.775.755.775M74.04 36.055c.416 0 .772-.356.772-.775 0-.417-.356-.76-.772-.76-.414 0-.754.343-.754.76 0 .419.34.775.754.775M80.913 42.192c-.417 0-.757.345-.757.76 0 .416.34.774.757.774.413 0 .77-.358.77-.774 0-.415-.357-.76-.77-.76M78.622 42.192c-.43 0-.756.345-.756.76 0 .416.327.774.756.774.414 0 .77-.358.77-.774 0-.415-.356-.76-.77-.76"/>
        <path fill="#E10E49" d="M73.98 38.319c0 .5-.069.868-.198 1.093-.151.275-.432.407-.819.407-.39 0-.67-.132-.82-.407-.129-.225-.199-.594-.199-1.093 0-.5.07-.866.2-1.082.149-.264.43-.398.819-.398h1.016v1.48zm11.3 1.482v-1.91c0-.582.36-1.022.958-1.022.299 0 .568.143.808.44l.709-.653c-.399-.398-.87-.601-1.408-.601-.627 0-1.128.194-1.485.58-.351.377-.53.857-.53 1.42V39.8l-2.955.018c-.658 0-.988-.336-.988-1.01v-2.754l-.938.283v2.442c0 .692-.33 1.04-.998 1.04h-2.547c-.648 0-.978-.348-.978-1.04v-2.725h-2.026c-1.266 0-1.906.754-1.906 2.264 0 1.563.64 2.339 1.906 2.339.749 0 1.238-.235 1.466-.716.21.481.71.716 1.488.716h2.656c.609 0 1.08-.184 1.416-.54.34.356.8.54 1.389.54h7.237l-.708-.857H85.28zM94.659 36.055c.413 0 .765-.356.765-.775 0-.417-.352-.76-.765-.76-.408 0-.762.343-.762.76 0 .419.354.775.762.775"/>
        <path fill="#E10E49" d="M105.721 39.859h-4.524c.042-.544.325-1.086.863-1.647.598-.648 1.247-.97 1.968-.97.589 0 1.035.227 1.348.684.256.391.375.874.375 1.464 0 .162-.01.315-.03.469zm4.77-.972c0 .648-.336.972-.994.972h-2.802c.041-1.028-.11-1.809-.456-2.351-.497-.752-1.247-1.123-2.233-1.094-1.124.027-2.008.496-2.645 1.41-.295.407-.519.854-.65 1.329v-1.96l-.964.256v2.41l-3.075.017c-.669 0-1.005-.313-1.005-.941v-2.568l-.952.264v2.276c0 .645-.336.969-1.015.969l-2.922-.017c-.336 0-.497-.154-.497-.458v-4.88l-.964.284v4.624c0 .732.476 1.229 1.339 1.229h3.104c.619 0 1.095-.171 1.44-.504.346.333.813.504 1.411.504h12.937c.577 0 1.045-.163 1.39-.478.345-.321.517-.723.517-1.206V34.54l-.963.265v4.082zM111.455 40.658L112.982 40.658 112.982 34.521 111.455 34.805zM118.319 36.055c.413 0 .77-.356.77-.775 0-.417-.357-.76-.77-.76-.417 0-.757.343-.757.76 0 .419.34.775.757.775M116.795 36.055c.418 0 .767-.356.767-.775 0-.417-.349-.76-.767-.76-.41 0-.76.343-.76.76 0 .419.35.775.76.775M123.67 36.055c.41 0 .763-.35.763-.76 0-.423-.354-.774-.763-.774-.414 0-.764.351-.764.774 0 .41.35.76.764.76M127.476 42.192c-.426 0-.753.345-.753.76 0 .416.327.774.753.774.417 0 .774-.358.774-.774 0-.415-.357-.76-.774-.76"/>
        <path fill="#E10E49" d="M128.242 42.192c-.416 0-.755.345-.755.76 0 .416.339.774.755.774.414 0 .771-.358.771-.774 0-.415-.357-.76-.77-.76M139.714 36.055c.414 0 .75-.356.75-.775 0-.417-.336-.76-.75-.76-.426 0-.776.343-.776.76 0 .419.35.775.776.775M123.201 39.248c-.184.315-.44.533-.773.639-.323-.106-.579-.324-.774-.64-.167-.273-.244-.578-.244-.912 0-.648.38-1.17 1.018-1.17.666 0 1.027.522 1.027 1.17 0 .334-.087.64-.254.913zm-5.762-.771c0 .466-.07.81-.196 1.02-.147.256-.422.379-.805.379-.382 0-.656-.123-.802-.38-.127-.21-.196-.553-.196-1.019 0-.466.07-.807.196-1.008.146-.246.42-.371.802-.371h1.001v1.379zm21.35-2.11c-.794 0-1.51.312-2.166.931l.667.599c.46-.484.96-.732 1.499-.732.637 0 1.067.267 1.283.8.137.322.206.847.206 1.567v.344l-6.481-.017c-.637 0-.96-.307-.96-.924V34.52l-.93.284v4.082c0 .645-.325.972-.972.972l-2.53.017c-.647 0-.97-.313-.97-.941v-2.568l-.922.264v2.276c0 .645-.321.969-.98.969h-1.803c.402-.427.607-.883.627-1.351.009-.599-.127-1.093-.4-1.472-.333-.458-.845-.686-1.53-.686-.675 0-1.185.228-1.53.686-.272.38-.4.873-.381 1.472.008.468.206.924.609 1.351h-1.797c-.635 0-.958-.324-.958-.97v-2.54h-1.99c-1.244 0-1.871.704-1.871 2.111 0 1.457.627 2.18 1.871 2.18.734 0 1.214-.218 1.441-.667.204.45.696.668 1.458.668h2.57c.205 0 .392-.02.579-.059.195.039.39.059.577.059h2.588c.599 0 1.059-.171 1.392-.504.334.333.782.504 1.363.504h2.645c.598 0 1.06-.171 1.383-.515.342.344.794.515 1.36.515h7.492v-1.126c0-.921-.127-1.635-.383-2.119-.382-.695-1.067-1.046-2.056-1.046zM148.092 36.055c.413 0 .77-.356.77-.775 0-.417-.357-.76-.77-.76-.417 0-.757.343-.757.76 0 .419.34.775.757.775M145.801 36.055c.423 0 .77-.356.77-.775 0-.417-.347-.76-.77-.76-.41 0-.756.343-.756.76 0 .419.346.775.756.775M153.444 36.055c.406 0 .761-.356.761-.775 0-.417-.355-.76-.761-.76-.413 0-.765.343-.765.76 0 .419.352.775.765.775M155.739 42.192c-.414 0-.77.345-.77.76 0 .416.356.774.77.774.399 0 .757-.358.757-.774 0-.415-.358-.76-.757-.76M148.121 38.319c0 .5-.071.868-.205 1.093-.154.275-.444.407-.845.407-.401 0-.688-.132-.843-.407-.135-.225-.205-.594-.205-1.093 0-.5.07-.866.205-1.082.155-.264.442-.398.843-.398h1.05v1.48zm9.696.46c0 .693-.34 1.04-1.019 1.04h-1.05c-.68 0-1.018-.336-1.018-1.01v-2.754l-.969.283v2.442c0 .692-.338 1.04-1.027 1.04h-2.626c-.67 0-1.008-.348-1.008-1.04v-2.725h-2.09c-1.307 0-1.965.754-1.965 2.264 0 1.563.658 2.339 1.965 2.339.77 0 1.275-.235 1.513-.716.215.481.731.716 1.531.716h2.74c.629 0 1.112-.184 1.462-.54.35.356.824.54 1.43.54h1.164c.585 0 1.06-.174 1.41-.513.35-.335.526-.775.526-1.293v-2.797l-.97.283v2.442z"/>
        <path fill="#E10E49" d="M157.272 42.192c-.426 0-.776.345-.776.76 0 .416.35.774.776.774.41 0 .75-.358.75-.774 0-.415-.34-.76-.75-.76M168.371 39.83c-.638 0-.955-.451-.955-1.363 0-.909.317-1.368.955-1.368.63 0 .948.46.948 1.368 0 .912-.318 1.362-.948 1.362m1.469-2.874c-.318-.46-.811-.685-1.469-.685-.666 0-1.16.225-1.477.685-.261.39-.397.89-.397 1.512v.33c0 .684-.318 1.02-.947 1.02l-2.928-.018v-1.995c0-.533-.176-.952-.533-1.269-.357-.316-.81-.48-1.38-.48-.435 0-.87.204-1.305.603v1.107c.318-.594.754-.891 1.304-.891.667 0 1.007.336 1.007 1.002v1.942h-2.378l-.551.84h6.823c.639 0 1.112-.184 1.419-.542.34.358.784.542 1.343.542.658 0 1.151-.235 1.469-.696.26-.38.397-.88.397-1.495 0-.622-.137-1.122-.397-1.512M70.996 50.63L70.996 45.26 72.021 45.26 72.021 47.645 74.093 45.26 75.472 45.26 73.56 47.352 75.576 50.63 74.249 50.63 72.853 48.111 72.021 49.007 72.021 50.63zM76.339 50.63L76.339 45.26 77.497 45.26 77.497 47.374 79.762 47.374 79.762 45.26 80.92 45.26 80.92 50.63 79.762 50.63 79.762 48.282 77.497 48.282 77.497 50.63zM84.284 48.505l-.734-1.992-.72 1.992h1.454zm1.98 2.125h-1.17l-.465-1.22h-2.13l-.438 1.22H80.92l2.074-5.37h1.138l2.131 5.37zM87.027 50.63L87.027 45.26 88.122 45.26 88.122 49.718 90.844 49.718 90.844 50.63zM90.844 50.63L92.371 50.63 92.371 45.26 90.844 45.26zM93.134 50.63L93.134 45.26 96.951 45.26 96.951 46.169 94.258 46.169 94.258 47.44 96.582 47.44 96.582 48.349 94.258 48.349 94.258 50.63zM99.551 48.505l-.733-1.992-.72 1.992h1.453zm1.98 2.125h-1.17l-.465-1.22h-2.128l-.44 1.22h-1.14l2.074-5.37H99.4l2.132 5.37zM104.585 50.63L106.112 50.63 106.112 45.26 104.585 45.26zM106.112 50.63L106.112 45.26 107.246 45.26 109.609 48.847 109.609 45.26 110.692 45.26 110.692 50.63 109.522 50.63 107.196 47.129 107.196 50.63zM112.558 46.169v3.556h.824c.309 0 .53-.017.667-.052.18-.043.327-.118.445-.222.118-.105.215-.278.289-.519.075-.24.112-.568.112-.983 0-.416-.037-.734-.112-.956-.074-.222-.178-.395-.313-.52-.134-.125-.304-.209-.51-.253-.154-.034-.456-.051-.906-.051h-.496zm-1.103-.909h2.016c.455 0 .802.035 1.04.103.321.093.595.258.824.495.229.236.402.526.522.87.12.343.179.765.179 1.269 0 .442-.057.823-.167 1.142-.138.39-.333.707-.587.949-.19.183-.45.326-.775.428-.243.076-.569.114-.975.114h-2.077v-5.37zM117.563 45.26h1.16v2.86c0 .454.014.748.043.882.05.216.167.39.354.52.187.132.442.197.766.197.33 0 .577-.062.745-.186.167-.123.267-.275.302-.455.033-.18.05-.478.05-.897v-2.92h1.16v2.772c0 .635-.03 1.082-.094 1.344-.063.262-.178.483-.347.662-.168.18-.393.324-.675.431-.282.107-.65.16-1.106.16-.548 0-.964-.058-1.247-.174-.284-.117-.507-.268-.672-.455-.165-.185-.273-.38-.325-.585-.076-.302-.115-.748-.115-1.339V45.26zM122.143 48.85l1.106-.1c.067.343.202.594.405.754.205.161.479.241.825.241.366 0 .642-.071.828-.214.185-.142.279-.31.279-.501 0-.123-.04-.227-.117-.313-.078-.086-.215-.162-.41-.225-.133-.043-.437-.117-.91-.227-.61-.139-1.038-.31-1.284-.513-.345-.285-.518-.633-.518-1.044 0-.264.081-.512.244-.741.162-.23.396-.406.703-.526.306-.12.675-.18 1.108-.18.707 0 1.239.142 1.597.428.357.285.545.666.562 1.143l-1.136.046c-.05-.266-.154-.458-.314-.575-.16-.117-.4-.176-.72-.176-.33 0-.59.064-.776.188-.12.08-.18.188-.18.322 0 .123.055.228.168.315.143.112.492.227 1.045.347.554.12.963.245 1.228.374s.473.304.622.527c.15.223.225.499.225.827 0 .297-.09.575-.27.835-.178.26-.432.453-.76.579-.327.126-.736.19-1.225.19-.712 0-1.26-.152-1.641-.456-.382-.302-.61-.745-.684-1.325M128.433 50.63L128.433 46.169 126.723 46.169 126.723 45.26 131.304 45.26 131.304 46.169 129.597 46.169 129.597 50.63zM133.096 47.532h.76c.494 0 .802-.022.925-.066.123-.044.22-.12.288-.227.07-.108.105-.242.105-.403 0-.18-.045-.327-.137-.438-.092-.11-.221-.181-.388-.21-.083-.013-.333-.02-.75-.02h-.803v1.364zm-1.029 3.098v-5.37h2.165c.544 0 .94.05 1.187.146.247.096.445.267.593.514.147.247.222.529.222.846 0 .403-.113.736-.337.998-.225.263-.561.428-1.008.497.222.136.406.287.55.45.145.164.341.454.586.871l.622 1.048h-1.23l-.744-1.168c-.263-.418-.445-.68-.541-.79-.098-.108-.2-.183-.31-.223-.109-.04-.281-.06-.518-.06h-.208v2.241h-1.029z"/>
        <path fill="#E10E49" d="M136.647 50.63L138.174 50.63 138.174 45.26 136.647 45.26zM142.302 48.505l-.734-1.992-.72 1.992h1.454zm1.98 2.125h-1.17l-.465-1.22h-2.13l-.439 1.22h-1.14l2.074-5.37h1.137l2.132 5.37z"/>
        <path fill="#E10E49" d="M144.281 50.63L144.281 45.26 145.376 45.26 145.376 49.718 148.098 49.718 148.098 50.63zM150.388 50.63L150.388 49.652 153.35 46.169 150.723 46.169 150.723 45.26 154.849 45.26 154.849 46.103 151.761 49.725 154.969 49.725 154.969 50.63zM156.115 47.942c0 .588.143 1.033.431 1.337.289.303.654.455 1.098.455.443 0 .807-.15 1.092-.452.284-.3.426-.752.426-1.354 0-.595-.139-1.04-.415-1.332-.277-.293-.645-.44-1.103-.44-.458 0-.828.149-1.108.445-.281.297-.421.743-.421 1.341m-1.146.035c0-.529.083-.973.251-1.332.126-.264.296-.501.513-.712.216-.21.455-.366.713-.467.343-.137.738-.206 1.187-.206.812 0 1.461.238 1.949.712.486.475.73 1.135.73 1.98 0 .839-.242 1.494-.725 1.968-.483.473-1.13.71-1.94.71-.819 0-1.47-.235-1.953-.707-.484-.47-.725-1.12-.725-1.946M161.076 50.63L161.076 45.26 162.211 45.26 164.574 48.847 164.574 45.26 165.656 45.26 165.656 50.63 164.486 50.63 162.16 47.129 162.16 50.63zM166.42 50.63L166.42 45.26 170.886 45.26 170.886 46.169 167.635 46.169 167.635 47.359 170.66 47.359 170.66 48.264 167.635 48.264 167.635 49.725 171 49.725 171 50.63z"/>
    </g>
</svg>
