<svg xmlns="http://www.w3.org/2000/svg" width="67" height="61" viewBox="0 0 67 61">
    <g fill="#E10E49" opacity=".4">
        <path d="M24.823 20.43C42.629 7.237 59.873.56 63.996 6.124c1.132 1.536 1.126 3.674.166 6.241-.222.592-.881.893-1.473.671-.593-.221-.893-.88-.672-1.473.717-1.916.721-3.287.138-4.078-2.872-3.875-18.977 2.31-35.47 14.415l-.5.368C9.516 34.62-1.333 48.455 1.566 52.37c.648.871 2.181 1.26 4.564 1.006.629-.067 1.193.388 1.26 1.017.067.629-.389 1.193-1.017 1.26-3.104.33-5.406-.253-6.646-1.917-4.12-5.567 7.286-20.112 25.097-33.307z" transform="translate(2 2)"/>
        <path d="M32.233-1.145c-16.438 0-29.766 13.326-29.766 29.766 0 16.438 13.328 29.766 29.766 29.766 16.44 0 29.766-13.326 29.766-29.766 0-16.441-13.325-29.766-29.766-29.766zm0 2.29c15.177 0 27.476 12.3 27.476 27.476 0 15.176-12.3 27.476-27.476 27.476-15.173 0-27.476-12.302-27.476-27.476 0-15.175 12.302-27.476 27.476-27.476z" transform="translate(2 2)"/>
        <path d="M60.022 28.044c.633 0 1.145.513 1.145 1.145 0 .59-.446 1.076-1.02 1.138l-.125.007H5.07c-.632 0-1.145-.513-1.145-1.145 0-.59.446-1.076 1.02-1.138l.125-.007h54.952zM55.443 44.072c.632 0 1.145.513 1.145 1.145 0 .59-.447 1.076-1.02 1.138l-.125.007H9.649c-.632 0-1.145-.513-1.145-1.145 0-.59.447-1.076 1.02-1.138l.125-.007h45.794zM53.153 9.727c.633 0 1.145.512 1.145 1.145 0 .59-.446 1.076-1.02 1.138l-.125.006H9.65c-.632 0-1.145-.512-1.145-1.144 0-.59.447-1.076 1.02-1.139l.125-.006h43.504z" transform="translate(2 2)"/>
        <path d="M31.28-.451c.35-.526 1.061-.669 1.587-.319 9.113 6.067 14.821 17.171 14.821 29.405 0 12.234-5.707 23.339-14.82 29.408-.527.35-1.237.208-1.588-.318-.35-.526-.208-1.237.318-1.588 8.464-5.636 13.8-16.02 13.8-27.502S40.062 6.77 31.599 1.136c-.526-.35-.668-1.06-.318-1.587z" transform="translate(2 2)"/>
        <path d="M31.599-.77c.526-.35 1.237-.207 1.587.319.35.526.208 1.237-.319 1.587-8.462 5.634-13.8 16.017-13.8 27.5 0 11.481 5.337 21.865 13.8 27.501.527.35.67 1.062.319 1.588-.35.526-1.061.669-1.588.318-9.113-6.07-14.82-17.174-14.82-29.408 0-12.234 5.708-23.338 14.82-29.405z" transform="translate(2 2)"/>
    </g>
</svg>
