<svg xmlns="http://www.w3.org/2000/svg" xmlns:xlink="http://www.w3.org/1999/xlink" width="306" height="382" viewBox="0 0 306 382">
    <defs>
        <path id="prefix__a" d="M0 0H306V382H0z"/>
    </defs>
    <g fill="none" fill-rule="evenodd" opacity=".4">
        <mask id="prefix__b" fill="#fff">
            <use xlink:href="#prefix__a"/>
        </mask>
        <use fill="#FFF" xlink:href="#prefix__a"/>
        <path fill="#EBEBEB" d="M920.084 255.282c-.473-1.72.624-3.426 2.517-3.828l24.774-5.574c1.793-.428 3.622.606 4.088 2.253.445 1.68-.66 3.394-2.482 3.789l-24.809 5.607c-.25.073-.552.099-.796.099-1.542 0-2.926-.969-3.292-2.346zm-45.28-37.403c.517 1.389 1.929 2.24 3.37 2.24.451 0 .895-.07 1.303-.216l53.98-19.62c1.85-.705 2.78-2.7 2.075-4.507-.714-1.856-2.824-2.742-4.716-2.1l-53.901 19.654c-1.892.677-2.817 2.7-2.11 4.55zm-45.202-31.297c.71 1.24 2.062 1.95 3.473 1.95.55 0 1.18-.146 1.766-.39l75.147-38.024c1.917-.968 2.655-3.197 1.62-4.973-.926-1.838-3.313-2.549-5.158-1.595l-75.22 37.997c-1.88.926-2.619 3.197-1.628 5.035zm-43.156-23.443c.855 1.106 2.072 1.703 3.398 1.703.776 0 1.551-.285 2.254-.702l89.582-59.308c1.848-1.245 2.326-3.691 1.073-5.422-1.326-1.8-3.877-2.232-5.645-.953l-89.662 59.232c-1.768 1.28-2.29 3.685-1 5.45zm-41.14-20.402c.887.906 2.056 1.377 3.196 1.377.952 0 1.991-.36 2.872-1.031L847.51 61.41c1.724-1.48 1.875-4.095.295-5.749-1.544-1.688-4.228-1.833-5.916-.353l-96.18 81.68c-1.768 1.522-1.912 4.089-.404 5.749zm-40.956-15.482c.81.703 1.882 1.065 2.954 1.065 1.253 0 2.469-.466 3.352-1.42l96.671-104.96c1.586-1.803 1.477-4.505-.405-6.1-1.919-1.49-4.692-1.378-6.38.39L703.98 121.19c-1.701 1.769-1.513 4.463.37 6.065zM666.265 115.7c.848.533 1.702.775 2.586.775 1.477 0 2.91-.671 3.794-1.87l90.55-125.561c1.44-1.98.927-4.688-1.137-6.031-2.064-1.378-4.873-.886-6.307 1.122l-90.666 125.569c-1.361 1.938-.883 4.618 1.18 5.996zm-35.967-8.668c.689.387 1.463.56 2.23.56 1.672 0 3.322-.878 4.161-2.425l78.408-143.93c1.205-2.21.365-4.967-1.937-6.128-2.374-1.153-5.186-.31-6.391 1.942L628.36 100.973c-1.248 2.184-.366 4.968 1.937 6.06zm-35.852-6.66c.55.207 1.142.31 1.77.31 1.944 0 3.823-1.153 4.596-3.06l63.2-159.32c.917-2.501-.297-5.174-2.833-6.12-2.58-.884-5.449.31-6.41 2.742L591.614 94.32c-.998 2.397.253 5.097 2.832 6.05zm-33.85-4.805c.44.138.88.18 1.285.18 2.317 0 4.375-1.505 4.967-3.729l43.99-170.796c.736-2.638-.917-5.344-3.712-5.973-2.765-.635-5.56.98-6.217 3.618l-44.025 170.79c-.7 2.637.946 5.282 3.711 5.91zm-33.667-2.781h.634c2.672 0 4.974-1.887 5.345-4.483l22.78-177.38c.4-2.768-1.756-5.33-4.72-5.64-2.92-.365-5.629 1.64-6 4.407L522.225 87.063c-.408 2.81 1.704 5.31 4.704 5.723zm-39.303-5.445c0 2.957 2.71 5.445 5.922 5.445 3.243 0 5.923-2.488 5.923-5.445V-81.412c0-3.02-2.68-5.451-5.923-5.451-3.212 0-5.922 2.432-5.922 5.451V87.341zm-33.555 6.43c.377 2.844 2.924 4.937 5.921 4.937.218 0 .435 0 .697-.034 3.222-.386 5.587-3.189 5.174-6.28L448.09-46.444c-.377-3.017-3.33-5.227-6.618-4.841-3.185.358-5.508 3.16-5.137 6.28L454.07 93.77zm-32.91 6.384c.673 2.673 3.203 4.475 6.002 4.475.483 0 1.002-.075 1.528-.18 3.268-.738 5.285-3.909 4.46-7.072L405.035-10.353c-.812-3.17-4.167-5.098-7.442-4.255-3.355.732-5.366 3.937-4.547 7.031l28.115 107.732zm-32.426 9.485c.911 2.407 3.303 3.874 5.809 3.874.719 0 1.488-.137 2.207-.418 3.232-1.152 4.826-4.608 3.595-7.714l-30.973-78.8c-1.225-3.107-4.812-4.65-8.009-3.498-3.231 1.193-4.855 4.65-3.623 7.762l30.994 78.794zm-29.919 14.371c1.147 2.105 3.44 3.322 5.807 3.322 1.002 0 2.032-.24 3.027-.729 3.179-1.582 4.442-5.323 2.736-8.3l-30.312-54.76c-1.698-3.046-5.654-4.202-8.797-2.634-3.26 1.623-4.515 5.365-2.78 8.418l30.319 54.683zm-28.497 17.334c1.275 1.786 3.372 2.769 5.498 2.769 1.29 0 2.615-.392 3.79-1.155 3.077-1.999 3.812-5.984 1.758-8.89L316.297 99.49c-2.168-2.906-6.312-3.634-9.395-1.607-3.012 1.958-3.82 5.984-1.65 8.849l25.067 34.613zm-26.2 20.311c1.324 1.437 3.181 2.2 5.073 2.2 1.535 0 3.14-.513 4.386-1.62 2.79-2.368 3.07-6.463.645-9.134l-17.174-18.667c-2.46-2.644-6.734-2.914-9.522-.553-2.747 2.415-3.041 6.537-.575 9.148l17.167 18.626zM281.594 185.9c1.326 1.1 2.983 1.645 4.64 1.645 1.933 0 3.844-.755 5.198-2.232 2.517-2.744 2.27-6.971-.571-9.398l-8.794-7.464c-2.913-2.394-7.292-2.124-9.817.586-2.588 2.778-2.334 6.972.578 9.379l8.766 7.484zm102.62-241.756c.439 1.561 1.764 2.554 3.28 2.554.29 0 .546-.035.83-.07 1.841-.437 2.925-2.227 2.458-4.031l-6.065-24c-.426-1.77-2.24-2.824-4.04-2.408-1.877.472-2.96 2.2-2.522 3.996l6.058 23.96zm-40.85 44.758c.594 1.363 1.927 2.214 3.405 2.214.442 0 .84-.076 1.29-.249 1.913-.637 2.804-2.678 2.145-4.443l-20.375-51.287c-.74-1.765-2.819-2.713-4.695-2.042-1.877.664-2.805 2.678-2.138 4.512l20.368 51.295zm-31.817 42.73c.669 1.226 2.005 1.929 3.371 1.929.632 0 1.257-.145 1.816-.462 1.962-.875 2.623-3.156 1.664-4.906l-39.636-71.62c-1.032-1.812-3.37-2.515-5.216-1.536-1.918.916-2.666 3.163-1.62 4.913l39.621 71.681zm-25.8 42.676c.784 1.092 2.04 1.697 3.333 1.697.813 0 1.67-.25 2.367-.75 1.772-1.17 2.295-3.61 1.003-5.377l-61.922-85.943c-1.336-1.801-3.856-2.24-5.664-.995-1.888 1.176-2.324 3.617-1.068 5.418l61.95 85.95zm-21.724 39.812c.808.915 2.021 1.368 3.191 1.368.996 0 1.986-.316 2.802-.983 1.769-1.505 1.906-4.096.397-5.74l-85.29-91.559c-1.545-1.718-4.23-1.897-6.029-.384-1.726 1.498-1.92 4.062-.332 5.705l85.26 91.593zm-15.768 39.802c.814.698 1.852 1.05 2.92 1.05 1.228 0 2.449-.49 3.371-1.402 1.591-1.801 1.483-4.5-.377-6.047l-109.5-92.17c-1.846-1.54-4.7-1.408-6.321.394-1.67 1.76-1.482 4.432.4 6.005l109.507 92.17zm-12.56 36.793c.81.528 1.692.779 2.575.779 1.475 0 2.87-.675 3.724-1.877 1.475-2.023.918-4.713-1.114-6.09l-131.091-87c-2.061-1.382-4.896-.882-6.299 1.134-1.475 1.995-.918 4.713 1.114 6.054l131.091 87zm-10.582 36.774c.696.353 1.421.527 2.153.527 1.723 0 3.33-.846 4.17-2.434 1.17-2.267.359-5.02-1.938-6.15L79.97 143.642c-2.296-1.166-5.153-.278-6.387 1.906-1.213 2.191-.295 4.95 1.966 6.143l149.564 75.798zm-4.737 33.769c.549.214 1.178.318 1.727.318 1.988 0 3.868-1.122 4.605-3.027.954-2.44-.26-5.19-2.834-6.111L57.021 191.816c-2.53-.963-5.37.312-6.368 2.744-.955 2.473.368 5.154 2.877 6.103l166.846 60.595zm-4.564 34.73c.404.068.807.136 1.211.136 2.314 0 4.368-1.495 4.916-3.72.699-2.572-.988-5.247-3.741-5.91L39.95 244.92c-2.76-.587-5.55.976-6.242 3.576-.663 2.607.98 5.296 3.777 5.917l178.327 41.576zm-3.653 32.669c.252.04.438.04.617.04 2.67 0 4.972-1.892 5.338-4.47.33-2.77-1.758-5.355-4.642-5.664l-184.8-21.413c-2.927-.343-5.553 1.645-5.92 4.402-.4 2.797 1.68 5.348 4.643 5.663l184.764 21.442zm.293 33.601c3.086 0 5.696-2.425 5.696-5.429 0-3.016-2.61-5.428-5.696-5.428H36.253c-3.05 0-5.653 2.412-5.653 5.428 0 3.004 2.603 5.43 5.725 5.43h176.127zM67.167 406.601c.375 2.899 2.867 5.011 5.84 5.011.217 0 .469 0 .692-.084l145.199-17.117c3.226-.436 5.53-3.25 5.127-6.443-.403-3.11-3.334-5.362-6.524-4.927L72.345 400.159c-3.298.435-5.574 3.263-5.178 6.442zm37.66 41.057c.668 2.581 3.111 4.425 5.88 4.425.48 0 .994-.07 1.516-.174l113.16-26.755c3.247-.744 5.241-3.965 4.43-7.117-.777-3.088-4.14-5.036-7.462-4.292l-113.086 26.72c-3.292.821-5.286 4.007-4.437 7.193zm40.697 34.15c.946 2.35 3.359 3.835 5.901 3.835.738 0 1.461-.101 2.163-.386l82.246-29.624c3.216-1.106 4.856-4.493 3.617-7.635-1.246-3.075-4.777-4.574-8.057-3.428l-82.26 29.624c-3.244 1.113-4.856 4.527-3.61 7.615zm39.812 29.138c1.135 2.08 3.411 3.323 5.745 3.323.99 0 2.01-.25 2.958-.75l57.169-28.937c3.173-1.588 4.387-5.37 2.707-8.443-1.652-3.038-5.558-4.204-8.739-2.622l-57.133 28.95c-3.137 1.617-4.387 5.405-2.707 8.479zm37.969 24.176c1.272 1.833 3.31 2.837 5.419 2.837 1.315 0 2.666-.393 3.832-1.18l35.972-24.438c3.096-2.03 3.825-6.073 1.745-9.078-2.11-2.97-6.255-3.707-9.322-1.643l-35.973 24.39c-3.06 2.043-3.79 6.15-1.673 9.112zm38.034 17.483c1.32 1.454 3.219 2.134 5.11 2.134 1.65 0 3.284-.51 4.603-1.59l19.798-16.601c2.838-2.44 3.132-6.578.537-9.221-2.48-2.685-6.824-2.936-9.712-.626l-19.784 16.69c-2.81 2.385-3.068 6.51-.552 9.214zm35.157 16.21c1.334 1.165 2.985 1.717 4.644 1.717 1.933 0 3.81-.761 5.172-2.304l7.798-8.376c2.555-2.708 2.3-6.933-.572-9.4-2.879-2.371-7.296-2.162-9.85.614l-7.805 8.375c-2.513 2.75-2.266 6.96.613 9.373zM34.656 464.495c.366 1.432 1.749 2.393 3.283 2.393.258 0 .552-.033.803-.092l24.83-5.603c1.784-.431 2.953-2.059 2.444-3.759-.466-1.673-2.294-2.7-4.05-2.308l-24.83 5.603c-1.82.432-2.953 2.092-2.48 3.766zm16.915 52.432c.59 1.41 1.97 2.276 3.49 2.276.407 0 .85-.112 1.294-.223l53.803-19.658c1.97-.677 2.814-2.695 2.145-4.482-.742-1.843-2.85-2.695-4.733-2.101l-53.847 19.679c-1.89.663-2.886 2.722-2.152 4.51zm22.935 50.632c.658 1.275 1.982 1.985 3.386 1.985.594 0 1.216-.104 1.81-.432l75.227-37.969c1.845-.982 2.583-3.19 1.548-5.071-.919-1.735-3.314-2.48-5.16-1.491l-75.234 37.976c-1.874.996-2.62 3.225-1.577 5.002zm28.89 46.716c.783 1.07 2.03 1.662 3.32 1.662.81 0 1.63-.209 2.325-.668l89.584-59.364c1.855-1.245 2.29-3.644 1.065-5.375-1.318-1.78-3.833-2.253-5.68-1.043l-89.614 59.371c-1.847 1.245-2.29 3.65-1 5.417zm35.884 42.73c.837.913 1.984 1.376 3.16 1.376 1.025 0 2.021-.352 2.83-1.05l96.124-81.714c1.761-1.44 1.905-4.005.39-5.7-1.61-1.701-4.286-1.805-5.982-.318l-96.19 81.658c-1.732 1.446-1.92 4.06-.332 5.748zm39.902 38.772c.811.752 1.883 1.1 2.948 1.1 1.26 0 2.477-.494 3.361-1.44l96.677-104.92c1.652-1.81 1.47-4.504-.413-6.064-1.847-1.594-4.643-1.42-6.309.397l-96.633 104.905c-1.652 1.768-1.478 4.47.369 6.022zm44.885 33.927c.775.45 1.658.734 2.542.734 1.44 0 2.875-.664 3.758-1.904l90.595-125.53c1.477-1.973.92-4.688-1.144-6.03-2.064-1.379-4.91-.88-6.271 1.135l-90.66 125.523c-1.405 1.91-.89 4.694 1.18 6.072zm48.918 27.847c.682.353 1.456.526 2.181.526 1.686 0 3.329-.912 4.168-2.426l78.42-143.906c1.248-2.287.337-5.023-1.93-6.128-2.375-1.189-5.266-.339-6.392 1.879l-78.427 143.969c-1.205 2.21-.33 4.96 1.98 6.086zm51.99 22.918c.585.207 1.178.31 1.72.31 2.031 0 3.903-1.153 4.648-3.059l63.174-159.29c.96-2.465-.297-5.171-2.87-6.159-2.544-.877-5.407.352-6.332 2.79l-63.217 159.324c-.918 2.39.296 5.172 2.877 6.084zm54.02 16.911c.441.11.846.18 1.243.18 2.325 0 4.383-1.547 4.968-3.763l43.996-170.786c.773-2.596-.96-5.296-3.682-5.938-2.759-.67-5.553.988-6.253 3.549L375.24 791.478c-.664 2.61 1.032 5.275 3.755 5.903zm57.083 10.016c.255 0 .48.035.735.035 2.636 0 4.966-1.86 5.264-4.449l22.81-177.38c.336-2.796-1.783-5.33-4.703-5.675-2.977-.358-5.679 1.612-6.013 4.414l-22.767 177.409c-.372 2.802 1.74 5.295 4.674 5.646zm51.548-13.312c0 2.984 2.71 5.45 5.922 5.45 3.243 0 5.923-2.466 5.923-5.45V625.336c0-3.018-2.68-5.45-5.923-5.45-3.212 0-5.922 2.432-5.922 5.45v168.75zm51.339-35.002c.414 2.81 2.961 4.917 5.923 4.917h.696c3.266-.427 5.553-3.188 5.175-6.308l-17.775-138.781c-.37-3.079-3.324-5.29-6.619-4.903-3.215.385-5.509 3.153-5.139 6.211l17.739 138.864zm42.085-36.067c.709 2.68 3.282 4.462 6.074 4.462.483 0 .965-.028 1.455-.173 3.31-.766 5.277-3.895 4.495-7.059l-28.185-107.784c-.782-3.129-4.166-5.021-7.478-4.248-3.238.767-5.255 3.938-4.466 7.067l28.105 107.735zm35.73-36.915c.932 2.407 3.296 3.868 5.803 3.868.726 0 1.488-.165 2.207-.384 3.198-1.146 4.786-4.644 3.596-7.716l-30.947-78.85c-1.268-3.108-4.857-4.644-8.09-3.464-3.19 1.159-4.82 4.609-3.589 7.716l31.02 78.83zm29.264-36.962c1.176 2.097 3.434 3.32 5.771 3.32 1.024 0 2.105-.24 3.064-.735 3.215-1.609 4.435-5.35 2.773-8.333l-30.358-54.747c-1.699-3.011-5.619-4.194-8.798-2.585-3.216 1.575-4.48 5.315-2.774 8.368l30.322 54.712zm23.846-36.029c1.276 1.86 3.41 2.828 5.538 2.828 1.291 0 2.647-.37 3.793-1.153 3.044-2.025 3.772-5.978 1.645-8.95l-25.017-34.503c-2.128-2.937-6.318-3.637-9.361-1.64-3.087 2.066-3.786 5.978-1.731 8.881l25.133 34.537zm19.19-34.874c1.317 1.445 3.175 2.167 5.032 2.167 1.64 0 3.175-.486 4.493-1.58 2.762-2.383 3-6.469.505-9.156l-17.173-18.636c-2.432-2.721-6.715-2.958-9.427-.58-2.79 2.396-3.028 6.495-.61 9.101l17.18 18.684zm14.982-34.026c1.36 1.14 2.982 1.645 4.66 1.645 1.91 0 3.812-.755 5.18-2.232 2.544-2.712 2.262-6.968-.578-9.39l-8.797-7.412c-2.84-2.442-7.252-2.233-9.804.553-2.587 2.752-2.333 6.981.613 9.342l8.726 7.494zM602.365 794.104c.37 1.484 1.732 2.47 3.251 2.47.291 0 .547-.035.83-.104 1.811-.438 2.933-2.228 2.5-3.955l-6.112-24.07c-.433-1.707-2.28-2.803-4.09-2.38-1.767.43-2.853 2.227-2.456 4.038l6.077 24zm53.907-16.566c.55 1.377 1.92 2.255 3.36 2.255.435 0 .884-.11 1.32-.221 1.918-.74 2.846-2.74 2.143-4.512l-20.36-51.28c-.747-1.757-2.847-2.712-4.73-1.972-1.84.602-2.796 2.685-2.072 4.443l20.339 51.287zm51.119-21.397c.624 1.234 1.998 1.937 3.4 1.937.56 0 1.227-.173 1.78-.448 1.888-.89 2.63-3.136 1.663-4.955l-39.674-71.57c-.951-1.785-3.356-2.529-5.209-1.578-1.852.944-2.637 3.156-1.634 4.975l39.674 71.64zm49.246-27.364c.74 1.064 2.033 1.662 3.325 1.662.82 0 1.634-.208 2.338-.71 1.771-1.279 2.287-3.615.987-5.444l-61.97-85.94c-1.263-1.711-3.775-2.24-5.626-.995-1.844 1.238-2.33 3.679-1.03 5.452l61.976 85.975zm44.375-33.218c.845.873 1.986 1.32 3.128 1.32 1.032 0 2.058-.317 2.83-1.011 1.806-1.471 1.95-4.035.369-5.713l-85.272-91.635c-1.51-1.65-4.196-1.78-5.966-.344-1.805 1.533-1.906 4.056-.36 5.768l85.271 91.615zm40.444-38.26c.814.738 1.89 1.083 2.957 1.083 1.257 0 2.514-.448 3.364-1.443 1.599-1.719 1.519-4.467-.392-6.048l-109.522-92.146c-1.78-1.54-4.621-1.34-6.249.346-1.707 1.802-1.482 4.467.334 6.048l109.508 92.16zm35.93-41.188c.767.57 1.65.814 2.532.814 1.439 0 2.878-.681 3.725-1.87 1.395-2.024.918-4.757-1.136-6.064l-131.119-87.029c-2.032-1.384-4.86-.883-6.3 1.092-1.446 1.982-.918 4.687 1.144 6.091l131.154 86.966zm28.796-47.051c.697.347 1.464.485 2.16.485 1.68 0 3.323-.88 4.163-2.4 1.248-2.26.33-4.952-1.974-6.138l-149.543-75.822c-2.267-1.172-5.109-.326-6.286 1.838-1.234 2.29-.359 5.015 1.938 6.208l149.542 75.829zm23.888-48.193c.55.214 1.142.311 1.763.311 1.952 0 3.823-1.156 4.604-3.061.961-2.438-.332-5.119-2.876-6.067l-166.804-60.653c-2.5-.914-5.413.319-6.367 2.791-.99 2.397.368 5.153 2.876 6.068l166.804 60.61zm17.07-53.094c.41.069.814.103 1.21.103 2.35 0 4.482-1.462 5.03-3.683.698-2.61-1.024-5.226-3.733-5.889l-178.232-41.615c-2.745-.629-5.577.895-6.276 3.587-.648 2.569 1.03 5.22 3.79 5.841l178.21 41.656zm11.916-52.212c2.677 0 4.944-1.86 5.303-4.441.33-2.8-1.715-5.313-4.6-5.636l-184.857-21.463c-2.884-.384-5.482 1.647-5.92 4.4-.33 2.8 1.751 5.36 4.643 5.67l184.814 21.47h.617zm-8.172-53.303c3.073 0 5.613-2.384 5.613-5.429 0-3.016-2.54-5.428-5.7-5.428H774.605c-3.152 0-5.656 2.487-5.656 5.428 0 3.045 2.504 5.43 5.656 5.43h176.28zm-187.802-37.574c.36 2.858 2.888 5 5.783 5 .259 0 .482-.041.734-.041l145.16-17.159c3.263-.392 5.567-3.242 5.17-6.345-.446-3.172-3.377-5.427-6.603-5.035L768.18 318.262c-3.197.4-5.552 3.25-5.098 6.422zm-6.8-30.063c.746 2.657 3.174 4.464 5.944 4.464.486 0 1-.034 1.515-.18l113.07-26.7c3.292-.82 5.322-3.97 4.473-7.161-.775-3.15-4.096-5.055-7.38-4.283L760.747 287.5c-3.248.745-5.234 3.97-4.466 7.12zm-10.62-29.97c.909 2.389 3.236 3.835 5.792 3.835.766 0 1.49-.143 2.263-.414l82.29-29.603c3.237-1.133 4.813-4.561 3.61-7.636-1.246-3.082-4.855-4.561-8.1-3.421l-82.247 29.555c-3.215 1.147-4.819 4.609-3.609 7.684zm-13.495-28.104c1.213 2.08 3.488 3.313 5.827 3.313.983 0 2.002-.207 2.914-.7l57.133-28.954c3.179-1.56 4.427-5.366 2.705-8.443-1.679-3.037-5.59-4.236-8.733-2.676l-57.097 28.982c-3.18 1.588-4.385 5.366-2.749 8.478zm-16.334-27.18c1.31 1.852 3.35 2.855 5.505 2.855 1.31 0 2.663-.358 3.794-1.179l36.021-24.413c3.028-2.077 3.759-6.12 1.675-9.08-2.04-2.997-6.235-3.72-9.227-1.685l-36.1 24.42c-2.985 2.07-3.75 6.113-1.668 9.081zM695.7 185.34c1.348 1.451 3.255 2.204 5.112 2.204 1.606 0 3.248-.556 4.568-1.62l19.832-16.622c2.804-2.34 3.062-6.49.545-9.182-2.516-2.692-6.897-2.943-9.68-.515l-19.868 16.574c-2.811 2.393-3.07 6.462-.51 9.161zm-23.109-23.174c1.326 1.141 2.982 1.688 4.597 1.688 1.939 0 3.836-.75 5.239-2.269l7.755-8.353c2.588-2.788 2.299-6.989-.57-9.433-2.87-2.397-7.284-2.195-9.843.58l-7.791 8.435c-2.546 2.721-2.257 6.921.613 9.352z" mask="url(#prefix__b)" transform="rotate(-19 493.548 356.336)"/>
    </g>
</svg>
