<?xml version="1.0" encoding="UTF-8"?>
<svg width="399px" height="131px" viewBox="0 0 399 131" version="1.1" xmlns="http://www.w3.org/2000/svg" xmlns:xlink="http://www.w3.org/1999/xlink">
    <!-- Generator: Sketch 63.1 (92452) - https://sketch.com -->
    <title>Logo Inverse</title>
    <desc>Created with Sketch.</desc>
    <g id="Logo-Inverse" stroke="none" stroke-width="1" fill="none" fill-rule="evenodd">
        <path d="M124.620921,50.7392352 C124.554921,50.4782352 124.707921,50.2192352 124.971921,50.1582352 L128.425921,49.3122352 C128.675921,49.2472352 128.930921,49.4042352 128.995921,49.6542352 C129.057921,49.9092352 128.903921,50.1692352 128.649921,50.2292352 L125.190921,51.0802352 C125.155921,51.0912352 125.113921,51.0952352 125.079921,51.0952352 C124.864921,51.0952352 124.671921,50.9482352 124.620921,50.7392352 L124.620921,50.7392352 Z M118.324921,45.2582352 C118.395921,45.4572352 118.589921,45.5792352 118.787921,45.5792352 C118.849921,45.5792352 118.910921,45.5692352 118.966921,45.5482352 L126.383921,42.7362352 C126.637921,42.6352352 126.765921,42.3492352 126.668921,42.0902352 C126.570921,41.8242352 126.280921,41.6972352 126.020921,41.7892352 L118.614921,44.6062352 C118.354921,44.7032352 118.227921,44.9932352 118.324921,45.2582352 L118.324921,45.2582352 Z M112.109921,40.8062352 C112.207921,40.9842352 112.394921,41.0862352 112.589921,41.0862352 C112.665921,41.0862352 112.752921,41.0652352 112.833921,41.0302352 L123.219921,35.5702352 C123.484921,35.4312352 123.586921,35.1112352 123.443921,34.8562352 C123.315921,34.5922352 122.985921,34.4902352 122.730921,34.6272352 L112.334921,40.0832352 C112.074921,40.2162352 111.972921,40.5422352 112.109921,40.8062352 L112.109921,40.8062352 Z M106.083921,37.2242352 C106.201921,37.3832352 106.369921,37.4692352 106.552921,37.4692352 C106.659921,37.4692352 106.766921,37.4282352 106.863921,37.3682352 L119.225921,28.8362352 C119.480921,28.6572352 119.546921,28.3052352 119.373921,28.0562352 C119.190921,27.7972352 118.838921,27.7352352 118.594921,27.9192352 L106.221921,36.4402352 C105.977921,36.6242352 105.905921,36.9702352 106.083921,37.2242352 L106.083921,37.2242352 Z M100.292921,34.3832352 C100.415921,34.5142352 100.577921,34.5822352 100.735921,34.5822352 C100.867921,34.5822352 101.011921,34.5302352 101.133921,34.4332352 L114.458921,22.6272352 C114.697921,22.4132352 114.718921,22.0352352 114.499921,21.7962352 C114.285921,21.5522352 113.913921,21.5312352 113.679921,21.7452352 L100.348921,33.5522352 C100.103921,33.7722352 100.083921,34.1432352 100.292921,34.3832352 L100.292921,34.3832352 Z M94.7509207,32.1622352 C94.8629207,32.2632352 95.0109207,32.3152352 95.1589207,32.3152352 C95.3319207,32.3152352 95.4999207,32.2482352 95.6219207,32.1112352 L108.972921,17.0382352 C109.191921,16.7792352 109.176921,16.3912352 108.916921,16.1622352 C108.651921,15.9482352 108.268921,15.9642352 108.035921,16.2182352 L94.6999207,31.2912352 C94.4649207,31.5452352 94.4909207,31.9322352 94.7509207,32.1622352 L94.7509207,32.1622352 Z M89.4429207,30.4302352 C89.5599207,30.5072352 89.6779207,30.5422352 89.7999207,30.5422352 C90.0039207,30.5422352 90.2019207,30.4452352 90.3239207,30.2722352 L102.828921,12.1382352 C103.027921,11.8522352 102.956921,11.4612352 102.671921,11.2672352 C102.386921,11.0682352 101.998921,11.1392352 101.800921,11.4292352 L89.2799207,29.5642352 C89.0919207,29.8442352 89.1579207,30.2312352 89.4429207,30.4302352 L89.4429207,30.4302352 Z M84.3499207,29.1262352 C84.4459207,29.1822352 84.5539207,29.2072352 84.6609207,29.2072352 C84.8939207,29.2072352 85.1239207,29.0802352 85.2409207,28.8562352 L96.1719207,8.02223519 C96.3399207,7.70223519 96.2229207,7.30323519 95.9019207,7.13523519 C95.5709207,6.96823519 95.1789207,7.09023519 95.0109207,7.41623519 L84.0799207,28.2492352 C83.9059207,28.5652352 84.0289207,28.9682352 84.3499207,29.1262352 L84.3499207,29.1262352 Z M79.4339207,28.2042352 C79.5099207,28.2342352 79.5919207,28.2492352 79.6789207,28.2492352 C79.9479207,28.2492352 80.2079207,28.0822352 80.3149207,27.8062352 L89.0609207,4.73723519 C89.1879207,4.37523519 89.0199207,3.98823519 88.6689207,3.85123519 C88.3119207,3.72323519 87.9149207,3.89623519 87.7819207,4.24823519 L79.0419207,27.3282352 C78.9039207,27.6752352 79.0769207,28.0662352 79.4339207,28.2042352 L79.4339207,28.2042352 Z M74.6509207,27.5772352 C74.7119207,27.5972352 74.7729207,27.6032352 74.8289207,27.6032352 C75.1499207,27.6032352 75.4349207,27.3852352 75.5169207,27.0632352 L81.6089207,2.32723519 C81.7109207,1.94523519 81.4819207,1.55323519 81.0949207,1.46223519 C80.7119207,1.37023519 80.3249207,1.60423519 80.2339207,1.98623519 L74.1369207,26.7212352 C74.0399207,27.1032352 74.2679207,27.4862352 74.6509207,27.5772352 L74.6509207,27.5772352 Z M69.9789207,27.2362352 L70.0659207,27.2362352 C70.4329207,27.2362352 70.7489207,26.9622352 70.7999207,26.5852352 L73.9279207,0.82523519 C73.9829207,0.42323519 73.6869207,0.0512351901 73.2799207,0.00623519013 C72.8789207,-0.0467648099 72.5069207,0.24423519 72.4559207,0.64623519 L69.3329207,26.4052352 C69.2769207,26.8132352 69.5669207,27.1762352 69.9789207,27.2362352 L69.9789207,27.2362352 Z M64.5559207,26.3712352 C64.5559207,26.7992352 64.9169207,27.1592352 65.3449207,27.1592352 C65.7769207,27.1592352 66.1339207,26.7992352 66.1339207,26.3712352 L66.1339207,1.94523519 C66.1339207,1.50823519 65.7769207,1.15623519 65.3449207,1.15623519 C64.9169207,1.15623519 64.5559207,1.50823519 64.5559207,1.94523519 L64.5559207,26.3712352 Z M59.9039207,27.2982352 C59.9559207,27.7112352 60.3069207,28.0152352 60.7199207,28.0152352 C60.7499207,28.0152352 60.7799207,28.0152352 60.8159207,28.0102352 C61.2599207,27.9542352 61.5859207,27.5472352 61.5289207,27.0982352 L59.0799207,6.93723519 C59.0279207,6.49923519 58.6209207,6.17823519 58.1679207,6.23423519 C57.7289207,6.28623519 57.4089207,6.69323519 57.4599207,7.14623519 L59.9039207,27.2982352 Z M55.3349207,28.2342352 C55.4269207,28.6212352 55.7729207,28.8822352 56.1559207,28.8822352 C56.2219207,28.8822352 56.2929207,28.8712352 56.3649207,28.8562352 C56.8119207,28.7492352 57.0879207,28.2902352 56.9749207,27.8322352 L53.1289207,12.2352352 C53.0179207,11.7762352 52.5589207,11.4972352 52.1109207,11.6192352 C51.6519207,11.7252352 51.3769207,12.1892352 51.4889207,12.6372352 L55.3349207,28.2342352 Z M50.9029207,29.7272352 C51.0309207,30.0782352 51.3669207,30.2922352 51.7189207,30.2922352 C51.8199207,30.2922352 51.9279207,30.2722352 52.0289207,30.2312352 C52.4829207,30.0632352 52.7069207,29.5592352 52.5339207,29.1062352 L48.1829207,17.6142352 C48.0109207,17.1612352 47.5069207,16.9362352 47.0579207,17.1042352 C46.6039207,17.2782352 46.3759207,17.7822352 46.5489207,18.2362352 L50.9029207,29.7272352 Z M46.6959207,31.7392352 C46.8539207,32.0452352 47.1699207,32.2222352 47.4959207,32.2222352 C47.6339207,32.2222352 47.7759207,32.1872352 47.9129207,32.1162352 C48.3509207,31.8862352 48.5249207,31.3422352 48.2899207,30.9092352 L44.1139207,22.9472352 C43.8799207,22.5042352 43.3349207,22.3362352 42.9019207,22.5642352 C42.4529207,22.8002352 42.2799207,23.3442352 42.5189207,23.7882352 L46.6959207,31.7392352 Z M42.7589207,34.2502352 C42.9359207,34.5102352 43.2269207,34.6532352 43.5219207,34.6532352 C43.7009207,34.6532352 43.8849207,34.5962352 44.0479207,34.4852352 C44.4749207,34.1942352 44.5769207,33.6142352 44.2919207,33.1912352 L40.8129207,28.1582352 C40.5119207,27.7352352 39.9369207,27.6292352 39.5089207,27.9242352 C39.0909207,28.2092352 38.9789207,28.7952352 39.2799207,29.2122352 L42.7589207,34.2502352 Z M39.1519207,37.2152352 C39.3409207,37.4282352 39.6059207,37.5412352 39.8759207,37.5412352 C40.0949207,37.5412352 40.3239207,37.4652352 40.5019207,37.3012352 C40.8999207,36.9502352 40.9399207,36.3432352 40.5939207,35.9472352 L38.1429207,33.1802352 C37.7919207,32.7882352 37.1819207,32.7482352 36.7839207,33.0982352 C36.3919207,33.4562352 36.3499207,34.0672352 36.7019207,34.4542352 L39.1519207,37.2152352 Z M35.9329207,40.6072352 C36.1209207,40.7702352 36.3559207,40.8512352 36.5909207,40.8512352 C36.8649207,40.8512352 37.1359207,40.7392352 37.3279207,40.5202352 C37.6849207,40.1132352 37.6499207,39.4862352 37.2469207,39.1262352 L35.9999207,38.0192352 C35.5869207,37.6642352 34.9659207,37.7042352 34.6079207,38.1062352 C34.2409207,38.5182352 34.2769207,39.1402352 34.6899207,39.4972352 L35.9329207,40.6072352 Z M50.1599207,5.71923519 C50.2219207,5.94423519 50.4089207,6.08723519 50.6229207,6.08723519 C50.6639207,6.08723519 50.6999207,6.08223519 50.7399207,6.07723519 C50.9999207,6.01423519 51.1529207,5.75623519 51.0869207,5.49623519 L50.2309207,2.03723519 C50.1709207,1.78223519 49.9149207,1.63023519 49.6609207,1.69023519 C49.3959207,1.75823519 49.2429207,2.00723519 49.3049207,2.26623519 L50.1599207,5.71923519 Z M44.6069207,12.0832352 C44.6889207,12.2802352 44.8729207,12.4032352 45.0769207,12.4032352 C45.1379207,12.4032352 45.1929207,12.3922352 45.2549207,12.3672352 C45.5189207,12.2752352 45.6419207,11.9802352 45.5509207,11.7252352 L42.7389207,4.31423519 C42.6369207,4.05923519 42.3499207,3.92223519 42.0909207,4.01923519 C41.8319207,4.11523519 41.7039207,4.40623519 41.7959207,4.67123519 L44.6069207,12.0832352 Z M40.0889207,18.3632352 C40.1809207,18.5412352 40.3649207,18.6432352 40.5529207,18.6432352 C40.6399207,18.6432352 40.7259207,18.6222352 40.8029207,18.5762352 C41.0729207,18.4492352 41.1639207,18.1182352 41.0319207,17.8642352 L35.5759207,7.47123519 C35.4339207,7.20823519 35.1119207,7.10623519 34.8579207,7.24823519 C34.5939207,7.38123519 34.4909207,7.70723519 34.6349207,7.96123519 L40.0889207,18.3632352 Z M36.4469207,24.4612352 C36.5549207,24.6182352 36.7279207,24.7052352 36.9059207,24.7052352 C37.0179207,24.7052352 37.1359207,24.6692352 37.2319207,24.5972352 C37.4759207,24.4292352 37.5479207,24.0782352 37.3699207,23.8242352 L28.8429207,11.4662352 C28.6589207,11.2072352 28.3119207,11.1442352 28.0629207,11.3232352 C27.8029207,11.4922352 27.7429207,11.8432352 27.9159207,12.1022352 L36.4469207,24.4612352 Z M33.5549207,30.3432352 C33.6669207,30.4762352 33.8349207,30.5422352 33.9969207,30.5422352 C34.1349207,30.5422352 34.2719207,30.4962352 34.3849207,30.3992352 C34.6299207,30.1802352 34.6489207,29.8032352 34.4399207,29.5642352 L22.6279207,16.2442352 C22.4139207,15.9942352 22.0419207,15.9682352 21.7929207,16.1882352 C21.5539207,16.4062352 21.5269207,16.7792352 21.7469207,17.0182352 L33.5549207,30.3432352 Z M31.2979207,35.9982352 C31.4099207,36.0992352 31.5529207,36.1502352 31.6999207,36.1502352 C31.8689207,36.1502352 32.0369207,36.0792352 32.1639207,35.9472352 C32.3829207,35.6862352 32.3679207,35.2952352 32.1119207,35.0712352 L17.0399207,21.7192352 C16.7859207,21.4962352 16.3929207,21.5152352 16.1699207,21.7762352 C15.9399207,22.0312352 15.9659207,22.4182352 16.2249207,22.6462352 L31.2979207,35.9982352 Z M29.5559207,41.4022352 C29.6679207,41.4782352 29.7899207,41.5142352 29.9119207,41.5142352 C30.1159207,41.5142352 30.3089207,41.4172352 30.4269207,41.2442352 C30.6309207,40.9532352 30.5539207,40.5662352 30.2729207,40.3682352 L12.1449207,27.8522352 C11.8599207,27.6532352 11.4679207,27.7252352 11.2739207,28.0152352 C11.0699207,28.3022352 11.1469207,28.6932352 11.4279207,28.8862352 L29.5559207,41.4022352 Z M28.2519207,46.6132352 C28.3489207,46.6642352 28.4499207,46.6892352 28.5519207,46.6892352 C28.7919207,46.6892352 29.0159207,46.5672352 29.1329207,46.3382352 C29.2959207,46.0112352 29.1829207,45.6142352 28.8629207,45.4512352 L8.02892075,34.5202352 C7.70892075,34.3522352 7.31092075,34.4802352 7.13892075,34.7952352 C6.96992075,35.1112352 7.09792075,35.5092352 7.41292075,35.6812352 L28.2519207,46.6132352 Z M27.3299207,51.6502352 C27.4059207,51.6812352 27.4929207,51.6962352 27.5689207,51.6962352 C27.8439207,51.6962352 28.1039207,51.5342352 28.2059207,51.2592352 C28.3379207,50.9072352 28.1699207,50.5102352 27.8139207,50.3772352 L4.73292075,41.6272352 C4.38292075,41.4882352 3.98992075,41.6722352 3.85192075,42.0232352 C3.71992075,42.3802352 3.90292075,42.7672352 4.24992075,42.9042352 L27.3299207,51.6502352 Z M26.7289207,56.5562352 C26.7849207,56.5662352 26.8409207,56.5762352 26.8969207,56.5762352 C27.2179207,56.5762352 27.5029207,56.3572352 27.5789207,56.0312352 C27.6759207,55.6542352 27.4419207,55.2622352 27.0599207,55.1652352 L2.32992075,49.0732352 C1.94692075,48.9872352 1.55992075,49.2162352 1.46392075,49.5972352 C1.37192075,49.9792352 1.59992075,50.3732352 1.98792075,50.4642352 L26.7289207,56.5562352 Z M26.4079207,61.3592352 C26.4429207,61.3652352 26.4689207,61.3652352 26.4939207,61.3652352 C26.8659207,61.3652352 27.1869207,61.0892352 27.2379207,60.7132352 C27.2839207,60.3092352 26.9929207,59.9322352 26.5909207,59.8872352 L0.83192075,56.7642352 C0.42392075,56.7142352 0.0579207495,57.0042352 0.00692074952,57.4062352 C-0.0490792505,57.8142352 0.24092075,58.1862352 0.65392075,58.2322352 L26.4079207,61.3592352 Z M26.3719207,66.1332352 C26.7999207,66.1332352 27.1619207,65.7802352 27.1619207,65.3432352 C27.1619207,64.9042352 26.7999207,64.5532352 26.3719207,64.5532352 L1.93692075,64.5532352 C1.51392075,64.5532352 1.15292075,64.9042352 1.15292075,65.3432352 C1.15292075,65.7802352 1.51392075,66.1332352 1.94692075,66.1332352 L26.3719207,66.1332352 Z M6.23592075,72.5252352 C6.28792075,72.9382352 6.63392075,73.2392352 7.04692075,73.2392352 C7.07692075,73.2392352 7.11192075,73.2392352 7.14292075,73.2272352 L27.3049207,70.7882352 C27.7529207,70.7262352 28.0729207,70.3252352 28.0169207,69.8702352 C27.9609207,69.4272352 27.5539207,69.1062352 27.1109207,69.1682352 L6.95492075,71.6072352 C6.49692075,71.6692352 6.18092075,72.0722352 6.23592075,72.5252352 L6.23592075,72.5252352 Z M11.6199207,78.5922352 C11.7119207,78.9632352 12.0489207,79.2282352 12.4309207,79.2282352 C12.4969207,79.2282352 12.5679207,79.2182352 12.6399207,79.2032352 L28.2469207,75.3572352 C28.6949207,75.2502352 28.9699207,74.7872352 28.8579207,74.3342352 C28.7509207,73.8902352 28.2869207,73.6102352 27.8289207,73.7172352 L12.2319207,77.5582352 C11.7779207,77.6762352 11.5029207,78.1342352 11.6199207,78.5922352 L11.6199207,78.5922352 Z M17.1169207,83.6352352 C17.2489207,83.9812352 17.5859207,84.2002352 17.9409207,84.2002352 C18.0439207,84.2002352 18.1449207,84.1852352 18.2429207,84.1432352 L29.7279207,79.7782352 C30.1769207,79.6152352 30.4059207,79.1162352 30.2329207,78.6532352 C30.0589207,78.2002352 29.5659207,77.9792352 29.1079207,78.1482352 L17.6209207,82.5132352 C17.1679207,82.6772352 16.9429207,83.1802352 17.1169207,83.6352352 L17.1169207,83.6352352 Z M22.5719207,87.7962352 C22.7299207,88.0962352 23.0469207,88.2752352 23.3719207,88.2752352 C23.5099207,88.2752352 23.6519207,88.2392352 23.7839207,88.1672352 L31.7459207,83.9962352 C32.1879207,83.7672352 32.3569207,83.2222352 32.1229207,82.7792352 C31.8929207,82.3412352 31.3489207,82.1732352 30.9059207,82.4012352 L22.9489207,86.5742352 C22.5119207,86.8072352 22.3379207,87.3532352 22.5719207,87.7962352 L22.5719207,87.7962352 Z M27.9259207,91.1772352 C28.1039207,91.4382352 28.3889207,91.5812352 28.6839207,91.5812352 C28.8679207,91.5812352 29.0569207,91.5252352 29.2199207,91.4132352 L34.2519207,87.9322352 C34.6849207,87.6432352 34.7869207,87.0672352 34.4959207,86.6392352 C34.2009207,86.2162352 33.6209207,86.1112352 33.1919207,86.4052352 L28.1599207,89.8792352 C27.7319207,90.1702352 27.6299207,90.7552352 27.9259207,91.1772352 L27.9259207,91.1772352 Z M33.1059207,93.9092352 C33.2899207,94.1232352 33.5549207,94.2232352 33.8189207,94.2232352 C34.0489207,94.2232352 34.2769207,94.1482352 34.4609207,93.9892352 L37.2229207,91.5462352 C37.6189207,91.1872352 37.6599207,90.5782352 37.2979207,90.1892352 C36.9519207,89.7942352 36.3459207,89.7572352 35.9429207,90.0972352 L33.1829207,92.5532352 C32.7909207,92.9042352 32.7549207,93.5112352 33.1059207,93.9092352 L33.1059207,93.9092352 Z M38.1079207,96.0842352 C38.2969207,96.2572352 38.5309207,96.3392352 38.7659207,96.3392352 C39.0399207,96.3392352 39.3059207,96.2262352 39.4989207,95.9972352 L40.6039207,94.7542352 C40.9659207,94.3522352 40.9299207,93.7252352 40.5229207,93.3592352 C40.1149207,93.0072352 39.4889207,93.0382352 39.1269207,93.4502352 L38.0209207,94.6932352 C37.6649207,95.1012352 37.6999207,95.7262352 38.1079207,96.0842352 L38.1079207,96.0842352 Z M1.69792075,81.0322352 C1.74892075,81.2512352 1.94192075,81.3982352 2.15592075,81.3982352 C2.19192075,81.3982352 2.23292075,81.3932352 2.26792075,81.3842352 L5.73192075,80.5272352 C5.98092075,80.4612352 6.14392075,80.2122352 6.07292075,79.9522352 C6.00792075,79.6962352 5.75292075,79.5392352 5.50792075,79.5992352 L2.04392075,80.4562352 C1.78992075,80.5222352 1.63192075,80.7762352 1.69792075,81.0322352 L1.69792075,81.0322352 Z M4.01992075,88.6012352 C4.10092075,88.8032352 4.29092075,88.9272352 4.49992075,88.9272352 C4.55592075,88.9272352 4.61692075,88.9112352 4.67792075,88.8952352 L12.0789207,86.0792352 C12.3499207,85.9822352 12.4659207,85.6932352 12.3739207,85.4372352 C12.2719207,85.1732352 11.9819207,85.0512352 11.7229207,85.1362352 L4.31592075,87.9552352 C4.05592075,88.0502352 3.91892075,88.3452352 4.01992075,88.6012352 L4.01992075,88.6012352 Z M7.25092075,95.8342352 C7.34192075,96.0172352 7.52492075,96.1192352 7.71892075,96.1192352 C7.80092075,96.1192352 7.88692075,96.1042352 7.96892075,96.0572352 L18.3649207,90.6072352 C18.6199207,90.4662352 18.7219207,90.1492352 18.5789207,89.8792352 C18.4519207,89.6302352 18.1209207,89.5232352 17.8659207,89.6652352 L7.46892075,95.1162352 C7.20992075,95.2592352 7.10692075,95.5792352 7.25092075,95.8342352 L7.25092075,95.8342352 Z M11.3249207,102.634235 C11.4329207,102.788235 11.6049207,102.873235 11.7829207,102.873235 C11.8949207,102.873235 12.0079207,102.843235 12.1039207,102.777235 L24.4669207,94.2402352 C24.7229207,94.0612352 24.7829207,93.7162352 24.6139207,93.4672352 C24.4319207,93.2112352 24.0849207,93.1432352 23.8299207,93.3172352 L11.4629207,101.855235 C11.2079207,102.034235 11.1469207,102.380235 11.3249207,102.634235 L11.3249207,102.634235 Z M16.1949207,108.894235 C16.3109207,109.026235 16.4699207,109.093235 16.6329207,109.093235 C16.7749207,109.093235 16.9129207,109.042235 17.0249207,108.941235 L30.3459207,97.1272352 C30.5899207,96.9192352 30.6099207,96.5482352 30.3999207,96.3032352 C30.1769207,96.0572352 29.8059207,96.0422352 29.5709207,96.2572352 L16.2409207,108.063235 C16.0009207,108.272235 15.9749207,108.650235 16.1949207,108.894235 L16.1949207,108.894235 Z M21.7819207,114.517235 C21.8939207,114.625235 22.0419207,114.675235 22.1889207,114.675235 C22.3629207,114.675235 22.5309207,114.604235 22.6529207,114.468235 L35.9999207,99.3992352 C36.2279207,99.1392352 36.2029207,98.7522352 35.9429207,98.5282352 C35.6879207,98.2992352 35.3019207,98.3242352 35.0719207,98.5852352 L21.7309207,113.652235 C21.5029207,113.906235 21.5269207,114.294235 21.7819207,114.517235 L21.7819207,114.517235 Z M28.0229207,119.429235 C28.1299207,119.494235 28.2519207,119.535235 28.3739207,119.535235 C28.5729207,119.535235 28.7709207,119.439235 28.8929207,119.260235 L41.4039207,101.131235 C41.6079207,100.846235 41.5309207,100.454235 41.2459207,100.260235 C40.9609207,100.061235 40.5679207,100.133235 40.3799207,100.424235 L27.8599207,118.552235 C27.6659207,118.828235 27.7369207,119.230235 28.0229207,119.429235 L28.0229207,119.429235 Z M34.7979207,123.549235 C34.8929207,123.600235 35.0009207,123.625235 35.1019207,123.625235 C35.3369207,123.625235 35.5659207,123.493235 35.6829207,123.274235 L46.6139207,102.445235 C46.7879207,102.114235 46.6609207,101.718235 46.3449207,101.558235 C46.0139207,101.386235 45.6109207,101.509235 45.4539207,101.830235 L34.5219207,122.668235 C34.3539207,122.988235 34.4759207,123.386235 34.7979207,123.549235 L34.7979207,123.549235 Z M42.0309207,126.835235 C42.1119207,126.865235 42.1939207,126.880235 42.2689207,126.880235 C42.5499207,126.880235 42.8089207,126.713235 42.9119207,126.437235 L51.6519207,103.368235 C51.7849207,103.011235 51.6109207,102.619235 51.2549207,102.476235 C50.9029207,102.349235 50.5069207,102.527235 50.3789207,102.880235 L41.6329207,125.954235 C41.5059207,126.300235 41.6739207,126.703235 42.0309207,126.835235 L42.0309207,126.835235 Z M49.5999207,129.223235 C49.6609207,129.239235 49.7169207,129.249235 49.7719207,129.249235 C50.0939207,129.249235 50.3789207,129.025235 50.4599207,128.704235 L56.5529207,103.968235 C56.6599207,103.592235 56.4199207,103.201235 56.0429207,103.108235 C55.6609207,103.011235 55.2739207,103.251235 55.1769207,103.622235 L49.0799207,128.368235 C48.9879207,128.746235 49.2229207,129.132235 49.5999207,129.223235 L49.5999207,129.223235 Z M57.4089207,130.686235 C57.4439207,130.686235 57.4749207,130.691235 57.5099207,130.691235 C57.8719207,130.691235 58.1919207,130.421235 58.2329207,130.045235 L61.3659207,104.284235 C61.4119207,103.878235 61.1209207,103.510235 60.7199207,103.460235 C60.3109207,103.408235 59.9399207,103.694235 59.8939207,104.101235 L56.7669207,129.866235 C56.7159207,130.273235 57.0059207,130.635235 57.4089207,130.686235 L57.4089207,130.686235 Z M64.5559207,128.751235 C64.5559207,129.183235 64.9169207,129.540235 65.3449207,129.540235 C65.7769207,129.540235 66.1339207,129.183235 66.1339207,128.751235 L66.1339207,104.320235 C66.1339207,103.883235 65.7769207,103.531235 65.3449207,103.531235 C64.9169207,103.531235 64.5559207,103.883235 64.5559207,104.320235 L64.5559207,128.751235 Z M71.6089207,123.747235 C71.6659207,124.155235 72.0169207,124.461235 72.4249207,124.461235 L72.5209207,124.461235 C72.9709207,124.399235 73.2859207,123.998235 73.2339207,123.545235 L70.7849207,103.392235 C70.7339207,102.945235 70.3269207,102.624235 69.8729207,102.680235 C69.4299207,102.736235 69.1139207,103.138235 69.1649207,103.582235 L71.6089207,123.747235 Z M77.5639207,118.450235 C77.6609207,118.838235 78.0129207,119.096235 78.3949207,119.096235 C78.4609207,119.096235 78.5269207,119.092235 78.5939207,119.071235 C79.0469207,118.960235 79.3159207,118.507235 79.2089207,118.049235 L75.3529207,102.445235 C75.2459207,101.992235 74.7829207,101.718235 74.3299207,101.830235 C73.8869207,101.941235 73.6109207,102.400235 73.7189207,102.853235 L77.5639207,118.450235 Z M82.5109207,113.072235 C82.6419207,113.423235 82.9739207,113.636235 83.3259207,113.636235 C83.4279207,113.636235 83.5349207,113.612235 83.6359207,113.580235 C84.0849207,113.413235 84.3079207,112.903235 84.1409207,112.455235 L79.7949207,100.959235 C79.6169207,100.506235 79.1129207,100.282235 78.6589207,100.454235 C78.2109207,100.623235 77.9819207,101.126235 78.1549207,101.579235 L82.5109207,113.072235 Z M86.5809207,107.744235 C86.7429207,108.049235 87.0539207,108.227235 87.3759207,108.227235 C87.5169207,108.227235 87.6659207,108.192235 87.7979207,108.120235 C88.2409207,107.886235 88.4089207,107.342235 88.1799207,106.908235 L83.9979207,98.9462352 C83.7639207,98.5082352 83.2239207,98.3362352 82.7859207,98.5702352 C82.3429207,98.7992352 82.1689207,99.3432352 82.4039207,99.7872352 L86.5809207,107.744235 Z M89.8869207,102.527235 C90.0639207,102.798235 90.3599207,102.939235 90.6549207,102.939235 C90.8339207,102.939235 91.0219207,102.885235 91.1809207,102.771235 C91.6029207,102.476235 91.7039207,101.900235 91.4089207,101.467235 L87.9399207,96.4402352 C87.6449207,96.0122352 87.0639207,95.9102352 86.6419207,96.2012352 C86.2139207,96.5022352 86.1169207,97.0722352 86.4019207,97.4952352 L89.8869207,102.527235 Z M92.5559207,97.5002352 C92.7439207,97.7142352 93.0089207,97.8212352 93.2739207,97.8212352 C93.5079207,97.8212352 93.7269207,97.7492352 93.9149207,97.5872352 C94.3089207,97.2342352 94.3429207,96.6292352 93.9869207,96.2312352 L91.5369207,93.4712352 C91.1899207,93.0682352 90.5789207,93.0332352 90.1919207,93.3852352 C89.7939207,93.7402352 89.7599207,94.3472352 90.1049207,94.7332352 L92.5559207,97.5002352 Z M94.6899207,92.6662352 C94.8829207,92.8352352 95.1129207,92.9102352 95.3509207,92.9102352 C95.6219207,92.9102352 95.8919207,92.7982352 96.0859207,92.5792352 C96.4469207,92.1772352 96.4069207,91.5462352 96.0039207,91.1872352 L94.7559207,90.0882352 C94.3529207,89.7262352 93.7269207,89.7572352 93.3649207,90.1702352 C92.9979207,90.5782352 93.0339207,91.2052352 93.4519207,91.5552352 L94.6899207,92.6662352 Z M80.4629207,128.654235 C80.5149207,128.868235 80.7069207,129.010235 80.9209207,129.010235 C80.9619207,129.010235 80.9979207,129.005235 81.0379207,128.995235 C81.2929207,128.932235 81.4509207,128.674235 81.3899207,128.425235 L80.5289207,124.956235 C80.4679207,124.710235 80.2079207,124.552235 79.9529207,124.613235 C79.7039207,124.675235 79.5509207,124.934235 79.6069207,125.195235 L80.4629207,128.654235 Z M87.9559207,126.377235 C88.0319207,126.576235 88.2209207,126.703235 88.4199207,126.703235 C88.4799207,126.703235 88.5419207,126.687235 88.6019207,126.671235 C88.8669207,126.564235 88.9949207,126.275235 88.8979207,126.019235 L86.0869207,118.608235 C85.9839207,118.354235 85.6939207,118.216235 85.4339207,118.323235 C85.1799207,118.410235 85.0479207,118.711235 85.1479207,118.965235 L87.9559207,126.377235 Z M95.1229207,123.222235 C95.2089207,123.401235 95.3979207,123.503235 95.5909207,123.503235 C95.6679207,123.503235 95.7599207,123.478235 95.8359207,123.438235 C96.0959207,123.309235 96.1979207,122.983235 96.0649207,122.719235 L90.6039207,112.333235 C90.4729207,112.074235 90.1419207,111.966235 89.8869207,112.104235 C89.6319207,112.241235 89.5239207,112.562235 89.6619207,112.826235 L95.1229207,123.222235 Z M101.861921,119.230235 C101.963921,119.383235 102.141921,119.469235 102.319921,119.469235 C102.432921,119.469235 102.544921,119.439235 102.641921,119.367235 C102.885921,119.183235 102.956921,118.847235 102.777921,118.584235 L94.2419207,106.226235 C94.0679207,105.980235 93.7219207,105.904235 93.4669207,106.083235 C93.2129207,106.261235 93.1459207,106.612235 93.3249207,106.867235 L101.861921,119.230235 Z M108.065921,114.453235 C108.182921,114.580235 108.340921,114.645235 108.498921,114.645235 C108.641921,114.645235 108.783921,114.599235 108.890921,114.498235 C109.140921,114.284235 109.160921,113.911235 108.941921,113.667235 L97.1349207,100.337235 C96.9259207,100.097235 96.5539207,100.078235 96.3089207,100.287235 C96.0589207,100.510235 96.0449207,100.877235 96.2589207,101.126235 L108.065921,114.453235 Z M113.653921,108.961235 C113.765921,109.068235 113.913921,109.118235 114.060921,109.118235 C114.233921,109.118235 114.406921,109.053235 114.523921,108.909235 C114.743921,108.660235 114.732921,108.262235 114.469921,108.033235 L99.3959207,94.6882352 C99.1509207,94.4652352 98.7599207,94.4942352 98.5359207,94.7382352 C98.3009207,94.9992352 98.3319207,95.3852352 98.5819207,95.6142352 L113.653921,108.961235 Z M118.554921,102.828235 C118.660921,102.910235 118.782921,102.945235 118.904921,102.945235 C119.103921,102.945235 119.302921,102.847235 119.419921,102.676235 C119.612921,102.385235 119.546921,101.992235 119.262921,101.804235 L101.133921,89.2892352 C100.852921,89.0902352 100.461921,89.1622352 100.262921,89.4462352 C100.062921,89.7312352 100.135921,90.1202352 100.420921,90.3222352 L118.554921,102.828235 Z M122.669921,96.1712352 C122.766921,96.2212352 122.873921,96.2412352 122.970921,96.2412352 C123.204921,96.2412352 123.433921,96.1142352 123.550921,95.8952352 C123.724921,95.5692352 123.596921,95.1812352 123.275921,95.0102352 L102.436921,84.0782352 C102.120921,83.9092352 101.724921,84.0312352 101.560921,84.3432352 C101.388921,84.6732352 101.510921,85.0662352 101.830921,85.2382352 L122.669921,96.1712352 Z M125.960921,89.0592352 C126.036921,89.0902352 126.118921,89.1042352 126.204921,89.1042352 C126.474921,89.1042352 126.733921,88.9372352 126.841921,88.6622352 C126.974921,88.3102352 126.795921,87.9232352 126.443921,87.7862352 L103.363921,79.0292352 C103.017921,78.8972352 102.614921,79.0752352 102.482921,79.4322352 C102.345921,79.7782352 102.533921,80.1762352 102.880921,80.3082352 L125.960921,89.0592352 Z M128.363921,81.6122352 C128.420921,81.6222352 128.476921,81.6272352 128.531921,81.6272352 C128.857921,81.6272352 129.153921,81.4132352 129.229921,81.0882352 C129.326921,80.7062352 129.087921,80.3232352 128.711921,80.2262352 L103.974921,74.1352352 C103.593921,74.0432352 103.200921,74.2662352 103.103921,74.6602352 C103.013921,75.0362352 103.246921,75.4242352 103.629921,75.5152352 L128.363921,81.6122352 Z M129.947921,73.9262352 C130.320921,73.9262352 130.636921,73.6552352 130.686921,73.2792352 C130.732921,72.8712352 130.447921,72.5052352 130.045921,72.4582352 L104.280921,69.3312352 C103.878921,69.2752352 103.516921,69.5712352 103.455921,69.9722352 C103.409921,70.3802352 103.699921,70.7532352 104.102921,70.7982352 L129.861921,73.9262352 L129.947921,73.9262352 Z M128.757921,66.1332352 C129.183921,66.1332352 129.535921,65.7862352 129.535921,65.3432352 C129.535921,64.9042352 129.183921,64.5532352 128.745921,64.5532352 L104.321921,64.5532352 C103.884921,64.5532352 103.537921,64.9152352 103.537921,65.3432352 C103.537921,65.7862352 103.884921,66.1332352 104.321921,66.1332352 L128.757921,66.1332352 Z M102.682921,60.8192352 C102.732921,61.2272352 103.083921,61.5332352 103.485921,61.5332352 C103.521921,61.5332352 103.552921,61.5272352 103.587921,61.5272352 L123.744921,59.0772352 C124.197921,59.0212352 124.517921,58.6142352 124.462921,58.1712352 C124.400921,57.7182352 123.993921,57.3962352 123.545921,57.4522352 L103.390921,59.9022352 C102.946921,59.9592352 102.619921,60.3662352 102.682921,60.8192352 L102.682921,60.8192352 Z M101.830921,56.3522352 C101.933921,56.7342352 102.268921,56.9942352 102.650921,56.9942352 C102.717921,56.9942352 102.788921,56.9892352 102.859921,56.9682352 L118.456921,53.1282352 C118.910921,53.0102352 119.190921,52.5572352 119.073921,52.0982352 C118.966921,51.6452352 118.508921,51.3712352 118.055921,51.4822352 L102.446921,55.3282352 C101.998921,55.4352352 101.724921,55.8992352 101.830921,56.3522352 L101.830921,56.3522352 Z M100.461921,52.0332352 C100.588921,52.3852352 100.913921,52.5982352 101.270921,52.5982352 C101.377921,52.5982352 101.478921,52.5772352 101.586921,52.5372352 L113.078921,48.1762352 C113.530921,48.0092352 113.750921,47.5042352 113.582921,47.0512352 C113.408921,46.5972352 112.904921,46.3792352 112.451921,46.5472352 L100.965921,50.9012352 C100.516921,51.0702352 100.292921,51.5802352 100.461921,52.0332352 L100.461921,52.0332352 Z M98.5649207,47.9122352 C98.7339207,48.2122352 99.0509207,48.3902352 99.3769207,48.3902352 C99.5139207,48.3902352 99.6559207,48.3602352 99.7829207,48.2892352 L107.744921,44.1122352 C108.187921,43.8872352 108.361921,43.3382352 108.121921,42.8942352 C107.887921,42.4562352 107.342921,42.2832352 106.904921,42.5082352 L98.9479207,46.6892352 C98.5049207,46.9182352 98.3369207,47.4632352 98.5649207,47.9122352 L98.5649207,47.9122352 Z M96.2029207,44.0462352 C96.3859207,44.3102352 96.6709207,44.4532352 96.9719207,44.4532352 C97.1549207,44.4532352 97.3439207,44.4022352 97.5019207,44.2852352 L102.533921,40.8062352 C102.956921,40.5102352 103.058921,39.9342352 102.767921,39.5122352 C102.482921,39.0852352 101.896921,38.9822352 101.478921,39.2722352 L96.4359207,42.7522352 C96.0189207,43.0472352 95.9119207,43.6232352 96.2029207,44.0462352 L96.2029207,44.0462352 Z M93.3959207,40.5012352 C93.5839207,40.7152352 93.8499207,40.8262352 94.1089207,40.8262352 C94.3329207,40.8262352 94.5619207,40.7442352 94.7459207,40.5872352 L97.5119207,38.1362352 C97.9029207,37.7912352 97.9389207,37.1792352 97.5879207,36.7822352 C97.2369207,36.3852352 96.6259207,36.3482352 96.2379207,36.7062352 L93.4669207,39.1502352 C93.0749207,39.5032352 93.0389207,40.1032352 93.3959207,40.5012352 L93.3959207,40.5012352 Z M90.1719207,37.3212352 C90.3599207,37.4902352 90.5949207,37.5712352 90.8239207,37.5712352 C91.0989207,37.5712352 91.3679207,37.4602352 91.5669207,37.2352352 L92.6669207,35.9982352 C93.0339207,35.5852352 92.9929207,34.9632352 92.5859207,34.6012352 C92.1789207,34.2462352 91.5529207,34.2762352 91.1899207,34.6872352 L90.0849207,35.9362352 C89.7239207,36.3392352 89.7649207,36.9612352 90.1719207,37.3212352 L90.1719207,37.3212352 Z" id="Fill-290" fill="#FFFFFF"></path>
        <polygon id="Fill-292" fill="#FFFFFF" points="165.691221 66.3828352 165.691221 11.9448352 176.682221 11.9448352 176.682221 36.1188352 198.888221 11.9448352 213.667221 11.9448352 193.170221 33.1488352 214.782221 66.3828352 200.559221 66.3828352 185.594221 40.8348352 176.682221 49.9318352 176.682221 66.3828352"></polygon>
        <polygon id="Fill-294" fill="#FFFFFF" points="221.650021 66.3836352 232.642021 66.3836352 232.642021 11.9456352 221.650021 11.9456352"></polygon>
        <polygon id="Fill-296" fill="#FFFFFF" points="239.775221 66.3828352 239.775221 56.4678352 268.368221 21.1538352 243.006221 21.1538352 243.006221 11.9448352 282.849221 11.9448352 282.849221 20.4868352 253.032221 57.2098352 284.002221 57.2098352 284.002221 66.3828352"></polygon>
        <path d="M325.526221,44.8447352 L318.025221,24.6447352 L310.673221,44.8447352 L325.526221,44.8447352 Z M345.763221,66.3827352 L333.806221,66.3827352 L329.055221,54.0167352 L307.293221,54.0167352 L302.801221,66.3827352 L291.141221,66.3827352 L312.343221,11.9457352 L323.966221,11.9457352 L345.763221,66.3827352 Z" id="Fill-297" fill="#FFFFFF"></path>
        <path d="M364.068221,21.1543352 L364.068221,57.2103352 L372.275221,57.2103352 C375.344221,57.2103352 377.559221,57.0383352 378.922221,56.6903352 C380.704221,56.2453352 382.183221,55.4903352 383.360221,54.4253352 C384.535221,53.3613352 385.495221,51.6093352 386.237221,49.1713352 C386.979221,46.7333352 387.350221,43.4103352 387.350221,39.2013352 C387.350221,34.9933352 386.979221,31.7623352 386.237221,29.5083352 C385.495221,27.2583352 384.455221,25.4993352 383.118221,24.2363352 C381.780221,22.9733352 380.085221,22.1193352 378.031221,21.6743352 C376.494221,21.3283352 373.487221,21.1543352 369.006221,21.1543352 L364.068221,21.1543352 Z M353.077221,11.9453352 L373.166221,11.9453352 C377.696221,11.9453352 381.150221,12.2923352 383.525221,12.9853352 C386.720221,13.9263352 389.455221,15.5973352 391.732221,17.9983352 C394.010221,20.3993352 395.744221,23.3403352 396.930221,26.8163352 C398.119221,30.2963352 398.713221,34.5843352 398.713221,39.6833352 C398.713221,44.1643352 398.156221,48.0253352 397.043221,51.2683352 C395.680221,55.2303352 393.738221,58.4353352 391.214221,60.8853352 C389.306221,62.7433352 386.732221,64.1903352 383.490221,65.2303352 C381.063221,65.9983352 377.820221,66.3833352 373.761221,66.3833352 L353.077221,66.3833352 L353.077221,11.9453352 Z" id="Fill-298" fill="#FFFFFF"></path>
        <path d="M169.391421,83.4414352 C170.066421,83.4414352 170.624421,82.8874352 170.624421,82.2344352 C170.624421,81.5864352 170.066421,81.0524352 169.391421,81.0524352 C168.742421,81.0524352 168.184421,81.5864352 168.184421,82.2344352 C168.184421,82.8874352 168.742421,83.4414352 169.391421,83.4414352" id="Fill-299" fill="#FFFFFF"></path>
        <path d="M172.529121,83.4414352 C173.182121,83.4414352 173.741121,82.8874352 173.741121,82.2344352 C173.741121,81.5864352 173.182121,81.0524352 172.529121,81.0524352 C171.880121,81.0524352 171.347121,81.5864352 171.347121,82.2344352 C171.347121,82.8874352 171.880121,83.4414352 172.529121,83.4414352" id="Fill-300" fill="#FFFFFF"></path>
        <path d="M188.060421,98.0615352 C187.407421,98.0615352 186.874421,98.6005352 186.874421,99.2485352 C186.874421,99.8975352 187.407421,100.456535 188.060421,100.456535 C188.708421,100.456535 189.268421,99.8975352 189.268421,99.2485352 C189.268421,98.6005352 188.708421,98.0615352 188.060421,98.0615352" id="Fill-301" fill="#FFFFFF"></path>
        <path d="M184.944121,98.0615352 C184.270121,98.0615352 183.758121,98.6005352 183.758121,99.2485352 C183.758121,99.8975352 184.270121,100.456535 184.944121,100.456535 C185.593121,100.456535 186.152121,99.8975352 186.152121,99.2485352 C186.152121,98.6005352 185.593121,98.0615352 184.944121,98.0615352" id="Fill-302" fill="#FFFFFF"></path>
        <path d="M172.644321,90.6699352 C172.644321,91.8079352 172.486321,92.6479352 172.185321,93.1589352 C171.832321,93.7859352 171.178321,94.0869352 170.277321,94.0869352 C169.370321,94.0869352 168.716321,93.7859352 168.369321,93.1589352 C168.068321,92.6479352 167.904321,91.8079352 167.904321,90.6699352 C167.904321,89.5309352 168.068321,88.6989352 168.369321,88.2069352 C168.716321,87.6069352 169.370321,87.3009352 170.277321,87.3009352 L172.644321,87.3009352 L172.644321,90.6699352 Z M198.963321,94.0449352 L198.963321,89.6949352 C198.963321,88.3709352 199.801321,87.3699352 201.194321,87.3699352 C201.889321,87.3699352 202.516321,87.6949352 203.076321,88.3709352 L204.726321,86.8849352 C203.798321,85.9779352 202.702321,85.5149352 201.446321,85.5149352 C199.986321,85.5149352 198.821321,85.9569352 197.988321,86.8369352 C197.171321,87.6949352 196.753321,88.7869352 196.753321,90.0689352 L196.753321,94.0449352 L189.873321,94.0869352 C188.339321,94.0869352 187.571321,93.3219352 187.571321,91.7879352 L187.571321,85.5149352 L185.387321,86.1609352 L185.387321,91.7199352 C185.387321,93.2959352 184.618321,94.0869352 183.062321,94.0869352 L177.130321,94.0869352 C175.623321,94.0869352 174.853321,93.2959352 174.853321,91.7199352 L174.853321,85.5149352 L170.134321,85.5149352 C167.187321,85.5149352 165.695321,87.2319352 165.695321,90.6699352 C165.695321,94.2289352 167.187321,95.9959352 170.134321,95.9959352 C171.879321,95.9959352 173.018321,95.4629352 173.550321,94.3659352 C174.037321,95.4629352 175.202321,95.9959352 177.015321,95.9959352 L183.199321,95.9959352 C184.618321,95.9959352 185.714321,95.5789352 186.499321,94.7669352 C187.290321,95.5789352 188.361321,95.9959352 189.732321,95.9959352 L206.586321,95.9959352 L204.937321,94.0449352 L198.963321,94.0449352 Z" id="Fill-303" fill="#FFFFFF"></path>
        <path d="M221.971521,83.4414352 C222.626521,83.4414352 223.185521,82.8874352 223.185521,82.2344352 C223.185521,81.5864352 222.626521,81.0524352 221.971521,81.0524352 C221.325521,81.0524352 220.764521,81.5864352 220.764521,82.2344352 C220.764521,82.8874352 221.325521,83.4414352 221.971521,83.4414352" id="Fill-304" fill="#FFFFFF"></path>
        <path d="M246.172721,94.0449352 L235.806721,94.0449352 C235.901721,92.7159352 236.550721,91.3919352 237.783721,90.0219352 C239.154721,88.4399352 240.641721,87.6539352 242.292721,87.6539352 C243.641721,87.6539352 244.664721,88.2069352 245.381721,89.3249352 C245.967721,90.2799352 246.240721,91.4599352 246.240721,92.8989352 C246.240721,93.2959352 246.219721,93.6699352 246.172721,94.0449352 L246.172721,94.0449352 Z M257.102721,91.6709352 C257.102721,93.2539352 256.331721,94.0449352 254.823721,94.0449352 L248.402721,94.0449352 C248.497721,91.5339352 248.150721,89.6269352 247.358721,88.3029352 C246.219721,86.4669352 244.500721,85.5609352 242.243721,85.6299352 C239.666721,85.6979352 237.642721,86.8419352 236.181721,89.0729352 C235.505721,90.0689352 234.993721,91.1609352 234.694721,92.3209352 L234.694721,87.5319352 L232.484721,88.1599352 L232.484721,94.0449352 L225.437721,94.0869352 C223.906721,94.0869352 223.136721,93.3219352 223.136721,91.7879352 L223.136721,85.5149352 L220.954721,86.1609352 L220.954721,91.7199352 C220.954721,93.2959352 220.184721,94.0869352 218.629721,94.0869352 L211.933721,94.0449352 C211.163721,94.0449352 210.794721,93.6699352 210.794721,92.9269352 L210.794721,81.0059352 L208.586721,81.7009352 L208.586721,92.9949352 C208.586721,94.7819352 209.677721,95.9959352 211.653721,95.9959352 L218.767721,95.9959352 C220.184721,95.9959352 221.276721,95.5789352 222.067721,94.7669352 C222.857721,95.5789352 223.929721,95.9959352 225.299721,95.9959352 L254.940721,95.9959352 C256.262721,95.9959352 257.334721,95.5999352 258.124721,94.8299352 C258.915721,94.0449352 259.310721,93.0639352 259.310721,91.8839352 L259.310721,81.0529352 L257.102721,81.7009352 L257.102721,91.6709352 Z" id="Fill-305" fill="#FFFFFF"></path>
        <polygon id="Fill-306" fill="#FFFFFF" points="261.310421 95.9961352 263.513421 95.9961352 263.513421 81.0061352 261.310421 81.7011352"></polygon>
        <path d="M276.114121,83.4414352 C276.762121,83.4414352 277.321121,82.8874352 277.321121,82.2344352 C277.321121,81.5864352 276.762121,81.0524352 276.114121,81.0524352 C275.461121,81.0524352 274.929121,81.5864352 274.929121,82.2344352 C274.929121,82.8874352 275.461121,83.4414352 276.114121,83.4414352" id="Fill-307" fill="#FFFFFF"></path>
        <path d="M272.978321,83.4414352 C273.647321,83.4414352 274.205321,82.8874352 274.205321,82.2344352 C274.205321,81.5864352 273.647321,81.0524352 272.978321,81.0524352 C272.323321,81.0524352 271.764321,81.5864352 271.764321,82.2344352 C271.764321,82.8874352 272.323321,83.4414352 272.978321,83.4414352" id="Fill-308" fill="#FFFFFF"></path>
        <path d="M288.062321,83.4414352 C288.710321,83.4414352 289.269321,82.8874352 289.269321,82.2344352 C289.269321,81.5634352 288.710321,81.0054352 288.062321,81.0054352 C287.408321,81.0054352 286.855321,81.5634352 286.855321,82.2344352 C286.855321,82.8874352 287.408321,83.4414352 288.062321,83.4414352" id="Fill-309" fill="#FFFFFF"></path>
        <path d="M297.309421,98.0615352 C296.641421,98.0615352 296.129421,98.6005352 296.129421,99.2485352 C296.129421,99.8975352 296.641421,100.456535 297.309421,100.456535 C297.963421,100.456535 298.523421,99.8975352 298.523421,99.2485352 C298.523421,98.6005352 297.963421,98.0615352 297.309421,98.0615352" id="Fill-310" fill="#FFFFFF"></path>
        <path d="M300.425621,98.0615352 C299.772621,98.0615352 299.240621,98.6005352 299.240621,99.2485352 C299.240621,99.8975352 299.772621,100.456535 300.425621,100.456535 C301.073621,100.456535 301.634621,99.8975352 301.634621,99.2485352 C301.634621,98.6005352 301.073621,98.0615352 300.425621,98.0615352" id="Fill-311" fill="#FFFFFF"></path>
        <path d="M326.886521,83.4414352 C327.540521,83.4414352 328.072521,82.8874352 328.072521,82.2344352 C328.072521,81.5864352 327.540521,81.0524352 326.886521,81.0524352 C326.211521,81.0524352 325.657521,81.5864352 325.657521,82.2344352 C325.657521,82.8874352 326.211521,83.4414352 326.886521,83.4414352" id="Fill-312" fill="#FFFFFF"></path>
        <path d="M289.897321,92.5517352 C289.460321,93.3227352 288.852321,93.8547352 288.062321,94.1137352 C287.297321,93.8547352 286.691321,93.3227352 286.228321,92.5517352 C285.832321,91.8837352 285.648321,91.1397352 285.648321,90.3227352 C285.648321,88.7397352 286.548321,87.4647352 288.062321,87.4647352 C289.643321,87.4647352 290.498321,88.7397352 290.498321,90.3227352 C290.498321,91.1397352 290.292321,91.8837352 289.897321,92.5517352 L289.897321,92.5517352 Z M276.231321,90.6697352 C276.231321,91.8077352 276.067321,92.6477352 275.766321,93.1587352 C275.418321,93.7857352 274.765321,94.0867352 273.857321,94.0867352 C272.951321,94.0867352 272.302321,93.7857352 271.955321,93.1587352 C271.654321,92.6477352 271.490321,91.8077352 271.490321,90.6697352 C271.490321,89.5307352 271.654321,88.6987352 271.955321,88.2067352 C272.302321,87.6077352 272.951321,87.3007352 273.857321,87.3007352 L276.231321,87.3007352 L276.231321,90.6697352 Z M326.865321,85.5147352 C324.983321,85.5147352 323.285321,86.2787352 321.729321,87.7907352 L323.311321,89.2517352 C324.403321,88.0707352 325.585321,87.4647352 326.865321,87.4647352 C328.377321,87.4647352 329.396321,88.1177352 329.908321,89.4207352 C330.233321,90.2067352 330.397321,91.4877352 330.397321,93.2467352 L330.397321,94.0867352 L315.025321,94.0447352 C313.516321,94.0447352 312.748321,93.2957352 312.748321,91.7877352 L312.748321,81.0057352 L310.544321,81.7007352 L310.544321,91.6707352 C310.544321,93.2467352 309.774321,94.0447352 308.239321,94.0447352 L302.239321,94.0867352 C300.705321,94.0867352 299.936321,93.3227352 299.936321,91.7877352 L299.936321,85.5147352 L297.752321,86.1607352 L297.752321,91.7197352 C297.752321,93.2957352 296.989321,94.0867352 295.427321,94.0867352 L291.151321,94.0867352 C292.105321,93.0437352 292.590321,91.9297352 292.639321,90.7857352 C292.659321,89.3247352 292.337321,88.1177352 291.689321,87.1907352 C290.899321,86.0727352 289.686321,85.5147352 288.062321,85.5147352 C286.459321,85.5147352 285.251321,86.0727352 284.434321,87.1907352 C283.786321,88.1177352 283.485321,89.3247352 283.528321,90.7857352 C283.548321,91.9297352 284.018321,93.0437352 284.972321,94.0867352 L280.711321,94.0867352 C279.204321,94.0867352 278.439321,93.2957352 278.439321,91.7197352 L278.439321,85.5147352 L273.720321,85.5147352 C270.768321,85.5147352 269.282321,87.2327352 269.282321,90.6697352 C269.282321,94.2287352 270.768321,95.9957352 273.720321,95.9957352 C275.460321,95.9957352 276.599321,95.4627352 277.137321,94.3657352 C277.622321,95.4627352 278.787321,95.9957352 280.596321,95.9957352 L286.691321,95.9957352 C287.175321,95.9957352 287.619321,95.9477352 288.062321,95.8537352 C288.526321,95.9477352 288.990321,95.9957352 289.432321,95.9957352 L295.569321,95.9957352 C296.989321,95.9957352 298.080321,95.5787352 298.871321,94.7667352 C299.662321,95.5787352 300.726321,95.9957352 302.102321,95.9957352 L308.376321,95.9957352 C309.795321,95.9957352 310.892321,95.5787352 311.656321,94.7397352 C312.468321,95.5787352 313.539321,95.9957352 314.882321,95.9957352 L332.649321,95.9957352 L332.649321,93.2467352 C332.649321,90.9967352 332.348321,89.2517352 331.742321,88.0707352 C330.836321,86.3727352 329.210321,85.5147352 326.865321,85.5147352 L326.865321,85.5147352 Z" id="Fill-313" fill="#FFFFFF"></path>
        <path d="M345.250821,83.4414352 C345.898821,83.4414352 346.457821,82.8874352 346.457821,82.2344352 C346.457821,81.5864352 345.898821,81.0524352 345.250821,81.0524352 C344.596821,81.0524352 344.063821,81.5864352 344.063821,82.2344352 C344.063821,82.8874352 344.596821,83.4414352 345.250821,83.4414352" id="Fill-314" fill="#FFFFFF"></path>
        <path d="M342.113221,83.4414352 C342.788221,83.4414352 343.342221,82.8874352 343.342221,82.2344352 C343.342221,81.5864352 342.788221,81.0524352 342.113221,81.0524352 C341.459221,81.0524352 340.906221,81.5864352 340.906221,82.2344352 C340.906221,82.8874352 341.459221,83.4414352 342.113221,83.4414352" id="Fill-315" fill="#FFFFFF"></path>
        <path d="M359.132721,83.4414352 C359.775721,83.4414352 360.338721,82.8874352 360.338721,82.2344352 C360.338721,81.5864352 359.775721,81.0524352 359.132721,81.0524352 C358.478721,81.0524352 357.920721,81.5864352 357.920721,82.2344352 C357.920721,82.8874352 358.478721,83.4414352 359.132721,83.4414352" id="Fill-316" fill="#FFFFFF"></path>
        <path d="M364.637621,98.0615352 C363.988621,98.0615352 363.430621,98.6005352 363.430621,99.2485352 C363.430621,99.8975352 363.988621,100.456535 364.637621,100.456535 C365.263621,100.456535 365.824621,99.8975352 365.824621,99.2485352 C365.824621,98.6005352 365.263621,98.0615352 364.637621,98.0615352" id="Fill-317" fill="#FFFFFF"></path>
        <path d="M345.366121,90.6699352 C345.366121,91.8079352 345.204121,92.6479352 344.903121,93.1589352 C344.554121,93.7859352 343.900121,94.0869352 342.994121,94.0869352 C342.088121,94.0869352 341.439121,93.7859352 341.090121,93.1589352 C340.785121,92.6479352 340.627121,91.8079352 340.627121,90.6699352 C340.627121,89.5309352 340.785121,88.6989352 341.090121,88.2069352 C341.439121,87.6069352 342.088121,87.3009352 342.994121,87.3009352 L345.366121,87.3009352 L345.366121,90.6699352 Z M367.263121,91.7199352 C367.263121,93.2959352 366.498121,94.0869352 364.963121,94.0869352 L362.591121,94.0869352 C361.056121,94.0869352 360.293121,93.3219352 360.293121,91.7879352 L360.293121,85.5149352 L358.104121,86.1609352 L358.104121,91.7199352 C358.104121,93.2959352 357.340121,94.0869352 355.784121,94.0869352 L349.852121,94.0869352 C348.340121,94.0869352 347.576121,93.2959352 347.576121,91.7199352 L347.576121,85.5149352 L342.856121,85.5149352 C339.904121,85.5149352 338.417121,87.2319352 338.417121,90.6699352 C338.417121,94.2289352 339.904121,95.9959352 342.856121,95.9959352 C344.596121,95.9959352 345.735121,95.4629352 346.273121,94.3659352 C346.759121,95.4629352 347.924121,95.9959352 349.732121,95.9959352 L355.921121,95.9959352 C357.340121,95.9959352 358.431121,95.5789352 359.222121,94.7669352 C360.013121,95.5789352 361.083121,95.9959352 362.449121,95.9959352 L365.080121,95.9959352 C366.402121,95.9959352 367.473121,95.5999352 368.264121,94.8299352 C369.055121,94.0649352 369.452121,93.0639352 369.452121,91.8839352 L369.452121,85.5149352 L367.263121,86.1609352 L367.263121,91.7199352 Z" id="Fill-318" fill="#FFFFFF"></path>
        <path d="M367.773321,98.0615352 C367.099321,98.0615352 366.545321,98.6005352 366.545321,99.2485352 C366.545321,99.8975352 367.099321,100.456535 367.773321,100.456535 C368.421321,100.456535 368.960321,99.8975352 368.960321,99.2485352 C368.960321,98.6005352 368.421321,98.0615352 367.773321,98.0615352" id="Fill-319" fill="#FFFFFF"></path>
        <path d="M394.504821,94.1133352 C392.970821,94.1133352 392.206821,93.0903352 392.206821,91.0173352 C392.206821,88.9513352 392.970821,87.9083352 394.504821,87.9083352 C396.018821,87.9083352 396.783821,88.9513352 396.783821,91.0173352 C396.783821,93.0903352 396.018821,94.1133352 394.504821,94.1133352 M398.037821,87.5803352 C397.273821,86.5353352 396.086821,86.0243352 394.504821,86.0243352 C392.901821,86.0243352 391.714821,86.5353352 390.950821,87.5803352 C390.323821,88.4673352 389.996821,89.6043352 389.996821,91.0173352 L389.996821,91.7663352 C389.996821,93.3223352 389.232821,94.0873352 387.719821,94.0873352 L380.675821,94.0453352 L380.675821,89.5093352 C380.675821,88.2983352 380.253821,87.3473352 379.394821,86.6263352 C378.535821,85.9083352 377.443821,85.5343352 376.072821,85.5343352 C375.027821,85.5343352 373.980821,85.9993352 372.935821,86.9053352 L372.935821,89.4213352 C373.700821,88.0703352 374.748821,87.3963352 376.072821,87.3963352 C377.676821,87.3963352 378.493821,88.1603352 378.493821,89.6733352 L378.493821,94.0873352 L372.773821,94.0873352 L371.448821,95.9963352 L387.861821,95.9963352 C389.396821,95.9963352 390.534821,95.5793352 391.273821,94.7663352 C392.089821,95.5793352 393.160821,95.9963352 394.504821,95.9963352 C396.086821,95.9963352 397.273821,95.4633352 398.037821,94.4143352 C398.663821,93.5533352 398.991821,92.4153352 398.991821,91.0173352 C398.991821,89.6043352 398.663821,88.4673352 398.037821,87.5803352" id="Fill-320" fill="#FFFFFF"></path>
        <polygon id="Fill-321" fill="#FFFFFF" points="165.695121 118.518535 165.695121 105.771535 168.269121 105.771535 168.269121 111.431535 173.468121 105.771535 176.928121 105.771535 172.130121 110.736535 177.189121 118.518535 173.859121 118.518535 170.355121 112.537535 168.269121 114.666535 168.269121 118.518535"></polygon>
        <polygon id="Fill-322" fill="#FFFFFF" points="178.171721 118.518535 178.171721 105.771535 180.746721 105.771535 180.746721 110.788535 185.787721 110.788535 185.787721 105.771535 188.362721 105.771535 188.362721 118.518535 185.787721 118.518535 185.787721 112.945535 180.746721 112.945535 180.746721 118.518535"></polygon>
        <path d="M197.421721,113.474635 L195.666721,108.745635 L193.943721,113.474635 L197.421721,113.474635 Z M202.159721,118.518635 L199.360721,118.518635 L198.247721,115.622635 L193.152721,115.622635 L192.101721,118.518635 L189.370721,118.518635 L194.335721,105.771635 L197.057721,105.771635 L202.159721,118.518635 Z" id="Fill-323" fill="#FFFFFF"></path>
        <polygon id="Fill-324" fill="#FFFFFF" points="203.238121 118.518535 203.238121 105.876535 205.813121 105.876535 205.813121 116.370535 212.213121 116.370535 212.213121 118.518535"></polygon>
        <polygon id="Fill-325" fill="#FFFFFF" points="213.611021 118.518635 216.186021 118.518635 216.186021 105.771635 213.611021 105.771635"></polygon>
        <polygon id="Fill-326" fill="#FFFFFF" points="218.298621 118.518535 218.298621 105.771535 227.036621 105.771535 227.036621 107.927535 220.871621 107.927535 220.871621 110.945535 226.192621 110.945535 226.192621 113.102535 220.871621 113.102535 220.871621 118.518535"></polygon>
        <path d="M234.574021,113.474635 L232.819021,108.745635 L231.097021,113.474635 L234.574021,113.474635 Z M239.313021,118.518635 L236.513021,118.518635 L235.400021,115.622635 L230.306021,115.622635 L229.254021,118.518635 L226.523021,118.518635 L231.489021,105.771635 L234.210021,105.771635 L239.313021,118.518635 Z" id="Fill-327" fill="#FFFFFF"></path>
        <polygon id="Fill-328" fill="#FFFFFF" points="244.174021 118.518635 246.748021 118.518635 246.748021 105.771635 244.174021 105.771635"></polygon>
        <polygon id="Fill-329" fill="#FFFFFF" points="248.868921 118.518535 248.868921 105.771535 251.372921 105.771535 256.590921 114.284535 256.590921 105.771535 258.980921 105.771535 258.980921 118.518535 256.397921 118.518535 251.261921 110.206535 251.261921 118.518535"></polygon>
        <path d="M263.910921,107.927735 L263.910921,116.369735 L265.833921,116.369735 C266.552921,116.369735 267.069921,116.329735 267.389921,116.247735 C267.806921,116.144735 268.151921,115.967735 268.427921,115.718735 C268.701921,115.469735 268.927921,115.059735 269.100921,114.488735 C269.274921,113.917735 269.361921,113.138735 269.361921,112.154735 C269.361921,111.167735 269.274921,110.411735 269.100921,109.883735 C268.927921,109.357735 268.684921,108.946735 268.370921,108.650735 C268.057921,108.354735 267.660921,108.154735 267.180921,108.049735 C266.820921,107.969735 266.117921,107.927735 265.067921,107.927735 L263.910921,107.927735 Z M261.338921,105.771735 L266.040921,105.771735 C267.101921,105.771735 267.910921,105.853735 268.466921,106.015735 C269.215921,106.236735 269.854921,106.627735 270.388921,107.189735 C270.921921,107.750735 271.326921,108.439735 271.604921,109.253735 C271.883921,110.069735 272.022921,111.072735 272.022921,112.267735 C272.022921,113.316735 271.890921,114.220735 271.632921,114.979735 C271.312921,115.906735 270.857921,116.657735 270.265921,117.231735 C269.819921,117.665735 269.216921,118.004735 268.457921,118.248735 C267.889921,118.427735 267.130921,118.518735 266.181921,118.518735 L261.338921,118.518735 L261.338921,105.771735 Z" id="Fill-330" fill="#FFFFFF"></path>
        <path d="M273.830921,105.771535 L276.404921,105.771535 L276.404921,112.675535 C276.404921,113.770535 276.436921,114.481535 276.500921,114.805535 C276.610921,115.327535 276.872921,115.747535 277.287921,116.062535 C277.701921,116.378535 278.268921,116.536535 278.987921,116.536535 C279.718921,116.536535 280.267921,116.386535 280.639921,116.087535 C281.010921,115.790535 281.232921,115.422535 281.309921,114.987535 C281.383921,114.552535 281.421921,113.833535 281.421921,112.823535 L281.421921,105.771535 L283.994921,105.771535 L283.994921,112.466535 C283.994921,113.998535 283.926921,115.078535 283.785921,115.709535 C283.647921,116.341535 283.391921,116.875535 283.016921,117.309535 C282.643921,117.744535 282.143921,118.090535 281.517921,118.349535 C280.892921,118.607535 280.074921,118.735535 279.064921,118.735535 C277.847921,118.735535 276.924921,118.594535 276.296921,118.314535 C275.667921,118.033535 275.171921,117.667535 274.805921,117.217535 C274.440921,116.769535 274.199921,116.298535 274.084921,115.805535 C273.915921,115.074535 273.830921,113.998535 273.830921,112.572535 L273.830921,105.771535 Z" id="Fill-331" fill="#FFFFFF"></path>
        <path d="M285.700021,114.371135 L288.204021,114.127135 C288.354021,114.968135 288.660021,115.586135 289.120021,115.979135 C289.582021,116.374135 290.203021,116.571135 290.986021,116.571135 C291.815021,116.571135 292.438021,116.395135 292.859021,116.044135 C293.279021,115.695135 293.490021,115.284135 293.490021,114.814135 C293.490021,114.513135 293.401021,114.257135 293.225021,114.045135 C293.049021,113.834135 292.739021,113.648135 292.300021,113.493135 C291.997021,113.388135 291.310021,113.204135 290.238021,112.936135 C288.859021,112.594135 287.891021,112.175135 287.335021,111.676135 C286.553021,110.974135 286.161021,110.120135 286.161021,109.110135 C286.161021,108.462135 286.346021,107.854135 286.713021,107.290135 C287.081021,106.725135 287.610021,106.293135 288.304021,105.999135 C288.997021,105.703135 289.832021,105.555135 290.811021,105.555135 C292.412021,105.555135 293.615021,105.905135 294.425021,106.607135 C295.233021,107.308135 295.658021,108.244135 295.698021,109.416135 L293.126021,109.528135 C293.015021,108.874135 292.778021,108.403135 292.417021,108.115135 C292.054021,107.828135 291.511021,107.684135 290.787021,107.684135 C290.040021,107.684135 289.453021,107.840135 289.030021,108.145135 C288.758021,108.343135 288.622021,108.607135 288.622021,108.937135 C288.622021,109.239135 288.749021,109.496135 289.005021,109.710135 C289.327021,109.984135 290.116021,110.267135 291.368021,110.562135 C292.621021,110.858135 293.547021,111.165135 294.147021,111.480135 C294.747021,111.797135 295.217021,112.227135 295.554021,112.776135 C295.893021,113.324135 296.064021,114.000135 296.064021,114.806135 C296.064021,115.536135 295.860021,116.220135 295.454021,116.858135 C295.050021,117.495135 294.476021,117.969135 293.734021,118.279135 C292.992021,118.589135 292.067021,118.744135 290.961021,118.744135 C289.349021,118.744135 288.110021,118.373135 287.248021,117.627135 C286.384021,116.884135 285.869021,115.797135 285.700021,114.371135" id="Fill-332" fill="#FFFFFF"></path>
        <polygon id="Fill-333" fill="#FFFFFF" points="300.742021 118.518535 300.742021 107.927535 296.961021 107.927535 296.961021 105.771535 307.089021 105.771535 307.089021 107.927535 303.316021 107.927535 303.316021 118.518535"></polygon>
        <path d="M310.975421,111.163135 L312.879421,111.163135 C314.113421,111.163135 314.884421,111.111135 315.192421,111.006135 C315.499421,110.902135 315.740421,110.724135 315.913421,110.468135 C316.087421,110.212135 316.174421,109.894135 316.174421,109.512135 C316.174421,109.082135 316.061421,108.735135 315.831421,108.472135 C315.603421,108.209135 315.279421,108.042135 314.862421,107.972135 C314.653421,107.943135 314.028421,107.928135 312.983421,107.928135 L310.975421,107.928135 L310.975421,111.163135 Z M308.401421,118.518135 L308.401421,105.771135 L313.819421,105.771135 C315.180421,105.771135 316.169421,105.887135 316.787421,106.116135 C317.405421,106.345135 317.900421,106.751135 318.271421,107.338135 C318.640421,107.923135 318.826421,108.592135 318.826421,109.346135 C318.826421,110.302135 318.544421,111.093135 317.983421,111.715135 C317.421421,112.338135 316.580421,112.731135 315.462421,112.893135 C316.017421,113.218135 316.477421,113.575135 316.839421,113.963135 C317.201421,114.351135 317.691421,115.041135 318.304421,116.031135 L319.861421,118.518135 L316.783421,118.518135 L314.922421,115.745135 C314.262421,114.754135 313.809421,114.130135 313.567421,113.871135 C313.323421,113.613135 313.065421,113.436135 312.792421,113.341135 C312.520421,113.246135 312.088421,113.197135 311.496421,113.197135 L310.975421,113.197135 L310.975421,118.518135 L308.401421,118.518135 Z" id="Fill-334" fill="#FFFFFF"></path>
        <polygon id="Fill-335" fill="#FFFFFF" points="320.817021 118.518635 323.391021 118.518635 323.391021 105.771635 320.817021 105.771635"></polygon>
        <path d="M332.243021,113.474635 L330.486021,108.745635 L328.764021,113.474635 L332.243021,113.474635 Z M336.980021,118.518635 L334.182021,118.518635 L333.069021,115.622635 L327.973021,115.622635 L326.922021,118.518635 L324.192021,118.518635 L329.157021,105.771635 L331.877021,105.771635 L336.980021,118.518635 Z" id="Fill-336" fill="#FFFFFF"></path>
        <polygon id="Fill-337" fill="#FFFFFF" points="338.058521 118.518535 338.058521 105.876535 340.633521 105.876535 340.633521 116.370535 347.032521 116.370535 347.032521 118.518535"></polygon>
        <polygon id="Fill-338" fill="#FFFFFF" points="351.676621 118.518535 351.676621 116.196535 358.371621 107.927535 352.432621 107.927535 352.432621 105.771535 361.759621 105.771535 361.759621 107.772535 354.779621 116.370535 362.030621 116.370535 362.030621 118.518535"></polygon>
        <path d="M365.431521,112.137735 C365.431521,113.579735 365.763521,114.673735 366.430521,115.418735 C367.097521,116.162735 367.943521,116.535735 368.970521,116.535735 C369.994521,116.535735 370.837521,116.165735 371.495521,115.427735 C372.153521,114.688735 372.482521,113.579735 372.482521,112.102735 C372.482521,110.641735 372.160521,109.551735 371.521521,108.832735 C370.880521,108.114735 370.030521,107.753735 368.970521,107.753735 C367.910521,107.753735 367.054521,108.118735 366.406521,108.845735 C365.755521,109.573735 365.431521,110.669735 365.431521,112.137735 M362.780521,112.222735 C362.780521,110.925735 362.973521,109.835735 363.362521,108.954735 C363.652521,108.305735 364.046521,107.722735 364.548521,107.205735 C365.049521,106.691735 365.600521,106.308735 366.197521,106.059735 C366.991521,105.723735 367.905521,105.554735 368.943521,105.554735 C370.822521,105.554735 372.325521,106.137735 373.452521,107.302735 C374.578521,108.467735 375.143521,110.087735 375.143521,112.161735 C375.143521,114.220735 374.583521,115.829735 373.465521,116.991735 C372.346521,118.154735 370.850521,118.735735 368.978521,118.735735 C367.082521,118.735735 365.577521,118.157735 364.457521,116.999735 C363.337521,115.845735 362.780521,114.251735 362.780521,112.222735" id="Fill-339" fill="#FFFFFF"></path>
        <polygon id="Fill-340" fill="#FFFFFF" points="376.820221 118.518535 376.820221 105.771535 379.325221 105.771535 384.542221 114.284535 384.542221 105.771535 386.932221 105.771535 386.932221 118.518535 384.349221 118.518535 379.213221 110.206535 379.213221 118.518535"></polygon>
        <polygon id="Fill-341" fill="#FFFFFF" points="389.297721 118.518535 389.297721 105.771535 398.749721 105.771535 398.749721 107.927535 391.870721 107.927535 391.870721 110.752535 398.271721 110.752535 398.271721 112.901535 391.870721 112.901535 391.870721 116.370535 398.991721 116.370535 398.991721 118.518535"></polygon>
    </g>
</svg>