<svg xmlns="http://www.w3.org/2000/svg" width="81" height="53" viewBox="0 0 81 53">
    <path d="M29.479 0c9.214 0 17.481 2.942 22.907 7.583.156-.344.504-.583.907-.583C68.533 7 81 15.56 81 26.34c0 6.747-4.955 12.803-12.845 16.303l-.25.108.136.302c1.308 2.815 3.001 5.434 5.032 7.78l.44.497c.578.642.127 1.665-.737 1.67-6.196.037-12.093-2.607-16.206-7.233l-.207-.238-.03.003c-.899.073-1.713.116-2.499.128l-1.091.008c-6.024-.017-11.95-1.562-17.229-4.497-.168-.093-.298-.228-.386-.384-1.816.244-3.691.372-5.607.372-.731 0-1.466-.023-2.258-.069l-.983-.066-.221.255C21.766 46.125 15.641 48.932 9.183 49h-.431c-.861-.007-1.311-1.027-.735-1.668 2.389-2.66 4.357-5.672 5.836-8.93l.14-.318-.293-.127C5.422 34.305.171 27.991.004 20.934L0 20.587C0 9.138 13.305 0 29.479 0zm24.428 9.005l.158.163C57.18 12.426 59 16.346 59 20.587c0 9.335-8.848 17.127-20.887 19.683 4.559 2.22 9.562 3.384 14.648 3.397l.59-.003c1.035 0 2.099-.057 3.352-.17.33-.03.652.105.862.36 3.235 3.937 7.838 6.43 12.817 7.014l.14.014-.295-.378c-1.712-2.234-3.152-4.668-4.29-7.252l-.278-.649c-.216-.516.034-1.108.554-1.314C74.106 38.163 79 32.499 79 26.339c0-9.343-11.12-17.113-25.093-17.334zM29.479 2C14.285 2 2 10.437 2 20.587c0 6.619 5.242 12.696 13.678 16.028.518.205.769.793.558 1.309-1.254 3.069-2.91 5.95-4.922 8.567l-.32.407.274-.028c5.224-.587 10.069-3.141 13.536-7.195l.27-.323c.21-.254.53-.39.856-.362 1.356.113 2.482.169 3.591.169C44.72 39.159 57 30.733 57 20.587 57 10.426 44.727 2 29.479 2z"/>
</svg>
