<svg xmlns="http://www.w3.org/2000/svg" width="69" height="56" viewBox="0 0 69 56">
    <path fill="#FFF" d="M46.882 19.279c2.497 0 5.04 1.39 6.177 3.378l10.133 15.395c.099.151.152.327.152.504v12.622c0 2.343-2.605 4.822-5.071 4.822H12.371c-2.456 0-4.109-2.488-4.109-4.82V38.557c0-.172.048-.341.14-.488l9.681-15.445c1.192-2.082 3.324-3.345 5.681-3.345h23.118zm0 1.836H23.764c-1.718 0-3.213.894-4.103 2.453l-9.563 15.256V51.18c0 1.414.935 2.984 2.275 2.984h45.902c1.452 0 3.235-1.645 3.235-2.984V38.83L51.498 23.613c-.845-1.467-2.772-2.5-4.616-2.5zm-11.558 2.754c8.88 0 15.836 3.933 15.836 8.95-.002 5.017-6.957 8.951-15.836 8.951-8.88 0-15.836-3.934-15.836-8.95 0-5.016 6.957-8.951 15.836-8.951zm0 1.836c-7.588 0-14 3.257-14 7.115 0 3.86 6.412 7.114 14 7.114 7.589 0 14-3.255 14-7.114-.002-3.858-6.411-7.115-14-7.115zM34.885.918c16.334 0 33.967 5.835 33.967 15.263v4.016c0 .683 0 2.754-2.546 2.754h-9.18c-1.827 0-2.962-1.056-2.962-2.754v-2.295c0-4.943-9.494-8.263-18.36-8.263-8.867 0-18.361 3.32-18.361 8.263v2.295c0 1.79-2.022 2.754-3.922 2.754H4.34c-2.015 0-3.423-1.133-3.423-2.754V16.18C.918 6.753 18.55.918 34.885.918zm0 1.836c-15.197 0-32.13 5.512-32.13 13.427v4.016c0 .859 1.365.914 1.564.918h9.202c1.052 0 2.086-.456 2.086-.918v-2.295c0-6.318 10.269-10.099 20.196-10.099C45.731 7.803 56 11.582 56 17.902v2.295c0 .484.086.918 1.126.918h9.18c.602 0 .71 0 .71-.918V16.18c0-7.915-16.934-13.427-32.13-13.427z"/>
</svg>
