<?xml version="1.0" standalone="no"?>
<!DOCTYPE svg PUBLIC "-//W3C//DTD SVG 1.1//EN" "http://www.w3.org/Graphics/SVG/1.1/DTD/svg11.dtd" >
<svg xmlns="http://www.w3.org/2000/svg" xmlns:xlink="http://www.w3.org/1999/xlink" version="1.1">
<metadata>
Created by FontForge 20190801 at Mon May  9 21:11:39 2016
 By Jimmy Wärting
Published by Die Gestalten Verlag GmbH &#38; Co. KG, 2012
Copyright (c) by Binnenland, 2006, Designed by Mika Mischler / 2002-2006, revised and extended 2012 All rights reserved. This software may not be reproduced, used, displayed, modified, disclosed or transferred without the express written approval of (Binnenland).
</metadata>
<defs>
<font id="TSTARPROW00-Regular" horiz-adv-x="537" >
  <font-face 
    font-family="TSTARPROW00-Regular"
    font-weight="400"
    font-stretch="normal"
    units-per-em="1000"
    panose-1="2 0 8 6 3 0 0 2 0 4"
    ascent="800"
    descent="-200"
    x-height="527"
    cap-height="713"
    bbox="-44 -226 1037 1015"
    underline-thickness="50"
    underline-position="-125"
    unicode-range="U+0020-FB02"
  />
<missing-glyph horiz-adv-x="1000" 
 />
    <glyph glyph-name=".notdef" horiz-adv-x="1000" 
 />
    <glyph glyph-name="glyph1" horiz-adv-x="0" 
 />
    <glyph glyph-name="glyph2" horiz-adv-x="220" 
 />
    <glyph glyph-name="space" unicode=" " horiz-adv-x="220" 
 />
    <glyph glyph-name="exclam" unicode="!" horiz-adv-x="248" 
d="M152 207h-55v504h55v-504zM165 0h-83v83h83v-83z" />
    <glyph glyph-name="quotedbl" unicode="&#x22;" horiz-adv-x="343" 
d="M137 555h-55v186h55v-186zM261 555h-55v186h55v-186z" />
    <glyph glyph-name="numbersign" unicode="#" horiz-adv-x="672" 
d="M589 446h-115l-27 -162h109v-45h-116l-34 -218h-48l33 218h-162l-35 -218h-49l35 218h-98v45h105l26 162h-98v45h105l32 199h50l-32 -199h162l33 199h49l-34 -199h109v-45zM424 446h-161l-27 -162h162z" />
    <glyph glyph-name="dollar" unicode="$" horiz-adv-x="519" 
d="M226 -71v63q-29 3 -59 14.5t-55.5 34t-42 57t-16.5 78.5h55q0 -45 23.5 -76.5t58 -43t64.5 -11.5q70 0 113 37t43 96q0 44 -20 74t-58 51q-34 19 -94.5 51t-79.5 42q-41 22 -67 62.5t-26 88.5q0 68 44.5 115.5t116.5 56.5v67h53v-66q28 -3 58 -13.5t56 -32.5t43.5 -56.5
t17.5 -79.5h-55q0 38 -16.5 67t-49.5 45.5t-77 16.5q-57 0 -96.5 -32t-39.5 -91q0 -33 18.5 -60.5t53.5 -45.5q116 -59 165 -86q51 -28 79.5 -74t28.5 -102q0 -27 -9.5 -56.5t-32 -56.5t-59.5 -47t-85 -24v-63h-53z" />
    <glyph glyph-name="percent" unicode="%" horiz-adv-x="805" 
d="M722 124q0 -26 -11.5 -55.5t-42.5 -49t-73 -19.5q-58 0 -92 33.5t-34 90.5v107q0 26 11.5 55.5t42.5 49t72 19.5q27 0 57.5 -11t50 -41t19.5 -72v-107zM335 482q0 -26 -11.5 -55.5t-42.5 -49t-73 -19.5q-27 0 -57 11t-49.5 41t-19.5 72v107q0 26 11.5 55.5t42.5 49
t72 19.5q42 0 73 -19.5t42.5 -49t11.5 -55.5v-107zM671 124v107q0 22 -8.5 40t-27.5 26t-40 8q-35 0 -55 -19.5t-20 -54.5v-107q0 -22 8.5 -40t27 -26t39.5 -8q36 0 56 19.5t20 54.5zM284 482v107q0 40 -22 57t-54 17q-35 0 -55 -19.5t-20 -54.5v-107q0 -22 8.5 -40t27 -26
t39.5 -8q36 0 56 19.5t20 54.5zM561 769l-269 -825h-51l271 825h49z" />
    <glyph glyph-name="ampersand" unicode="&#x26;" horiz-adv-x="642" 
d="M560 158l-33 -43l-44 37q-6 -42 -26 -73.5t-49.5 -51t-64 -28t-64.5 -8.5q-37 0 -73.5 11t-67 34.5t-48.5 62.5t-18 91q0 56 28 102.5t79 76.5l30 17l-39 34q-34 29 -49.5 61t-15.5 72q0 54 27.5 93.5t72 56.5t83.5 17q50 0 97 -21.5t72.5 -63.5t25.5 -90h-55
q0 27 -13 55t-48 47t-79 19q-63 0 -95.5 -29t-32.5 -86q0 -28 9 -49.5t47 -53.5zM279 45q41 0 76 15t55.5 47t20.5 82v7l-181 154l-45 -25q-37 -22 -57.5 -58t-20.5 -78q0 -50 20.5 -82t55.5 -47t76 -15z" />
    <glyph glyph-name="quotesingle" unicode="'" horiz-adv-x="220" 
d="M137 555h-55v186h55v-186z" />
    <glyph glyph-name="parenleft" unicode="(" horiz-adv-x="281" 
d="M198 -48l-35 -39q-23 22 -37 38t-25 36q-19 34 -19 91v550q0 57 19 91q5 8 16.5 24.5t45.5 49.5l35 -39q-20 -20 -30 -31.5t-17 -25.5q-14 -27 -14 -75v-538q0 -48 14 -75q3 -6 11 -17.5t36 -39.5z" />
    <glyph glyph-name="parenright" unicode=")" horiz-adv-x="281" 
d="M198 78q0 -57 -19 -91q-5 -8 -16.5 -24.5t-45.5 -49.5l-35 39q36 36 47 57q14 30 14 75v538q0 45 -14 75q-11 21 -47 57l35 39q23 -22 37 -38t25 -36q19 -34 19 -91v-550z" />
    <glyph glyph-name="asterisk" unicode="*" horiz-adv-x="565" 
d="M430 478l-21 -38l-109 65l4 -126h-44l3 126l-107 -65l-22 38l110 60l-110 60l22 37l107 -64l-3 126h44l-4 -126l109 64l21 -37l-110 -60z" />
    <glyph glyph-name="plus" unicode="+" horiz-adv-x="565" 
d="M487 259h-180v-187h-51v187h-180v50h180v174h51v-174h180v-50z" />
    <glyph glyph-name="comma" unicode="," horiz-adv-x="279" 
d="M85 -109h-57l79 196h72z" />
    <glyph glyph-name="hyphen" unicode="-" horiz-adv-x="452" 
d="M369 259h-287v50h287v-50z" />
    <glyph glyph-name="period" unicode="." horiz-adv-x="248" 
d="M169 0h-91v91h91v-91z" />
    <glyph glyph-name="slash" unicode="/" horiz-adv-x="492" 
d="M407 771l-269 -825h-56l271 825h54z" />
    <glyph glyph-name="zero" unicode="0" horiz-adv-x="515" 
d="M257 -9q-54 0 -94.5 21.5t-65.5 63t-25 99.5v361q0 48 21 92t65.5 68t98.5 24t94.5 -21.5t65.5 -63t25 -99.5v-361q0 -48 -21 -92t-65.5 -68t-98.5 -24zM257 666q-58 0 -94 -33t-36 -99v-357q0 -66 36 -99t94 -33t94 33t36 99v357q0 66 -36 99t-94 33z" />
    <glyph glyph-name="one" unicode="1" horiz-adv-x="519" 
d="M440 0h-359v54h150v602l-109 -8v52l164 13v-659h154v-54z" />
    <glyph glyph-name="two" unicode="2" horiz-adv-x="515" 
d="M455 528q0 -90 -68 -150q-29 -26 -104.5 -71t-103.5 -69q-32 -26 -48 -53.5t-16 -66.5v-64h339v-54h-394v124q0 89 91 160q29 23 99.5 65.5t98.5 64.5q52 41 52 113q0 66 -37 102.5t-104 36.5q-29 0 -57 -9t-47.5 -25t-30.5 -40.5t-11 -54.5h-55q0 79 57 131t144 52
q31 0 65 -9t66 -35t48 -66t16 -82z" />
    <glyph glyph-name="three" unicode="3" horiz-adv-x="515" 
d="M437 651l-155 -240q37 -3 70 -16.5t55.5 -37.5t33.5 -55.5t11 -66.5v-55q0 -26 -10 -58.5t-32.5 -62t-61 -49t-91.5 -19.5q-41 0 -74 10.5t-58.5 31t-44.5 58t-19 86.5h55q0 -29 9.5 -55t31.5 -44.5t50.5 -25.5t48.5 -7q34 0 66.5 13t53.5 43t21 79v53q0 39 -16 68.5
t-49.5 45t-76.5 15.5h-31v51l158 246h-290v54h345v-62z" />
    <glyph glyph-name="four" unicode="4" horiz-adv-x="515" 
d="M446 0h-55v207h-323v68l162 438h54l-165 -452h272v274h55v-535z" />
    <glyph glyph-name="five" unicode="5" horiz-adv-x="515" 
d="M458 184q0 -40 -16 -76t-44 -62t-65 -40.5t-77 -14.5t-77 13t-64.5 38t-43.5 60t-16 76h55q0 -61 39.5 -97t106.5 -36q27 0 61.5 12t60 45t25.5 81v48q0 26 -9.5 52.5t-27.5 46t-45.5 31t-62.5 11.5h-172v66l20 274h314v-54h-264l-16 -232h120q18 0 42.5 -4.5t49.5 -17
t49.5 -35t40.5 -58.5t16 -78v-49z" />
    <glyph glyph-name="six" unicode="6" horiz-adv-x="515" 
d="M452 174q0 -25 -10 -56t-32.5 -60t-61.5 -48t-93 -19q-40 0 -77 12.5t-63 39.5t-40 61.5t-14 67.5v363q0 26 10 57t32.5 60.5t62 48.5t93.5 19q39 0 70.5 -11t55 -32t40.5 -58t18 -82h-55q-1 65 -35.5 97t-93.5 32q-35 0 -67.5 -12t-54 -42t-21.5 -79v-150q24 30 61 46
t82 16q40 0 77 -12.5t63 -39.5t39.5 -62.5t13.5 -71.5v-85zM397 177v81q0 39 -16 69t-50 47t-76 17t-74.5 -17t-48.5 -46.5t-16 -69.5v-81q0 -48 21.5 -77.5t53.5 -42t64 -12.5q60 0 101 33t41 99z" />
    <glyph glyph-name="seven" unicode="7" horiz-adv-x="515" 
d="M463 651l-242 -651h-59l247 659h-358v54h412v-62z" />
    <glyph glyph-name="eight" unicode="8" horiz-adv-x="515" 
d="M461 193q0 -31 -9.5 -65.5t-32.5 -65.5t-63.5 -51t-97.5 -20q-42 0 -81 13.5t-66.5 42.5t-42.5 67.5t-15 78.5q0 120 97 172q-34 21 -55 55t-27 63.5t-6 46.5q0 30 11 67.5t40 67.5t66.5 42.5t78.5 12.5q40 0 77.5 -12.5t64 -39.5t40.5 -63t14 -75q0 -28 -12.5 -63
t-35 -61t-45.5 -40q54 -31 77 -79t23 -94zM406 193q0 42 -19 77t-55 52t-74 17q-23 0 -48.5 -6.5t-47.5 -23t-38 -45.5t-16 -71q0 -33 10.5 -62.5t35 -50t54.5 -28t50 -7.5t45.5 6.5t48.5 22t38.5 45.5t15.5 74zM399 530q0 49 -22 79.5t-55 43.5t-64 13t-64 -13t-55 -43.5
t-22 -79.5q0 -40 17.5 -72.5t51.5 -48.5t72 -16q63 0 102 37t39 100z" />
    <glyph glyph-name="nine" unicode="9" horiz-adv-x="515" 
d="M452 176q0 -26 -9.5 -57t-31.5 -60.5t-61 -48.5t-93 -19q-39 0 -70.5 11t-56 32t-42 58.5t-18.5 81.5h55q1 -65 37.5 -97t95.5 -32q61 0 100 33t39 100v150q-24 -30 -61 -46t-82 -16q-40 0 -72.5 11.5t-57.5 33t-44 60t-19 81.5v85q0 25 10 56t32.5 60t61.5 48t93 19
q40 0 77 -12.5t63 -39.5t40 -61.5t14 -67.5v-363zM397 453v81q0 66 -40 99t-99 33q-60 0 -101 -33t-41 -99v-81q0 -39 16 -69t50 -47t76 -17t74.5 17t48.5 46.5t16 69.5z" />
    <glyph glyph-name="colon" unicode=":" horiz-adv-x="248" 
d="M169 0h-91v91h91v-91zM169 332h-91v91h91v-91z" />
    <glyph glyph-name="semicolon" unicode=";" horiz-adv-x="246" 
d="M169 332h-91v91h91v-91zM69 -109h-57l79 196h72z" />
    <glyph glyph-name="less" unicode="&#x3c;" horiz-adv-x="503" 
d="M421 0h-75l-264 265l261 262h75l-259 -260z" />
    <glyph glyph-name="equal" unicode="=" horiz-adv-x="594" 
d="M475 343h-357v50h357v-50zM475 195h-357v50h357v-50z" />
    <glyph glyph-name="greater" unicode="&#x3e;" horiz-adv-x="505" 
d="M422 265l-265 -265h-75l262 265l-259 262h75z" />
    <glyph glyph-name="question" unicode="?" horiz-adv-x="447" 
d="M419 528q0 -61 -43 -111q-17 -20 -61 -53.5t-58 -48.5q-29 -31 -29 -90v-25h-55v22q0 77 44 125q18 20 60 51t57 48q30 33 30 81q0 68 -36 103.5t-104 35.5q-43 0 -75 -15.5t-48.5 -44t-18.5 -66.5h-55q0 26 10 57t33 59t62 46t92 18q87 0 141 -53.5t54 -138.5zM244 0
h-82v83h82v-83z" />
    <glyph glyph-name="at" unicode="@" horiz-adv-x="1086" 
d="M677 -133l18 -46q-37 -12 -80.5 -19.5t-81.5 -7.5q-46 0 -104.5 11.5t-117.5 42.5t-105.5 78t-77.5 106.5t-42.5 118.5t-11.5 105q0 70 25.5 150.5t86 153.5t132.5 113t131 52.5t104 12.5q44 0 101 -10.5t116 -39.5t106.5 -73t79.5 -100.5t44 -113t12 -100.5
q0 -62 -19 -118t-52 -97t-75 -63.5t-86 -22.5q-47 0 -84.5 23t-50.5 59q-64 -73 -170 -73q-39 0 -70 12t-50.5 35.5t-26.5 56.5t1 73l31 165q16 80 74.5 128t142.5 48q38 0 71 -16t44 -42l10 50h54l-67 -343q-8 -40 5.5 -71.5t38.5 -43t48 -11.5q45 0 88 32.5t66.5 93.5
t23.5 125q0 81 -31.5 152.5t-87.5 124t-130.5 81t-156.5 28.5q-83 0 -161.5 -34t-137.5 -93.5t-93 -139t-34 -164.5q0 -86 30.5 -162t85.5 -131.5t130 -86.5t160 -31q77 0 144 22zM637 186l32 165q7 35 0 63.5t-32 45t-71 16.5q-59 0 -100 -33t-52 -92l-31 -165
q-12 -62 13 -94.5t89 -32.5q28 0 60.5 11t57.5 41.5t34 74.5z" />
    <glyph glyph-name="A" unicode="A" horiz-adv-x="540" 
d="M459 0l-57 208h-265l-56 -208h-54l196 713h93l197 -713h-54zM262 664l-110 -402h235l-109 402h-16z" />
    <glyph glyph-name="B" unicode="B" horiz-adv-x="548" 
d="M480 183q0 -53 -25 -97t-66.5 -65t-95.5 -21h-211v713h206q54 0 94.5 -20.5t63 -62.5t22.5 -96v-12q0 -28 -10 -60.5t-30.5 -56.5t-47.5 -37q38 -15 59.5 -41t31 -57t9.5 -62v-25zM413 524v9q0 126 -127 126h-149v-264h155q59 0 90 30.5t31 98.5zM425 186v21
q0 67 -34 100.5t-95 33.5h-159v-287h154q32 0 63 12t51 41.5t20 78.5z" />
    <glyph glyph-name="C" unicode="C" horiz-adv-x="521" 
d="M465 536h-55q0 42 -16.5 70.5t-49 44t-75.5 15.5q-63 0 -102.5 -32.5t-39.5 -98.5v-359q0 -66 39.5 -98.5t102.5 -32.5q28 0 61.5 10t56.5 40.5t23 80.5h55v-1q0 -82 -53.5 -133t-142.5 -51q-90 0 -143.5 50.5t-53.5 132.5v363q0 82 53.5 132.5t143.5 50.5
q89 0 142.5 -51t53.5 -133z" />
    <glyph glyph-name="D" unicode="D" horiz-adv-x="548" 
d="M286 713q88 0 138.5 -50.5t50.5 -133.5v-342q0 -85 -50 -136t-139 -51h-204v713h204zM420 528q0 65 -36.5 98t-97.5 33h-149v-605h149q28 0 59.5 10t53 41t21.5 83v340z" />
    <glyph glyph-name="E" unicode="E" horiz-adv-x="509" 
d="M456 0h-374v713h374v-54h-319v-254h295v-54h-295v-297h319v-54z" />
    <glyph glyph-name="F" unicode="F" horiz-adv-x="499" 
d="M456 659h-319v-255h295v-54h-295v-350h-55v713h374v-54z" />
    <glyph glyph-name="G" unicode="G" horiz-adv-x="538" 
d="M465 536h-55q0 42 -16.5 70.5t-49 44t-75.5 15.5q-63 0 -102.5 -32.5t-39.5 -98.5v-359q0 -66 39.5 -98.5t102.5 -32.5q62 0 101 31.5t40 97.5v154h-152v54h207v-207q0 -82 -53.5 -133t-142.5 -51q-90 0 -143.5 50.5t-53.5 132.5v363q0 82 53.5 132.5t143.5 50.5
q89 0 142.5 -51t53.5 -133z" />
    <glyph glyph-name="H" unicode="H" horiz-adv-x="572" 
d="M489 0h-55v348h-297v-348h-55v713h55v-311h297v311h55v-713z" />
    <glyph glyph-name="I" unicode="I" horiz-adv-x="220" 
d="M82 713h55v-713h-55v713z" />
    <glyph glyph-name="J" unicode="J" horiz-adv-x="452" 
d="M374 175q0 -86 -47 -135t-130 -49q-81 0 -128 50t-47 132h55q0 -63 32.5 -95.5t88.5 -32.5q57 0 89 31.5t32 92.5v490h-220v54h275v-538z" />
    <glyph glyph-name="K" unicode="K" horiz-adv-x="510" 
d="M482 0h-64l-207 350l-74 -111v-239h-55v713h55v-377l266 377h63l-221 -316z" />
    <glyph glyph-name="L" unicode="L" horiz-adv-x="473" 
d="M455 0h-373v713h55v-659h318v-54z" />
    <glyph glyph-name="M" unicode="M" horiz-adv-x="663" 
d="M137 0h-55v713h79l170 -410l168 410h81v-713h-55v636l-168 -409h-52l-168 409v-636z" />
    <glyph glyph-name="N" unicode="N" horiz-adv-x="563" 
d="M480 0h-77l-266 628v-628h-55v713h74l269 -636v636h55v-713z" />
    <glyph glyph-name="O" unicode="O" 
d="M269 -9q-90 0 -143.5 50.5t-53.5 132.5v363q0 82 53.5 132.5t143.5 50.5q89 0 142.5 -51t53.5 -133v-361q0 -82 -53.5 -133t-142.5 -51zM410 535q0 42 -16.5 71t-49 44.5t-75.5 15.5q-63 0 -102.5 -32.5t-39.5 -98.5v-359q0 -66 39.5 -98.5t102.5 -32.5q28 0 61.5 10
t56.5 40.5t23 80.5v359z" />
    <glyph glyph-name="P" unicode="P" horiz-adv-x="523" 
d="M475 476q0 -55 -24.5 -99t-65 -65t-93.5 -21h-155v-291h-55v713h206q54 0 95.5 -21t66.5 -65t25 -97v-54zM420 477v51q0 49 -20 78.5t-51 41t-63 11.5h-149v-314h151q32 0 62.5 12t50 41.5t19.5 78.5z" />
    <glyph glyph-name="Q" unicode="Q" horiz-adv-x="538" 
d="M243 -110v102q-29 3 -59 13.5t-54.5 32t-41 55.5t-16.5 81v363q0 82 53.5 132.5t143.5 50.5q89 0 142.5 -51t53.5 -133v-361q0 -77 -47 -126.5t-125 -56.5v-102h-50zM410 535q0 42 -16.5 71t-49 44.5t-75.5 15.5q-63 0 -102.5 -32.5t-39.5 -98.5v-359q0 -59 32 -91.5
t84 -38.5v142h50v-142q52 6 84.5 38.5t32.5 91.5v359z" />
    <glyph glyph-name="R" unicode="R" horiz-adv-x="541" 
d="M486 0h-63l-145 311h-141v-311h-55v713h206q54 0 95.5 -21t66.5 -64.5t25 -96.5v-35q0 -36 -13.5 -74t-45 -67.5t-80.5 -39.5zM420 497v31q0 49 -20 78.5t-51 41t-63 11.5h-149v-294h151q32 0 62.5 12t50 41.5t19.5 78.5z" />
    <glyph glyph-name="S" unicode="S" horiz-adv-x="519" 
d="M465 176q0 -39 -16 -73.5t-45 -59.5t-67.5 -39t-81.5 -14q-44 0 -77.5 12.5t-59 32.5t-45.5 56.5t-20 84.5h55q0 -30 14 -61.5t50.5 -51t81.5 -19.5q70 0 113 37.5t43 96.5q0 44 -20 74t-58 51q-34 19 -94.5 51t-79.5 42q-41 22 -67 62.5t-26 88.5q0 76 54 125t137 49
q43 0 79.5 -13.5t63 -38.5t41 -58.5t14.5 -72.5h-55q0 38 -16.5 66.5t-49.5 45.5t-77 17q-57 0 -96.5 -32t-39.5 -91q0 -33 18.5 -60.5t53.5 -45.5q116 -59 165 -86q51 -28 79.5 -74t28.5 -102z" />
    <glyph glyph-name="T" unicode="T" horiz-adv-x="472" 
d="M443 659h-180v-659h-55v659h-180v54h415v-54z" />
    <glyph glyph-name="U" unicode="U" 
d="M410 713h55v-538q0 -82 -53.5 -133t-142.5 -51q-90 0 -143.5 50.5t-53.5 132.5v539h55v-537q0 -66 39.5 -98.5t102.5 -32.5q28 0 61.5 10t56.5 40.5t23 80.5v537z" />
    <glyph glyph-name="V" unicode="V" horiz-adv-x="523" 
d="M439 713h53l-188 -713h-90l-188 713h53l173 -661h14z" />
    <glyph glyph-name="W" unicode="W" horiz-adv-x="794" 
d="M765 713l-149 -713h-76l-143 612l-145 -612h-76l-148 713h56l130 -661l154 660h57l153 -660l131 661h56z" />
    <glyph glyph-name="X" unicode="X" horiz-adv-x="488" 
d="M459 0h-63l-153 307l-152 -307h-63l185 359l-184 354h61l152 -305l154 305h61l-184 -354z" />
    <glyph glyph-name="Y" unicode="Y" horiz-adv-x="489" 
d="M460 713l-189 -456v-257h-55v258l-188 455h60l156 -388l156 388h60z" />
    <glyph glyph-name="Z" unicode="Z" horiz-adv-x="453" 
d="M420 0h-388v56l313 603h-299v54h357v-53l-313 -606h330v-54z" />
    <glyph glyph-name="bracketleft" unicode="[" horiz-adv-x="304" 
d="M221 -85h-139v859h139v-49h-89v-761h89v-49z" />
    <glyph glyph-name="backslash" unicode="\" horiz-adv-x="488" 
d="M405 -57h-53l-270 825h54z" />
    <glyph glyph-name="bracketright" unicode="]" horiz-adv-x="304" 
d="M221 -85h-139v49h89v761h-89v49h139v-859z" />
    <glyph glyph-name="asciicircum" unicode="^" horiz-adv-x="488" 
d="M405 460h-55l-106 198l-106 -198h-56l136 253h53z" />
    <glyph glyph-name="underscore" unicode="_" horiz-adv-x="528" 
d="M529 -165h-531v45h531v-45z" />
    <glyph glyph-name="grave" unicode="`" horiz-adv-x="301" 
d="M218 604h-50l-86 147h64z" />
    <glyph glyph-name="a" unicode="a" horiz-adv-x="522" 
d="M443 369v-369h-55v63q-25 -34 -66 -53t-92 -19q-33 0 -64 10t-55 30.5t-38.5 52.5t-14.5 74q0 68 46 106t118 38h166v64q0 40 -14.5 66t-42.5 38t-69 12q-24 0 -51 -7t-43 -21t-25 -33t-9 -48h-55q0 42 16.5 73.5t44 51.5t60.5 29t61 9q31 0 64.5 -8.5t60 -29t42 -53
t15.5 -76.5zM388 176v76h-163q-53 0 -82.5 -23t-29.5 -71q0 -56 31 -84.5t98 -28.5q41 0 78.5 20.5t52.5 50.5t15 60z" />
    <glyph glyph-name="b" unicode="b" horiz-adv-x="535" 
d="M462 177q0 -85 -52 -136t-138 -51q-41 0 -77.5 16t-57.5 46v-52h-55v713h55v-239q52 62 135 62q87 0 138.5 -50t51.5 -136v-173zM407 177v173q0 63 -34.5 97.5t-100.5 34.5q-64 0 -99.5 -34.5t-35.5 -97.5v-173q0 -64 34 -98.5t101 -34.5q64 0 99.5 35t35.5 98z" />
    <glyph glyph-name="c" unicode="c" horiz-adv-x="512" 
d="M266 536q85 0 136.5 -47t55.5 -128h-55q-2 34 -16.5 61.5t-44.5 43.5t-76 16q-65 0 -102 -35t-37 -97v-173q0 -37 14 -67t45 -48t80 -18q59 0 95.5 31.5t40.5 86.5h56q-2 -38 -15 -66.5t-33 -50t-56.5 -38.5t-87.5 -17q-89 0 -141.5 50.5t-52.5 136.5v173q0 84 53.5 135
t140.5 51z" />
    <glyph glyph-name="d" unicode="d" horiz-adv-x="536" 
d="M127 350v-173q0 -63 35.5 -98t99.5 -35q30 0 53 7t41 21t30 41t12 64v173q0 63 -36 97.5t-100 34.5q-66 0 -100.5 -34.5t-34.5 -97.5zM72 177v173q0 86 51.5 136t138.5 50q84 0 136 -62v239h55v-713h-55v52q-21 -30 -57.5 -46t-78.5 -16q-86 0 -138 51t-52 136z" />
    <glyph glyph-name="e" unicode="e" horiz-adv-x="531" 
d="M459 350v-100h-332v-73q0 -37 14 -67t45 -48t80 -18q59 0 96 31.5t41 86.5h55q-2 -38 -15 -66.5t-33 -50t-56.5 -38.5t-87.5 -17q-89 0 -141.5 50.5t-52.5 136.5v173q0 84 53.5 135t140.5 51q32 0 65.5 -8.5t61.5 -30t47 -58t19 -89.5zM403 304v46q0 37 -13.5 67
t-44.5 47.5t-79 17.5q-65 0 -102 -35t-37 -97v-46h276z" />
    <glyph glyph-name="f" unicode="f" horiz-adv-x="327" 
d="M303 473h-130v-473h-55v473h-95v54h95v42q0 68 34 106t102 38h37v-54h-47q-19 0 -37 -10t-26 -29t-8 -39v-54h130v-54z" />
    <glyph glyph-name="g" unicode="g" horiz-adv-x="535" 
d="M397 -46v98q-23 -31 -58 -46.5t-76 -15.5q-88 0 -139.5 50t-51.5 137v173q0 84 52 135t139 51q41 0 78.5 -16t55.5 -45v52h55v-573q0 -86 -47 -133t-142 -47q-77 0 -128 41.5t-55 112.5h55q4 -47 38.5 -73.5t89.5 -26.5q77 0 105.5 33.5t28.5 92.5zM397 177v173
q0 64 -34 98t-100 34q-64 0 -100 -34.5t-36 -97.5v-173q0 -23 6.5 -47.5t21 -43t42 -30.5t66.5 -12q63 0 98.5 35t35.5 98z" />
    <glyph glyph-name="h" unicode="h" horiz-adv-x="542" 
d="M463 0h-55v350q0 39 -10.5 68t-38 46.5t-76.5 17.5q-61 0 -103.5 -36.5t-42.5 -93.5v-352h-55v713h55v-249q23 36 63 54t83 18q87 0 133.5 -49t46.5 -137v-350z" />
    <glyph glyph-name="i" unicode="i" horiz-adv-x="234" 
d="M145 0h-55v527h55v-527zM153 624h-72v89h72v-89z" />
    <glyph glyph-name="j" unicode="j" horiz-adv-x="230" 
d="M140 -95q0 -33 -11.5 -64t-41 -49t-67.5 -18h-18v54h13q31 0 50.5 17t19.5 55v627h55v-622zM149 624h-72v89h72v-89z" />
    <glyph glyph-name="k" unicode="k" horiz-adv-x="497" 
d="M468 0h-65l-172 269l-94 -103v-166h-55v713h55v-471l258 285h72l-200 -218z" />
    <glyph glyph-name="l" unicode="l" horiz-adv-x="240" 
d="M78 131v582h55v-587q0 -38 19.5 -55t50.5 -17h13v-54h-18q-38 0 -67.5 18t-41 49t-11.5 64z" />
    <glyph glyph-name="m" unicode="m" horiz-adv-x="760" 
d="M681 388v-388h-55v381q0 43 -22 72t-69 29q-126 0 -126 -144v-338h-55v378q0 19 -7 43t-24.5 39t-32.5 18.5t-26 3.5q-127 0 -127 -145v-337h-55v527h55v-53q19 27 49.5 44.5t84.5 17.5q42 0 72 -22.5t43 -58.5q13 23 36.5 43t54.5 29t63 9q45 0 76.5 -20t48 -54.5
t16.5 -73.5z" />
    <glyph glyph-name="n" unicode="n" horiz-adv-x="542" 
d="M463 0h-55v350q0 39 -10.5 68t-38 46.5t-76.5 17.5q-61 0 -103.5 -36.5t-42.5 -93.5v-352h-55v527h55v-63q25 37 63.5 54.5t82.5 17.5q87 0 133.5 -49t46.5 -137v-350z" />
    <glyph glyph-name="o" unicode="o" horiz-adv-x="531" 
d="M459 177q0 -85 -53.5 -136t-139.5 -51q-89 0 -141.5 50.5t-52.5 136.5v173q0 84 53.5 135t140.5 51q32 0 65.5 -8.5t61.5 -30t47 -58t19 -89.5v-173zM404 177v173q0 36 -14 66.5t-45 48t-79 17.5q-65 0 -102 -35t-37 -97v-173q0 -37 14 -67t45 -48t80 -18q64 0 101 35.5
t37 97.5z" />
    <glyph glyph-name="p" unicode="p" horiz-adv-x="536" 
d="M463 177q0 -87 -51.5 -137t-139.5 -50q-41 0 -78 16t-57 47v-279h-55v753h55v-51q43 60 135 60q87 0 139 -51t52 -135v-173zM408 177v173q0 63 -36 97.5t-100 34.5q-66 0 -100.5 -34.5t-34.5 -97.5v-173q0 -63 35.5 -98t99.5 -35q30 0 53 7t41 21t30 41t12 64z" />
    <glyph glyph-name="q" unicode="q" horiz-adv-x="535" 
d="M127 350v-173q0 -23 6.5 -47.5t21 -43t42 -30.5t66.5 -12q63 0 98.5 35t35.5 98v173q0 64 -34 98t-100 34q-64 0 -100 -34.5t-36 -97.5zM72 177v173q0 84 52 135t139 51q41 0 76 -15t58 -45v51h55v-753h-55v279q-45 -63 -134 -63q-88 0 -139.5 50t-51.5 137z" />
    <glyph glyph-name="r" unicode="r" horiz-adv-x="313" 
d="M279 473h-33q-29 0 -54.5 -16.5t-40 -45.5t-14.5 -72v-339h-55v527h55v-65q17 33 48 49t62 16h32v-54z" />
    <glyph glyph-name="s" unicode="s" horiz-adv-x="492" 
d="M438 152q0 -52 -23 -87t-66 -54t-105 -19q-41 0 -76.5 11t-61 32.5t-39.5 52.5t-14 68h55q0 -52 37 -81t99 -29q139 0 139 106q0 55 -71 76q-31 9 -82 20.5t-57 12.5q-35 8 -62.5 29.5t-38.5 48t-11 48.5q0 47 24 82t67 50.5t89 15.5q85 0 137 -43t53 -119h-55
q-1 50 -34.5 79t-102.5 29q-61 0 -92 -24t-31 -70q0 -26 20 -46.5t51 -27.5q8 -2 52.5 -11.5t64.5 -14.5t26 -7q49 -14 78.5 -47t29.5 -81z" />
    <glyph glyph-name="t" unicode="t" horiz-adv-x="354" 
d="M23 473v54h105v186h55v-186h120v-54h-120v-347q0 -38 19.5 -55t50.5 -17h52v-54h-57q-38 0 -67.5 18t-41 49t-11.5 64v342h-105z" />
    <glyph glyph-name="u" unicode="u" horiz-adv-x="544" 
d="M461 0h-55v53q-47 -63 -137 -63q-88 0 -139.5 50.5t-51.5 136.5v350h55v-350q0 -23 6.5 -47.5t21 -43t42 -30.5t66.5 -12q28 0 59.5 11.5t54.5 41.5t23 74v356h55v-527z" />
    <glyph glyph-name="v" unicode="v" horiz-adv-x="460" 
d="M223 51h15l136 476h57l-152 -527h-97l-153 527h57z" />
    <glyph glyph-name="w" unicode="w" horiz-adv-x="699" 
d="M655 527l-123 -527h-73l-110 450l-110 -450h-72l-124 527h56l106 -474l116 474h56l117 -474l105 474h56z" />
    <glyph glyph-name="x" unicode="x" horiz-adv-x="438" 
d="M419 0h-66l-133 216l-138 -216h-64l169 264l-168 263h64l136 -220l135 220h64l-168 -264z" />
    <glyph glyph-name="y" unicode="y" horiz-adv-x="454" 
d="M224 0h-41l-155 527h57l137 -476h15l131 476h57l-176 -630q-19 -67 -51 -95t-106 -28h-5v54h18q37 0 57.5 13.5t31.5 52.5z" />
    <glyph glyph-name="z" unicode="z" horiz-adv-x="448" 
d="M404 0h-361v55l281 418h-271v54h329v-55l-281 -418h303v-54z" />
    <glyph glyph-name="braceleft" unicode="{" horiz-adv-x="302" 
d="M219 -71h-23q-62 0 -88 26q-11 11 -18.5 28t-7.5 59v622q0 25 4.5 47.5t21.5 39.5q26 26 88 26h23v-49h-18q-25 0 -36.5 -2t-18.5 -9q-14 -14 -14 -65v-602q0 -46 14 -61q3 -3 11 -7t44 -4h18v-49z" />
    <glyph glyph-name="bar" unicode="|" horiz-adv-x="216" 
d="M132 -58h-50v828h50v-828z" />
    <glyph glyph-name="braceright" unicode="}" horiz-adv-x="306" 
d="M223 41q0 -25 -4.5 -47.5t-21.5 -39.5q-28 -26 -89 -26h-26v49h21h13q33 0 43 10q14 14 14 61v607q0 47 -14 61q-3 3 -11.5 7t-44.5 4h-21v49h26q61 0 89 -26q11 -11 18.5 -28t7.5 -59v-622z" />
    <glyph glyph-name="asciitilde" unicode="~" horiz-adv-x="534" 
d="M417 310l34 -27q-26 -26 -49.5 -41.5t-58.5 -15.5q-25 0 -77.5 24t-78.5 24q-19 0 -34 -7.5t-38 -30.5l-33 27q25 25 49 41t59 16q28 0 78 -24t77 -24q19 0 34 7.5t38 30.5z" />
    <glyph glyph-name="exclamdown" unicode="&#xa1;" horiz-adv-x="248" 
d="M94 337h55v-504h-55v504zM80 544h83v-83h-83v83z" />
    <glyph glyph-name="cent" unicode="&#xa2;" horiz-adv-x="512" 
d="M241 -151v142q-78 7 -123.5 56.5t-45.5 129.5v173q0 77 46 127t123 58v142h50v-142q74 -7 118.5 -53t48.5 -121h-55q-2 34 -16.5 61.5t-44.5 43.5t-76 16q-65 0 -102 -35t-37 -97v-173q0 -37 14 -67t45 -48t80 -18q59 0 96 31.5t41 86.5h55q-4 -72 -49.5 -118t-117.5 -53
v-142h-50z" />
    <glyph glyph-name="sterling" unicode="&#xa3;" horiz-adv-x="515" 
d="M461 535h-55q0 38 -14.5 67t-45.5 45.5t-73 16.5q-33 0 -62 -12.5t-46.5 -41t-17.5 -73.5v-129h221v-54h-221v-300h313v-54h-368v354h-39v54h39v127q0 29 8.5 60.5t29.5 58.5t57 45.5t87 18.5q81 0 134 -51.5t53 -131.5z" />
    <glyph glyph-name="yen" unicode="&#xa5;" horiz-adv-x="515" 
d="M427 108h-143v-108h-55v108h-141v50h141v97l-1 1h-140v50h120l-165 407h58l156 -388l156 388h58l-167 -407h123v-50h-143v-98h143v-50z" />
    <glyph glyph-name="brokenbar" unicode="&#xa6;" horiz-adv-x="216" 
d="M135 432h-55v308h55v-308zM135 -28h-55v309h55v-309z" />
    <glyph glyph-name="section" unicode="&#xa7;" horiz-adv-x="557" 
d="M89 387q0 60 37 99q-14 15 -22 37t-8 46q0 47 24 82t67 50.5t89 15.5q85 0 137.5 -43.5t52.5 -120.5h-55q0 24 -11 51t-43.5 44t-82.5 17q-37 0 -65.5 -10.5t-44.5 -31.5t-16 -54q0 -26 17 -46t46 -27l155 -34q34 -8 61 -29.5t37 -48.5t10 -50q0 -15 -3.5 -36.5
t-14 -40.5t-16.5 -26q12 -15 19.5 -36.5t7.5 -42.5q0 -52 -23 -87t-66 -54t-105 -19q-41 0 -76.5 11t-61 32.5t-39.5 52.5t-14 68h55q0 -52 37 -81.5t99 -29.5q70 0 106 27t36 80q0 30 -19 50.5t-49 27.5l-159 35q-31 7 -55.5 27t-34 46.5t-9.5 48.5zM359 280q8 -2 20 -6.5
t19 -8.5q24 27 24 69q0 30 -19 50.5t-49 27.5l-159 35q-18 4 -26 8q-13 -11 -20.5 -29t-7.5 -39q0 -26 17 -46t46 -27z" />
    <glyph glyph-name="dieresis" unicode="&#xa8;" horiz-adv-x="452" 
d="M369 623h-72v90h72v-90zM154 623h-72v90h72v-90z" />
    <glyph glyph-name="copyright" unicode="&#xa9;" horiz-adv-x="882" 
d="M542 255q0 -25 -10 -48t-24 -35t-33 -19t-43 -7q-23 0 -47.5 9t-42 36.5t-17.5 63.5v195q0 24 11.5 49.5t35 41.5t62.5 16q23 0 47.5 -9t42.5 -36.5t18 -62.5h-46q0 18 -7.5 33.5t-23 22.5t-31.5 7t-32 -7t-23.5 -23t-7.5 -34v-192q0 -18 7.5 -34t23.5 -23.5t32 -7.5
t31.5 7.5t23 23t7.5 33.5h46zM799 353q0 -72 -28 -138t-77.5 -115.5t-115 -77.5t-137.5 -28t-138 28t-115.5 77.5t-77.5 115.5t-28 138t28 138t77.5 115.5t115.5 77.5t138 28t137.5 -28t115 -77.5t77.5 -115.5t28 -138zM749 353q0 62 -24 119t-66.5 100t-99 67t-118.5 24
t-118.5 -24t-99.5 -67t-67 -100t-24 -119t24 -119t67 -100t99.5 -67t118.5 -24t118.5 24t99 67t66.5 100t24 119z" />
    <glyph glyph-name="ordfeminine" unicode="&#xaa;" horiz-adv-x="412" 
d="M333 600v-240h-45v31q-16 -16 -40.5 -26.5t-49.5 -10.5q-52 0 -86 28t-34 83q0 22 10.5 45t37.5 37.5t62 14.5h100v36q0 69 -75 69q-23 0 -42 -9t-27 -26t-8 -35h-45q0 55 38 84.5t83 29.5q35 0 63 -13.5t43 -37.5t15 -60zM288 476v45h-99q-31 0 -48.5 -14t-17.5 -42
q0 -67 77 -67q24 0 46.5 12t32 30.5t9.5 35.5z" />
    <glyph glyph-name="guillemotleft" unicode="&#xab;" horiz-adv-x="489" 
d="M416 84l-181 181l181 181v-72l-111 -109l111 -110v-71zM213 84l-181 181l181 181v-72l-110 -109l110 -110v-71z" />
    <glyph glyph-name="logicalnot" unicode="&#xac;" horiz-adv-x="564" 
d="M485 176h-55v172h-352v54h407v-226z" />
    <glyph glyph-name="uni00AD" unicode="&#xad;" horiz-adv-x="588" 
d="M504 259h-420v50h420v-50z" />
    <glyph glyph-name="registered" unicode="&#xae;" horiz-adv-x="882" 
d="M564 417q0 -22 -9 -45t-28 -39.5t-51 -21.5l82 -162h-50l-82 161h-44v-161h-44v398h119q31 0 57 -13.5t38 -41t12 -51.5v-24zM520 417v22q0 18 -7.5 34t-23.5 23t-32 7h-75v-150h76q16 0 31.5 7t23 23t7.5 34zM799 353q0 -72 -28 -138t-77.5 -115.5t-115 -77.5
t-137.5 -28t-138 28t-115.5 77.5t-77.5 115.5t-28 138t28 138t77.5 115.5t115.5 77.5t138 28t137.5 -28t115 -77.5t77.5 -115.5t28 -138zM749 353q0 62 -24 119t-66.5 100t-99 67t-118.5 24t-118.5 -24t-99.5 -67t-67 -100t-24 -119t24 -119t67 -100t99.5 -67t118.5 -24
t118.5 24t99 67t66.5 100t24 119z" />
    <glyph glyph-name="macron" unicode="&#xaf;" horiz-adv-x="461" 
d="M378 635h-296v50h296v-50z" />
    <glyph glyph-name="degree" unicode="&#xb0;" horiz-adv-x="347" 
d="M298 589q0 -24 -12.5 -53t-44 -50.5t-69.5 -21.5q-37 0 -68 21.5t-43.5 50.5t-12.5 53q0 52 36.5 88.5t87.5 36.5q52 0 89 -36.5t37 -88.5zM252 589q0 32 -24 56t-56 24t-55 -23.5t-23 -56.5q0 -15 8 -33.5t27.5 -32.5t42.5 -14q32 0 56 24t24 56z" />
    <glyph glyph-name="plusminus" unicode="&#xb1;" horiz-adv-x="568" 
d="M489 259h-180v-167h-51v167h-180v50h180v164h51v-164h180v-50zM488 0h-410v50h410v-50z" />
    <glyph glyph-name="uni00B2" unicode="&#xb2;" horiz-adv-x="367" 
d="M288 625q0 -47 -36 -78q-14 -13 -50 -33.5t-51 -33.5q-13 -12 -20 -23t-7 -27v-24h163v-45h-209v72q0 47 48 84q11 8 45.5 28.5t50.5 34.5q21 18 21 44q0 27 -15.5 42.5t-43.5 15.5q-26 0 -43 -17t-17 -46h-46q0 47 30 77.5t76 30.5q22 0 46.5 -9.5t41 -34.5t16.5 -58z
" />
    <glyph glyph-name="uni00B3" unicode="&#xb3;" horiz-adv-x="364" 
d="M278 680l-68 -105q21 -4 39.5 -16.5t27 -33.5t8.5 -43v-26q0 -13 -7 -35.5t-25.5 -39.5t-37.5 -21.5t-33 -4.5q-36 0 -58.5 15.5t-34 40.5t-11.5 53h45q0 -26 15 -44.5t43 -18.5q29 0 44 16t15 39v25q0 23 -15 38t-44 15h-25v36l68 107h-131v45h185v-42z" />
    <glyph glyph-name="acute" unicode="&#xb4;" horiz-adv-x="301" 
d="M218 751l-87 -147h-49l72 147h64z" />
    <glyph glyph-name="uni00B5" unicode="&#xb5;" horiz-adv-x="548" 
d="M137 -226h-55v753h55v-350q0 -37 13.5 -67t43.5 -47.5t79 -17.5q44 0 78 20t46.5 49t12.5 57v356h55v-527h-55v51q-45 -60 -137 -60q-36 0 -74 11t-62 35v-263z" />
    <glyph glyph-name="paragraph" unicode="&#xb6;" horiz-adv-x="491" 
d="M392 0h-55v665h-103v-665h-55v400q-30 0 -61 8t-57.5 27t-44 49t-17.5 70q0 82 47 123.5t132 41.5h214v-719z" />
    <glyph glyph-name="periodcentered" unicode="&#xb7;" horiz-adv-x="252" 
d="M169 223h-87v88h87v-88z" />
    <glyph glyph-name="cedilla" unicode="&#xb8;" horiz-adv-x="282" 
d="M63 -190l87 147h49l-72 -147h-64z" />
    <glyph glyph-name="uni00B9" unicode="&#xb9;" horiz-adv-x="348" 
d="M269 361h-191v45h73v271l-54 -5v44l99 10v-320h73v-45z" />
    <glyph glyph-name="ordmasculine" unicode="&#xba;" horiz-adv-x="414" 
d="M335 476q0 -29 -12.5 -57.5t-43.5 -47.5t-73 -19q-27 0 -57.5 11t-50.5 41t-20 72v110q0 56 35.5 90t92.5 34q27 0 57.5 -11t51 -41t20.5 -72v-110zM290 476v110q0 23 -10 42.5t-29.5 28.5t-44.5 9q-39 0 -61 -21.5t-22 -58.5v-110q0 -23 9.5 -42.5t29 -28.5t44.5 -9
q38 0 61 21.5t23 58.5z" />
    <glyph glyph-name="guillemotright" unicode="&#xbb;" horiz-adv-x="488" 
d="M455 266l-180 -181v71l109 110l-109 109v72zM252 266l-180 -181v71l110 110l-110 109v72z" />
    <glyph glyph-name="onequarter" unicode="&#xbc;" horiz-adv-x="719" 
d="M269 361h-191v45h73v271l-54 -5v44l99 10v-320h73v-45zM519 771l-269 -825h-51l271 825h49zM640 0h-45v100h-156v42l82 221h45l-80 -218h109v132h45v-277z" />
    <glyph glyph-name="onehalf" unicode="&#xbd;" horiz-adv-x="752" 
d="M269 361h-191v45h73v271l-54 -5v44l99 10v-320h73v-45zM673 264q0 -47 -36 -78q-11 -10 -47 -31t-50.5 -32.5t-22.5 -25t-8 -28.5v-24h163v-45h-209v72q0 47 48 84q1 1 4 3t58 34.5t55 69.5q0 27 -15.5 42.5t-43.5 15.5q-26 0 -43 -17t-17 -46h-46q0 47 30 77.5t76 30.5
q22 0 46.5 -9.5t41 -34.5t16.5 -58zM519 771l-269 -825h-51l271 825h49z" />
    <glyph glyph-name="threequarters" unicode="&#xbe;" horiz-adv-x="729" 
d="M650 0h-45v100h-156v42l82 221h45l-80 -218h109v132h45v-277zM278 680l-68 -105q21 -4 39.5 -16.5t27 -33.5t8.5 -43v-26q0 -13 -7 -35.5t-25.5 -39.5t-37.5 -21.5t-33 -4.5q-36 0 -58.5 15.5t-34 40.5t-11.5 53h45q0 -18 7 -33.5t22 -23t29 -7.5t29 6.5t22.5 20
t7.5 29.5v25q0 23 -15 38t-44 15h-25v36l68 107h-131v45h185v-42zM529 771l-269 -825h-51l271 825h49z" />
    <glyph glyph-name="questiondown" unicode="&#xbf;" horiz-adv-x="427" 
d="M27 6q0 61 43 111q17 20 61 53.5t58 48.5q29 31 29 90v25h55v-22q0 -77 -44 -125q-18 -20 -60 -51t-57 -48q-30 -33 -30 -81q0 -68 36 -103.5t104 -35.5q43 0 75 15.5t48.5 44t18.5 66.5h55q0 -26 -10 -57t-33 -59t-62 -46t-92 -18q-87 0 -141 53.5t-54 138.5zM202 534
h82v-83h-82v83z" />
    <glyph glyph-name="Agrave" unicode="&#xc0;" horiz-adv-x="540" 
d="M459 0l-57 208h-265l-56 -208h-54l196 713h93l197 -713h-54zM262 664l-110 -402h235l-109 402h-16zM308 780h-50l-86 147h64z" />
    <glyph glyph-name="Aacute" unicode="&#xc1;" horiz-adv-x="540" 
d="M459 0l-57 208h-265l-56 -208h-54l196 713h93l197 -713h-54zM262 664l-110 -402h235l-109 402h-16zM368 927l-87 -147h-49l72 147h64z" />
    <glyph glyph-name="Acircumflex" unicode="&#xc2;" horiz-adv-x="540" 
d="M459 0l-57 208h-265l-56 -208h-54l196 713h93l197 -713h-54zM262 664l-110 -402h235l-109 402h-16zM397 780h-50l-77 101l-77 -101h-51l100 147h55z" />
    <glyph glyph-name="Atilde" unicode="&#xc3;" horiz-adv-x="540" 
d="M459 0l-57 208h-265l-56 -208h-54l196 713h93l197 -713h-54zM262 664l-110 -402h235l-109 402h-16zM392 859l32 -31q-22 -22 -43.5 -35t-46.5 -13q-24 0 -66.5 22.5t-60.5 22.5q-14 0 -26.5 -6t-32.5 -25l-32 31q22 22 43.5 35t46.5 13q24 0 62.5 -19.5t49.5 -22.5t15 -3
q14 0 27.5 6.5t31.5 24.5z" />
    <glyph glyph-name="Adieresis" unicode="&#xc4;" horiz-adv-x="540" 
d="M459 0l-57 208h-265l-56 -208h-54l196 713h93l197 -713h-54zM262 664l-110 -402h235l-109 402h-16zM413 780h-72v90h72v-90zM198 780h-72v90h72v-90z" />
    <glyph glyph-name="Aring" unicode="&#xc5;" horiz-adv-x="540" 
d="M459 0l-57 208h-265l-56 -208h-54l196 713h93l197 -713h-54zM262 664l-110 -402h235l-109 402h-16zM370 851q0 -19 -10 -42t-35.5 -40.5t-55.5 -17.5q-29 0 -54 17.5t-35 40.5t-10 42t10 42.5t35 40.5t54 17q19 0 43 -10t41 -35t17 -55zM328 851q0 24 -17.5 41t-41.5 17
q-23 0 -40 -17t-17 -41q0 -23 17 -40.5t40 -17.5q24 0 41.5 17.5t17.5 40.5z" />
    <glyph glyph-name="AE" unicode="&#xc6;" horiz-adv-x="791" 
d="M738 0h-375v208h-228l-55 -208h-53l186 712h525v-54h-320v-253h295v-54h-295v-297h320v-54zM253 658l-105 -396h215v396h-110z" />
    <glyph glyph-name="Ccedilla" unicode="&#xc7;" horiz-adv-x="521" 
d="M465 536h-55q0 42 -16.5 70.5t-49 44t-75.5 15.5q-63 0 -102.5 -32.5t-39.5 -98.5v-359q0 -66 39.5 -98.5t102.5 -32.5q28 0 61.5 10t56.5 40.5t23 80.5h55v-1q0 -82 -53.5 -133t-142.5 -51q-90 0 -143.5 50.5t-53.5 132.5v363q0 82 53.5 132.5t143.5 50.5
q89 0 142.5 -51t53.5 -133zM162 -190l87 147h49l-72 -147h-64z" />
    <glyph glyph-name="Egrave" unicode="&#xc8;" horiz-adv-x="509" 
d="M456 0h-374v713h374v-54h-319v-254h295v-54h-295v-297h319v-54zM302 780h-50l-86 147h64z" />
    <glyph glyph-name="Eacute" unicode="&#xc9;" horiz-adv-x="509" 
d="M456 0h-374v713h374v-54h-319v-254h295v-54h-295v-297h319v-54zM352 927l-87 -147h-49l72 147h64z" />
    <glyph glyph-name="Ecircumflex" unicode="&#xca;" horiz-adv-x="509" 
d="M456 0h-374v713h374v-54h-319v-254h295v-54h-295v-297h319v-54zM382 780h-50l-77 101l-77 -101h-51l100 147h55z" />
    <glyph glyph-name="Edieresis" unicode="&#xcb;" horiz-adv-x="509" 
d="M456 0h-374v713h374v-54h-319v-254h295v-54h-295v-297h319v-54zM398 780h-72v90h72v-90zM183 780h-72v90h72v-90z" />
    <glyph glyph-name="Igrave" unicode="&#xcc;" horiz-adv-x="220" 
d="M82 713h55v-713h-55v713zM135 780h-50l-86 147h64z" />
    <glyph glyph-name="Iacute" unicode="&#xcd;" horiz-adv-x="220" 
d="M82 713h55v-713h-55v713zM220 927l-87 -147h-49l72 147h64z" />
    <glyph glyph-name="Icircumflex" unicode="&#xce;" horiz-adv-x="220" 
d="M82 713h55v-713h-55v713zM238 780h-50l-77 101l-77 -101h-51l100 147h55z" />
    <glyph glyph-name="Idieresis" unicode="&#xcf;" horiz-adv-x="220" 
d="M82 713h55v-713h-55v713zM254 780h-72v90h72v-90zM39 780h-72v90h72v-90z" />
    <glyph glyph-name="Eth" unicode="&#xd0;" horiz-adv-x="551" 
d="M479 186q0 -55 -24.5 -99.5t-65 -65.5t-93.5 -21h-210v350h-62v50h62v313h206q54 0 95.5 -21t66.5 -65t25 -97v-344zM311 350h-170v-296h153q57 0 93.5 33t36.5 100v340q0 40 -14.5 69.5t-45 46t-72.5 16.5h-151v-259h170v-50z" />
    <glyph glyph-name="Ntilde" unicode="&#xd1;" horiz-adv-x="563" 
d="M480 0h-77l-266 628v-628h-55v713h74l269 -636v636h55v-713zM403 859l32 -31q-22 -22 -43.5 -35t-46.5 -13q-24 0 -66.5 22.5t-60.5 22.5q-14 0 -26.5 -6t-32.5 -25l-32 31q22 22 43.5 35t46.5 13q24 0 62.5 -19.5t49.5 -22.5t15 -3q14 0 27.5 6.5t31.5 24.5z" />
    <glyph glyph-name="Ograve" unicode="&#xd2;" 
d="M269 -9q-90 0 -143.5 50.5t-53.5 132.5v363q0 82 53.5 132.5t143.5 50.5q89 0 142.5 -51t53.5 -133v-361q0 -82 -53.5 -133t-142.5 -51zM410 535q0 42 -16.5 71t-49 44.5t-75.5 15.5q-63 0 -102.5 -32.5t-39.5 -98.5v-359q0 -66 39.5 -98.5t102.5 -32.5q28 0 61.5 10
t56.5 40.5t23 80.5v359zM306 780h-50l-86 147h64z" />
    <glyph glyph-name="Oacute" unicode="&#xd3;" 
d="M269 -9q-90 0 -143.5 50.5t-53.5 132.5v363q0 82 53.5 132.5t143.5 50.5q89 0 142.5 -51t53.5 -133v-361q0 -82 -53.5 -133t-142.5 -51zM410 535q0 42 -16.5 71t-49 44.5t-75.5 15.5q-63 0 -102.5 -32.5t-39.5 -98.5v-359q0 -66 39.5 -98.5t102.5 -32.5q28 0 61.5 10
t56.5 40.5t23 80.5v359zM368 927l-87 -147h-49l72 147h64z" />
    <glyph glyph-name="Ocircumflex" unicode="&#xd4;" 
d="M269 -9q-90 0 -143.5 50.5t-53.5 132.5v363q0 82 53.5 132.5t143.5 50.5q89 0 142.5 -51t53.5 -133v-361q0 -82 -53.5 -133t-142.5 -51zM410 535q0 42 -16.5 71t-49 44.5t-75.5 15.5q-63 0 -102.5 -32.5t-39.5 -98.5v-359q0 -66 39.5 -98.5t102.5 -32.5q28 0 61.5 10
t56.5 40.5t23 80.5v359zM396 780h-50l-77 101l-77 -101h-51l100 147h55z" />
    <glyph glyph-name="Otilde" unicode="&#xd5;" horiz-adv-x="538" 
d="M269 -9q-90 0 -143.5 50.5t-53.5 132.5v363q0 82 53.5 132.5t143.5 50.5q89 0 142.5 -51t53.5 -133v-361q0 -82 -53.5 -133t-142.5 -51zM410 535q0 42 -16.5 71t-49 44.5t-75.5 15.5q-63 0 -102.5 -32.5t-39.5 -98.5v-359q0 -66 39.5 -98.5t102.5 -32.5q28 0 61.5 10
t56.5 40.5t23 80.5v359zM389 859l32 -31q-22 -22 -43.5 -35t-46.5 -13q-24 0 -66.5 22.5t-60.5 22.5q-14 0 -26.5 -6t-32.5 -25l-32 31q22 22 43.5 35t46.5 13q24 0 62.5 -19.5t49.5 -22.5t15 -3q14 0 27.5 6.5t31.5 24.5z" />
    <glyph glyph-name="Odieresis" unicode="&#xd6;" 
d="M269 -9q-90 0 -143.5 50.5t-53.5 132.5v363q0 82 53.5 132.5t143.5 50.5q89 0 142.5 -51t53.5 -133v-361q0 -82 -53.5 -133t-142.5 -51zM410 535q0 42 -16.5 71t-49 44.5t-75.5 15.5q-63 0 -102.5 -32.5t-39.5 -98.5v-359q0 -66 39.5 -98.5t102.5 -32.5q28 0 61.5 10
t56.5 40.5t23 80.5v359zM412 780h-72v90h72v-90zM197 780h-72v90h72v-90z" />
    <glyph glyph-name="multiply" unicode="&#xd7;" horiz-adv-x="565" 
d="M453 134l-35 -35l-136 136l-136 -136l-35 35l136 136l-136 136l35 35l136 -136l136 136l35 -35l-136 -136z" />
    <glyph glyph-name="Oslash" unicode="&#xd8;" horiz-adv-x="538" 
d="M269 -9q-77 0 -128 37l-38 -82h-53l55 118q-15 21 -24 50.5t-9 59.5v363q0 82 53.5 132.5t143.5 50.5q77 0 126 -37l35 74h52l-51 -110q16 -22 25 -50.5t9 -60.5v-361q0 -82 -53.5 -133t-142.5 -51zM410 535q0 27 -8 51l-237 -508q19 -17 47 -25t57 -8q28 0 61.5 10
t56.5 40.5t23 80.5v359zM127 176q0 -30 7 -50l238 507q-19 17 -47 25t-56 8q-63 0 -102.5 -32.5t-39.5 -98.5v-359z" />
    <glyph glyph-name="Ugrave" unicode="&#xd9;" 
d="M410 713h55v-538q0 -82 -53.5 -133t-142.5 -51q-90 0 -143.5 50.5t-53.5 132.5v539h55v-537q0 -66 39.5 -98.5t102.5 -32.5q28 0 61.5 10t56.5 40.5t23 80.5v537zM326 780h-50l-86 147h64z" />
    <glyph glyph-name="Uacute" unicode="&#xda;" 
d="M410 713h55v-538q0 -82 -53.5 -133t-142.5 -51q-90 0 -143.5 50.5t-53.5 132.5v539h55v-537q0 -66 39.5 -98.5t102.5 -32.5q28 0 61.5 10t56.5 40.5t23 80.5v537zM356 927l-87 -147h-49l72 147h64z" />
    <glyph glyph-name="Ucircumflex" unicode="&#xdb;" 
d="M410 713h55v-538q0 -82 -53.5 -133t-142.5 -51q-90 0 -143.5 50.5t-53.5 132.5v539h55v-537q0 -66 39.5 -98.5t102.5 -32.5q28 0 61.5 10t56.5 40.5t23 80.5v537zM396 780h-50l-77 101l-77 -101h-51l100 147h55z" />
    <glyph glyph-name="Udieresis" unicode="&#xdc;" 
d="M410 713h55v-538q0 -82 -53.5 -133t-142.5 -51q-90 0 -143.5 50.5t-53.5 132.5v539h55v-537q0 -66 39.5 -98.5t102.5 -32.5q28 0 61.5 10t56.5 40.5t23 80.5v537zM412 780h-72v90h72v-90zM197 780h-72v90h72v-90z" />
    <glyph glyph-name="Yacute" unicode="&#xdd;" horiz-adv-x="489" 
d="M460 713l-189 -456v-257h-55v258l-188 455h60l156 -388l156 388h60zM332 927l-87 -147h-49l72 147h64z" />
    <glyph glyph-name="Thorn" unicode="&#xde;" horiz-adv-x="562" 
d="M82 713h55v-160h170q85 0 136 -53.5t51 -139.5q0 -89 -50.5 -141.5t-136.5 -52.5h-170v-166h-55v713zM307 499h-170v-279h170q36 0 66.5 14.5t48 45.5t17.5 80q0 64 -35 101.5t-97 37.5z" />
    <glyph glyph-name="germandbls" unicode="&#xdf;" horiz-adv-x="546" 
d="M478 186q0 -24 -7.5 -56t-28 -62t-57.5 -49t-90 -19h-52v54h50q57 0 93.5 33t36.5 99v51q0 67 -33 99.5t-88 32.5h-23v54h26q21 0 43 10t35.5 36.5t13.5 63.5q0 49 -19 78.5t-48.5 41.5t-60.5 12q-32 0 -62.5 -12t-50 -41.5t-19.5 -78.5v-533h-55v536q0 53 25 97t66.5 65
t95.5 21q53 0 93.5 -21t65 -65.5t24.5 -98.5q0 -44 -20 -82.5t-57 -51.5q52 -18 77.5 -62t25.5 -98v-54z" />
    <glyph glyph-name="agrave" unicode="&#xe0;" horiz-adv-x="522" 
d="M443 369v-369h-55v63q-25 -34 -66 -53t-92 -19q-33 0 -64 10t-55 30.5t-38.5 52.5t-14.5 74q0 68 46 106t118 38h166v64q0 40 -14.5 66t-42.5 38t-69 12q-24 0 -51 -7t-43 -21t-25 -33t-9 -48h-55q0 42 16.5 73.5t44 51.5t60.5 29t61 9q31 0 64.5 -8.5t60 -29t42 -53
t15.5 -76.5zM388 176v76h-163q-53 0 -82.5 -23t-29.5 -71q0 -56 31 -84.5t98 -28.5q41 0 78.5 20.5t52.5 50.5t15 60zM309 604h-50l-86 147h64z" />
    <glyph glyph-name="aacute" unicode="&#xe1;" horiz-adv-x="522" 
d="M443 369v-369h-55v63q-25 -34 -66 -53t-92 -19q-33 0 -64 10t-55 30.5t-38.5 52.5t-14.5 74q0 68 46 106t118 38h166v64q0 40 -14.5 66t-42.5 38t-69 12q-24 0 -51 -7t-43 -21t-25 -33t-9 -48h-55q0 42 16.5 73.5t44 51.5t60.5 29t61 9q31 0 64.5 -8.5t60 -29t42 -53
t15.5 -76.5zM388 176v76h-163q-53 0 -82.5 -23t-29.5 -71q0 -56 31 -84.5t98 -28.5q41 0 78.5 20.5t52.5 50.5t15 60zM349 751l-87 -147h-49l72 147h64z" />
    <glyph glyph-name="acircumflex" unicode="&#xe2;" horiz-adv-x="522" 
d="M443 369v-369h-55v63q-25 -34 -66 -53t-92 -19q-33 0 -64 10t-55 30.5t-38.5 52.5t-14.5 74q0 68 46 106t118 38h166v64q0 40 -14.5 66t-42.5 38t-69 12q-24 0 -51 -7t-43 -21t-25 -33t-9 -48h-55q0 42 16.5 73.5t44 51.5t60.5 29t61 9q31 0 64.5 -8.5t60 -29t42 -53
t15.5 -76.5zM388 176v76h-163q-53 0 -82.5 -23t-29.5 -71q0 -56 31 -84.5t98 -28.5q41 0 78.5 20.5t52.5 50.5t15 60zM388 604h-50l-77 101l-77 -101h-51l100 147h55z" />
    <glyph glyph-name="atilde" unicode="&#xe3;" horiz-adv-x="522" 
d="M443 369v-369h-55v63q-25 -34 -66 -53t-92 -19q-33 0 -64 10t-55 30.5t-38.5 52.5t-14.5 74q0 68 46 106t118 38h166v64q0 40 -14.5 66t-42.5 38t-69 12q-24 0 -51 -7t-43 -21t-25 -33t-9 -48h-55q0 42 16.5 73.5t44 51.5t60.5 29t61 9q31 0 64.5 -8.5t60 -29t42 -53
t15.5 -76.5zM388 176v76h-163q-53 0 -82.5 -23t-29.5 -71q0 -56 31 -84.5t98 -28.5q41 0 78.5 20.5t52.5 50.5t15 60zM383 687l32 -31q-22 -22 -43.5 -35t-46.5 -13q-24 0 -66.5 22.5t-60.5 22.5q-14 0 -26.5 -6t-32.5 -25l-32 31q22 22 43.5 35t46.5 13q24 0 62.5 -19.5
t49.5 -22.5t15 -3q14 0 27.5 6.5t31.5 24.5z" />
    <glyph glyph-name="adieresis" unicode="&#xe4;" horiz-adv-x="522" 
d="M443 369v-369h-55v63q-25 -34 -66 -53t-92 -19q-33 0 -64 10t-55 30.5t-38.5 52.5t-14.5 74q0 68 46 106t118 38h166v64q0 40 -14.5 66t-42.5 38t-69 12q-24 0 -51 -7t-43 -21t-25 -33t-9 -48h-55q0 42 16.5 73.5t44 51.5t60.5 29t61 9q31 0 64.5 -8.5t60 -29t42 -53
t15.5 -76.5zM388 176v76h-163q-53 0 -82.5 -23t-29.5 -71q0 -56 31 -84.5t98 -28.5q41 0 78.5 20.5t52.5 50.5t15 60zM404 623h-72v90h72v-90zM189 623h-72v90h72v-90z" />
    <glyph glyph-name="aring" unicode="&#xe5;" horiz-adv-x="522" 
d="M443 369v-369h-55v63q-25 -34 -66 -53t-92 -19q-33 0 -64 10t-55 30.5t-38.5 52.5t-14.5 74q0 68 46 106t118 38h166v64q0 40 -14.5 66t-42.5 38t-69 12q-24 0 -51 -7t-43 -21t-25 -33t-9 -48h-55q0 42 16.5 73.5t44 51.5t60.5 29t61 9q31 0 64.5 -8.5t60 -29t42 -53
t15.5 -76.5zM388 176v76h-163q-53 0 -82.5 -23t-29.5 -71q0 -56 31 -84.5t98 -28.5q41 0 78.5 20.5t52.5 50.5t15 60zM361 665q0 -19 -10 -42t-35.5 -40.5t-55.5 -17.5q-29 0 -54 17.5t-35 40.5t-10 42t10 42.5t35 40.5t54 17q19 0 43 -10t41 -35t17 -55zM319 665
q0 24 -17.5 41t-41.5 17q-23 0 -40 -17t-17 -41q0 -23 17 -40.5t40 -17.5q24 0 41.5 17.5t17.5 40.5z" />
    <glyph glyph-name="ae" unicode="&#xe6;" horiz-adv-x="842" 
d="M769 350v-100h-326v-73q0 -37 13.5 -67t43.5 -47.5t79 -17.5q59 0 94.5 31t39.5 86h55q-4 -78 -55.5 -124.5t-133.5 -46.5q-55 0 -100.5 26t-66.5 68q-23 -42 -73.5 -68t-108.5 -26q-44 0 -85 17.5t-64 57t-23 92.5q0 68 46 106.5t118 38.5h166v64q0 56 -30 85.5
t-97 29.5q-37 0 -68.5 -13.5t-44.5 -38.5t-13 -54v-3h-55v2q0 31 11.5 61t40 55t65 35t63.5 10q50 0 92 -18.5t67 -57.5q24 36 65.5 56t94.5 20q87 0 138.5 -50t51.5 -136zM388 175v75h-163q-52 0 -82 -22.5t-30 -69.5q0 -113 128 -113q35 0 70 14.5t56 48t21 67.5zM714 303
v47q0 63 -34.5 97.5t-100.5 34.5q-29 0 -61.5 -11t-53 -41t-21.5 -74v-53h271z" />
    <glyph glyph-name="ccedilla" unicode="&#xe7;" horiz-adv-x="512" 
d="M266 536q85 0 136.5 -47t55.5 -128h-55q-2 34 -16.5 61.5t-44.5 43.5t-76 16q-65 0 -102 -35t-37 -97v-173q0 -37 14 -67t45 -48t80 -18q59 0 95.5 31.5t40.5 86.5h56q-2 -38 -15 -66.5t-33 -50t-56.5 -38.5t-87.5 -17q-89 0 -141.5 50.5t-52.5 136.5v173q0 84 53.5 135
t140.5 51zM168 -190l87 147h49l-72 -147h-64z" />
    <glyph glyph-name="egrave" unicode="&#xe8;" horiz-adv-x="531" 
d="M459 350v-100h-332v-73q0 -37 14 -67t45 -48t80 -18q59 0 96 31.5t41 86.5h55q-2 -38 -15 -66.5t-33 -50t-56.5 -38.5t-87.5 -17q-89 0 -141.5 50.5t-52.5 136.5v173q0 84 53.5 135t140.5 51q32 0 65.5 -8.5t61.5 -30t47 -58t19 -89.5zM403 304v46q0 37 -13.5 67
t-44.5 47.5t-79 17.5q-65 0 -102 -35t-37 -97v-46h276zM309 604h-50l-86 147h64z" />
    <glyph glyph-name="eacute" unicode="&#xe9;" horiz-adv-x="531" 
d="M459 350v-100h-332v-73q0 -37 14 -67t45 -48t80 -18q59 0 96 31.5t41 86.5h55q-2 -38 -15 -66.5t-33 -50t-56.5 -38.5t-87.5 -17q-89 0 -141.5 50.5t-52.5 136.5v173q0 84 53.5 135t140.5 51q32 0 65.5 -8.5t61.5 -30t47 -58t19 -89.5zM403 304v46q0 37 -13.5 67
t-44.5 47.5t-79 17.5q-65 0 -102 -35t-37 -97v-46h276zM349 751l-87 -147h-49l72 147h64z" />
    <glyph glyph-name="ecircumflex" unicode="&#xea;" horiz-adv-x="531" 
d="M459 350v-100h-332v-73q0 -37 14 -67t45 -48t80 -18q59 0 96 31.5t41 86.5h55q-2 -38 -15 -66.5t-33 -50t-56.5 -38.5t-87.5 -17q-89 0 -141.5 50.5t-52.5 136.5v173q0 84 53.5 135t140.5 51q32 0 65.5 -8.5t61.5 -30t47 -58t19 -89.5zM403 304v46q0 37 -13.5 67
t-44.5 47.5t-79 17.5q-65 0 -102 -35t-37 -97v-46h276zM391 604h-50l-77 101l-77 -101h-51l100 147h55z" />
    <glyph glyph-name="edieresis" unicode="&#xeb;" horiz-adv-x="531" 
d="M459 350v-100h-332v-73q0 -37 14 -67t45 -48t80 -18q59 0 96 31.5t41 86.5h55q-2 -38 -15 -66.5t-33 -50t-56.5 -38.5t-87.5 -17q-89 0 -141.5 50.5t-52.5 136.5v173q0 84 53.5 135t140.5 51q32 0 65.5 -8.5t61.5 -30t47 -58t19 -89.5zM403 304v46q0 37 -13.5 67
t-44.5 47.5t-79 17.5q-65 0 -102 -35t-37 -97v-46h276zM407 623h-72v90h72v-90zM192 623h-72v90h72v-90z" />
    <glyph glyph-name="igrave" unicode="&#xec;" horiz-adv-x="219" 
d="M136 0h-54v527h54v-527zM136 604h-50l-86 147h64z" />
    <glyph glyph-name="iacute" unicode="&#xed;" horiz-adv-x="219" 
d="M136 0h-54v527h54v-527zM222 751l-87 -147h-49l72 147h64z" />
    <glyph glyph-name="icircumflex" unicode="&#xee;" horiz-adv-x="219" 
d="M136 0h-54v527h54v-527zM237 604h-50l-77 101l-77 -101h-51l100 147h55z" />
    <glyph glyph-name="idieresis" unicode="&#xef;" horiz-adv-x="219" 
d="M136 0h-54v527h54v-527zM253 623h-72v90h72v-90zM38 623h-72v90h72v-90z" />
    <glyph glyph-name="eth" unicode="&#xf0;" horiz-adv-x="548" 
d="M469 535v-363q0 -25 -9.5 -56t-32 -59.5t-61 -47t-91.5 -18.5q-27 0 -62.5 8t-69 35.5t-49.5 67t-16 72.5v85q0 26 9.5 57.5t31.5 61t60.5 48.5t91.5 19q45 0 82 -16t61 -46v150q0 28 -8 52l-85 -86l-35 35l93 94q-15 16 -42 27t-63 11v54q90 0 142 -54l82 82l35 -35
l-87 -88q11 -21 17 -46t6 -44zM414 177v81q0 40 -16 69.5t-48.5 46.5t-74.5 17q-32 0 -65 -12.5t-55 -42t-22 -78.5v-81q0 -66 41 -99t101 -33q59 0 99 33t40 99z" />
    <glyph glyph-name="ntilde" unicode="&#xf1;" horiz-adv-x="542" 
d="M463 0h-55v350q0 39 -10.5 68t-38 46.5t-76.5 17.5q-61 0 -103.5 -36.5t-42.5 -93.5v-352h-55v527h55v-63q25 37 63.5 54.5t82.5 17.5q87 0 133.5 -49t46.5 -137v-350zM393 687l32 -31q-22 -22 -43.5 -35t-46.5 -13q-24 0 -66.5 22.5t-60.5 22.5q-14 0 -26.5 -6
t-32.5 -25l-32 31q22 22 43.5 35t46.5 13q24 0 62.5 -19.5t49.5 -22.5t15 -3q14 0 27.5 6.5t31.5 24.5z" />
    <glyph glyph-name="ograve" unicode="&#xf2;" horiz-adv-x="531" 
d="M459 177q0 -85 -53.5 -136t-139.5 -51q-89 0 -141.5 50.5t-52.5 136.5v173q0 84 53.5 135t140.5 51q32 0 65.5 -8.5t61.5 -30t47 -58t19 -89.5v-173zM404 177v173q0 36 -14 66.5t-45 48t-79 17.5q-65 0 -102 -35t-37 -97v-173q0 -37 14 -67t45 -48t80 -18q64 0 101 35.5
t37 97.5zM309 604h-50l-86 147h64z" />
    <glyph glyph-name="oacute" unicode="&#xf3;" horiz-adv-x="531" 
d="M459 177q0 -85 -53.5 -136t-139.5 -51q-89 0 -141.5 50.5t-52.5 136.5v173q0 84 53.5 135t140.5 51q32 0 65.5 -8.5t61.5 -30t47 -58t19 -89.5v-173zM404 177v173q0 36 -14 66.5t-45 48t-79 17.5q-65 0 -102 -35t-37 -97v-173q0 -37 14 -67t45 -48t80 -18q64 0 101 35.5
t37 97.5zM359 751l-87 -147h-49l72 147h64z" />
    <glyph glyph-name="ocircumflex" unicode="&#xf4;" horiz-adv-x="531" 
d="M459 177q0 -85 -53.5 -136t-139.5 -51q-89 0 -141.5 50.5t-52.5 136.5v173q0 84 53.5 135t140.5 51q32 0 65.5 -8.5t61.5 -30t47 -58t19 -89.5v-173zM404 177v173q0 36 -14 66.5t-45 48t-79 17.5q-65 0 -102 -35t-37 -97v-173q0 -37 14 -67t45 -48t80 -18q64 0 101 35.5
t37 97.5zM393 604h-50l-77 101l-77 -101h-51l100 147h55z" />
    <glyph glyph-name="otilde" unicode="&#xf5;" horiz-adv-x="531" 
d="M459 177q0 -85 -53.5 -136t-139.5 -51q-89 0 -141.5 50.5t-52.5 136.5v173q0 84 53.5 135t140.5 51q32 0 65.5 -8.5t61.5 -30t47 -58t19 -89.5v-173zM404 177v173q0 36 -14 66.5t-45 48t-79 17.5q-65 0 -102 -35t-37 -97v-173q0 -37 14 -67t45 -48t80 -18q64 0 101 35.5
t37 97.5zM387 687l32 -31q-22 -22 -43.5 -35t-46.5 -13q-24 0 -66.5 22.5t-60.5 22.5q-14 0 -26.5 -6t-32.5 -25l-32 31q22 22 43.5 35t46.5 13q24 0 62.5 -19.5t49.5 -22.5t15 -3q14 0 27.5 6.5t31.5 24.5z" />
    <glyph glyph-name="odieresis" unicode="&#xf6;" horiz-adv-x="531" 
d="M459 177q0 -85 -53.5 -136t-139.5 -51q-89 0 -141.5 50.5t-52.5 136.5v173q0 84 53.5 135t140.5 51q32 0 65.5 -8.5t61.5 -30t47 -58t19 -89.5v-173zM404 177v173q0 36 -14 66.5t-45 48t-79 17.5q-65 0 -102 -35t-37 -97v-173q0 -37 14 -67t45 -48t80 -18q64 0 101 35.5
t37 97.5zM409 623h-72v90h72v-90zM194 623h-72v90h72v-90z" />
    <glyph glyph-name="divide" unicode="&#xf7;" horiz-adv-x="536" 
d="M309 0h-91v91h91v-91zM309 332h-91v91h91v-91zM449 188h-370v50h370v-50z" />
    <glyph glyph-name="oslash" unicode="&#xf8;" horiz-adv-x="532" 
d="M459 177q0 -85 -53.5 -136t-139.5 -51q-55 0 -98 20l-29 -62h-54l43 89q-56 51 -56 140v173q0 84 53.5 135t140.5 51q48 0 92 -18l28 59h53l-40 -84q28 -24 44 -61t16 -82v-173zM404 177v173q0 57 -30 91l-182 -382q32 -15 74 -15q64 0 101 35.5t37 97.5zM127 177
q0 -54 26 -87l182 380q-27 12 -69 12q-65 0 -102 -35t-37 -97v-173z" />
    <glyph glyph-name="ugrave" unicode="&#xf9;" horiz-adv-x="544" 
d="M461 0h-55v53q-47 -63 -137 -63q-88 0 -139.5 50.5t-51.5 136.5v350h55v-350q0 -23 6.5 -47.5t21 -43t42 -30.5t66.5 -12q28 0 59.5 11.5t54.5 41.5t23 74v356h55v-527zM310 604h-50l-86 147h64z" />
    <glyph glyph-name="uacute" unicode="&#xfa;" horiz-adv-x="544" 
d="M461 0h-55v53q-47 -63 -137 -63q-88 0 -139.5 50.5t-51.5 136.5v350h55v-350q0 -23 6.5 -47.5t21 -43t42 -30.5t66.5 -12q28 0 59.5 11.5t54.5 41.5t23 74v356h55v-527zM360 751l-87 -147h-49l72 147h64z" />
    <glyph glyph-name="ucircumflex" unicode="&#xfb;" horiz-adv-x="544" 
d="M461 0h-55v53q-47 -63 -137 -63q-88 0 -139.5 50.5t-51.5 136.5v350h55v-350q0 -23 6.5 -47.5t21 -43t42 -30.5t66.5 -12q28 0 59.5 11.5t54.5 41.5t23 74v356h55v-527zM399 604h-50l-77 101l-77 -101h-51l100 147h55z" />
    <glyph glyph-name="udieresis" unicode="&#xfc;" horiz-adv-x="544" 
d="M461 0h-55v53q-47 -63 -137 -63q-88 0 -139.5 50.5t-51.5 136.5v350h55v-350q0 -23 6.5 -47.5t21 -43t42 -30.5t66.5 -12q28 0 59.5 11.5t54.5 41.5t23 74v356h55v-527zM415 623h-72v90h72v-90zM200 623h-72v90h72v-90z" />
    <glyph glyph-name="yacute" unicode="&#xfd;" horiz-adv-x="454" 
d="M224 0h-41l-155 527h57l137 -476h15l131 476h57l-176 -630q-19 -67 -51 -95t-106 -28h-5v54h18q37 0 57.5 13.5t31.5 52.5zM315 751l-87 -147h-49l72 147h64z" />
    <glyph glyph-name="thorn" unicode="&#xfe;" horiz-adv-x="535" 
d="M462 177q0 -85 -52 -136t-138 -51q-41 0 -77.5 16t-57.5 46v-278h-55v939h55v-239q52 62 135 62q87 0 138.5 -50t51.5 -136v-173zM407 177v173q0 63 -34.5 97.5t-100.5 34.5q-64 0 -99.5 -34.5t-35.5 -97.5v-173q0 -64 34 -98.5t101 -34.5q64 0 99.5 35t35.5 98z" />
    <glyph glyph-name="ydieresis" unicode="&#xff;" horiz-adv-x="454" 
d="M224 0h-41l-155 527h57l137 -476h15l131 476h57l-176 -630q-19 -67 -51 -95t-106 -28h-5v54h18q37 0 57.5 13.5t31.5 52.5zM370 623h-72v90h72v-90zM155 623h-72v90h72v-90z" />
    <glyph glyph-name="Amacron" unicode="&#x100;" horiz-adv-x="540" 
d="M459 0l-57 208h-265l-56 -208h-54l196 713h93l197 -713h-54zM262 664l-110 -402h235l-109 402h-16zM418 800h-296v50h296v-50z" />
    <glyph glyph-name="amacron" unicode="&#x101;" horiz-adv-x="522" 
d="M443 369v-369h-55v63q-25 -34 -66 -53t-92 -19q-33 0 -64 10t-55 30.5t-38.5 52.5t-14.5 74q0 68 46 106t118 38h166v64q0 40 -14.5 66t-42.5 38t-69 12q-24 0 -51 -7t-43 -21t-25 -33t-9 -48h-55q0 42 16.5 73.5t44 51.5t60.5 29t61 9q31 0 64.5 -8.5t60 -29t42 -53
t15.5 -76.5zM388 176v76h-163q-53 0 -82.5 -23t-29.5 -71q0 -56 31 -84.5t98 -28.5q41 0 78.5 20.5t52.5 50.5t15 60zM409 635h-296v50h296v-50z" />
    <glyph glyph-name="Abreve" unicode="&#x102;" horiz-adv-x="540" 
d="M459 0l-57 208h-265l-56 -208h-54l196 713h93l197 -713h-54zM262 664l-110 -402h235l-109 402h-16zM270 780q-53 0 -93 32.5t-46 92.5h49q7 -39 30.5 -59.5t59.5 -20.5t59.5 20.5t30.5 59.5h49q-6 -60 -46 -92.5t-93 -32.5z" />
    <glyph glyph-name="abreve" unicode="&#x103;" horiz-adv-x="522" 
d="M443 369v-369h-55v63q-25 -34 -66 -53t-92 -19q-33 0 -64 10t-55 30.5t-38.5 52.5t-14.5 74q0 68 46 106t118 38h166v64q0 40 -14.5 66t-42.5 38t-69 12q-24 0 -51 -7t-43 -21t-25 -33t-9 -48h-55q0 42 16.5 73.5t44 51.5t60.5 29t61 9q31 0 64.5 -8.5t60 -29t42 -53
t15.5 -76.5zM388 176v76h-163q-53 0 -82.5 -23t-29.5 -71q0 -56 31 -84.5t98 -28.5q41 0 78.5 20.5t52.5 50.5t15 60zM261 606q-53 0 -93 32.5t-46 92.5h49q7 -39 30.5 -59.5t59.5 -20.5t59.5 20.5t30.5 59.5h49q-6 -60 -46 -92.5t-93 -32.5z" />
    <glyph glyph-name="Aogonek" unicode="&#x104;" horiz-adv-x="540" 
d="M459 0l-57 208h-265l-56 -208h-54l196 713h93l197 -713h-54zM262 664l-110 -402h235l-109 402h-16zM516 -43l87 -147h-64l-72 147h49z" />
    <glyph glyph-name="aogonek" unicode="&#x105;" horiz-adv-x="522" 
d="M443 369v-369h-55v63q-25 -34 -66 -53t-92 -19q-33 0 -64 10t-55 30.5t-38.5 52.5t-14.5 74q0 68 46 106t118 38h166v64q0 40 -14.5 66t-42.5 38t-69 12q-24 0 -51 -7t-43 -21t-25 -33t-9 -48h-55q0 42 16.5 73.5t44 51.5t60.5 29t61 9q31 0 64.5 -8.5t60 -29t42 -53
t15.5 -76.5zM388 176v76h-163q-53 0 -82.5 -23t-29.5 -71q0 -56 31 -84.5t98 -28.5q41 0 78.5 20.5t52.5 50.5t15 60zM439 -43l87 -147h-64l-72 147h49z" />
    <glyph glyph-name="Cacute" unicode="&#x106;" horiz-adv-x="521" 
d="M465 536h-55q0 42 -16.5 70.5t-49 44t-75.5 15.5q-63 0 -102.5 -32.5t-39.5 -98.5v-359q0 -66 39.5 -98.5t102.5 -32.5q28 0 61.5 10t56.5 40.5t23 80.5h55v-1q0 -82 -53.5 -133t-142.5 -51q-90 0 -143.5 50.5t-53.5 132.5v363q0 82 53.5 132.5t143.5 50.5
q89 0 142.5 -51t53.5 -133zM368 927l-87 -147h-49l72 147h64z" />
    <glyph glyph-name="cacute" unicode="&#x107;" horiz-adv-x="512" 
d="M266 536q85 0 136.5 -47t55.5 -128h-55q-2 34 -16.5 61.5t-44.5 43.5t-76 16q-65 0 -102 -35t-37 -97v-173q0 -37 14 -67t45 -48t80 -18q59 0 95.5 31.5t40.5 86.5h56q-2 -38 -15 -66.5t-33 -50t-56.5 -38.5t-87.5 -17q-89 0 -141.5 50.5t-52.5 136.5v173q0 84 53.5 135
t140.5 51zM349 751l-87 -147h-49l72 147h64z" />
    <glyph glyph-name="Ccircumflex" unicode="&#x108;" horiz-adv-x="521" 
d="M465 536h-55q0 42 -16.5 70.5t-49 44t-75.5 15.5q-63 0 -102.5 -32.5t-39.5 -98.5v-359q0 -66 39.5 -98.5t102.5 -32.5q28 0 61.5 10t56.5 40.5t23 80.5h55v-1q0 -82 -53.5 -133t-142.5 -51q-90 0 -143.5 50.5t-53.5 132.5v363q0 82 53.5 132.5t143.5 50.5
q89 0 142.5 -51t53.5 -133zM398 780h-50l-77 101l-77 -101h-51l100 147h55z" />
    <glyph glyph-name="ccircumflex" unicode="&#x109;" horiz-adv-x="512" 
d="M266 536q85 0 136.5 -47t55.5 -128h-55q-2 34 -16.5 61.5t-44.5 43.5t-76 16q-65 0 -102 -35t-37 -97v-173q0 -37 14 -67t45 -48t80 -18q59 0 95.5 31.5t40.5 86.5h56q-2 -38 -15 -66.5t-33 -50t-56.5 -38.5t-87.5 -17q-89 0 -141.5 50.5t-52.5 136.5v173q0 84 53.5 135
t140.5 51zM383 604h-50l-77 101l-77 -101h-51l100 147h55z" />
    <glyph glyph-name="Cdotaccent" unicode="&#x10a;" horiz-adv-x="521" 
d="M465 536h-55q0 42 -16.5 70.5t-49 44t-75.5 15.5q-63 0 -102.5 -32.5t-39.5 -98.5v-359q0 -66 39.5 -98.5t102.5 -32.5q28 0 61.5 10t56.5 40.5t23 80.5h55v-1q0 -82 -53.5 -133t-142.5 -51q-90 0 -143.5 50.5t-53.5 132.5v363q0 82 53.5 132.5t143.5 50.5
q89 0 142.5 -51t53.5 -133zM296 780h-72v90h72v-90z" />
    <glyph glyph-name="cdotaccent" unicode="&#x10b;" horiz-adv-x="512" 
d="M266 536q85 0 136.5 -47t55.5 -128h-55q-2 34 -16.5 61.5t-44.5 43.5t-76 16q-65 0 -102 -35t-37 -97v-173q0 -37 14 -67t45 -48t80 -18q59 0 95.5 31.5t40.5 86.5h56q-2 -38 -15 -66.5t-33 -50t-56.5 -38.5t-87.5 -17q-89 0 -141.5 50.5t-52.5 136.5v173q0 84 53.5 135
t140.5 51zM292 623h-72v90h72v-90z" />
    <glyph glyph-name="Ccaron" unicode="&#x10c;" horiz-adv-x="521" 
d="M465 536h-55q0 42 -16.5 70.5t-49 44t-75.5 15.5q-63 0 -102.5 -32.5t-39.5 -98.5v-359q0 -66 39.5 -98.5t102.5 -32.5q28 0 61.5 10t56.5 40.5t23 80.5h55v-1q0 -82 -53.5 -133t-142.5 -51q-90 0 -143.5 50.5t-53.5 132.5v363q0 82 53.5 132.5t143.5 50.5
q89 0 142.5 -51t53.5 -133zM348 927h50l-100 -147h-55l-100 147h51l77 -101z" />
    <glyph glyph-name="ccaron" unicode="&#x10d;" horiz-adv-x="512" 
d="M266 536q85 0 136.5 -47t55.5 -128h-55q-2 34 -16.5 61.5t-44.5 43.5t-76 16q-65 0 -102 -35t-37 -97v-173q0 -37 14 -67t45 -48t80 -18q59 0 95.5 31.5t40.5 86.5h56q-2 -38 -15 -66.5t-33 -50t-56.5 -38.5t-87.5 -17q-89 0 -141.5 50.5t-52.5 136.5v173q0 84 53.5 135
t140.5 51zM333 751h50l-100 -147h-55l-100 147h51l77 -101z" />
    <glyph glyph-name="Dcaron" unicode="&#x10e;" horiz-adv-x="548" 
d="M286 713q88 0 138.5 -50.5t50.5 -133.5v-342q0 -85 -50 -136t-139 -51h-204v713h204zM420 528q0 65 -36.5 98t-97.5 33h-149v-605h149q28 0 59.5 10t53 41t21.5 83v340zM351 927h50l-100 -147h-55l-100 147h51l77 -101z" />
    <glyph glyph-name="dcaron" unicode="&#x10f;" horiz-adv-x="645" 
d="M127 350v-173q0 -63 35.5 -98t99.5 -35q30 0 53 7t41 21t30 41t12 64v173q0 63 -36 97.5t-100 34.5q-66 0 -100.5 -34.5t-34.5 -97.5zM72 177v173q0 86 51.5 136t138.5 50q84 0 136 -62v239h55v-713h-55v52q-21 -30 -57.5 -46t-78.5 -16q-86 0 -138 51t-52 136zM615 555
h-55v186h55v-186z" />
    <glyph glyph-name="Dcroat" unicode="&#x110;" horiz-adv-x="551" 
d="M479 186q0 -55 -24.5 -99.5t-65 -65.5t-93.5 -21h-210v350h-62v50h62v313h206q54 0 95.5 -21t66.5 -65t25 -97v-344zM311 350h-170v-296h153q57 0 93.5 33t36.5 100v340q0 40 -14.5 69.5t-45 46t-72.5 16.5h-151v-259h170v-50z" />
    <glyph glyph-name="dcroat" unicode="&#x111;" horiz-adv-x="536" 
d="M243 581v50h155v82h55v-82h77v-50h-77v-581h-55v52q-21 -30 -57.5 -46t-78.5 -16q-86 0 -138 51t-52 136v173q0 86 51.5 136t138.5 50q84 0 136 -62v107h-155zM127 350v-173q0 -63 35.5 -98t99.5 -35q30 0 53 7t41 21t30 41t12 64v173q0 63 -36 97.5t-100 34.5
q-66 0 -100.5 -34.5t-34.5 -97.5z" />
    <glyph glyph-name="Emacron" unicode="&#x112;" horiz-adv-x="509" 
d="M456 0h-374v713h374v-54h-319v-254h295v-54h-295v-297h319v-54zM412 800h-296v50h296v-50z" />
    <glyph glyph-name="emacron" unicode="&#x113;" horiz-adv-x="531" 
d="M459 350v-100h-332v-73q0 -37 14 -67t45 -48t80 -18q59 0 96 31.5t41 86.5h55q-2 -38 -15 -66.5t-33 -50t-56.5 -38.5t-87.5 -17q-89 0 -141.5 50.5t-52.5 136.5v173q0 84 53.5 135t140.5 51q32 0 65.5 -8.5t61.5 -30t47 -58t19 -89.5zM403 304v46q0 37 -13.5 67
t-44.5 47.5t-79 17.5q-65 0 -102 -35t-37 -97v-46h276zM411 635h-296v50h296v-50z" />
    <glyph glyph-name="Ebreve" unicode="&#x114;" horiz-adv-x="509" 
d="M456 0h-374v713h374v-54h-319v-254h295v-54h-295v-297h319v-54zM254 780q-53 0 -93 32.5t-46 92.5h49q7 -39 30.5 -59.5t59.5 -20.5t59.5 20.5t30.5 59.5h49q-6 -60 -46 -92.5t-93 -32.5z" />
    <glyph glyph-name="ebreve" unicode="&#x115;" horiz-adv-x="531" 
d="M459 350v-100h-332v-73q0 -37 14 -67t45 -48t80 -18q59 0 96 31.5t41 86.5h55q-2 -38 -15 -66.5t-33 -50t-56.5 -38.5t-87.5 -17q-89 0 -141.5 50.5t-52.5 136.5v173q0 84 53.5 135t140.5 51q32 0 65.5 -8.5t61.5 -30t47 -58t19 -89.5zM403 304v46q0 37 -13.5 67
t-44.5 47.5t-79 17.5q-65 0 -102 -35t-37 -97v-46h276zM263 606q-53 0 -93 32.5t-46 92.5h49q7 -39 30.5 -59.5t59.5 -20.5t59.5 20.5t30.5 59.5h49q-6 -60 -46 -92.5t-93 -32.5z" />
    <glyph glyph-name="Edotaccent" unicode="&#x116;" horiz-adv-x="509" 
d="M456 0h-374v713h374v-54h-319v-254h295v-54h-295v-297h319v-54zM290 780h-72v90h72v-90z" />
    <glyph glyph-name="edotaccent" unicode="&#x117;" horiz-adv-x="531" 
d="M459 350v-100h-332v-73q0 -37 14 -67t45 -48t80 -18q59 0 96 31.5t41 86.5h55q-2 -38 -15 -66.5t-33 -50t-56.5 -38.5t-87.5 -17q-89 0 -141.5 50.5t-52.5 136.5v173q0 84 53.5 135t140.5 51q32 0 65.5 -8.5t61.5 -30t47 -58t19 -89.5zM403 304v46q0 37 -13.5 67
t-44.5 47.5t-79 17.5q-65 0 -102 -35t-37 -97v-46h276zM299 623h-72v90h72v-90z" />
    <glyph glyph-name="Eogonek" unicode="&#x118;" horiz-adv-x="509" 
d="M456 0h-374v713h374v-54h-319v-254h295v-54h-295v-297h319v-54zM289 -43l87 -147h-64l-72 147h49z" />
    <glyph glyph-name="eogonek" unicode="&#x119;" horiz-adv-x="531" 
d="M459 350v-100h-332v-73q0 -37 14 -67t45 -48t80 -18q59 0 96 31.5t41 86.5h55q-2 -38 -15 -66.5t-33 -50t-56.5 -38.5t-87.5 -17q-89 0 -141.5 50.5t-52.5 136.5v173q0 84 53.5 135t140.5 51q32 0 65.5 -8.5t61.5 -30t47 -58t19 -89.5zM403 304v46q0 37 -13.5 67
t-44.5 47.5t-79 17.5q-65 0 -102 -35t-37 -97v-46h276zM288 -43l87 -147h-64l-72 147h49z" />
    <glyph glyph-name="Ecaron" unicode="&#x11a;" horiz-adv-x="509" 
d="M456 0h-374v713h374v-54h-319v-254h295v-54h-295v-297h319v-54zM332 927h50l-100 -147h-55l-100 147h51l77 -101z" />
    <glyph glyph-name="ecaron" unicode="&#x11b;" horiz-adv-x="531" 
d="M459 350v-100h-332v-73q0 -37 14 -67t45 -48t80 -18q59 0 96 31.5t41 86.5h55q-2 -38 -15 -66.5t-33 -50t-56.5 -38.5t-87.5 -17q-89 0 -141.5 50.5t-52.5 136.5v173q0 84 53.5 135t140.5 51q32 0 65.5 -8.5t61.5 -30t47 -58t19 -89.5zM403 304v46q0 37 -13.5 67
t-44.5 47.5t-79 17.5q-65 0 -102 -35t-37 -97v-46h276zM341 751h50l-100 -147h-55l-100 147h51l77 -101z" />
    <glyph glyph-name="Gcircumflex" unicode="&#x11c;" horiz-adv-x="538" 
d="M465 536h-55q0 42 -16.5 70.5t-49 44t-75.5 15.5q-63 0 -102.5 -32.5t-39.5 -98.5v-359q0 -66 39.5 -98.5t102.5 -32.5q62 0 101 31.5t40 97.5v154h-152v54h207v-207q0 -82 -53.5 -133t-142.5 -51q-90 0 -143.5 50.5t-53.5 132.5v363q0 82 53.5 132.5t143.5 50.5
q89 0 142.5 -51t53.5 -133zM396 780h-50l-77 101l-77 -101h-51l100 147h55z" />
    <glyph glyph-name="gcircumflex" unicode="&#x11d;" horiz-adv-x="535" 
d="M397 -46v98q-23 -31 -58 -46.5t-76 -15.5q-88 0 -139.5 50t-51.5 137v173q0 84 52 135t139 51q41 0 78.5 -16t55.5 -45v52h55v-573q0 -86 -47 -133t-142 -47q-77 0 -128 41.5t-55 112.5h55q4 -47 38.5 -73.5t89.5 -26.5q77 0 105.5 33.5t28.5 92.5zM397 177v173
q0 64 -34 98t-100 34q-64 0 -100 -34.5t-36 -97.5v-173q0 -23 6.5 -47.5t21 -43t42 -30.5t66.5 -12q63 0 98.5 35t35.5 98zM395 604h-50l-77 101l-77 -101h-51l100 147h55z" />
    <glyph glyph-name="Gbreve" unicode="&#x11e;" horiz-adv-x="538" 
d="M465 536h-55q0 42 -16.5 70.5t-49 44t-75.5 15.5q-63 0 -102.5 -32.5t-39.5 -98.5v-359q0 -66 39.5 -98.5t102.5 -32.5q62 0 101 31.5t40 97.5v154h-152v54h207v-207q0 -82 -53.5 -133t-142.5 -51q-90 0 -143.5 50.5t-53.5 132.5v363q0 82 53.5 132.5t143.5 50.5
q89 0 142.5 -51t53.5 -133zM269 780q-53 0 -93 32.5t-46 92.5h49q7 -39 30.5 -59.5t59.5 -20.5t59.5 20.5t30.5 59.5h49q-6 -60 -46 -92.5t-93 -32.5z" />
    <glyph glyph-name="gbreve" unicode="&#x11f;" horiz-adv-x="535" 
d="M397 -46v98q-23 -31 -58 -46.5t-76 -15.5q-88 0 -139.5 50t-51.5 137v173q0 84 52 135t139 51q41 0 78.5 -16t55.5 -45v52h55v-573q0 -86 -47 -133t-142 -47q-77 0 -128 41.5t-55 112.5h55q4 -47 38.5 -73.5t89.5 -26.5q77 0 105.5 33.5t28.5 92.5zM397 177v173
q0 64 -34 98t-100 34q-64 0 -100 -34.5t-36 -97.5v-173q0 -23 6.5 -47.5t21 -43t42 -30.5t66.5 -12q63 0 98.5 35t35.5 98zM267 606q-53 0 -93 32.5t-46 92.5h49q7 -39 30.5 -59.5t59.5 -20.5t59.5 20.5t30.5 59.5h49q-6 -60 -46 -92.5t-93 -32.5z" />
    <glyph glyph-name="Gdotaccent" unicode="&#x120;" horiz-adv-x="538" 
d="M465 536h-55q0 42 -16.5 70.5t-49 44t-75.5 15.5q-63 0 -102.5 -32.5t-39.5 -98.5v-359q0 -66 39.5 -98.5t102.5 -32.5q62 0 101 31.5t40 97.5v154h-152v54h207v-207q0 -82 -53.5 -133t-142.5 -51q-90 0 -143.5 50.5t-53.5 132.5v363q0 82 53.5 132.5t143.5 50.5
q89 0 142.5 -51t53.5 -133zM305 780h-72v90h72v-90z" />
    <glyph glyph-name="gdotaccent" unicode="&#x121;" horiz-adv-x="535" 
d="M397 -46v98q-23 -31 -58 -46.5t-76 -15.5q-88 0 -139.5 50t-51.5 137v173q0 84 52 135t139 51q41 0 78.5 -16t55.5 -45v52h55v-573q0 -86 -47 -133t-142 -47q-77 0 -128 41.5t-55 112.5h55q4 -47 38.5 -73.5t89.5 -26.5q77 0 105.5 33.5t28.5 92.5zM397 177v173
q0 64 -34 98t-100 34q-64 0 -100 -34.5t-36 -97.5v-173q0 -23 6.5 -47.5t21 -43t42 -30.5t66.5 -12q63 0 98.5 35t35.5 98zM303 623h-72v90h72v-90z" />
    <glyph glyph-name="Gcommaaccent" unicode="&#x122;" horiz-adv-x="538" 
d="M465 536h-55q0 42 -16.5 70.5t-49 44t-75.5 15.5q-63 0 -102.5 -32.5t-39.5 -98.5v-359q0 -66 39.5 -98.5t102.5 -32.5q62 0 101 31.5t40 97.5v154h-152v54h207v-207q0 -82 -53.5 -133t-142.5 -51q-90 0 -143.5 50.5t-53.5 132.5v363q0 82 53.5 132.5t143.5 50.5
q89 0 142.5 -51t53.5 -133zM163 -190l87 147h49l-72 -147h-64z" />
    <glyph glyph-name="gcommaaccent" unicode="&#x123;" horiz-adv-x="535" 
d="M397 -46v98q-23 -31 -58 -46.5t-76 -15.5q-88 0 -139.5 50t-51.5 137v173q0 84 52 135t139 51q41 0 78.5 -16t55.5 -45v52h55v-573q0 -86 -47 -133t-142 -47q-77 0 -128 41.5t-55 112.5h55q4 -47 38.5 -73.5t89.5 -26.5q77 0 105.5 33.5t28.5 92.5zM397 177v173
q0 64 -34 98t-100 34q-64 0 -100 -34.5t-36 -97.5v-173q0 -23 6.5 -47.5t21 -43t42 -30.5t66.5 -12q63 0 98.5 35t35.5 98zM359 751l-87 -147h-49l72 147h64z" />
    <glyph glyph-name="Hcircumflex" unicode="&#x124;" horiz-adv-x="572" 
d="M489 0h-55v348h-297v-348h-55v713h55v-311h297v311h55v-713zM413 780h-50l-77 101l-77 -101h-51l100 147h55z" />
    <glyph glyph-name="hcircumflex" unicode="&#x125;" horiz-adv-x="542" 
d="M463 0h-55v350q0 39 -10.5 68t-38 46.5t-76.5 17.5q-61 0 -103.5 -36.5t-42.5 -93.5v-352h-55v713h55v-249q23 36 63 54t83 18q87 0 133.5 -49t46.5 -137v-350zM398 780h-50l-77 101l-77 -101h-51l100 147h55z" />
    <glyph glyph-name="Hbar" unicode="&#x126;" horiz-adv-x="576" 
d="M493 0h-55v348h-297v-348h-55v567h-64v50h64v96h55v-96h297v96h55v-96h61v-50h-61v-567zM141 402h297v165h-297v-165z" />
    <glyph glyph-name="hbar" unicode="&#x127;" horiz-adv-x="545" 
d="M291 581h-145v-117q23 36 63 54t83 18q87 0 133.5 -49t46.5 -137v-350h-55v350q0 39 -10.5 68t-38 46.5t-76.5 17.5q-61 0 -103.5 -36.5t-42.5 -93.5v-352h-55v581h-69v50h69v82h55v-82h145v-50z" />
    <glyph glyph-name="Itilde" unicode="&#x128;" horiz-adv-x="220" 
d="M82 713h55v-713h-55v713zM232 859l32 -31q-22 -22 -43.5 -35t-46.5 -13q-24 0 -66.5 22.5t-60.5 22.5q-14 0 -26.5 -6t-32.5 -25l-32 31q22 22 43.5 35t46.5 13q24 0 62.5 -19.5t49.5 -22.5t15 -3q14 0 27.5 6.5t31.5 24.5z" />
    <glyph glyph-name="itilde" unicode="&#x129;" horiz-adv-x="219" 
d="M136 0h-54v527h54v-527zM232 687l32 -31q-22 -22 -43.5 -35t-46.5 -13q-24 0 -66.5 22.5t-60.5 22.5q-14 0 -26.5 -6t-32.5 -25l-32 31q22 22 43.5 35t46.5 13q24 0 62.5 -19.5t49.5 -22.5t15 -3q14 0 27.5 6.5t31.5 24.5z" />
    <glyph glyph-name="Imacron" unicode="&#x12a;" horiz-adv-x="220" 
d="M82 713h55v-713h-55v713zM258 800h-296v50h296v-50z" />
    <glyph glyph-name="imacron" unicode="&#x12b;" horiz-adv-x="219" 
d="M136 0h-54v527h54v-527zM258 635h-296v50h296v-50z" />
    <glyph glyph-name="Ibreve" unicode="&#x12c;" horiz-adv-x="220" 
d="M82 713h55v-713h-55v713zM110 780q-53 0 -93 32.5t-46 92.5h49q7 -39 30.5 -59.5t59.5 -20.5t59.5 20.5t30.5 59.5h49q-6 -60 -46 -92.5t-93 -32.5z" />
    <glyph glyph-name="ibreve" unicode="&#x12d;" horiz-adv-x="219" 
d="M136 0h-54v527h54v-527zM110 606q-53 0 -93 32.5t-46 92.5h49q7 -39 30.5 -59.5t59.5 -20.5t59.5 20.5t30.5 59.5h49q-6 -60 -46 -92.5t-93 -32.5z" />
    <glyph glyph-name="Iogonek" unicode="&#x12e;" horiz-adv-x="220" 
d="M82 713h55v-713h-55v713zM134 -43l87 -147h-64l-72 147h49z" />
    <glyph glyph-name="iogonek" unicode="&#x12f;" horiz-adv-x="234" 
d="M145 0h-55v527h55v-527zM153 624h-72v89h72v-89zM141 -43l87 -147h-64l-72 147h49z" />
    <glyph glyph-name="Idotaccent" unicode="&#x130;" horiz-adv-x="220" 
d="M82 713h55v-713h-55v713zM146 780h-72v90h72v-90z" />
    <glyph glyph-name="dotlessi" unicode="&#x131;" horiz-adv-x="219" 
d="M136 0h-54v527h54v-527z" />
    <glyph glyph-name="IJ" unicode="&#x132;" horiz-adv-x="673" 
d="M81 713h55v-713h-55v713zM595 175q0 -86 -47 -135t-130 -49q-81 0 -128 50t-47 132h55q0 -63 32.5 -95.5t88.5 -32.5q57 0 89 31.5t32 92.5v490h-220v54h275v-538z" />
    <glyph glyph-name="ij" unicode="&#x133;" horiz-adv-x="477" 
d="M146 0h-55v527h55v-527zM154 624h-72v89h72v-89zM385 -95q0 -33 -11.5 -64t-41 -49t-67.5 -18h-18v54h13q31 0 50.5 17t19.5 55v627h55v-622zM394 624h-72v89h72v-89z" />
    <glyph glyph-name="Jcircumflex" unicode="&#x134;" horiz-adv-x="452" 
d="M374 175q0 -86 -47 -135t-130 -49q-81 0 -128 50t-47 132h55q0 -63 32.5 -95.5t88.5 -32.5q57 0 89 31.5t32 92.5v490h-220v54h275v-538zM358 780h-50l-77 101l-77 -101h-51l100 147h55z" />
    <glyph glyph-name="jcircumflex" unicode="&#x135;" horiz-adv-x="230" 
d="M140 -95q0 -33 -11.5 -64t-41 -49t-67.5 -18h-18v54h13q31 0 50.5 17t19.5 55v627h55v-622zM243 604h-50l-77 101l-77 -101h-51l100 147h55z" />
    <glyph glyph-name="Kcommaaccent" unicode="&#x136;" horiz-adv-x="510" 
d="M482 0h-64l-207 350l-74 -111v-239h-55v713h55v-377l266 377h63l-221 -316zM150 -190l87 147h49l-72 -147h-64z" />
    <glyph glyph-name="kcommaaccent" unicode="&#x137;" horiz-adv-x="497" 
d="M468 0h-65l-172 269l-94 -103v-166h-55v713h55v-471l258 285h72l-200 -218zM153 -190l87 147h49l-72 -147h-64z" />
    <glyph glyph-name="Lacute" unicode="&#x139;" horiz-adv-x="473" 
d="M455 0h-373v713h55v-659h318v-54zM284 927l-87 -147h-49l72 147h64z" />
    <glyph glyph-name="lacute" unicode="&#x13a;" horiz-adv-x="240" 
d="M78 131v582h55v-587q0 -38 19.5 -55t50.5 -17h13v-54h-18q-38 0 -67.5 18t-41 49t-11.5 64zM217 927l-87 -147h-49l72 147h64z" />
    <glyph glyph-name="Lcommaaccent" unicode="&#x13b;" horiz-adv-x="473" 
d="M455 0h-373v713h55v-659h318v-54zM153 -190l87 147h49l-72 -147h-64z" />
    <glyph glyph-name="lcommaaccent" unicode="&#x13c;" horiz-adv-x="240" 
d="M78 131v582h55v-587q0 -38 19.5 -55t50.5 -17h13v-54h-18q-38 0 -67.5 18t-41 49t-11.5 64zM75 -190l87 147h49l-72 -147h-64z" />
    <glyph glyph-name="Lcaron" unicode="&#x13d;" horiz-adv-x="473" 
d="M455 0h-373v713h55v-659h318v-54zM387 555h-55v186h55v-186z" />
    <glyph glyph-name="lcaron" unicode="&#x13e;" horiz-adv-x="338" 
d="M78 131v582h55v-587q0 -38 19.5 -55t50.5 -17h13v-54h-18q-38 0 -67.5 18t-41 49t-11.5 64zM298 555h-55v186h55v-186z" />
    <glyph glyph-name="Ldot" unicode="&#x13f;" horiz-adv-x="473" 
d="M455 0h-373v713h55v-659h318v-54zM330 222h-87v88h87v-88z" />
    <glyph glyph-name="ldot" unicode="&#x140;" horiz-adv-x="414" 
d="M78 131v582h55v-587q0 -38 19.5 -55t50.5 -17h13v-54h-18q-38 0 -67.5 18t-41 49t-11.5 64zM361 223h-87v88h87v-88z" />
    <glyph glyph-name="Lslash" unicode="&#x141;" horiz-adv-x="473" 
d="M455 0h-373v259h-57v50h57v404h55v-404h230v-50h-230v-205h318v-54z" />
    <glyph glyph-name="lslash" unicode="&#x142;" horiz-adv-x="280" 
d="M98 131v128h-94v50h94v404h55v-404h98v-50h-98v-133q0 -38 19.5 -55t50.5 -17h13v-54h-18q-38 0 -67.5 18t-41 49t-11.5 64z" />
    <glyph glyph-name="Nacute" unicode="&#x143;" horiz-adv-x="563" 
d="M480 0h-77l-266 628v-628h-55v713h74l269 -636v636h55v-713zM379 927l-87 -147h-49l72 147h64z" />
    <glyph glyph-name="nacute" unicode="&#x144;" horiz-adv-x="542" 
d="M463 0h-55v350q0 39 -10.5 68t-38 46.5t-76.5 17.5q-61 0 -103.5 -36.5t-42.5 -93.5v-352h-55v527h55v-63q25 37 63.5 54.5t82.5 17.5q87 0 133.5 -49t46.5 -137v-350zM359 751l-87 -147h-49l72 147h64z" />
    <glyph glyph-name="Ncommaaccent" unicode="&#x145;" horiz-adv-x="563" 
d="M480 0h-77l-266 628v-628h-55v713h74l269 -636v636h55v-713zM173 -190l87 147h49l-72 -147h-64z" />
    <glyph glyph-name="ncommaaccent" unicode="&#x146;" horiz-adv-x="542" 
d="M463 0h-55v350q0 39 -10.5 68t-38 46.5t-76.5 17.5q-61 0 -103.5 -36.5t-42.5 -93.5v-352h-55v527h55v-63q25 37 63.5 54.5t82.5 17.5q87 0 133.5 -49t46.5 -137v-350zM163 -190l87 147h49l-72 -147h-64z" />
    <glyph glyph-name="Ncaron" unicode="&#x147;" horiz-adv-x="563" 
d="M480 0h-77l-266 628v-628h-55v713h74l269 -636v636h55v-713zM359 927h50l-100 -147h-55l-100 147h51l77 -101z" />
    <glyph glyph-name="ncaron" unicode="&#x148;" horiz-adv-x="542" 
d="M463 0h-55v350q0 39 -10.5 68t-38 46.5t-76.5 17.5q-61 0 -103.5 -36.5t-42.5 -93.5v-352h-55v527h55v-63q25 37 63.5 54.5t82.5 17.5q87 0 133.5 -49t46.5 -137v-350zM348 751h50l-100 -147h-55l-100 147h51l77 -101z" />
    <glyph glyph-name="napostrophe" unicode="&#x149;" horiz-adv-x="589" 
d="M510 0h-55v350q0 39 -10.5 68t-38 46.5t-76.5 17.5q-61 0 -103.5 -36.5t-42.5 -93.5v-352h-55v527h55v-63q25 37 63.5 54.5t82.5 17.5q87 0 133.5 -49t46.5 -137v-350zM54 555h-55v186h55v-186z" />
    <glyph glyph-name="Eng" unicode="&#x14a;" horiz-adv-x="563" 
d="M480 -42q0 -86 -47 -135t-130 -49v54q58 0 90 31.5t32 92.5v48h-22l-266 628v-628h-55v713h74l269 -636v636h55v-755z" />
    <glyph glyph-name="eng" unicode="&#x14b;" horiz-adv-x="536" 
d="M463 -95q0 -33 -11.5 -64t-41 -49t-67.5 -18h-18v54h13q31 0 50.5 17t19.5 55v450q0 39 -10.5 68t-38 46.5t-76.5 17.5q-61 0 -103.5 -36.5t-42.5 -93.5v-352h-55v527h55v-63q25 37 63.5 54.5t82.5 17.5q87 0 133.5 -49t46.5 -137v-445z" />
    <glyph glyph-name="Omacron" unicode="&#x14c;" 
d="M269 -9q-90 0 -143.5 50.5t-53.5 132.5v363q0 82 53.5 132.5t143.5 50.5q89 0 142.5 -51t53.5 -133v-361q0 -82 -53.5 -133t-142.5 -51zM410 535q0 42 -16.5 71t-49 44.5t-75.5 15.5q-63 0 -102.5 -32.5t-39.5 -98.5v-359q0 -66 39.5 -98.5t102.5 -32.5q28 0 61.5 10
t56.5 40.5t23 80.5v359zM416 800h-296v50h296v-50z" />
    <glyph glyph-name="omacron" unicode="&#x14d;" horiz-adv-x="531" 
d="M459 177q0 -85 -53.5 -136t-139.5 -51q-89 0 -141.5 50.5t-52.5 136.5v173q0 84 53.5 135t140.5 51q32 0 65.5 -8.5t61.5 -30t47 -58t19 -89.5v-173zM404 177v173q0 36 -14 66.5t-45 48t-79 17.5q-65 0 -102 -35t-37 -97v-173q0 -37 14 -67t45 -48t80 -18q64 0 101 35.5
t37 97.5zM413 635h-296v50h296v-50z" />
    <glyph glyph-name="Obreve" unicode="&#x14e;" 
d="M269 -9q-90 0 -143.5 50.5t-53.5 132.5v363q0 82 53.5 132.5t143.5 50.5q89 0 142.5 -51t53.5 -133v-361q0 -82 -53.5 -133t-142.5 -51zM410 535q0 42 -16.5 71t-49 44.5t-75.5 15.5q-63 0 -102.5 -32.5t-39.5 -98.5v-359q0 -66 39.5 -98.5t102.5 -32.5q28 0 61.5 10
t56.5 40.5t23 80.5v359zM268 780q-53 0 -93 32.5t-46 92.5h49q7 -39 30.5 -59.5t59.5 -20.5t59.5 20.5t30.5 59.5h49q-6 -60 -46 -92.5t-93 -32.5z" />
    <glyph glyph-name="obreve" unicode="&#x14f;" horiz-adv-x="531" 
d="M459 177q0 -85 -53.5 -136t-139.5 -51q-89 0 -141.5 50.5t-52.5 136.5v173q0 84 53.5 135t140.5 51q32 0 65.5 -8.5t61.5 -30t47 -58t19 -89.5v-173zM404 177v173q0 36 -14 66.5t-45 48t-79 17.5q-65 0 -102 -35t-37 -97v-173q0 -37 14 -67t45 -48t80 -18q64 0 101 35.5
t37 97.5zM265 606q-53 0 -93 32.5t-46 92.5h49q7 -39 30.5 -59.5t59.5 -20.5t59.5 20.5t30.5 59.5h49q-6 -60 -46 -92.5t-93 -32.5z" />
    <glyph glyph-name="Ohungarumlaut" unicode="&#x150;" 
d="M269 -9q-90 0 -143.5 50.5t-53.5 132.5v363q0 82 53.5 132.5t143.5 50.5q89 0 142.5 -51t53.5 -133v-361q0 -82 -53.5 -133t-142.5 -51zM410 535q0 42 -16.5 71t-49 44.5t-75.5 15.5q-63 0 -102.5 -32.5t-39.5 -98.5v-359q0 -66 39.5 -98.5t102.5 -32.5q28 0 61.5 10
t56.5 40.5t23 80.5v359zM311 919l-83 -139h-46l68 139h61zM435 919l-82 -139h-47l69 139h60z" />
    <glyph glyph-name="ohungarumlaut" unicode="&#x151;" horiz-adv-x="531" 
d="M459 177q0 -85 -53.5 -136t-139.5 -51q-89 0 -141.5 50.5t-52.5 136.5v173q0 84 53.5 135t140.5 51q32 0 65.5 -8.5t61.5 -30t47 -58t19 -89.5v-173zM404 177v173q0 36 -14 66.5t-45 48t-79 17.5q-65 0 -102 -35t-37 -97v-173q0 -37 14 -67t45 -48t80 -18q64 0 101 35.5
t37 97.5zM307 747l-83 -139h-46l68 139h61zM431 747l-82 -139h-47l69 139h60z" />
    <glyph glyph-name="OE" unicode="&#x152;" horiz-adv-x="837" 
d="M784 0h-374v43q-54 -52 -142 -52q-40 0 -72.5 11.5t-58.5 33t-45.5 60.5t-19.5 81v360q0 25 10 56t32.5 60t61.5 48t93 19q86 0 141 -53v46h374v-54h-319v-254h295v-54h-295v-297h319v-54zM410 168v367q0 66 -40.5 98.5t-100.5 32.5q-43 0 -76.5 -16.5t-49.5 -46
t-16 -68.5v-358q0 -66 41 -99t101 -33q33 0 64.5 12t53 39t23.5 72z" />
    <glyph glyph-name="oe" unicode="&#x153;" horiz-adv-x="852" 
d="M453 250v-82q1 -35 15 -63t44 -44.5t77 -16.5q59 0 94.5 31.5t39.5 86.5h55q-2 -38 -14.5 -66.5t-32 -50t-55.5 -38.5t-87 -17q-56 0 -98.5 21t-65.5 59q-24 -38 -66 -59t-96 -21q-88 0 -139.5 50t-51.5 137v173q0 84 52 135t139 51q55 0 97.5 -21.5t65.5 -59.5
q24 38 66.5 59.5t96.5 21.5q87 0 138.5 -50t51.5 -136v-100h-326zM398 171v188q-2 35 -16 63t-43.5 44t-75.5 16q-64 0 -100 -34.5t-36 -97.5v-173q0 -23 6.5 -47.5t21 -43t42 -30.5t66.5 -12q62 0 97.5 33.5t37.5 93.5zM724 303v47q0 63 -34.5 97.5t-100.5 34.5
q-29 0 -61.5 -11t-53 -41t-21.5 -74v-53h271z" />
    <glyph glyph-name="Racute" unicode="&#x154;" horiz-adv-x="541" 
d="M486 0h-63l-145 311h-141v-311h-55v713h206q54 0 95.5 -21t66.5 -64.5t25 -96.5v-35q0 -36 -13.5 -74t-45 -67.5t-80.5 -39.5zM420 497v31q0 49 -20 78.5t-51 41t-63 11.5h-149v-294h151q32 0 62.5 12t50 41.5t19.5 78.5zM348 927l-87 -147h-49l72 147h64z" />
    <glyph glyph-name="racute" unicode="&#x155;" horiz-adv-x="313" 
d="M279 473h-33q-29 0 -54.5 -16.5t-40 -45.5t-14.5 -72v-339h-55v527h55v-65q17 33 48 49t62 16h32v-54zM224 751l-87 -147h-49l72 147h64z" />
    <glyph glyph-name="Rcommaaccent" unicode="&#x156;" horiz-adv-x="541" 
d="M486 0h-63l-145 311h-141v-311h-55v713h206q54 0 95.5 -21t66.5 -64.5t25 -96.5v-35q0 -36 -13.5 -74t-45 -67.5t-80.5 -39.5zM420 497v31q0 49 -20 78.5t-51 41t-63 11.5h-149v-294h151q32 0 62.5 12t50 41.5t19.5 78.5zM163 -190l87 147h49l-72 -147h-64z" />
    <glyph glyph-name="rcommaaccent" unicode="&#x157;" horiz-adv-x="313" 
d="M279 473h-33q-29 0 -54.5 -16.5t-40 -45.5t-14.5 -72v-339h-55v527h55v-65q17 33 48 49t62 16h32v-54zM1 -190l87 147h49l-72 -147h-64z" />
    <glyph glyph-name="Rcaron" unicode="&#x158;" horiz-adv-x="541" 
d="M486 0h-63l-145 311h-141v-311h-55v713h206q54 0 95.5 -21t66.5 -64.5t25 -96.5v-35q0 -36 -13.5 -74t-45 -67.5t-80.5 -39.5zM420 497v31q0 49 -20 78.5t-51 41t-63 11.5h-149v-294h151q32 0 62.5 12t50 41.5t19.5 78.5zM338 927h50l-100 -147h-55l-100 147h51l77 -101z
" />
    <glyph glyph-name="rcaron" unicode="&#x159;" horiz-adv-x="313" 
d="M279 473h-33q-29 0 -54.5 -16.5t-40 -45.5t-14.5 -72v-339h-55v527h55v-65q17 33 48 49t62 16h32v-54zM234 751h50l-100 -147h-55l-100 147h51l77 -101z" />
    <glyph glyph-name="Sacute" unicode="&#x15a;" horiz-adv-x="519" 
d="M465 176q0 -39 -16 -73.5t-45 -59.5t-67.5 -39t-81.5 -14q-44 0 -77.5 12.5t-59 32.5t-45.5 56.5t-20 84.5h55q0 -30 14 -61.5t50.5 -51t81.5 -19.5q70 0 113 37.5t43 96.5q0 44 -20 74t-58 51q-34 19 -94.5 51t-79.5 42q-41 22 -67 62.5t-26 88.5q0 76 54 125t137 49
q43 0 79.5 -13.5t63 -38.5t41 -58.5t14.5 -72.5h-55q0 38 -16.5 66.5t-49.5 45.5t-77 17q-57 0 -96.5 -32t-39.5 -91q0 -33 18.5 -60.5t53.5 -45.5q116 -59 165 -86q51 -28 79.5 -74t28.5 -102zM357 927l-87 -147h-49l72 147h64z" />
    <glyph glyph-name="sacute" unicode="&#x15b;" horiz-adv-x="492" 
d="M438 152q0 -52 -23 -87t-66 -54t-105 -19q-41 0 -76.5 11t-61 32.5t-39.5 52.5t-14 68h55q0 -52 37 -81t99 -29q139 0 139 106q0 55 -71 76q-31 9 -82 20.5t-57 12.5q-35 8 -62.5 29.5t-38.5 48t-11 48.5q0 47 24 82t67 50.5t89 15.5q85 0 137 -43t53 -119h-55
q-1 50 -34.5 79t-102.5 29q-61 0 -92 -24t-31 -70q0 -26 20 -46.5t51 -27.5q8 -2 52.5 -11.5t64.5 -14.5t26 -7q49 -14 78.5 -47t29.5 -81zM349 751l-87 -147h-49l72 147h64z" />
    <glyph glyph-name="Scircumflex" unicode="&#x15c;" horiz-adv-x="519" 
d="M465 176q0 -39 -16 -73.5t-45 -59.5t-67.5 -39t-81.5 -14q-44 0 -77.5 12.5t-59 32.5t-45.5 56.5t-20 84.5h55q0 -30 14 -61.5t50.5 -51t81.5 -19.5q70 0 113 37.5t43 96.5q0 44 -20 74t-58 51q-34 19 -94.5 51t-79.5 42q-41 22 -67 62.5t-26 88.5q0 76 54 125t137 49
q43 0 79.5 -13.5t63 -38.5t41 -58.5t14.5 -72.5h-55q0 38 -16.5 66.5t-49.5 45.5t-77 17q-57 0 -96.5 -32t-39.5 -91q0 -33 18.5 -60.5t53.5 -45.5q116 -59 165 -86q51 -28 79.5 -74t28.5 -102zM387 780h-50l-77 101l-77 -101h-51l100 147h55z" />
    <glyph glyph-name="scircumflex" unicode="&#x15d;" horiz-adv-x="492" 
d="M438 152q0 -52 -23 -87t-66 -54t-105 -19q-41 0 -76.5 11t-61 32.5t-39.5 52.5t-14 68h55q0 -52 37 -81t99 -29q139 0 139 106q0 55 -71 76q-31 9 -82 20.5t-57 12.5q-35 8 -62.5 29.5t-38.5 48t-11 48.5q0 47 24 82t67 50.5t89 15.5q85 0 137 -43t53 -119h-55
q-1 50 -34.5 79t-102.5 29q-61 0 -92 -24t-31 -70q0 -26 20 -46.5t51 -27.5q8 -2 52.5 -11.5t64.5 -14.5t26 -7q49 -14 78.5 -47t29.5 -81zM373 604h-50l-77 101l-77 -101h-51l100 147h55z" />
    <glyph glyph-name="Scedilla" unicode="&#x15e;" horiz-adv-x="519" 
d="M465 176q0 -39 -16 -73.5t-45 -59.5t-67.5 -39t-81.5 -14q-44 0 -77.5 12.5t-59 32.5t-45.5 56.5t-20 84.5h55q0 -30 14 -61.5t50.5 -51t81.5 -19.5q70 0 113 37.5t43 96.5q0 44 -20 74t-58 51q-34 19 -94.5 51t-79.5 42q-41 22 -67 62.5t-26 88.5q0 76 54 125t137 49
q43 0 79.5 -13.5t63 -38.5t41 -58.5t14.5 -72.5h-55q0 38 -16.5 66.5t-49.5 45.5t-77 17q-57 0 -96.5 -32t-39.5 -91q0 -33 18.5 -60.5t53.5 -45.5q116 -59 165 -86q51 -28 79.5 -74t28.5 -102zM161 -190l87 147h49l-72 -147h-64z" />
    <glyph glyph-name="scedilla" unicode="&#x15f;" horiz-adv-x="492" 
d="M438 152q0 -52 -23 -87t-66 -54t-105 -19q-41 0 -76.5 11t-61 32.5t-39.5 52.5t-14 68h55q0 -52 37 -81t99 -29q139 0 139 106q0 55 -71 76q-31 9 -82 20.5t-57 12.5q-35 8 -62.5 29.5t-38.5 48t-11 48.5q0 47 24 82t67 50.5t89 15.5q85 0 137 -43t53 -119h-55
q-1 50 -34.5 79t-102.5 29q-61 0 -92 -24t-31 -70q0 -26 20 -46.5t51 -27.5q8 -2 52.5 -11.5t64.5 -14.5t26 -7q49 -14 78.5 -47t29.5 -81zM143 -190l87 147h49l-72 -147h-64z" />
    <glyph glyph-name="Scaron" unicode="&#x160;" horiz-adv-x="519" 
d="M465 176q0 -39 -16 -73.5t-45 -59.5t-67.5 -39t-81.5 -14q-44 0 -77.5 12.5t-59 32.5t-45.5 56.5t-20 84.5h55q0 -30 14 -61.5t50.5 -51t81.5 -19.5q70 0 113 37.5t43 96.5q0 44 -20 74t-58 51q-34 19 -94.5 51t-79.5 42q-41 22 -67 62.5t-26 88.5q0 76 54 125t137 49
q43 0 79.5 -13.5t63 -38.5t41 -58.5t14.5 -72.5h-55q0 38 -16.5 66.5t-49.5 45.5t-77 17q-57 0 -96.5 -32t-39.5 -91q0 -33 18.5 -60.5t53.5 -45.5q116 -59 165 -86q51 -28 79.5 -74t28.5 -102zM337 927h50l-100 -147h-55l-100 147h51l77 -101z" />
    <glyph glyph-name="scaron" unicode="&#x161;" horiz-adv-x="492" 
d="M438 152q0 -52 -23 -87t-66 -54t-105 -19q-41 0 -76.5 11t-61 32.5t-39.5 52.5t-14 68h55q0 -52 37 -81t99 -29q139 0 139 106q0 55 -71 76q-31 9 -82 20.5t-57 12.5q-35 8 -62.5 29.5t-38.5 48t-11 48.5q0 47 24 82t67 50.5t89 15.5q85 0 137 -43t53 -119h-55
q-1 50 -34.5 79t-102.5 29q-61 0 -92 -24t-31 -70q0 -26 20 -46.5t51 -27.5q8 -2 52.5 -11.5t64.5 -14.5t26 -7q49 -14 78.5 -47t29.5 -81zM323 751h50l-100 -147h-55l-100 147h51l77 -101z" />
    <glyph glyph-name="Tcommaaccent" unicode="&#x162;" horiz-adv-x="472" 
d="M443 659h-180v-659h-55v659h-180v54h415v-54zM122 -190l87 147h49l-72 -147h-64z" />
    <glyph glyph-name="tcommaaccent" unicode="&#x163;" horiz-adv-x="354" 
d="M23 473v54h105v186h55v-186h120v-54h-120v-347q0 -38 19.5 -55t50.5 -17h52v-54h-57q-38 0 -67.5 18t-41 49t-11.5 64v342h-105zM164 -190l87 147h49l-72 -147h-64z" />
    <glyph glyph-name="Tcaron" unicode="&#x164;" horiz-adv-x="472" 
d="M443 659h-180v-659h-55v659h-180v54h415v-54zM313 927h50l-100 -147h-55l-100 147h51l77 -101z" />
    <glyph glyph-name="tcaron" unicode="&#x165;" horiz-adv-x="456" 
d="M23 473v54h105v186h55v-186h120v-54h-120v-347q0 -38 19.5 -55t50.5 -17h52v-54h-57q-38 0 -67.5 18t-41 49t-11.5 64v342h-105zM418 555h-55v186h55v-186z" />
    <glyph glyph-name="Tbar" unicode="&#x166;" horiz-adv-x="482" 
d="M443 659h-180v-259h118v-50h-118v-350h-55v350h-114v50h114v259h-180v54h415v-54z" />
    <glyph glyph-name="tbar" unicode="&#x167;" horiz-adv-x="358" 
d="M23 472v54h105v187h55v-187h120v-54h-120v-163h126v-54h-126v-129q0 -38 19.5 -55t50.5 -17h52v-54h-57q-38 0 -67.5 18t-41 49t-11.5 64v124h-105v54h105v163h-105z" />
    <glyph glyph-name="Utilde" unicode="&#x168;" 
d="M410 713h55v-538q0 -82 -53.5 -133t-142.5 -51q-90 0 -143.5 50.5t-53.5 132.5v539h55v-537q0 -66 39.5 -98.5t102.5 -32.5q28 0 61.5 10t56.5 40.5t23 80.5v537zM390 859l32 -31q-22 -22 -43.5 -35t-46.5 -13q-24 0 -66.5 22.5t-60.5 22.5q-14 0 -26.5 -6t-32.5 -25
l-32 31q22 22 43.5 35t46.5 13q24 0 62.5 -19.5t49.5 -22.5t15 -3q14 0 27.5 6.5t31.5 24.5z" />
    <glyph glyph-name="utilde" unicode="&#x169;" horiz-adv-x="544" 
d="M461 0h-55v53q-47 -63 -137 -63q-88 0 -139.5 50.5t-51.5 136.5v350h55v-350q0 -23 6.5 -47.5t21 -43t42 -30.5t66.5 -12q28 0 59.5 11.5t54.5 41.5t23 74v356h55v-527zM394 687l32 -31q-22 -22 -43.5 -35t-46.5 -13q-24 0 -66.5 22.5t-60.5 22.5q-14 0 -26.5 -6
t-32.5 -25l-32 31q22 22 43.5 35t46.5 13q24 0 62.5 -19.5t49.5 -22.5t15 -3q14 0 27.5 6.5t31.5 24.5z" />
    <glyph glyph-name="Umacron" unicode="&#x16a;" 
d="M410 713h55v-538q0 -82 -53.5 -133t-142.5 -51q-90 0 -143.5 50.5t-53.5 132.5v539h55v-537q0 -66 39.5 -98.5t102.5 -32.5q28 0 61.5 10t56.5 40.5t23 80.5v537zM416 800h-296v50h296v-50z" />
    <glyph glyph-name="umacron" unicode="&#x16b;" horiz-adv-x="544" 
d="M461 0h-55v53q-47 -63 -137 -63q-88 0 -139.5 50.5t-51.5 136.5v350h55v-350q0 -23 6.5 -47.5t21 -43t42 -30.5t66.5 -12q28 0 59.5 11.5t54.5 41.5t23 74v356h55v-527zM420 635h-296v50h296v-50z" />
    <glyph glyph-name="Ubreve" unicode="&#x16c;" 
d="M410 713h55v-538q0 -82 -53.5 -133t-142.5 -51q-90 0 -143.5 50.5t-53.5 132.5v539h55v-537q0 -66 39.5 -98.5t102.5 -32.5q28 0 61.5 10t56.5 40.5t23 80.5v537zM268 780q-53 0 -93 32.5t-46 92.5h49q7 -39 30.5 -59.5t59.5 -20.5t59.5 20.5t30.5 59.5h49
q-6 -60 -46 -92.5t-93 -32.5z" />
    <glyph glyph-name="ubreve" unicode="&#x16d;" horiz-adv-x="544" 
d="M461 0h-55v53q-47 -63 -137 -63q-88 0 -139.5 50.5t-51.5 136.5v350h55v-350q0 -23 6.5 -47.5t21 -43t42 -30.5t66.5 -12q28 0 59.5 11.5t54.5 41.5t23 74v356h55v-527zM272 606q-53 0 -93 32.5t-46 92.5h49q7 -39 30.5 -59.5t59.5 -20.5t59.5 20.5t30.5 59.5h49
q-6 -60 -46 -92.5t-93 -32.5z" />
    <glyph glyph-name="Uring" unicode="&#x16e;" 
d="M410 713h55v-538q0 -82 -53.5 -133t-142.5 -51q-90 0 -143.5 50.5t-53.5 132.5v539h55v-537q0 -66 39.5 -98.5t102.5 -32.5q28 0 61.5 10t56.5 40.5t23 80.5v537zM368 851q0 -19 -10 -42t-35.5 -40.5t-55.5 -17.5q-29 0 -54 17.5t-35 40.5t-10 42t10 42.5t35 40.5t54 17
q19 0 43 -10t41 -35t17 -55zM326 851q0 24 -17.5 41t-41.5 17q-23 0 -40 -17t-17 -41q0 -23 17 -40.5t40 -17.5q24 0 41.5 17.5t17.5 40.5z" />
    <glyph glyph-name="uring" unicode="&#x16f;" horiz-adv-x="544" 
d="M461 0h-55v53q-47 -63 -137 -63q-88 0 -139.5 50.5t-51.5 136.5v350h55v-350q0 -23 6.5 -47.5t21 -43t42 -30.5t66.5 -12q28 0 59.5 11.5t54.5 41.5t23 74v356h55v-527zM372 665q0 -19 -10 -42t-35.5 -40.5t-55.5 -17.5q-29 0 -54 17.5t-35 40.5t-10 42t10 42.5t35 40.5
t54 17q19 0 43 -10t41 -35t17 -55zM330 665q0 24 -17.5 41t-41.5 17q-23 0 -40 -17t-17 -41q0 -23 17 -40.5t40 -17.5q24 0 41.5 17.5t17.5 40.5z" />
    <glyph glyph-name="Uhungarumlaut" unicode="&#x170;" 
d="M410 713h55v-538q0 -82 -53.5 -133t-142.5 -51q-90 0 -143.5 50.5t-53.5 132.5v539h55v-537q0 -66 39.5 -98.5t102.5 -32.5q28 0 61.5 10t56.5 40.5t23 80.5v537zM311 919l-83 -139h-46l68 139h61zM435 919l-82 -139h-47l69 139h60z" />
    <glyph glyph-name="uhungarumlaut" unicode="&#x171;" horiz-adv-x="544" 
d="M461 0h-55v53q-47 -63 -137 -63q-88 0 -139.5 50.5t-51.5 136.5v350h55v-350q0 -23 6.5 -47.5t21 -43t42 -30.5t66.5 -12q28 0 59.5 11.5t54.5 41.5t23 74v356h55v-527zM304 747l-83 -139h-46l68 139h61zM428 747l-82 -139h-47l69 139h60z" />
    <glyph glyph-name="Uogonek" unicode="&#x172;" 
d="M410 713h55v-538q0 -82 -53.5 -133t-142.5 -51q-90 0 -143.5 50.5t-53.5 132.5v539h55v-537q0 -66 39.5 -98.5t102.5 -32.5q28 0 61.5 10t56.5 40.5t23 80.5v537zM295 -43l87 -147h-64l-72 147h49z" />
    <glyph glyph-name="uogonek" unicode="&#x173;" horiz-adv-x="544" 
d="M461 0h-55v53q-47 -63 -137 -63q-88 0 -139.5 50.5t-51.5 136.5v350h55v-350q0 -23 6.5 -47.5t21 -43t42 -30.5t66.5 -12q28 0 59.5 11.5t54.5 41.5t23 74v356h55v-527zM460 -43l87 -147h-64l-72 147h49z" />
    <glyph glyph-name="Wcircumflex" unicode="&#x174;" horiz-adv-x="794" 
d="M765 713l-149 -713h-76l-143 612l-145 -612h-76l-148 713h56l130 -661l154 660h57l153 -660l131 661h56zM524 780h-50l-77 101l-77 -101h-51l100 147h55z" />
    <glyph glyph-name="wcircumflex" unicode="&#x175;" horiz-adv-x="699" 
d="M655 527l-123 -527h-73l-110 450l-110 -450h-72l-124 527h56l106 -474l116 474h56l117 -474l105 474h56zM477 604h-50l-77 101l-77 -101h-51l100 147h55z" />
    <glyph glyph-name="Ycircumflex" unicode="&#x176;" horiz-adv-x="489" 
d="M460 713l-189 -456v-257h-55v258l-188 455h60l156 -388l156 388h60zM372 780h-50l-77 101l-77 -101h-51l100 147h55z" />
    <glyph glyph-name="ycircumflex" unicode="&#x177;" horiz-adv-x="454" 
d="M224 0h-41l-155 527h57l137 -476h15l131 476h57l-176 -630q-19 -67 -51 -95t-106 -28h-5v54h18q37 0 57.5 13.5t31.5 52.5zM354 604h-50l-77 101l-77 -101h-51l100 147h55z" />
    <glyph glyph-name="Ydieresis" unicode="&#x178;" horiz-adv-x="489" 
d="M460 713l-189 -456v-257h-55v258l-188 455h60l156 -388l156 388h60zM388 780h-72v90h72v-90zM173 780h-72v90h72v-90z" />
    <glyph glyph-name="Zacute" unicode="&#x179;" horiz-adv-x="453" 
d="M420 0h-388v56l313 603h-299v54h357v-53l-313 -606h330v-54zM310 927l-87 -147h-49l72 147h64z" />
    <glyph glyph-name="zacute" unicode="&#x17a;" horiz-adv-x="448" 
d="M404 0h-361v55l281 418h-271v54h329v-55l-281 -418h303v-54zM312 751l-87 -147h-49l72 147h64z" />
    <glyph glyph-name="Zdotaccent" unicode="&#x17b;" horiz-adv-x="453" 
d="M420 0h-388v56l313 603h-299v54h357v-53l-313 -606h330v-54zM262 780h-72v90h72v-90z" />
    <glyph glyph-name="zdotaccent" unicode="&#x17c;" horiz-adv-x="448" 
d="M404 0h-361v55l281 418h-271v54h329v-55l-281 -418h303v-54zM260 623h-72v90h72v-90z" />
    <glyph glyph-name="Zcaron" unicode="&#x17d;" horiz-adv-x="453" 
d="M420 0h-388v56l313 603h-299v54h357v-53l-313 -606h330v-54zM304 927h50l-100 -147h-55l-100 147h51l77 -101z" />
    <glyph glyph-name="zcaron" unicode="&#x17e;" horiz-adv-x="448" 
d="M404 0h-361v55l281 418h-271v54h329v-55l-281 -418h303v-54zM301 751h50l-100 -147h-55l-100 147h51l77 -101z" />
    <glyph glyph-name="longs" unicode="&#x17f;" horiz-adv-x="325" 
d="M172 581v-581h-55v472h-95v54h95v43q0 68 34 106t102 38h37v-54h-47q-19 0 -37 -10t-26 -29t-8 -39z" />
    <glyph glyph-name="uni018F" unicode="&#x18f;" horiz-adv-x="538" 
d="M127 536h-55q0 82 53.5 133t142.5 51q90 0 143.5 -50.5t53.5 -132.5v-363q0 -82 -53.5 -132.5t-143.5 -50.5q-89 0 -142.5 51t-53.5 133v207h338v153q0 66 -39.5 98.5t-102.5 32.5q-28 0 -61.5 -10t-56.5 -40t-23 -80zM127 328v-154q1 -66 40 -97.5t101 -31.5
q63 0 102.5 32.5t39.5 98.5v152h-283z" />
    <glyph glyph-name="florin" unicode="&#x192;" horiz-adv-x="325" 
d="M172 -95q0 -33 -11.5 -64t-41 -49t-67.5 -18h-18v54h13q31 0 50.5 17t19.5 55v572h-95v54h95v43q0 68 34 106t102 38h37v-54h-47q-19 0 -37 -10t-26 -29t-8 -39v-55h130v-54h-130v-567z" />
    <glyph glyph-name="Ohorn" unicode="&#x1a0;" horiz-adv-x="579" 
d="M529 713h51v-62q0 -56 -29 -88t-86 -34v-354q0 -82 -53.5 -133t-142.5 -51q-90 0 -143.5 50.5t-53.5 132.5v363q0 82 53.5 132.5t143.5 50.5q37 0 77.5 -12.5t72 -46t41.5 -80.5h6q63 0 63 67v65zM410 535q0 42 -16.5 71t-49 44.5t-75.5 15.5q-63 0 -102.5 -32.5
t-39.5 -98.5v-359q0 -66 39.5 -98.5t102.5 -32.5q28 0 61.5 10t56.5 40.5t23 80.5v359z" />
    <glyph glyph-name="ohorn" unicode="&#x1a1;" horiz-adv-x="546" 
d="M459 177q0 -85 -53.5 -136t-139.5 -51q-89 0 -141.5 50.5t-52.5 136.5v173q0 84 53.5 135t140.5 51q72 0 121.5 -35t64.5 -96q24 3 34.5 17t10.5 41v63h50v-64q0 -95 -88 -108v-4v-173zM404 177v173q0 36 -14 66.5t-45 48t-79 17.5q-65 0 -102 -35t-37 -97v-173
q0 -37 14 -67t45 -48t80 -18q64 0 101 35.5t37 97.5z" />
    <glyph glyph-name="Uhorn" unicode="&#x1af;" horiz-adv-x="609" 
d="M549 713h51v-62q0 -58 -30.5 -90t-93.5 -32h-11v-354q0 -82 -53.5 -133t-142.5 -51q-90 0 -143.5 50.5t-53.5 132.5v539h55v-537q0 -66 39.5 -98.5t102.5 -32.5q28 0 61.5 10t56.5 40.5t23 80.5v537h55v-132h21q63 0 63 67v65z" />
    <glyph glyph-name="uhorn" unicode="&#x1b0;" horiz-adv-x="587" 
d="M461 0h-55v53q-46 -62 -137 -62q-88 0 -139.5 50t-51.5 136v350h55v-350q0 -37 13.5 -67t43.5 -47.5t79 -17.5q44 0 78 20t46.5 49t12.5 57v356h55v-123h12q36 0 50.5 14t14.5 45v63h50v-64q0 -38 -14 -62.5t-40 -36t-68 -11.5h-5v-352z" />
    <glyph glyph-name="uni01CD" unicode="&#x1cd;" horiz-adv-x="540" 
d="M459 0l-57 208h-265l-56 -208h-54l196 713h93l197 -713h-54zM262 664l-110 -402h235l-109 402h-16zM347 927h50l-100 -147h-55l-100 147h51l77 -101z" />
    <glyph glyph-name="uni01CE" unicode="&#x1ce;" horiz-adv-x="522" 
d="M443 369v-369h-55v63q-25 -34 -66 -53t-92 -19q-33 0 -64 10t-55 30.5t-38.5 52.5t-14.5 74q0 68 46 106t118 38h166v64q0 40 -14.5 66t-42.5 38t-69 12q-24 0 -51 -7t-43 -21t-25 -33t-9 -48h-55q0 42 16.5 73.5t44 51.5t60.5 29t61 9q31 0 64.5 -8.5t60 -29t42 -53
t15.5 -76.5zM388 176v76h-163q-53 0 -82.5 -23t-29.5 -71q0 -56 31 -84.5t98 -28.5q41 0 78.5 20.5t52.5 50.5t15 60zM338 751h50l-100 -147h-55l-100 147h51l77 -101z" />
    <glyph glyph-name="uni01CF" unicode="&#x1cf;" horiz-adv-x="220" 
d="M82 713h55v-713h-55v713zM188 927h50l-100 -147h-55l-100 147h51l77 -101z" />
    <glyph glyph-name="uni01D0" unicode="&#x1d0;" horiz-adv-x="219" 
d="M136 0h-54v527h54v-527zM187 751h50l-100 -147h-55l-100 147h51l77 -101z" />
    <glyph glyph-name="uni01D1" unicode="&#x1d1;" 
d="M269 -9q-90 0 -143.5 50.5t-53.5 132.5v363q0 82 53.5 132.5t143.5 50.5q89 0 142.5 -51t53.5 -133v-361q0 -82 -53.5 -133t-142.5 -51zM410 535q0 42 -16.5 71t-49 44.5t-75.5 15.5q-63 0 -102.5 -32.5t-39.5 -98.5v-359q0 -66 39.5 -98.5t102.5 -32.5q28 0 61.5 10
t56.5 40.5t23 80.5v359zM346 927h50l-100 -147h-55l-100 147h51l77 -101z" />
    <glyph glyph-name="uni01D2" unicode="&#x1d2;" horiz-adv-x="531" 
d="M459 177q0 -85 -53.5 -136t-139.5 -51q-89 0 -141.5 50.5t-52.5 136.5v173q0 84 53.5 135t140.5 51q32 0 65.5 -8.5t61.5 -30t47 -58t19 -89.5v-173zM404 177v173q0 36 -14 66.5t-45 48t-79 17.5q-65 0 -102 -35t-37 -97v-173q0 -37 14 -67t45 -48t80 -18q64 0 101 35.5
t37 97.5zM343 751h50l-100 -147h-55l-100 147h51l77 -101z" />
    <glyph glyph-name="uni01D3" unicode="&#x1d3;" 
d="M410 713h55v-538q0 -82 -53.5 -133t-142.5 -51q-90 0 -143.5 50.5t-53.5 132.5v539h55v-537q0 -66 39.5 -98.5t102.5 -32.5q28 0 61.5 10t56.5 40.5t23 80.5v537zM346 927h50l-100 -147h-55l-100 147h51l77 -101z" />
    <glyph glyph-name="uni01D4" unicode="&#x1d4;" horiz-adv-x="544" 
d="M461 0h-55v53q-47 -63 -137 -63q-88 0 -139.5 50.5t-51.5 136.5v350h55v-350q0 -23 6.5 -47.5t21 -43t42 -30.5t66.5 -12q28 0 59.5 11.5t54.5 41.5t23 74v356h55v-527zM349 751h50l-100 -147h-55l-100 147h51l77 -101z" />
    <glyph glyph-name="uni01D5" unicode="&#x1d5;" 
d="M410 713h55v-538q0 -82 -53.5 -133t-142.5 -51q-90 0 -143.5 50.5t-53.5 132.5v539h55v-537q0 -66 39.5 -98.5t102.5 -32.5q28 0 61.5 10t56.5 40.5t23 80.5v537zM414 758h-72v90h72v-90zM199 758h-72v90h72v-90zM404 919h-266v45h266v-45z" />
    <glyph glyph-name="uni01D6" unicode="&#x1d6;" horiz-adv-x="544" 
d="M461 0h-55v53q-47 -63 -137 -63q-88 0 -139.5 50.5t-51.5 136.5v350h55v-350q0 -23 6.5 -47.5t21 -43t42 -30.5t66.5 -12q28 0 59.5 11.5t54.5 41.5t23 74v356h55v-527zM413 623h-72v90h72v-90zM198 623h-72v90h72v-90zM403 784h-266v45h266v-45z" />
    <glyph glyph-name="uni01D7" unicode="&#x1d7;" 
d="M410 713h55v-538q0 -82 -53.5 -133t-142.5 -51q-90 0 -143.5 50.5t-53.5 132.5v539h55v-537q0 -66 39.5 -98.5t102.5 -32.5q28 0 61.5 10t56.5 40.5t23 80.5v537zM414 758h-72v90h72v-90zM199 758h-72v90h72v-90zM363 974l-74 -81h-53l63 81h64z" />
    <glyph glyph-name="uni01D8" unicode="&#x1d8;" horiz-adv-x="544" 
d="M461 0h-55v53q-47 -63 -137 -63q-88 0 -139.5 50.5t-51.5 136.5v350h55v-350q0 -23 6.5 -47.5t21 -43t42 -30.5t66.5 -12q28 0 59.5 11.5t54.5 41.5t23 74v356h55v-527zM413 623h-72v90h72v-90zM198 623h-72v90h72v-90zM362 839l-74 -81h-53l63 81h64z" />
    <glyph glyph-name="uni01D9" unicode="&#x1d9;" 
d="M410 713h55v-538q0 -82 -53.5 -133t-142.5 -51q-90 0 -143.5 50.5t-53.5 132.5v539h55v-537q0 -66 39.5 -98.5t102.5 -32.5q28 0 61.5 10t56.5 40.5t23 80.5v537zM410 758h-72v90h72v-90zM195 758h-72v90h72v-90zM137 1003h60l67 -71l67 71h61l-100 -110h-55z" />
    <glyph glyph-name="uni01DA" unicode="&#x1da;" horiz-adv-x="544" 
d="M461 0h-55v53q-47 -63 -137 -63q-88 0 -139.5 50.5t-51.5 136.5v350h55v-350q0 -23 6.5 -47.5t21 -43t42 -30.5t66.5 -12q28 0 59.5 11.5t54.5 41.5t23 74v356h55v-527zM413 623h-72v90h72v-90zM198 623h-72v90h72v-90zM140 868h60l67 -71l67 71h61l-100 -110h-55z" />
    <glyph glyph-name="uni01DB" unicode="&#x1db;" 
d="M410 713h55v-538q0 -82 -53.5 -133t-142.5 -51q-90 0 -143.5 50.5t-53.5 132.5v539h55v-537q0 -66 39.5 -98.5t102.5 -32.5q28 0 61.5 10t56.5 40.5t23 80.5v537zM412 758h-72v90h72v-90zM197 758h-72v90h72v-90zM244 893l-74 81h64l63 -81h-53z" />
    <glyph glyph-name="uni01DC" unicode="&#x1dc;" horiz-adv-x="544" 
d="M461 0h-55v53q-47 -63 -137 -63q-88 0 -139.5 50.5t-51.5 136.5v350h55v-350q0 -23 6.5 -47.5t21 -43t42 -30.5t66.5 -12q28 0 59.5 11.5t54.5 41.5t23 74v356h55v-527zM412 623h-72v90h72v-90zM197 623h-72v90h72v-90zM244 758l-74 81h64l63 -81h-53z" />
    <glyph glyph-name="uni01DD" unicode="&#x1dd;" horiz-adv-x="531" 
d="M72 176v100h332v73q0 37 -14 67t-45 48t-80 18q-59 0 -96 -31.5t-41 -86.5h-55q2 38 15 66.5t33 50t56.5 38.5t87.5 17q89 0 141.5 -50.5t52.5 -136.5v-173q0 -84 -53.5 -135t-140.5 -51q-32 0 -65.5 8.5t-61.5 30t-47 58t-19 89.5zM128 222v-46q0 -37 13.5 -67
t44.5 -47.5t79 -17.5q65 0 102 35t37 97v46h-276z" />
    <glyph glyph-name="AEacute" unicode="&#x1fc;" horiz-adv-x="791" 
d="M738 0h-375v208h-228l-55 -208h-53l186 712h525v-54h-320v-253h295v-54h-295v-297h320v-54zM253 658l-105 -396h215v396h-110zM513 927l-87 -147h-49l72 147h64z" />
    <glyph glyph-name="aeacute" unicode="&#x1fd;" horiz-adv-x="842" 
d="M769 350v-100h-326v-73q0 -37 13.5 -67t43.5 -47.5t79 -17.5q59 0 94.5 31t39.5 86h55q-4 -78 -55.5 -124.5t-133.5 -46.5q-55 0 -100.5 26t-66.5 68q-23 -42 -73.5 -68t-108.5 -26q-44 0 -85 17.5t-64 57t-23 92.5q0 68 46 106.5t118 38.5h166v64q0 56 -30 85.5
t-97 29.5q-37 0 -68.5 -13.5t-44.5 -38.5t-13 -54v-3h-55v2q0 31 11.5 61t40 55t65 35t63.5 10q50 0 92 -18.5t67 -57.5q24 36 65.5 56t94.5 20q87 0 138.5 -50t51.5 -136zM388 175v75h-163q-52 0 -82 -22.5t-30 -69.5q0 -113 128 -113q35 0 70 14.5t56 48t21 67.5zM714 303
v47q0 63 -34.5 97.5t-100.5 34.5q-29 0 -61.5 -11t-53 -41t-21.5 -74v-53h271zM525 751l-87 -147h-49l72 147h64z" />
    <glyph glyph-name="Oslashacute" unicode="&#x1fe;" 
d="M269 -9q-77 0 -128 37l-38 -82h-53l55 118q-15 21 -24 50.5t-9 59.5v363q0 82 53.5 132.5t143.5 50.5q77 0 126 -37l35 74h52l-51 -110q16 -22 25 -50.5t9 -60.5v-361q0 -82 -53.5 -133t-142.5 -51zM410 535q0 27 -8 51l-237 -508q19 -17 47 -25t57 -8q28 0 61.5 10
t56.5 40.5t23 80.5v359zM127 176q0 -30 7 -50l238 507q-19 17 -47 25t-56 8q-63 0 -102.5 -32.5t-39.5 -98.5v-359zM368 927l-87 -147h-49l72 147h64z" />
    <glyph glyph-name="oslashacute" unicode="&#x1ff;" horiz-adv-x="531" 
d="M459 177q0 -85 -53.5 -136t-139.5 -51q-55 0 -98 20l-29 -62h-54l43 89q-56 51 -56 140v173q0 84 53.5 135t140.5 51q48 0 92 -18l28 59h53l-40 -84q28 -24 44 -61t16 -82v-173zM404 177v173q0 57 -30 91l-182 -382q32 -15 74 -15q64 0 101 35.5t37 97.5zM127 177
q0 -54 26 -87l182 380q-27 12 -69 12q-65 0 -102 -35t-37 -97v-173zM359 751l-87 -147h-49l72 147h64z" />
    <glyph glyph-name="Scommaaccent" unicode="&#x218;" horiz-adv-x="519" 
d="M465 176q0 -39 -16 -73.5t-45 -59.5t-67.5 -39t-81.5 -14q-44 0 -77.5 12.5t-59 32.5t-45.5 56.5t-20 84.5h55q0 -30 14 -61.5t50.5 -51t81.5 -19.5q70 0 113 37.5t43 96.5q0 44 -20 74t-58 51q-34 19 -94.5 51t-79.5 42q-41 22 -67 62.5t-26 88.5q0 76 54 125t137 49
q43 0 79.5 -13.5t63 -38.5t41 -58.5t14.5 -72.5h-55q0 38 -16.5 66.5t-49.5 45.5t-77 17q-57 0 -96.5 -32t-39.5 -91q0 -33 18.5 -60.5t53.5 -45.5q116 -59 165 -86q51 -28 79.5 -74t28.5 -102zM161 -190l87 147h49l-72 -147h-64z" />
    <glyph glyph-name="scommaaccent" unicode="&#x219;" horiz-adv-x="492" 
d="M438 152q0 -52 -23 -87t-66 -54t-105 -19q-41 0 -76.5 11t-61 32.5t-39.5 52.5t-14 68h55q0 -52 37 -81t99 -29q139 0 139 106q0 55 -71 76q-31 9 -82 20.5t-57 12.5q-35 8 -62.5 29.5t-38.5 48t-11 48.5q0 47 24 82t67 50.5t89 15.5q85 0 137 -43t53 -119h-55
q-1 50 -34.5 79t-102.5 29q-61 0 -92 -24t-31 -70q0 -26 20 -46.5t51 -27.5q8 -2 52.5 -11.5t64.5 -14.5t26 -7q49 -14 78.5 -47t29.5 -81zM143 -190l87 147h49l-72 -147h-64z" />
    <glyph glyph-name="uni021A" unicode="&#x21a;" horiz-adv-x="472" 
d="M443 659h-180v-659h-55v659h-180v54h415v-54zM127 -190l87 147h49l-72 -147h-64z" />
    <glyph glyph-name="uni021B" unicode="&#x21b;" horiz-adv-x="354" 
d="M23 473v54h105v186h55v-186h120v-54h-120v-347q0 -38 19.5 -55t50.5 -17h52v-54h-57q-38 0 -67.5 18t-41 49t-11.5 64v342h-105zM166 -190l87 147h49l-72 -147h-64z" />
    <glyph glyph-name="circumflex" unicode="&#x2c6;" horiz-adv-x="420" 
d="M337 604h-50l-77 101l-77 -101h-51l100 147h55z" />
    <glyph glyph-name="caron" unicode="&#x2c7;" horiz-adv-x="420" 
d="M287 751h50l-100 -147h-55l-100 147h51l77 -101z" />
    <glyph glyph-name="breve" unicode="&#x2d8;" horiz-adv-x="487" 
d="M245 606q-53 0 -93 32.5t-46 92.5h49q7 -39 30.5 -59.5t59.5 -20.5t59.5 20.5t30.5 59.5h49q-6 -60 -46 -92.5t-93 -32.5z" />
    <glyph glyph-name="dotaccent" unicode="&#x2d9;" horiz-adv-x="238" 
d="M154 623h-72v90h72v-90z" />
    <glyph glyph-name="ring" unicode="&#x2da;" horiz-adv-x="365" 
d="M282 665q0 -19 -10 -42t-35.5 -40.5t-55.5 -17.5q-29 0 -54 17.5t-35 40.5t-10 42t10 42.5t35 40.5t54 17q19 0 43 -10t41 -35t17 -55zM240 665q0 24 -17.5 41t-41.5 17q-23 0 -40 -17t-17 -41q0 -23 17 -40.5t40 -17.5q24 0 41.5 17.5t17.5 40.5z" />
    <glyph glyph-name="ogonek" unicode="&#x2db;" horiz-adv-x="291" 
d="M131 -43l87 -147h-64l-72 147h49z" />
    <glyph glyph-name="tilde" unicode="&#x2dc;" horiz-adv-x="473" 
d="M358 687l32 -31q-22 -22 -43.5 -35t-46.5 -13q-24 0 -66.5 22.5t-60.5 22.5q-14 0 -26.5 -6t-32.5 -25l-32 31q22 22 43.5 35t46.5 13q24 0 62.5 -19.5t49.5 -22.5t15 -3q14 0 27.5 6.5t31.5 24.5z" />
    <glyph glyph-name="hungarumlaut" unicode="&#x2dd;" horiz-adv-x="489" 
d="M253 747l-83 -139h-46l68 139h61zM377 747l-82 -139h-47l69 139h60z" />
    <glyph glyph-name="hookabovecomb" unicode="&#x309;" horiz-adv-x="364" 
d="M181 585v49q21 0 37 15t16 36t-15.5 36.5t-37.5 15.5q-18 0 -34 -14l-38 30q13 14 32.5 23t39.5 9q19 0 43 -10t41 -35t17 -55q0 -19 -10 -42t-35.5 -40.5t-55.5 -17.5z" />
    <glyph glyph-name="dotbelowcomb" unicode="&#x323;" horiz-adv-x="238" 
d="M154 -168h-72v90h72v-90z" />
    <glyph glyph-name="tonos" unicode="&#x384;" horiz-adv-x="348" 
d="M183 595h-45l30 156h55z" />
    <glyph glyph-name="dieresistonos" unicode="&#x385;" horiz-adv-x="452" 
d="M233 622h-45l30 156h55zM369 623h-72v90h72v-90zM154 623h-72v90h72v-90z" />
    <glyph glyph-name="Alphatonos" unicode="&#x386;" horiz-adv-x="540" 
d="M459 0l-57 208h-265l-56 -208h-54l196 713h93l197 -713h-54zM262 664l-110 -402h235l-109 402h-16zM67 595h-45l30 156h55z" />
    <glyph glyph-name="Epsilontonos" unicode="&#x388;" horiz-adv-x="562" 
d="M509 0h-374v713h374v-54h-319v-254h295v-54h-295v-297h319v-54zM29 595h-45l30 156h55z" />
    <glyph glyph-name="Etatonos" unicode="&#x389;" horiz-adv-x="625" 
d="M542 0h-55v348h-297v-348h-55v713h55v-311h297v311h55v-713zM29 595h-45l30 156h55z" />
    <glyph glyph-name="Iotatonos" unicode="&#x38a;" horiz-adv-x="273" 
d="M135 713h55v-713h-55v713zM29 595h-45l30 156h55z" />
    <glyph glyph-name="Omicrontonos" unicode="&#x38c;" horiz-adv-x="591" 
d="M322 -9q-90 0 -143.5 50.5t-53.5 132.5v363q0 82 53.5 132.5t143.5 50.5q89 0 142.5 -51t53.5 -133v-361q0 -82 -53.5 -133t-142.5 -51zM463 535q0 42 -16.5 71t-49 44.5t-75.5 15.5q-63 0 -102.5 -32.5t-39.5 -98.5v-359q0 -66 39.5 -98.5t102.5 -32.5q28 0 61.5 10
t56.5 40.5t23 80.5v359zM29 595h-45l30 156h55z" />
    <glyph glyph-name="Upsilontonos" unicode="&#x38e;" horiz-adv-x="572" 
d="M543 713l-189 -456v-257h-55v258l-188 455h60l156 -388l156 388h60zM29 595h-45l30 156h55z" />
    <glyph glyph-name="Omegatonos" unicode="&#x38f;" horiz-adv-x="601" 
d="M528 177q0 -24 -7 -51.5t-22.5 -47.5t-31.5 -31h101v-47h-210v47q54 8 84.5 41t30.5 89v358q0 42 -16.5 71t-49 44.5t-75.5 15.5q-63 0 -102.5 -32.5t-39.5 -98.5v-358q0 -56 30.5 -89t84.5 -41v-47h-210v47h101q-16 11 -31.5 31t-22.5 47.5t-7 51.5v360q0 82 53.5 132.5
t143.5 50.5q89 0 142.5 -51t53.5 -133v-359zM29 595h-45l30 156h55z" />
    <glyph glyph-name="iotadieresistonos" unicode="&#x390;" horiz-adv-x="256" 
d="M83 126v401h55v-406q0 -38 19.5 -55t50.5 -17h15v-54h-20q-38 0 -67.5 18t-41 49t-11.5 64zM134 622h-45l30 156h55zM270 623h-72v90h72v-90zM55 623h-72v90h72v-90z" />
    <glyph glyph-name="Alpha" unicode="&#x391;" horiz-adv-x="540" 
d="M459 0l-57 208h-265l-56 -208h-54l196 713h93l197 -713h-54zM262 664l-110 -402h235l-109 402h-16z" />
    <glyph glyph-name="Beta" unicode="&#x392;" horiz-adv-x="548" 
d="M480 183q0 -53 -25 -97t-66.5 -65t-95.5 -21h-211v713h206q54 0 94.5 -20.5t63 -62.5t22.5 -96v-12q0 -27 -9.5 -58.5t-30 -56t-46.5 -39.5q46 -21 72 -62t26 -98v-25zM296 341h-159v-287h154q32 0 63 12t51 41.5t20 78.5v21q0 67 -34 100.5t-95 33.5zM137 659v-264h155
q59 0 90 30.5t31 98.5v9q0 126 -127 126h-149z" />
    <glyph glyph-name="Gamma" unicode="&#x393;" horiz-adv-x="473" 
d="M82 713h373v-54h-318v-659h-55v713z" />
    <glyph glyph-name="Delta" unicode="&#x394;" horiz-adv-x="540" 
d="M513 0h-486l187 713h111zM253 664l-159 -611h351l-158 611h-34z" />
    <glyph glyph-name="Epsilon" unicode="&#x395;" horiz-adv-x="509" 
d="M456 0h-374v713h374v-54h-319v-254h295v-54h-295v-297h319v-54z" />
    <glyph glyph-name="Zeta" unicode="&#x396;" horiz-adv-x="453" 
d="M420 0h-388v56l313 603h-299v54h357v-53l-313 -606h330v-54z" />
    <glyph glyph-name="Eta" unicode="&#x397;" horiz-adv-x="572" 
d="M489 0h-55v348h-297v-348h-55v713h55v-311h297v311h55v-713z" />
    <glyph glyph-name="Theta" unicode="&#x398;" 
d="M361 341h-187v50h187v-50zM269 -9q-90 0 -143.5 50.5t-53.5 132.5v363q0 82 53.5 132.5t143.5 50.5q89 0 142.5 -51t53.5 -133v-361q0 -82 -53.5 -133t-142.5 -51zM410 535q0 42 -16.5 71t-49 44.5t-75.5 15.5q-63 0 -102.5 -32.5t-39.5 -98.5v-359q0 -66 39.5 -98.5
t102.5 -32.5q28 0 61.5 10t56.5 40.5t23 80.5v359z" />
    <glyph glyph-name="Iota" unicode="&#x399;" horiz-adv-x="220" 
d="M82 713h55v-713h-55v713z" />
    <glyph glyph-name="Kappa" unicode="&#x39a;" horiz-adv-x="510" 
d="M137 713v-311h50l222 311h61l-234 -331l246 -382h-66l-222 347h-57v-347h-55v713h55z" />
    <glyph glyph-name="Lambda" unicode="&#x39b;" horiz-adv-x="523" 
d="M494 0h-53l-163 661h-34l-163 -661h-53l178 713h110z" />
    <glyph glyph-name="Mu" unicode="&#x39c;" horiz-adv-x="663" 
d="M137 0h-55v713h79l169 -410l169 410h81v-713h-55v636l-168 -409h-52l-168 410v-637z" />
    <glyph glyph-name="Nu" unicode="&#x39d;" horiz-adv-x="563" 
d="M480 0h-77l-266 628v-628h-55v713h74l269 -636v636h55v-713z" />
    <glyph glyph-name="Xi" unicode="&#x39e;" horiz-adv-x="509" 
d="M431 659h-354v54h354v-54zM77 54h354v-54h-354v54zM430 351h-353v54h353v-54z" />
    <glyph glyph-name="Omicron" unicode="&#x39f;" horiz-adv-x="538" 
d="M269 -9q-90 0 -143.5 50.5t-53.5 132.5v363q0 82 53.5 132.5t143.5 50.5q89 0 142.5 -51t53.5 -133v-361q0 -82 -53.5 -133t-142.5 -51zM410 535q0 42 -16.5 71t-49 44.5t-75.5 15.5q-63 0 -102.5 -32.5t-39.5 -98.5v-359q0 -66 39.5 -98.5t102.5 -32.5q28 0 61.5 10
t56.5 40.5t23 80.5v359z" />
    <glyph glyph-name="Pi" unicode="&#x3a0;" horiz-adv-x="572" 
d="M489 0h-55v659h-297v-659h-55v713h407v-713z" />
    <glyph glyph-name="Rho" unicode="&#x3a1;" horiz-adv-x="523" 
d="M475 476q0 -55 -24.5 -99t-65 -65t-93.5 -21h-155v-291h-55v713h206q54 0 95.5 -21t66.5 -65t25 -97v-54zM420 477v51q0 49 -20 78.5t-51 41t-63 11.5h-149v-314h151q32 0 62.5 12t50 41.5t19.5 78.5z" />
    <glyph glyph-name="Sigma" unicode="&#x3a3;" horiz-adv-x="484" 
d="M452 663h-347l269 -279v-38l-272 -296h350v-50h-420v47l290 316l-290 304v46h420v-50z" />
    <glyph glyph-name="Tau" unicode="&#x3a4;" horiz-adv-x="472" 
d="M443 659h-180v-659h-55v659h-180v54h415v-54z" />
    <glyph glyph-name="Upsilon" unicode="&#x3a5;" horiz-adv-x="489" 
d="M460 713l-189 -456v-257h-55v258l-188 455h60l156 -388l156 388h60z" />
    <glyph glyph-name="Phi" unicode="&#x3a6;" horiz-adv-x="579" 
d="M262 741h55v-74q26 -1 61 -8.5t67.5 -33.5t48 -65t15.5 -76v-233q0 -50 -21 -92t-63.5 -67.5t-107.5 -26.5v-75h-55v75q-65 1 -107.5 26.5t-63.5 67.5t-21 92v233q0 29 9.5 60t31.5 58.5t60 45.5t91 19v74zM454 482q0 38 -15.5 67t-47.5 46t-74 18v-494q32 1 64 13.5
t52.5 42t20.5 76.5v231zM125 251q0 -38 15 -67.5t47.5 -46.5t74.5 -18v494q-33 -1 -64.5 -13.5t-52 -41.5t-20.5 -76v-231z" />
    <glyph glyph-name="Chi" unicode="&#x3a7;" horiz-adv-x="488" 
d="M459 0h-63l-153 307l-152 -307h-63l185 359l-184 354h61l152 -305l154 305h61l-184 -354z" />
    <glyph glyph-name="Psi" unicode="&#x3a8;" horiz-adv-x="573" 
d="M314 713v-483q27 1 59 11.5t53.5 40.5t21.5 79v352h55v-353q0 -29 -9 -60.5t-31 -58.5t-59.5 -45.5t-89.5 -19.5v-176h-55v176q-54 1 -99 24t-67.5 66.5t-22.5 92.5v354h55v-352q0 -33 13 -64t46 -48.5t75 -18.5v483h55z" />
    <glyph glyph-name="Omega" unicode="&#x3a9;" horiz-adv-x="538" 
d="M465 177q0 -24 -7 -51.5t-22.5 -47.5t-31.5 -31h101v-47h-210v47q54 8 84.5 41t30.5 89v358q0 42 -16.5 71t-49 44.5t-75.5 15.5q-63 0 -102.5 -32.5t-39.5 -98.5v-358q0 -56 30.5 -89t84.5 -41v-47h-210v47h101q-16 11 -31.5 31t-22.5 47.5t-7 51.5v360q0 82 53.5 132.5
t143.5 50.5q89 0 142.5 -51t53.5 -133v-359z" />
    <glyph glyph-name="Iotadieresis" unicode="&#x3aa;" horiz-adv-x="220" 
d="M82 713h55v-713h-55v713zM254 780h-72v90h72v-90zM39 780h-72v90h72v-90z" />
    <glyph glyph-name="Upsilondieresis" unicode="&#x3ab;" horiz-adv-x="489" 
d="M460 713l-189 -456v-257h-55v258l-188 455h60l156 -388l156 388h60zM388 780h-72v90h72v-90zM173 780h-72v90h72v-90z" />
    <glyph glyph-name="alphatonos" unicode="&#x3ac;" horiz-adv-x="556" 
d="M72 349q0 88 52 137.5t141 49.5q38 0 75.5 -16t57.5 -45v52h55v-404q0 -38 20 -56t50 -18h5v-54h-10q-21 0 -44.5 7.5t-39 23t-23.5 31.5q-19 -24 -46.5 -40t-55 -21.5t-48.5 -5.5q-87 0 -138 50t-51 136v173zM127 176q0 -36 13.5 -66.5t43.5 -48t77 -17.5
q64 0 100.5 33.5t36.5 98.5v173q0 62 -36 97.5t-97 35.5q-49 0 -80 -17t-44.5 -47t-13.5 -69v-173zM286 595h-45l30 156h55z" />
    <glyph glyph-name="epsilontonos" unicode="&#x3ad;" horiz-adv-x="493" 
d="M123 145q1 -31 18 -52.5t47 -33.5t67 -12q25 0 52 7t43 21t25 33t9 48h55q0 -32 -10 -62t-36.5 -55.5t-65 -35.5t-70.5 -10q-79 0 -134 41t-56 111q0 45 21 78.5t57 50.5q-66 31 -66 117q1 42 21.5 74t59.5 51.5t94 19.5q28 0 60.5 -9t59 -29t42 -51.5t15.5 -73.5h-55
q0 29 -11.5 54.5t-41.5 39.5t-69 15q-36 0 -65.5 -12.5t-41.5 -34t-13 -42.5q0 -47 22.5 -70t67.5 -24h59v-51h-68q-42 -5 -66.5 -31t-25.5 -72zM276 595h-45l30 156h55z" />
    <glyph glyph-name="etatonos" unicode="&#x3ae;" horiz-adv-x="542" 
d="M463 -226h-55v576q0 39 -10.5 68t-38 46.5t-76.5 17.5q-61 0 -103.5 -36.5t-42.5 -93.5v-352h-55v527h55v-63q50 72 146 72q87 0 133.5 -49t46.5 -137v-576zM296 595h-45l30 156h55z" />
    <glyph glyph-name="iotatonos" unicode="&#x3af;" horiz-adv-x="256" 
d="M82 126v401h55v-406q0 -38 19.5 -55t50.5 -17h15v-54h-20q-38 0 -67.5 18t-41 49t-11.5 64zM138 595h-45l30 156h55z" />
    <glyph glyph-name="upsilondieresistonos" unicode="&#x3b0;" 
d="M459 406v-229q0 -85 -52 -136t-138 -51q-88 0 -139.5 50t-51.5 137v350h55v-350q0 -23 6.5 -47.5t21 -43t42 -30.5t66.5 -12q64 0 99.5 35t35.5 98v234q0 38 -19.5 55t-50.5 17h-23v54h28q38 0 67.5 -18t41 -49t11.5 -64zM258 622h-45l30 156h55zM394 623h-72v90h72v-90z
M179 623h-72v90h72v-90z" />
    <glyph glyph-name="alpha" unicode="&#x3b1;" horiz-adv-x="556" 
d="M72 349q0 88 52 137.5t141 49.5q38 0 75.5 -16t57.5 -45v52h55v-404q0 -38 20 -56t50 -18h5v-54h-10q-21 0 -44.5 7.5t-39 23t-23.5 31.5q-19 -24 -46.5 -40t-55 -21.5t-48.5 -5.5q-87 0 -138 50t-51 136v173zM127 176q0 -36 13.5 -66.5t43.5 -48t77 -17.5
q64 0 100.5 33.5t36.5 98.5v173q0 62 -36 97.5t-97 35.5q-49 0 -80 -17t-44.5 -47t-13.5 -69v-173z" />
    <glyph glyph-name="beta" unicode="&#x3b2;" horiz-adv-x="539" 
d="M469 177q0 -86 -54.5 -136.5t-143.5 -50.5q-39 0 -75 14.5t-59 46.5v-277h-55v763q0 28 8 60t29 60t59 45t92 17q61 0 102.5 -24t64.5 -66.5t23 -98.5q0 -45 -22 -88.5t-68 -69.5q51 -25 75 -69t24 -85v-41zM137 177q0 -63 35.5 -98t98.5 -35q49 0 81 18t47 48.5t15 66.5
v47q0 37 -18.5 64t-55 42t-79.5 15h-29v51h31q33 0 65.5 11.5t54.5 41.5t22 81q0 67 -37 101t-99 34q-59 0 -95.5 -31.5t-36.5 -96.5v-360z" />
    <glyph glyph-name="gamma" unicode="&#x3b3;" horiz-adv-x="481" 
d="M269 -226h-55v210l-185 543h60l151 -446h6l148 446h58l-183 -544v-209z" />
    <glyph glyph-name="delta" unicode="&#x3b4;" horiz-adv-x="531" 
d="M91 576q1 42 21.5 73t59.5 50.5t94 19.5q28 0 60.5 -9t59 -29t42 -51.5t15.5 -73.5h-55q0 29 -11.5 54.5t-41.5 39.5t-69 15q-36 0 -65.5 -12.5t-41.5 -34t-13 -42.5q0 -73 76 -88q80 -16 118 -27q119 -33 119 -172v-112q0 -85 -53.5 -136t-139.5 -51q-89 0 -141.5 50.5
t-52.5 136.5v114q0 36 12.5 70t36.5 57t48 36q-35 15 -57 48t-21 74zM404 177v122q0 25 -8 49t-24 39t-33 21q-46 16 -74 16q-64 0 -101 -36t-37 -99v-112q0 -37 14 -67t45 -48t80 -18q64 0 101 35.5t37 97.5z" />
    <glyph glyph-name="epsilon" unicode="&#x3b5;" horiz-adv-x="493" 
d="M123 145q1 -31 18 -52.5t47 -33.5t67 -12q25 0 52 7t43 21t25 33t9 48h55q0 -32 -10 -62t-36.5 -55.5t-65 -35.5t-70.5 -10q-79 0 -134 41t-56 111q0 45 21 78.5t57 50.5q-66 31 -66 117q1 42 21.5 74t59.5 51.5t94 19.5q28 0 60.5 -9t59 -29t42 -51.5t15.5 -73.5h-55
q0 29 -11.5 54.5t-41.5 39.5t-69 15q-36 0 -65.5 -12.5t-41.5 -34t-13 -42.5q0 -47 22.5 -70t67.5 -24h59v-51h-68q-42 -5 -66.5 -31t-25.5 -72z" />
    <glyph glyph-name="zeta" unicode="&#x3b6;" horiz-adv-x="432" 
d="M381 -164h-57l26 70q8 21 4.5 42.5t-19.5 31.5t-38 10h-44q-90 0 -137 51t-49 139q-2 87 28.5 170.5t90 162.5t148.5 146h-221v54h310v-53q-56 -33 -110.5 -83.5t-97.5 -112t-68.5 -129.5t-25.5 -133q0 -73 33.5 -115.5t98.5 -42.5h41q33 0 58.5 -11.5t40 -31.5t17.5 -45
t-5 -50z" />
    <glyph glyph-name="eta" unicode="&#x3b7;" horiz-adv-x="542" 
d="M463 -226h-55v576q0 39 -10.5 68t-38 46.5t-76.5 17.5q-61 0 -103.5 -36.5t-42.5 -93.5v-352h-55v527h55v-63q50 72 146 72q87 0 133.5 -49t46.5 -137v-576z" />
    <glyph glyph-name="theta" unicode="&#x3b8;" horiz-adv-x="514" 
d="M257 -9q-54 0 -94.5 21.5t-65.5 63t-25 99.5v361q0 48 21 92t65.5 68t98.5 24t94.5 -21.5t65.5 -63t25 -99.5v-361q0 -48 -21 -92t-65.5 -68t-98.5 -24zM257 45q58 0 94 33t36 99v167h-260v-167q0 -66 36 -99t94 -33zM257 666q-58 0 -94 -33t-36 -99v-139h260v139
q0 66 -36 99t-94 33z" />
    <glyph glyph-name="iota" unicode="&#x3b9;" horiz-adv-x="256" 
d="M82 126v401h55v-406q0 -38 19.5 -55t50.5 -17h15v-54h-20q-38 0 -67.5 18t-41 49t-11.5 64z" />
    <glyph glyph-name="kappa" unicode="&#x3ba;" horiz-adv-x="505" 
d="M474 0h-66l-179 275l-92 -98v-177h-55v527h55v-277l259 277h69l-198 -211z" />
    <glyph glyph-name="lambda" unicode="&#x3bb;" horiz-adv-x="506" 
d="M341 123l-101 353h-18l-136 -476h-57l153 527h46l-22 77q-11 38 -29.5 52t-54.5 14h-28v54h15q73 0 103 -27.5t49 -95.5l137 -481q11 -38 29.5 -52t53.5 -14h18v-54h-5q-47 0 -74.5 10t-46 37t-32.5 76z" />
    <glyph glyph-name="mu" unicode="&#x3bc;" horiz-adv-x="548" 
d="M137 -226h-55v753h55v-350q0 -37 13.5 -67t43.5 -47.5t79 -17.5q44 0 78 20t46.5 49t12.5 57v356h55v-527h-55v51q-45 -60 -137 -60q-36 0 -74 11t-62 35v-263z" />
    <glyph glyph-name="nu" unicode="&#x3bd;" horiz-adv-x="460" 
d="M223 51h15l136 476h57l-152 -527h-97l-153 527h57z" />
    <glyph glyph-name="xi" unicode="&#x3be;" horiz-adv-x="447" 
d="M82 530q0 45 15 81.5t41.5 61t61.5 35.5t71 11q28 0 60.5 -9t59 -29t42 -51.5t15.5 -73.5h-55q0 29 -11.5 54.5t-41 39.5t-67.5 15q-62 0 -99 -34t-37 -101q0 -41 16 -71.5t49 -46.5t77 -16h41v-51h-39q-43 0 -79.5 -15.5t-55 -45t-18.5 -68.5v-39q0 -23 8.5 -54
t38.5 -55t84 -24h41q58 0 86 -29.5t28 -80.5q0 -12 -8 -40.5t-20 -57.5h-57q2 6 11.5 30t14 39.5t4.5 23.5q0 35 -17 48t-45 13h-30q-89 0 -141.5 50.5t-52.5 136.5v41q0 41 24 85t75 69q-47 27 -68.5 70t-21.5 88z" />
    <glyph glyph-name="omicron" unicode="&#x3bf;" horiz-adv-x="531" 
d="M459 177q0 -85 -53.5 -136t-139.5 -51q-89 0 -141.5 50.5t-52.5 136.5v173q0 84 53.5 135t140.5 51q32 0 65.5 -8.5t61.5 -30t47 -58t19 -89.5v-173zM404 177v173q0 36 -14 66.5t-45 48t-79 17.5q-65 0 -102 -35t-37 -97v-173q0 -37 14 -67t45 -48t80 -18q64 0 101 35.5
t37 97.5z" />
    <glyph glyph-name="pi" unicode="&#x3c0;" horiz-adv-x="627" 
d="M424 126v351h-226v-477h-55v477h-94v50h525v-50h-95v-356q0 -38 19.5 -55t50.5 -17h16v-54h-21q-38 0 -67.5 18t-41 49t-11.5 64z" />
    <glyph glyph-name="rho" unicode="&#x3c1;" horiz-adv-x="536" 
d="M464 177q0 -86 -54.5 -136.5t-143.5 -50.5q-39 0 -75 14.5t-59 46.5v-277h-55v576q0 84 53 135t140 51q88 0 141 -50.5t53 -135.5v-173zM409 350q0 36 -14.5 66.5t-45.5 48t-79 17.5q-65 0 -101.5 -35t-36.5 -97v-173q0 -63 35.5 -98t98.5 -35q49 0 81 18t47 48.5
t15 66.5v173z" />
    <glyph glyph-name="sigma1" unicode="&#x3c2;" horiz-adv-x="509" 
d="M384 -164h-57q2 6 11.5 30t14 39.5t4.5 23.5q0 35 -17 48t-45 13h-29q-89 0 -141.5 50.5t-52.5 136.5v173q0 84 53.5 135t140.5 51q85 0 136.5 -47t55.5 -128h-54q-1 22 -11 50t-41 49.5t-86 21.5q-65 0 -102 -35t-37 -97v-173q0 -37 14 -67t45 -48t80 -18h24
q42 0 68 -11.5t40 -36t14 -62.5q0 -12 -8 -40.5t-20 -57.5z" />
    <glyph glyph-name="sigma" unicode="&#x3c3;" horiz-adv-x="538" 
d="M497 479h-94q26 -22 41 -57.5t15 -76.5v-168q0 -84 -54.5 -135.5t-141.5 -51.5q-88 0 -139.5 50t-51.5 137v168q0 84 52 135t139 51h234v-52zM404 177v168q0 36 -15 66.5t-46 48t-80 17.5q-64 0 -100 -34.5t-36 -97.5v-168q0 -23 6.5 -47.5t21 -43t42 -30.5t66.5 -12
q64 0 102.5 35.5t38.5 97.5z" />
    <glyph glyph-name="tau" unicode="&#x3c4;" horiz-adv-x="460" 
d="M257 -1h-55v474h-175v54h406v-54h-176v-474z" />
    <glyph glyph-name="upsilon" unicode="&#x3c5;" 
d="M459 406v-229q0 -85 -52 -136t-138 -51q-88 0 -139.5 50t-51.5 137v350h55v-350q0 -23 6.5 -47.5t21 -43t42 -30.5t66.5 -12q64 0 99.5 35t35.5 98v234q0 38 -19.5 55t-50.5 17h-23v54h28q38 0 67.5 -18t41 -49t11.5 -64z" />
    <glyph glyph-name="phi" unicode="&#x3c6;" horiz-adv-x="610" 
d="M279 -226v217q-90 1 -145.5 52t-55.5 133v351h55v-351q0 -59 40.5 -95t105.5 -36v360q0 41 15.5 70t44.5 45.5t68 16.5q24 0 55 -10.5t53 -41.5t22 -80v-229q0 -29 -9.5 -60.5t-33.5 -58.5t-64.5 -46t-96.5 -20v-217h-54zM333 410v-365q67 1 108 37t41 94v234
q0 19 -7.5 36.5t-26 27t-41.5 9.5t-41 -9.5t-25.5 -27t-7.5 -36.5z" />
    <glyph glyph-name="chi" unicode="&#x3c7;" horiz-adv-x="548" 
d="M84 532q36 0 60.5 -12t38.5 -43l103 -228l129 278h61l-160 -333l118 -273q7 -17 18 -24t47 -7h13v-52h-25q-36 0 -60.5 12t-38.5 43l-107 240l-143 -295h-64l178 358l-115 253q-6 14 -17.5 22.5t-47.5 8.5h-13v52h25z" />
    <glyph glyph-name="psi" unicode="&#x3c8;" horiz-adv-x="587" 
d="M264 -226v218q-30 2 -62.5 12t-59.5 32t-45.5 57t-18.5 83v351h55v-351q0 -55 36 -91t95 -40v668h53v-668q62 5 99.5 40t37.5 91v351h55v-351q0 -28 -9 -59t-31.5 -57.5t-60.5 -45.5t-91 -22v-218h-53z" />
    <glyph glyph-name="omega" unicode="&#x3c9;" horiz-adv-x="673" 
d="M217 44h3q22 1 44 9.5t33.5 32t11.5 59.5v240h55v-240q0 -36 11.5 -59.5t33.5 -32t44 -9.5h3q33 1 52.5 21t25.5 47.5t6 50.5v248q0 72 -67 72h-13v54h18q38 0 64.5 -16.5t39.5 -44.5t13 -70v-246q0 -32 -7 -60.5t-20.5 -51t-41.5 -40.5t-72 -18q-41 1 -71.5 17.5
t-46.5 45.5q-17 -29 -46.5 -45.5t-70.5 -17.5q-36 0 -63 13t-44.5 36.5t-25.5 56t-8 64.5v246q0 42 13 70t39.5 44.5t64.5 16.5h18v-54h-13q-67 0 -67 -72v-248q0 -23 6 -50.5t22 -44t30.5 -20.5t25.5 -4z" />
    <glyph glyph-name="iotadieresis" unicode="&#x3ca;" horiz-adv-x="256" 
d="M83 126v401h55v-406q0 -38 19.5 -55t50.5 -17h15v-54h-20q-38 0 -67.5 18t-41 49t-11.5 64zM253 623h-72v90h72v-90zM38 623h-72v90h72v-90z" />
    <glyph glyph-name="upsilondieresis" unicode="&#x3cb;" 
d="M459 406v-229q0 -85 -52 -136t-138 -51q-88 0 -139.5 50t-51.5 137v350h55v-350q0 -23 6.5 -47.5t21 -43t42 -30.5t66.5 -12q64 0 99.5 35t35.5 98v234q0 38 -19.5 55t-50.5 17h-23v54h28q38 0 67.5 -18t41 -49t11.5 -64zM412 623h-72v90h72v-90zM197 623h-72v90h72v-90z
" />
    <glyph glyph-name="omicrontonos" unicode="&#x3cc;" horiz-adv-x="531" 
d="M459 177q0 -85 -53.5 -136t-139.5 -51q-89 0 -141.5 50.5t-52.5 136.5v173q0 84 53.5 135t140.5 51q32 0 65.5 -8.5t61.5 -30t47 -58t19 -89.5v-173zM404 177v173q0 36 -14 66.5t-45 48t-79 17.5q-65 0 -102 -35t-37 -97v-173q0 -37 14 -67t45 -48t80 -18q64 0 101 35.5
t37 97.5zM286 595h-45l30 156h55z" />
    <glyph glyph-name="upsilontonos" unicode="&#x3cd;" 
d="M459 406v-229q0 -85 -52 -136t-138 -51q-88 0 -139.5 50t-51.5 137v350h55v-350q0 -23 6.5 -47.5t21 -43t42 -30.5t66.5 -12q64 0 99.5 35t35.5 98v234q0 38 -19.5 55t-50.5 17h-23v54h28q38 0 67.5 -18t41 -49t11.5 -64zM250 595h-45l30 156h55z" />
    <glyph glyph-name="omegatonos" unicode="&#x3ce;" horiz-adv-x="673" 
d="M217 44h3q22 1 44 9.5t33.5 32t11.5 59.5v240h55v-240q0 -36 11.5 -59.5t33.5 -32t44 -9.5h3q33 1 52.5 21t25.5 47.5t6 50.5v248q0 72 -67 72h-13v54h18q38 0 64.5 -16.5t39.5 -44.5t13 -70v-246q0 -32 -7 -60.5t-20.5 -51t-41.5 -40.5t-72 -18q-41 1 -71.5 17.5
t-46.5 45.5q-17 -29 -46.5 -45.5t-70.5 -17.5q-36 0 -63 13t-44.5 36.5t-25.5 56t-8 64.5v246q0 42 13 70t39.5 44.5t64.5 16.5h18v-54h-13q-67 0 -67 -72v-248q0 -23 6 -50.5t22 -44t30.5 -20.5t25.5 -4zM356 595h-45l30 156h55z" />
    <glyph glyph-name="afii10023" unicode="&#x401;" horiz-adv-x="509" 
d="M456 0h-374v713h374v-54h-319v-254h295v-54h-295v-297h319v-54zM414 780h-72v90h72v-90zM199 780h-72v90h72v-90z" />
    <glyph glyph-name="afii10051" unicode="&#x402;" horiz-adv-x="669" 
d="M263 0h-55v658h-180v55h415v-55h-180v-194q52 72 146 72q87 0 134 -49.5t47 -136.5v-224q0 -33 -11.5 -64t-41 -49t-67.5 -18h-18v54h13q31 0 50.5 17t19.5 55v229q0 132 -126 132q-29 0 -62 -11.5t-57.5 -42t-26.5 -71.5v-357z" />
    <glyph glyph-name="afii10052" unicode="&#x403;" horiz-adv-x="473" 
d="M455 713h-373v-713h55v659h318v54zM344 927l-87 -147h-49l72 147h64z" />
    <glyph glyph-name="afii10053" unicode="&#x404;" horiz-adv-x="521" 
d="M306 402v-54h-179v-172q0 -42 18 -71t50.5 -44.5t73.5 -15.5q27 0 60 10t57 40.5t24 80.5h55v-1q0 -18 -4.5 -40.5t-16.5 -46.5t-34.5 -46t-59 -36.5t-81.5 -14.5q-34 0 -69 9.5t-63 32.5t-46.5 58.5t-18.5 82.5v363q0 37 13 70.5t38.5 58.5t62.5 39.5t83 14.5
q33 0 67.5 -9.5t63 -32.5t47 -59t18.5 -83h-55q0 33 -14.5 64.5t-50 48.5t-76.5 17q-27 0 -60.5 -10t-57.5 -40.5t-24 -80.5v-133h179z" />
    <glyph glyph-name="afii10054" unicode="&#x405;" horiz-adv-x="519" 
d="M465 176q0 -39 -16 -73.5t-45 -59.5t-67.5 -39t-81.5 -14q-44 0 -77.5 12.5t-59 32.5t-45.5 56.5t-20 84.5h55q0 -30 14 -61.5t50.5 -51t81.5 -19.5q70 0 113 37.5t43 96.5q0 44 -20 74t-58 51q-34 19 -94.5 51t-79.5 42q-41 22 -67 62.5t-26 88.5q0 76 54 125t137 49
q43 0 79.5 -13.5t63 -38.5t41 -58.5t14.5 -72.5h-55q0 38 -16.5 66.5t-49.5 45.5t-77 17q-57 0 -96.5 -32t-39.5 -91q0 -33 18.5 -60.5t53.5 -45.5q116 -59 165 -86q51 -28 79.5 -74t28.5 -102z" />
    <glyph glyph-name="afii10055" unicode="&#x406;" horiz-adv-x="220" 
d="M82 713h55v-713h-55v713z" />
    <glyph glyph-name="afii10056" unicode="&#x407;" horiz-adv-x="220" 
d="M82 713h55v-713h-55v713zM254 780h-72v90h72v-90zM39 780h-72v90h72v-90z" />
    <glyph glyph-name="afii10057" unicode="&#x408;" horiz-adv-x="452" 
d="M374 175q0 -86 -47 -135t-130 -49q-81 0 -128 50t-47 132h55q0 -63 32.5 -95.5t88.5 -32.5q57 0 89 31.5t32 92.5v490h-220v54h275v-538z" />
    <glyph glyph-name="afii10058" unicode="&#x409;" horiz-adv-x="833" 
d="M785 237v-54q0 -53 -25 -97t-66.5 -65t-95.5 -21h-176v659h-224v-484q0 -86 -47 -135t-130 -49v54q58 0 90 31.5t32 92.5v544h334v-291h125q53 0 93.5 -21t65 -65t24.5 -99zM730 185v51q0 40 -14.5 69.5t-45 46t-72.5 16.5h-121v-314h119q32 0 63 11.5t51 41t20 78.5z
" />
    <glyph glyph-name="afii10059" unicode="&#x40a;" horiz-adv-x="827" 
d="M779 227v-44q0 -53 -25 -97t-66.5 -65t-95.5 -21h-188v358h-267v-358h-55v713h55v-301h267v301h55v-301h137q53 0 93.5 -21t65 -65t24.5 -99zM724 185v41q0 40 -14.5 69.5t-45 46t-72.5 16.5h-133v-304h131q32 0 63 11.5t51 41t20 78.5z" />
    <glyph glyph-name="afii10060" unicode="&#x40b;" horiz-adv-x="669" 
d="M263 0h-55v658h-180v55h415v-55h-180v-194q52 72 146 72q87 0 134 -49.5t47 -136.5v-350h-55v350q0 132 -126 132q-29 0 -62 -11.5t-57.5 -42t-26.5 -71.5v-357z" />
    <glyph glyph-name="afii10061" unicode="&#x40c;" horiz-adv-x="510" 
d="M137 713v-311h50l222 311h61l-234 -331l246 -382h-66l-222 347h-57v-347h-55v713h55zM353 927l-87 -147h-49l72 147h64z" />
    <glyph glyph-name="afii10062" unicode="&#x40e;" horiz-adv-x="489" 
d="M117 45q35 0 63 21.5t40 61.5l21 69h-47l-163 516h58l146 -465h19l145 465h57l-181 -584q-19 -67 -58.5 -102.5t-112.5 -35.5h-15v54h28zM245 780q-53 0 -93 32.5t-46 92.5h49q7 -39 30.5 -59.5t59.5 -20.5t59.5 20.5t30.5 59.5h49q-6 -60 -46 -92.5t-93 -32.5z" />
    <glyph glyph-name="afii10145" unicode="&#x40f;" horiz-adv-x="572" 
d="M313 -113h-55v113h-176v713h55v-659h297v659h55v-713h-176v-113z" />
    <glyph glyph-name="afii10017" unicode="&#x410;" horiz-adv-x="540" 
d="M459 0l-57 208h-265l-56 -208h-54l196 713h93l197 -713h-54zM262 664l-110 -402h235l-109 402h-16z" />
    <glyph glyph-name="afii10018" unicode="&#x411;" horiz-adv-x="523" 
d="M455 659h-318v-237h155q53 0 93.5 -21t65 -65t24.5 -99v-54q0 -53 -25 -97t-66.5 -65t-95.5 -21h-206v713h373v-54zM420 185v51q0 40 -14.5 69.5t-45 46t-72.5 16.5h-151v-314h149q32 0 63 11.5t51 41t20 78.5z" />
    <glyph glyph-name="afii10019" unicode="&#x412;" horiz-adv-x="548" 
d="M480 183q0 -53 -25 -97t-66.5 -65t-95.5 -21h-211v713h206q54 0 94.5 -20.5t63 -62.5t22.5 -96v-12q0 -27 -9.5 -58.5t-30 -56t-46.5 -39.5q46 -21 72 -62t26 -98v-25zM296 341h-159v-287h154q32 0 63 12t51 41.5t20 78.5v21q0 67 -34 100.5t-95 33.5zM137 659v-264h155
q59 0 90 30.5t31 98.5v9q0 126 -127 126h-149z" />
    <glyph glyph-name="afii10020" unicode="&#x413;" horiz-adv-x="473" 
d="M82 713h373v-54h-318v-659h-55v713z" />
    <glyph glyph-name="afii10021" unicode="&#x414;" horiz-adv-x="632" 
d="M587 -113h-55v113h-448v-113h-55v167h53q75 30 82 119l45 540h317v-659h61v-167zM219 179q-4 -38 -12.5 -69t-30.5 -56h295v605h-209z" />
    <glyph glyph-name="afii10022" unicode="&#x415;" horiz-adv-x="509" 
d="M456 0h-374v713h374v-54h-319v-254h295v-54h-295v-297h319v-54z" />
    <glyph glyph-name="afii10024" unicode="&#x416;" horiz-adv-x="801" 
d="M428 713v-311h50l222 311h61l-234 -331l246 -382h-66l-223 348h-56v-348h-55v348h-57l-222 -348h-66l245 382l-233 331h61l222 -311h50v311h55z" />
    <glyph glyph-name="afii10025" unicode="&#x417;" horiz-adv-x="525" 
d="M453 531q0 -32 -11.5 -66t-34 -58.5t-45.5 -37.5q40 -19 63.5 -50.5t30 -59t6.5 -44.5v-36q0 -49 -21 -91.5t-66 -69.5t-116 -27q-41 0 -79.5 12t-69 41.5t-43 66.5t-12.5 66h55q0 -29 10.5 -55t34 -44.5t53.5 -25.5t50 -7q48 0 82 16t50.5 46.5t16.5 72.5v33
q0 39 -18.5 68.5t-55 45t-79.5 15.5h-29v51h31q32 0 65 12.5t55 43.5t22 82q0 67 -39 101t-102 34q-20 0 -44.5 -6t-46 -20t-35.5 -40.5t-14 -65.5h-55q0 39 13.5 74t40 61.5t64 38.5t78.5 12q61 0 103.5 -24t67 -67t24.5 -98z" />
    <glyph glyph-name="afii10026" unicode="&#x418;" horiz-adv-x="563" 
d="M159 0h-77v713h55v-636l269 636h74v-713h-55v628z" />
    <glyph glyph-name="afii10027" unicode="&#x419;" horiz-adv-x="563" 
d="M159 0h-77v713h55v-636l269 636h74v-713h-55v628zM281 780q-53 0 -93 32.5t-46 92.5h49q7 -39 30.5 -59.5t59.5 -20.5t59.5 20.5t30.5 59.5h49q-6 -60 -46 -92.5t-93 -32.5z" />
    <glyph glyph-name="afii10028" unicode="&#x41a;" horiz-adv-x="510" 
d="M137 713v-311h50l222 311h61l-234 -331l246 -382h-66l-222 347h-57v-347h-55v713h55z" />
    <glyph glyph-name="afii10029" unicode="&#x41b;" horiz-adv-x="600" 
d="M198 175q0 -86 -47 -135t-130 -49v54q58 0 90 31.5t32 92.5v544h374v-713h-55v659h-264v-484z" />
    <glyph glyph-name="afii10030" unicode="&#x41c;" horiz-adv-x="663" 
d="M137 0h-55v713h79l169 -410l169 410h81v-713h-55v636l-168 -409h-52l-168 410v-637z" />
    <glyph glyph-name="afii10031" unicode="&#x41d;" horiz-adv-x="572" 
d="M489 0h-55v348h-297v-348h-55v713h55v-311h297v311h55v-713z" />
    <glyph glyph-name="afii10032" unicode="&#x41e;" horiz-adv-x="538" 
d="M269 -9q-90 0 -143.5 50.5t-53.5 132.5v363q0 82 53.5 132.5t143.5 50.5q89 0 142.5 -51t53.5 -133v-361q0 -82 -53.5 -133t-142.5 -51zM410 535q0 42 -16.5 71t-49 44.5t-75.5 15.5q-63 0 -102.5 -32.5t-39.5 -98.5v-359q0 -66 39.5 -98.5t102.5 -32.5q28 0 61.5 10
t56.5 40.5t23 80.5v359z" />
    <glyph glyph-name="afii10033" unicode="&#x41f;" horiz-adv-x="572" 
d="M489 0h-55v659h-297v-659h-55v713h407v-713z" />
    <glyph glyph-name="afii10034" unicode="&#x420;" horiz-adv-x="523" 
d="M475 476q0 -55 -24.5 -99t-65 -65t-93.5 -21h-155v-291h-55v713h206q54 0 95.5 -21t66.5 -65t25 -97v-54zM420 477v51q0 49 -20 78.5t-51 41t-63 11.5h-149v-314h151q32 0 62.5 12t50 41.5t19.5 78.5z" />
    <glyph glyph-name="afii10035" unicode="&#x421;" horiz-adv-x="521" 
d="M465 536h-55q0 42 -16.5 70.5t-49 44t-75.5 15.5q-63 0 -102.5 -32.5t-39.5 -98.5v-359q0 -66 39.5 -98.5t102.5 -32.5q28 0 61.5 10t56.5 40.5t23 80.5h55v-1q0 -82 -53.5 -133t-142.5 -51q-90 0 -143.5 50.5t-53.5 132.5v363q0 82 53.5 132.5t143.5 50.5
q89 0 142.5 -51t53.5 -133z" />
    <glyph glyph-name="afii10036" unicode="&#x422;" horiz-adv-x="472" 
d="M443 659h-180v-659h-55v659h-180v54h415v-54z" />
    <glyph glyph-name="afii10037" unicode="&#x423;" horiz-adv-x="489" 
d="M117 45q35 0 63 21.5t40 61.5l21 69h-47l-163 516h58l146 -465h19l145 465h57l-181 -584q-19 -67 -58.5 -102.5t-112.5 -35.5h-15v54h28z" />
    <glyph glyph-name="afii10038" unicode="&#x424;" horiz-adv-x="579" 
d="M262 741h55v-74q26 -1 61 -8.5t67.5 -33.5t48 -65t15.5 -76v-233q0 -50 -21 -92t-63.5 -67.5t-107.5 -26.5v-75h-55v75q-65 1 -107.5 26.5t-63.5 67.5t-21 92v233q0 29 9.5 60t31.5 58.5t60 45.5t91 19v74zM454 482q0 38 -15.5 67t-47.5 46t-74 18v-494q32 1 64 13.5
t52.5 42t20.5 76.5v231zM125 251q0 -38 15 -67.5t47.5 -46.5t74.5 -18v494q-33 -1 -64.5 -13.5t-52 -41.5t-20.5 -76v-231z" />
    <glyph glyph-name="afii10039" unicode="&#x425;" horiz-adv-x="488" 
d="M459 0h-63l-153 307l-152 -307h-63l185 359l-184 354h61l152 -305l154 305h61l-184 -354z" />
    <glyph glyph-name="afii10040" unicode="&#x426;" horiz-adv-x="594" 
d="M549 -113h-55v113h-412v713h55v-659h297v659h55v-659h60v-167z" />
    <glyph glyph-name="afii10041" unicode="&#x427;" horiz-adv-x="526" 
d="M389 345v368h55v-713h-55v291h-155q-53 0 -93.5 21t-65 65t-24.5 99v237h55v-236q0 -40 14.5 -69.5t45 -46t72.5 -16.5h151z" />
    <glyph glyph-name="afii10042" unicode="&#x428;" horiz-adv-x="663" 
d="M359 54h166v659h55v-713h-497v713h55v-659h166v659h55v-659z" />
    <glyph glyph-name="afii10043" unicode="&#x429;" horiz-adv-x="685" 
d="M640 -113h-55v113h-502v713h55v-659h166v659h55v-659h166v659h55v-659h60v-167z" />
    <glyph glyph-name="afii10044" unicode="&#x42a;" horiz-adv-x="564" 
d="M516 237v-54q0 -53 -25 -97t-66.5 -65t-95.5 -21h-206v659h-112v54h167v-291h155q53 0 93.5 -21t65 -65t24.5 -99zM461 185v51q0 40 -14.5 69.5t-45 46t-72.5 16.5h-151v-314h149q32 0 63 11.5t51 41t20 78.5z" />
    <glyph glyph-name="afii10045" unicode="&#x42b;" horiz-adv-x="731" 
d="M475 237v-54q0 -53 -25 -97t-66.5 -65t-95.5 -21h-206v713h55v-291h155q53 0 93.5 -21t65 -65t24.5 -99zM420 185v51q0 40 -14.5 69.5t-45 46t-72.5 16.5h-151v-314h149q32 0 63 11.5t51 41t20 78.5zM593 713h55v-713h-55v713z" />
    <glyph glyph-name="afii10046" unicode="&#x42c;" horiz-adv-x="523" 
d="M475 237v-54q0 -53 -25 -97t-66.5 -65t-95.5 -21h-206v713h55v-291h155q53 0 93.5 -21t65 -65t24.5 -99zM420 185v51q0 40 -14.5 69.5t-45 46t-72.5 16.5h-151v-314h149q32 0 63 11.5t51 41t20 78.5z" />
    <glyph glyph-name="afii10047" unicode="&#x42d;" horiz-adv-x="521" 
d="M111 536h-55q0 18 4.5 40.5t16.5 46.5t34.5 46t59 36.5t81.5 14.5q34 0 69 -9.5t63 -32.5t46.5 -58.5t18.5 -82.5v-363q0 -37 -13 -70.5t-38.5 -58.5t-62.5 -39.5t-83 -14.5q-33 0 -67.5 9.5t-63 32.5t-47 59t-18.5 83v1h55q0 -42 17.5 -71t50 -44.5t73.5 -15.5
q27 0 60.5 10t57.5 40.5t24 80.5v172h-179v54h179v133q0 42 -18 71t-50.5 44.5t-73.5 15.5q-27 0 -60 -10t-57 -40.5t-24 -79.5z" />
    <glyph glyph-name="afii10048" unicode="&#x42e;" horiz-adv-x="730" 
d="M82 713h55v-311h127v135q0 82 53.5 132.5t143.5 50.5q89 0 142.5 -51t53.5 -133v-361q0 -82 -53.5 -133t-142.5 -51q-90 0 -143.5 50.5t-53.5 132.5v174h-127v-348h-55v713zM602 535q0 42 -16.5 71t-49 44.5t-75.5 15.5q-63 0 -102.5 -32.5t-39.5 -98.5v-359
q0 -66 39.5 -98.5t102.5 -32.5q28 0 61.5 10t56.5 40.5t23 80.5v359z" />
    <glyph glyph-name="afii10049" unicode="&#x42f;" horiz-adv-x="541" 
d="M54 0l150 315q-49 9 -80.5 38t-45 68t-13.5 75v34q0 53 25 97t66.5 65t95.5 21h206v-713h-55v311h-141l-145 -311h-63zM120 528v-31q0 -40 14.5 -69.5t45 -46t72.5 -16.5h151v294h-149q-32 0 -63 -11.5t-51 -41t-20 -78.5z" />
    <glyph glyph-name="afii10065" unicode="&#x430;" horiz-adv-x="522" 
d="M443 369v-369h-55v63q-25 -34 -66 -53t-92 -19q-33 0 -64 10t-55 30.5t-38.5 52.5t-14.5 74q0 68 46 106t118 38h166v64q0 40 -14.5 66t-42.5 38t-69 12q-24 0 -51 -7t-43 -21t-25 -33t-9 -48h-55q0 42 16.5 73.5t44 51.5t60.5 29t61 9q31 0 64.5 -8.5t60 -29t42 -53
t15.5 -76.5zM388 176v76h-163q-53 0 -82.5 -23t-29.5 -71q0 -56 31 -84.5t98 -28.5q41 0 78.5 20.5t52.5 50.5t15 60z" />
    <glyph glyph-name="afii10066" unicode="&#x431;" horiz-adv-x="529" 
d="M404 767v-5q2 -50 -30 -73t-83 -23h-23q-61 0 -99.5 -33t-38.5 -100v-51q26 27 62 40.5t74 13.5q42 0 73.5 -11.5t55.5 -30.5t42.5 -55.5t18.5 -88.5v-173q0 -87 -51 -137t-139 -50q-86 0 -138.5 51t-52.5 136v358q0 26 9 57.5t31 60.5t60.5 48t92.5 19h17q35 0 50.5 9
t15.5 33v5h53zM130 350v-173q0 -63 36 -98t100 -35q67 0 101 34.5t34 98.5v173q0 63 -35.5 97.5t-99.5 34.5q-66 0 -101 -34.5t-35 -97.5z" />
    <glyph glyph-name="afii10067" unicode="&#x432;" horiz-adv-x="538" 
d="M82 0v527h203q33 0 61 -6.5t50.5 -19.5t40 -41t18.5 -74q-3 -83 -66 -113q36 -16 57 -47.5t21 -75.5q0 -74 -48 -112t-137 -38h-200zM137 54h142q133 0 133 96q0 35 -17.5 58.5t-44 31.5t-50.5 8h-163v-194zM401 386q-1 46 -33.5 66.5t-85.5 20.5h-145v-174h163
q37 0 60 11t31.5 32t9.5 44z" />
    <glyph glyph-name="afii10068" unicode="&#x433;" horiz-adv-x="436" 
d="M82 0v527h320v-54h-265v-473h-55z" />
    <glyph glyph-name="afii10069" unicode="&#x434;" horiz-adv-x="583" 
d="M37 54h56q32 19 37 67l32 406h312v-473h62v-167h-55v113h-389v-113h-55v167zM184 126q-4 -45 -24 -72h259v419h-206z" />
    <glyph glyph-name="afii10070" unicode="&#x435;" horiz-adv-x="527" 
d="M459 350v-100h-332v-73q0 -37 14 -67t45 -48t80 -18q59 0 96 31.5t41 86.5h55q-2 -38 -15 -66.5t-33 -50t-56.5 -38.5t-87.5 -17q-89 0 -141.5 50.5t-52.5 136.5v173q0 84 53.5 135t140.5 51q32 0 65.5 -8.5t61.5 -30t47 -58t19 -89.5zM403 304v46q0 37 -13.5 67
t-44.5 47.5t-79 17.5q-65 0 -102 -35t-37 -97v-46h276z" />
    <glyph glyph-name="afii10072" unicode="&#x436;" horiz-adv-x="744" 
d="M400 527v-233h55l188 233h67l-202 -252l207 -275h-68l-182 240h-65v-240h-55v240h-67l-181 -240h-68l207 275l-202 252h67l187 -233h57v233h55z" />
    <glyph glyph-name="afii10073" unicode="&#x437;" horiz-adv-x="493" 
d="M210 248v51h59q45 1 67.5 24t22.5 70q0 43 -34.5 66t-85.5 23q-39 -1 -66.5 -13.5t-41.5 -36t-14 -59.5h-55q0 42 15.5 73.5t42 51.5t59 29t60.5 9q55 0 94.5 -19.5t60 -51.5t20.5 -74q0 -43 -17.5 -73t-49.5 -44q36 -17 57.5 -50.5t21.5 -78.5q-1 -70 -56 -111t-134 -41
q-32 0 -66 8.5t-60 28.5t-41 52t-15 74h55q0 -22 6 -39.5t18.5 -32t38.5 -26t66 -11.5q37 0 67.5 12t47.5 33.5t17 52.5q0 45 -25 71.5t-67 31.5h-68z" />
    <glyph glyph-name="afii10074" unicode="&#x438;" horiz-adv-x="540" 
d="M159 0h-77v527h55v-458l247 458h74v-527h-55v451z" />
    <glyph glyph-name="afii10075" unicode="&#x439;" horiz-adv-x="540" 
d="M159 0h-77v527h55v-458l247 458h74v-527h-55v451zM270 606q-53 0 -93 32.5t-46 92.5h49q7 -39 30.5 -59.5t59.5 -20.5t59.5 20.5t30.5 59.5h49q-6 -60 -46 -92.5t-93 -32.5z" />
    <glyph glyph-name="afii10076" unicode="&#x43a;" horiz-adv-x="501" 
d="M137 527v-233h75l188 233h67l-202 -252l207 -275h-68l-182 240h-85v-240h-55v527h55z" />
    <glyph glyph-name="afii10077" unicode="&#x43b;" horiz-adv-x="527" 
d="M155 473v-347q0 -33 -11.5 -64t-41 -49t-67.5 -18h-18v54h13q31 0 50.5 17t19.5 55v406h345v-527h-55v473h-235z" />
    <glyph glyph-name="afii10078" unicode="&#x43c;" horiz-adv-x="602" 
d="M137 0h-55v527h79l139 -337l139 337h81v-527h-55v450l-138 -334h-52l-138 334v-450z" />
    <glyph glyph-name="afii10079" unicode="&#x43d;" horiz-adv-x="539" 
d="M82 0v527h55v-228h265v228h55v-527h-55v245h-265v-245h-55z" />
    <glyph glyph-name="afii10080" unicode="&#x43e;" horiz-adv-x="531" 
d="M459 177q0 -85 -53.5 -136t-139.5 -51q-89 0 -141.5 50.5t-52.5 136.5v173q0 84 53.5 135t140.5 51q32 0 65.5 -8.5t61.5 -30t47 -58t19 -89.5v-173zM404 177v173q0 36 -14 66.5t-45 48t-79 17.5q-65 0 -102 -35t-37 -97v-173q0 -37 14 -67t45 -48t80 -18q64 0 101 35.5
t37 97.5z" />
    <glyph glyph-name="afii10081" unicode="&#x43f;" horiz-adv-x="539" 
d="M82 0v527h375v-527h-55v473h-265v-473h-55z" />
    <glyph glyph-name="afii10082" unicode="&#x440;" horiz-adv-x="535" 
d="M463 177q0 -87 -51.5 -137t-139.5 -50q-41 0 -78 16t-57 47v-279h-55v753h55v-51q43 60 135 60q87 0 139 -51t52 -135v-173zM408 177v173q0 63 -36 97.5t-100 34.5q-66 0 -100.5 -34.5t-34.5 -97.5v-173q0 -63 35.5 -98t99.5 -35q30 0 53 7t41 21t30 41t12 64z" />
    <glyph glyph-name="afii10083" unicode="&#x441;" horiz-adv-x="512" 
d="M266 536q85 0 136.5 -47t55.5 -128h-55q-2 34 -16.5 61.5t-44.5 43.5t-76 16q-65 0 -102 -35t-37 -97v-173q0 -37 14 -67t45 -48t80 -18q59 0 95.5 31.5t40.5 86.5h56q-2 -38 -15 -66.5t-33 -50t-56.5 -38.5t-87.5 -17q-89 0 -141.5 50.5t-52.5 136.5v173q0 84 53.5 135
t140.5 51z" />
    <glyph glyph-name="afii10084" unicode="&#x442;" horiz-adv-x="471" 
d="M27 473v54h417v-54h-181v-473h-55v473h-181z" />
    <glyph glyph-name="afii10085" unicode="&#x443;" horiz-adv-x="460" 
d="M114 -172q36 0 54 13t29 53l32 106h-47l-153 527h57l136 -476h19l133 476h57l-180 -630q-19 -68 -48.5 -95.5t-101.5 -27.5h-25v54h38z" />
    <glyph glyph-name="afii10086" unicode="&#x444;" horiz-adv-x="552" 
d="M250 -226v217q-82 5 -130 54.5t-48 131.5v173q0 80 49 130t129 55v178h52v-178q80 -5 129 -55t49 -130v-173q0 -82 -48 -131.5t-130 -54.5v-217h-52zM425 350q0 58 -33 92t-90 39v-437q34 2 63.5 17.5t44.5 47.5t15 68v173zM127 177q0 -59 32 -94t91 -39v437
q-58 -5 -90.5 -39t-32.5 -92v-173z" />
    <glyph glyph-name="afii10087" unicode="&#x445;" horiz-adv-x="438" 
d="M19 527h64l136 -220l135 220h64l-167 -264l168 -263h-66l-134 216l-137 -216h-64l168 263z" />
    <glyph glyph-name="afii10088" unicode="&#x446;" horiz-adv-x="548" 
d="M82 0v527h55v-473h245v473h55v-473h64v-167h-55v113h-364z" />
    <glyph glyph-name="afii10089" unicode="&#x447;" horiz-adv-x="519" 
d="M57 527h55v-126q0 -34 14 -62t44 -44t77 -16h135v248h55v-527h-55v225h-135q-86 0 -138 46.5t-52 129.5v126z" />
    <glyph glyph-name="afii10090" unicode="&#x448;" horiz-adv-x="589" 
d="M82 0v527h55v-473h130v473h55v-473h130v473h55v-527h-425z" />
    <glyph glyph-name="afii10091" unicode="&#x449;" horiz-adv-x="617" 
d="M82 0v527h55v-473h130v473h55v-473h130v473h55v-473h63v-167h-55v113h-433z" />
    <glyph glyph-name="afii10092" unicode="&#x44a;" horiz-adv-x="558" 
d="M504 176q0 -51 -21 -89t-63.5 -62.5t-105.5 -24.5h-190v473h-94v54h149v-175h135q86 0 138 -46.5t52 -129.5zM449 176q0 34 -14 62t-44 44t-77 16h-135v-244h135q29 0 61.5 10t53 39t20.5 73z" />
    <glyph glyph-name="afii10093" unicode="&#x44b;" horiz-adv-x="725" 
d="M462 176q0 -51 -21 -89t-63.5 -62.5t-105.5 -24.5h-190v527h55v-175h135q86 0 138 -46.5t52 -129.5zM407 176q0 34 -14 62t-44 44t-77 16h-135v-244h135q29 0 61.5 10t53 39t20.5 73zM643 0h-55v527h55v-527z" />
    <glyph glyph-name="afii10094" unicode="&#x44c;" horiz-adv-x="516" 
d="M462 176q0 -51 -21 -89t-63.5 -62.5t-105.5 -24.5h-190v527h55v-175h135q86 0 138 -46.5t52 -129.5zM407 176q0 34 -14 62t-44 44t-77 16h-135v-244h135q29 0 61.5 10t53 39t20.5 73z" />
    <glyph glyph-name="afii10095" unicode="&#x44d;" horiz-adv-x="512" 
d="M385 244h-178v54h178v52q0 62 -37 97t-102 35q-28 0 -50.5 -6t-40.5 -18.5t-31.5 -37.5t-15.5 -59h-54q4 81 55.5 128t136.5 47q87 0 140.5 -51t53.5 -135v-173q0 -86 -52.5 -136.5t-141.5 -50.5q-40 0 -70.5 10.5t-54.5 28t-44 51.5t-23 82h55q4 -55 41 -86.5t96 -31.5
q49 0 80 18t45 48t14 67v67z" />
    <glyph glyph-name="afii10096" unicode="&#x44e;" horiz-adv-x="712" 
d="M136 0h-54v527h54v-233h117v56q0 84 53.5 135t140.5 51q32 0 65.5 -8.5t61.5 -30t47 -58t19 -89.5v-173q0 -85 -53.5 -136t-139.5 -51q-89 0 -141.5 50.5t-52.5 136.5v63h-117v-240zM585 177v173q0 36 -14 66.5t-45 48t-79 17.5q-65 0 -102 -35t-37 -97v-173
q0 -37 14 -67t45 -48t80 -18q64 0 101 35.5t37 97.5z" />
    <glyph glyph-name="afii10097" unicode="&#x44f;" horiz-adv-x="548" 
d="M130 0h-66l147 228q-58 8 -95 47t-37 100q0 29 9.5 57t33 49t61 33.5t91.5 12.5h190v-527h-55v226h-133zM409 473h-132q-48 0 -79.5 -10.5t-47.5 -31.5t-16 -56q0 -22 10.5 -45t39 -37t65.5 -14h160v194z" />
    <glyph glyph-name="afii10071" unicode="&#x451;" horiz-adv-x="527" 
d="M459 350v-100h-332v-73q0 -37 14 -67t45 -48t80 -18q59 0 96 31.5t41 86.5h55q-2 -38 -15 -66.5t-33 -50t-56.5 -38.5t-87.5 -17q-89 0 -141.5 50.5t-52.5 136.5v173q0 84 53.5 135t140.5 51q32 0 65.5 -8.5t61.5 -30t47 -58t19 -89.5zM403 304v46q0 37 -13.5 67
t-44.5 47.5t-79 17.5q-65 0 -102 -35t-37 -97v-46h276zM407 623h-72v90h72v-90zM192 623h-72v90h72v-90z" />
    <glyph glyph-name="afii10099" unicode="&#x452;" horiz-adv-x="551" 
d="M472 -95q0 -33 -11.5 -64t-41 -49t-67.5 -18h-18v54h13q31 0 50.5 17t19.5 55v450q0 39 -10.5 68t-38 46.5t-76.5 17.5q-61 0 -103.5 -36.5t-42.5 -93.5v-352h-55v581h-69v50h69v81h55v-81h144v-50h-144v-117q26 38 66 55t80 17q87 0 133.5 -49t46.5 -137v-445z" />
    <glyph glyph-name="afii10100" unicode="&#x453;" horiz-adv-x="436" 
d="M82 0v527h320v-54h-265v-473h-55zM316 751l-87 -147h-49l72 147h64z" />
    <glyph glyph-name="afii10101" unicode="&#x454;" horiz-adv-x="512" 
d="M305 244h-178v-67q0 -37 14 -67t45 -48t80 -18q59 0 96 31.5t41 86.5h55q-2 -38 -15 -66.5t-33 -50t-56.5 -38.5t-87.5 -17q-89 0 -141.5 50.5t-52.5 136.5v173q0 84 53.5 135t140.5 51q85 0 136.5 -47t55.5 -128h-54q-1 22 -11 50t-41 49.5t-86 21.5q-65 0 -102 -35
t-37 -97v-52h178v-54z" />
    <glyph glyph-name="afii10102" unicode="&#x455;" horiz-adv-x="492" 
d="M438 152q0 -52 -23 -87t-66 -54t-105 -19q-41 0 -76.5 11t-61 32.5t-39.5 52.5t-14 68h55q0 -52 37 -81t99 -29q139 0 139 106q0 55 -71 76q-31 9 -82 20.5t-57 12.5q-35 8 -62.5 29.5t-38.5 48t-11 48.5q0 47 24 82t67 50.5t89 15.5q85 0 137 -43t53 -119h-55
q-1 50 -34.5 79t-102.5 29q-61 0 -92 -24t-31 -70q0 -26 20 -46.5t51 -27.5q8 -2 52.5 -11.5t64.5 -14.5t26 -7q49 -14 78.5 -47t29.5 -81z" />
    <glyph glyph-name="afii10103" unicode="&#x456;" horiz-adv-x="234" 
d="M145 0h-55v527h55v-527zM153 624h-72v89h72v-89z" />
    <glyph glyph-name="afii10104" unicode="&#x457;" horiz-adv-x="237" 
d="M262 623h-72v90h72v-90zM47 623h-72v90h72v-90zM147 0h-54v527h54v-527z" />
    <glyph glyph-name="afii10105" unicode="&#x458;" horiz-adv-x="230" 
d="M140 -95q0 -33 -11.5 -64t-41 -49t-67.5 -18h-18v54h13q31 0 50.5 17t19.5 55v627h55v-622zM149 624h-72v89h72v-89z" />
    <glyph glyph-name="afii10106" unicode="&#x459;" horiz-adv-x="784" 
d="M730 176q0 -51 -21 -89t-63.5 -62.5t-105.5 -24.5h-170v473h-215v-347q0 -33 -11.5 -64t-41 -49t-67.5 -18h-18v54h13q31 0 50.5 17t19.5 55v406h325v-175h115q86 0 138 -46.5t52 -129.5zM675 176q0 34 -14 62t-44 44t-77 16h-115v-244h115q29 0 61.5 10t53 39t20.5 73z
" />
    <glyph glyph-name="afii10107" unicode="&#x45a;" horiz-adv-x="796" 
d="M742 176q0 -51 -21 -89t-63.5 -62.5t-105.5 -24.5h-170v297h-245v-297h-55v527h55v-175h245v175h55v-175h115q86 0 138 -46.5t52 -129.5zM687 176q0 34 -14 62t-44 44t-77 16h-115v-244h115q29 0 61.5 10t53 39t20.5 73z" />
    <glyph glyph-name="afii10108" unicode="&#x45b;" horiz-adv-x="545" 
d="M472 0h-55v350q0 39 -10.5 68t-38 46.5t-76.5 17.5q-61 0 -103.5 -36.5t-42.5 -93.5v-352h-55v581h-69v50h69v81h55v-81h144v-50h-144v-117q26 38 66 55t80 17q87 0 133.5 -49t46.5 -137v-350z" />
    <glyph glyph-name="afii10109" unicode="&#x45c;" horiz-adv-x="501" 
d="M137 527v-233h75l188 233h67l-202 -252l207 -275h-68l-182 240h-85v-240h-55v527h55zM318 751l-87 -147h-49l72 147h64z" />
    <glyph glyph-name="afii10110" unicode="&#x45e;" horiz-adv-x="460" 
d="M114 -172q36 0 54 13t29 53l32 106h-47l-153 527h57l136 -476h19l133 476h57l-180 -630q-19 -68 -48.5 -95.5t-101.5 -27.5h-25v54h38zM233 606q-53 0 -93 32.5t-46 92.5h49q7 -39 30.5 -59.5t59.5 -20.5t59.5 20.5t30.5 59.5h49q-6 -60 -46 -92.5t-93 -32.5z" />
    <glyph glyph-name="afii10193" unicode="&#x45f;" horiz-adv-x="539" 
d="M82 0v527h55v-473h265v473h55v-527h-160v-113h-55v113h-160z" />
    <glyph glyph-name="afii10050" unicode="&#x490;" horiz-adv-x="473" 
d="M400 826h55v-167h-318v-659h-55v713h318v113z" />
    <glyph glyph-name="afii10098" unicode="&#x491;" horiz-adv-x="436" 
d="M347 640h55v-167h-265v-473h-55v527h265v113z" />
    <glyph glyph-name="uni1E0D" unicode="&#x1e0d;" horiz-adv-x="536" 
d="M127 350v-173q0 -63 35.5 -98t99.5 -35q30 0 53 7t41 21t30 41t12 64v173q0 63 -36 97.5t-100 34.5q-66 0 -100.5 -34.5t-34.5 -97.5zM72 177v173q0 86 51.5 136t138.5 50q84 0 136 -62v239h55v-713h-55v52q-21 -30 -57.5 -46t-78.5 -16q-86 0 -138 51t-52 136zM303 -168
h-72v90h72v-90z" />
    <glyph glyph-name="uni1E25" unicode="&#x1e25;" horiz-adv-x="542" 
d="M463 0h-55v350q0 39 -10.5 68t-38 46.5t-76.5 17.5q-61 0 -103.5 -36.5t-42.5 -93.5v-352h-55v713h55v-249q23 36 63 54t83 18q87 0 133.5 -49t46.5 -137v-350zM304 -168h-72v90h72v-90z" />
    <glyph glyph-name="uni1E63" unicode="&#x1e63;" horiz-adv-x="492" 
d="M438 152q0 -52 -23 -87t-66 -54t-105 -19q-41 0 -76.5 11t-61 32.5t-39.5 52.5t-14 68h55q0 -52 37 -81t99 -29q139 0 139 106q0 55 -71 76q-31 9 -82 20.5t-57 12.5q-35 8 -62.5 29.5t-38.5 48t-11 48.5q0 47 24 82t67 50.5t89 15.5q85 0 137 -43t53 -119h-55
q-1 50 -34.5 79t-102.5 29q-61 0 -92 -24t-31 -70q0 -26 20 -46.5t51 -27.5q8 -2 52.5 -11.5t64.5 -14.5t26 -7q49 -14 78.5 -47t29.5 -81zM282 -168h-72v90h72v-90z" />
    <glyph glyph-name="uni1E6D" unicode="&#x1e6d;" horiz-adv-x="354" 
d="M23 473v54h105v186h55v-186h120v-54h-120v-347q0 -38 19.5 -55t50.5 -17h52v-54h-57q-38 0 -67.5 18t-41 49t-11.5 64v342h-105zM247 -168h-72v90h72v-90z" />
    <glyph glyph-name="Wgrave" unicode="&#x1e80;" horiz-adv-x="794" 
d="M765 713l-149 -713h-76l-143 612l-145 -612h-76l-148 713h56l130 -661l154 660h57l153 -660l131 661h56zM421 780h-50l-86 147h64z" />
    <glyph glyph-name="wgrave" unicode="&#x1e81;" horiz-adv-x="699" 
d="M655 527l-123 -527h-73l-110 450l-110 -450h-72l-124 527h56l106 -474l116 474h56l117 -474l105 474h56zM371 604h-50l-86 147h64z" />
    <glyph glyph-name="Wacute" unicode="&#x1e82;" horiz-adv-x="794" 
d="M765 713l-149 -713h-76l-143 612l-145 -612h-76l-148 713h56l130 -661l154 660h57l153 -660l131 661h56zM507 927l-87 -147h-49l72 147h64z" />
    <glyph glyph-name="wacute" unicode="&#x1e83;" horiz-adv-x="699" 
d="M655 527l-123 -527h-73l-110 450l-110 -450h-72l-124 527h56l106 -474l116 474h56l117 -474l105 474h56zM461 751l-87 -147h-49l72 147h64z" />
    <glyph glyph-name="Wdieresis" unicode="&#x1e84;" horiz-adv-x="794" 
d="M765 713l-149 -713h-76l-143 612l-145 -612h-76l-148 713h56l130 -661l154 660h57l153 -660l131 661h56zM540 780h-72v90h72v-90zM325 780h-72v90h72v-90z" />
    <glyph glyph-name="wdieresis" unicode="&#x1e85;" horiz-adv-x="699" 
d="M655 527l-123 -527h-73l-110 450l-110 -450h-72l-124 527h56l106 -474l116 474h56l117 -474l105 474h56zM493 623h-72v90h72v-90zM278 623h-72v90h72v-90z" />
    <glyph glyph-name="uni1E93" unicode="&#x1e93;" horiz-adv-x="448" 
d="M404 0h-361v55l281 418h-271v54h329v-55l-281 -418h303v-54zM264 -168h-72v90h72v-90z" />
    <glyph glyph-name="uni1EA0" unicode="&#x1ea0;" horiz-adv-x="540" 
d="M459 0l-57 208h-265l-56 -208h-54l196 713h93l197 -713h-54zM262 664l-110 -402h235l-109 402h-16zM306 -168h-72v90h72v-90z" />
    <glyph glyph-name="uni1EA1" unicode="&#x1ea1;" horiz-adv-x="522" 
d="M443 369v-369h-55v63q-25 -34 -66 -53t-92 -19q-33 0 -64 10t-55 30.5t-38.5 52.5t-14.5 74q0 68 46 106t118 38h166v64q0 40 -14.5 66t-42.5 38t-69 12q-24 0 -51 -7t-43 -21t-25 -33t-9 -48h-55q0 42 16.5 73.5t44 51.5t60.5 29t61 9q31 0 64.5 -8.5t60 -29t42 -53
t15.5 -76.5zM388 176v76h-163q-53 0 -82.5 -23t-29.5 -71q0 -56 31 -84.5t98 -28.5q41 0 78.5 20.5t52.5 50.5t15 60zM295 -168h-72v90h72v-90z" />
    <glyph glyph-name="uni1EA2" unicode="&#x1ea2;" horiz-adv-x="540" 
d="M459 0l-57 208h-265l-56 -208h-54l196 713h93l197 -713h-54zM262 664l-110 -402h235l-109 402h-16zM267 758v49q21 0 37 15t16 36t-15.5 36.5t-37.5 15.5q-18 0 -34 -14l-38 30q13 14 32.5 23t39.5 9q19 0 43 -10t41 -35t17 -55q0 -19 -10 -42t-35.5 -40.5t-55.5 -17.5z
" />
    <glyph glyph-name="uni1EA3" unicode="&#x1ea3;" horiz-adv-x="522" 
d="M443 369v-369h-55v63q-25 -34 -66 -53t-92 -19q-33 0 -64 10t-55 30.5t-38.5 52.5t-14.5 74q0 68 46 106t118 38h166v64q0 40 -14.5 66t-42.5 38t-69 12q-24 0 -51 -7t-43 -21t-25 -33t-9 -48h-55q0 42 16.5 73.5t44 51.5t60.5 29t61 9q31 0 64.5 -8.5t60 -29t42 -53
t15.5 -76.5zM388 176v76h-163q-53 0 -82.5 -23t-29.5 -71q0 -56 31 -84.5t98 -28.5q41 0 78.5 20.5t52.5 50.5t15 60zM253 585v49q21 0 37 15t16 36t-15.5 36.5t-37.5 15.5q-18 0 -34 -14l-38 30q13 14 32.5 23t39.5 9q19 0 43 -10t41 -35t17 -55q0 -19 -10 -42t-35.5 -40.5
t-55.5 -17.5z" />
    <glyph glyph-name="uni1EA4" unicode="&#x1ea4;" horiz-adv-x="540" 
d="M459 0l-57 208h-265l-56 -208h-54l196 713h93l197 -713h-54zM262 664l-110 -402h235l-109 402h-16zM398 738h-60l-67 71l-67 -71h-61l100 110h55zM379 966l-74 -81h-53l63 81h64z" />
    <glyph glyph-name="uni1EA5" unicode="&#x1ea5;" horiz-adv-x="522" 
d="M443 369v-369h-55v63q-25 -34 -66 -53t-92 -19q-33 0 -64 10t-55 30.5t-38.5 52.5t-14.5 74q0 68 46 106t118 38h166v64q0 40 -14.5 66t-42.5 38t-69 12q-24 0 -51 -7t-43 -21t-25 -33t-9 -48h-55q0 42 16.5 73.5t44 51.5t60.5 29t61 9q31 0 64.5 -8.5t60 -29t42 -53
t15.5 -76.5zM388 176v76h-163q-53 0 -82.5 -23t-29.5 -71q0 -56 31 -84.5t98 -28.5q41 0 78.5 20.5t52.5 50.5t15 60zM397 574h-60l-67 71l-67 -71h-61l100 110h55zM378 802l-74 -81h-53l63 81h64z" />
    <glyph glyph-name="uni1EA6" unicode="&#x1ea6;" horiz-adv-x="540" 
d="M459 0l-57 208h-265l-56 -208h-54l196 713h93l197 -713h-54zM262 664l-110 -402h235l-109 402h-16zM399 738h-60l-67 71l-67 -71h-61l100 110h55zM241 885l-74 81h64l63 -81h-53z" />
    <glyph glyph-name="uni1EA7" unicode="&#x1ea7;" horiz-adv-x="522" 
d="M443 369v-369h-55v63q-25 -34 -66 -53t-92 -19q-33 0 -64 10t-55 30.5t-38.5 52.5t-14.5 74q0 68 46 106t118 38h166v64q0 40 -14.5 66t-42.5 38t-69 12q-24 0 -51 -7t-43 -21t-25 -33t-9 -48h-55q0 42 16.5 73.5t44 51.5t60.5 29t61 9q31 0 64.5 -8.5t60 -29t42 -53
t15.5 -76.5zM388 176v76h-163q-53 0 -82.5 -23t-29.5 -71q0 -56 31 -84.5t98 -28.5q41 0 78.5 20.5t52.5 50.5t15 60zM384 574h-60l-67 71l-67 -71h-61l100 110h55zM226 721l-74 81h64l63 -81h-53z" />
    <glyph glyph-name="uni1EA8" unicode="&#x1ea8;" horiz-adv-x="540" 
d="M459 0l-57 208h-265l-56 -208h-54l196 713h93l197 -713h-54zM262 664l-110 -402h235l-109 402h-16zM240 970l-30 25q10 8 25.5 14t27.5 6q33 0 55 -21t22 -51q0 -27 -20 -48.5t-49 -26.5v40q13 4 21 13.5t8 21.5q0 14 -10 24t-28 10q-10 0 -22 -7zM398 738h-60l-67 71
l-67 -71h-61l100 110h55z" />
    <glyph glyph-name="uni1EA9" unicode="&#x1ea9;" horiz-adv-x="522" 
d="M443 369v-369h-55v63q-25 -34 -66 -53t-92 -19q-33 0 -64 10t-55 30.5t-38.5 52.5t-14.5 74q0 68 46 106t118 38h166v64q0 40 -14.5 66t-42.5 38t-69 12q-24 0 -51 -7t-43 -21t-25 -33t-9 -48h-55q0 42 16.5 73.5t44 51.5t60.5 29t61 9q31 0 64.5 -8.5t60 -29t42 -53
t15.5 -76.5zM388 176v76h-163q-53 0 -82.5 -23t-29.5 -71q0 -56 31 -84.5t98 -28.5q41 0 78.5 20.5t52.5 50.5t15 60zM234 806l-30 25q10 8 25.5 14t27.5 6q33 0 55 -21t22 -51q0 -27 -20 -48.5t-49 -26.5v40q13 4 21 13.5t8 21.5q0 14 -10 24t-28 10q-10 0 -22 -7zM392 574
h-60l-67 71l-67 -71h-61l100 110h55z" />
    <glyph glyph-name="uni1EAA" unicode="&#x1eaa;" horiz-adv-x="540" 
d="M459 0l-57 208h-265l-56 -208h-54l196 713h93l197 -713h-54zM262 664l-110 -402h235l-109 402h-16zM365 949l29 -26q-16 -19 -32.5 -29t-39.5 -10q-21 0 -55 14q-32 14 -48 14q-22 0 -44 -24l-29 26q15 18 32 28.5t40 10.5q17 0 56 -15q35 -13 47 -13q22 0 44 24z
M398 738h-60l-67 71l-67 -71h-61l100 110h55z" />
    <glyph glyph-name="uni1EAB" unicode="&#x1eab;" horiz-adv-x="522" 
d="M443 369v-369h-55v63q-25 -34 -66 -53t-92 -19q-33 0 -64 10t-55 30.5t-38.5 52.5t-14.5 74q0 68 46 106t118 38h166v64q0 40 -14.5 66t-42.5 38t-69 12q-24 0 -51 -7t-43 -21t-25 -33t-9 -48h-55q0 42 16.5 73.5t44 51.5t60.5 29t61 9q31 0 64.5 -8.5t60 -29t42 -53
t15.5 -76.5zM388 176v76h-163q-53 0 -82.5 -23t-29.5 -71q0 -56 31 -84.5t98 -28.5q41 0 78.5 20.5t52.5 50.5t15 60zM355 785l29 -26q-16 -19 -32.5 -29t-39.5 -10q-21 0 -55 14q-32 14 -48 14q-22 0 -44 -24l-29 26q15 18 32 28.5t40 10.5q17 0 56 -15q35 -13 47 -13
q22 0 44 24zM388 574h-60l-67 71l-67 -71h-61l100 110h55z" />
    <glyph glyph-name="uni1EAC" unicode="&#x1eac;" horiz-adv-x="540" 
d="M459 0l-57 208h-265l-56 -208h-54l196 713h93l197 -713h-54zM262 664l-110 -402h235l-109 402h-16zM397 780h-50l-77 101l-77 -101h-51l100 147h55zM306 -168h-72v90h72v-90z" />
    <glyph glyph-name="uni1EAD" unicode="&#x1ead;" horiz-adv-x="522" 
d="M443 369v-369h-55v63q-25 -34 -66 -53t-92 -19q-33 0 -64 10t-55 30.5t-38.5 52.5t-14.5 74q0 68 46 106t118 38h166v64q0 40 -14.5 66t-42.5 38t-69 12q-24 0 -51 -7t-43 -21t-25 -33t-9 -48h-55q0 42 16.5 73.5t44 51.5t60.5 29t61 9q31 0 64.5 -8.5t60 -29t42 -53
t15.5 -76.5zM388 176v76h-163q-53 0 -82.5 -23t-29.5 -71q0 -56 31 -84.5t98 -28.5q41 0 78.5 20.5t52.5 50.5t15 60zM391 604h-50l-77 101l-77 -101h-51l100 147h55zM300 -168h-72v90h72v-90z" />
    <glyph glyph-name="uni1EAE" unicode="&#x1eae;" horiz-adv-x="540" 
d="M459 0l-57 208h-265l-56 -208h-54l196 713h93l197 -713h-54zM262 664l-110 -402h235l-109 402h-16zM268 738q-22 0 -48.5 11.5t-45.5 41t-19 63.5h47q0 -31 18.5 -50.5t47.5 -19.5t47.5 19.5t18.5 50.5h47q0 -22 -11 -49t-39.5 -47t-62.5 -20zM363 962l-74 -81h-53l63 81
h64z" />
    <glyph glyph-name="uni1EAF" unicode="&#x1eaf;" horiz-adv-x="522" 
d="M443 369v-369h-55v63q-25 -34 -66 -53t-92 -19q-33 0 -64 10t-55 30.5t-38.5 52.5t-14.5 74q0 68 46 106t118 38h166v64q0 40 -14.5 66t-42.5 38t-69 12q-24 0 -51 -7t-43 -21t-25 -33t-9 -48h-55q0 42 16.5 73.5t44 51.5t60.5 29t61 9q31 0 64.5 -8.5t60 -29t42 -53
t15.5 -76.5zM388 176v76h-163q-53 0 -82.5 -23t-29.5 -71q0 -56 31 -84.5t98 -28.5q41 0 78.5 20.5t52.5 50.5t15 60zM257 575q-22 0 -48.5 11.5t-45.5 41t-19 63.5h47q0 -31 18.5 -50.5t47.5 -19.5t47.5 19.5t18.5 50.5h47q0 -22 -11 -49t-39.5 -47t-62.5 -20zM352 799
l-74 -81h-53l63 81h64z" />
    <glyph glyph-name="uni1EB0" unicode="&#x1eb0;" horiz-adv-x="540" 
d="M459 0l-57 208h-265l-56 -208h-54l196 713h93l197 -713h-54zM262 664l-110 -402h235l-109 402h-16zM267 738q-22 0 -48.5 11.5t-45.5 41t-19 63.5h47q0 -31 18.5 -50.5t47.5 -19.5t47.5 19.5t18.5 50.5h47q0 -22 -11 -49t-39.5 -47t-62.5 -20zM245 881l-74 81h64l63 -81
h-53z" />
    <glyph glyph-name="uni1EB1" unicode="&#x1eb1;" horiz-adv-x="522" 
d="M443 369v-369h-55v63q-25 -34 -66 -53t-92 -19q-33 0 -64 10t-55 30.5t-38.5 52.5t-14.5 74q0 68 46 106t118 38h166v64q0 40 -14.5 66t-42.5 38t-69 12q-24 0 -51 -7t-43 -21t-25 -33t-9 -48h-55q0 42 16.5 73.5t44 51.5t60.5 29t61 9q31 0 64.5 -8.5t60 -29t42 -53
t15.5 -76.5zM388 176v76h-163q-53 0 -82.5 -23t-29.5 -71q0 -56 31 -84.5t98 -28.5q41 0 78.5 20.5t52.5 50.5t15 60zM260 575q-22 0 -48.5 11.5t-45.5 41t-19 63.5h47q0 -31 18.5 -50.5t47.5 -19.5t47.5 19.5t18.5 50.5h47q0 -22 -11 -49t-39.5 -47t-62.5 -20zM238 718
l-74 81h64l63 -81h-53z" />
    <glyph glyph-name="uni1EB2" unicode="&#x1eb2;" horiz-adv-x="540" 
d="M459 0l-57 208h-265l-56 -208h-54l196 713h93l197 -713h-54zM262 664l-110 -402h235l-109 402h-16zM266 738q-22 0 -48.5 11.5t-45.5 41t-19 63.5h47q0 -31 18.5 -50.5t47.5 -19.5t47.5 19.5t18.5 50.5h47q0 -22 -11 -49t-39.5 -47t-62.5 -20zM231 966l-30 25
q10 8 25.5 14t27.5 6q33 0 55 -21t22 -51q0 -27 -20 -48.5t-49 -26.5v40q13 4 21 13.5t8 21.5q0 14 -10 24t-28 10q-10 0 -22 -7z" />
    <glyph glyph-name="uni1EB3" unicode="&#x1eb3;" horiz-adv-x="522" 
d="M443 369v-369h-55v63q-25 -34 -66 -53t-92 -19q-33 0 -64 10t-55 30.5t-38.5 52.5t-14.5 74q0 68 46 106t118 38h166v64q0 40 -14.5 66t-42.5 38t-69 12q-24 0 -51 -7t-43 -21t-25 -33t-9 -48h-55q0 42 16.5 73.5t44 51.5t60.5 29t61 9q31 0 64.5 -8.5t60 -29t42 -53
t15.5 -76.5zM388 176v76h-163q-53 0 -82.5 -23t-29.5 -71q0 -56 31 -84.5t98 -28.5q41 0 78.5 20.5t52.5 50.5t15 60zM256 575q-22 0 -48.5 11.5t-45.5 41t-19 63.5h47q0 -31 18.5 -50.5t47.5 -19.5t47.5 19.5t18.5 50.5h47q0 -22 -11 -49t-39.5 -47t-62.5 -20zM221 803
l-30 25q10 8 25.5 14t27.5 6q33 0 55 -21t22 -51q0 -27 -20 -48.5t-49 -26.5v40q13 4 21 13.5t8 21.5q0 14 -10 24t-28 10q-10 0 -22 -7z" />
    <glyph glyph-name="uni1EB4" unicode="&#x1eb4;" horiz-adv-x="540" 
d="M459 0l-57 208h-265l-56 -208h-54l196 713h93l197 -713h-54zM262 664l-110 -402h235l-109 402h-16zM267 738q-22 0 -48.5 11.5t-45.5 41t-19 63.5h47q0 -31 18.5 -50.5t47.5 -19.5t47.5 19.5t18.5 50.5h47q0 -22 -11 -49t-39.5 -47t-62.5 -20zM362 955l29 -26
q-16 -19 -32.5 -29t-39.5 -10q-21 0 -55 14q-32 14 -48 14q-22 0 -44 -24l-29 26q15 18 32 28.5t40 10.5q17 0 56 -15q35 -13 47 -13q22 0 44 24z" />
    <glyph glyph-name="uni1EB5" unicode="&#x1eb5;" horiz-adv-x="522" 
d="M443 369v-369h-55v63q-25 -34 -66 -53t-92 -19q-33 0 -64 10t-55 30.5t-38.5 52.5t-14.5 74q0 68 46 106t118 38h166v64q0 40 -14.5 66t-42.5 38t-69 12q-24 0 -51 -7t-43 -21t-25 -33t-9 -48h-55q0 42 16.5 73.5t44 51.5t60.5 29t61 9q31 0 64.5 -8.5t60 -29t42 -53
t15.5 -76.5zM388 176v76h-163q-53 0 -82.5 -23t-29.5 -71q0 -56 31 -84.5t98 -28.5q41 0 78.5 20.5t52.5 50.5t15 60zM259 575q-22 0 -48.5 11.5t-45.5 41t-19 63.5h47q0 -31 18.5 -50.5t47.5 -19.5t47.5 19.5t18.5 50.5h47q0 -22 -11 -49t-39.5 -47t-62.5 -20zM354 792
l29 -26q-16 -19 -32.5 -29t-39.5 -10q-21 0 -55 14q-32 14 -48 14q-22 0 -44 -24l-29 26q15 18 32 28.5t40 10.5q17 0 56 -15q35 -13 47 -13q22 0 44 24z" />
    <glyph glyph-name="uni1EB6" unicode="&#x1eb6;" horiz-adv-x="540" 
d="M459 0l-57 208h-265l-56 -208h-54l196 713h93l197 -713h-54zM262 664l-110 -402h235l-109 402h-16zM270 780q-53 0 -93 32.5t-46 92.5h49q7 -39 30.5 -59.5t59.5 -20.5t59.5 20.5t30.5 59.5h49q-6 -60 -46 -92.5t-93 -32.5zM306 -168h-72v90h72v-90z" />
    <glyph glyph-name="uni1EB7" unicode="&#x1eb7;" horiz-adv-x="522" 
d="M443 369v-369h-55v63q-25 -34 -66 -53t-92 -19q-33 0 -64 10t-55 30.5t-38.5 52.5t-14.5 74q0 68 46 106t118 38h166v64q0 40 -14.5 66t-42.5 38t-69 12q-24 0 -51 -7t-43 -21t-25 -33t-9 -48h-55q0 42 16.5 73.5t44 51.5t60.5 29t61 9q31 0 64.5 -8.5t60 -29t42 -53
t15.5 -76.5zM388 176v76h-163q-53 0 -82.5 -23t-29.5 -71q0 -56 31 -84.5t98 -28.5q41 0 78.5 20.5t52.5 50.5t15 60zM263 606q-53 0 -93 32.5t-46 92.5h49q7 -39 30.5 -59.5t59.5 -20.5t59.5 20.5t30.5 59.5h49q-6 -60 -46 -92.5t-93 -32.5zM299 -168h-72v90h72v-90z" />
    <glyph glyph-name="uni1EB8" unicode="&#x1eb8;" horiz-adv-x="509" 
d="M456 0h-374v713h374v-54h-319v-254h295v-54h-295v-297h319v-54zM306 -168h-72v90h72v-90z" />
    <glyph glyph-name="uni1EB9" unicode="&#x1eb9;" horiz-adv-x="527" 
d="M459 350v-100h-332v-73q0 -37 14 -67t45 -48t80 -18q59 0 96 31.5t41 86.5h55q-2 -38 -15 -66.5t-33 -50t-56.5 -38.5t-87.5 -17q-89 0 -141.5 50.5t-52.5 136.5v173q0 84 53.5 135t140.5 51q32 0 65.5 -8.5t61.5 -30t47 -58t19 -89.5zM403 304v46q0 37 -13.5 67
t-44.5 47.5t-79 17.5q-65 0 -102 -35t-37 -97v-46h276zM300 -168h-72v90h72v-90z" />
    <glyph glyph-name="uni1EBA" unicode="&#x1eba;" horiz-adv-x="509" 
d="M456 0h-374v713h374v-54h-319v-254h295v-54h-295v-297h319v-54zM258 758v49q21 0 37 15t16 36t-15.5 36.5t-37.5 15.5q-18 0 -34 -14l-38 30q13 14 32.5 23t39.5 9q19 0 43 -10t41 -35t17 -55q0 -19 -10 -42t-35.5 -40.5t-55.5 -17.5z" />
    <glyph glyph-name="uni1EBB" unicode="&#x1ebb;" horiz-adv-x="527" 
d="M459 350v-100h-332v-73q0 -37 14 -67t45 -48t80 -18q59 0 96 31.5t41 86.5h55q-2 -38 -15 -66.5t-33 -50t-56.5 -38.5t-87.5 -17q-89 0 -141.5 50.5t-52.5 136.5v173q0 84 53.5 135t140.5 51q32 0 65.5 -8.5t61.5 -30t47 -58t19 -89.5zM403 304v46q0 37 -13.5 67
t-44.5 47.5t-79 17.5q-65 0 -102 -35t-37 -97v-46h276zM262 585v49q21 0 37 15t16 36t-15.5 36.5t-37.5 15.5q-18 0 -34 -14l-38 30q13 14 32.5 23t39.5 9q19 0 43 -10t41 -35t17 -55q0 -19 -10 -42t-35.5 -40.5t-55.5 -17.5z" />
    <glyph glyph-name="uni1EBC" unicode="&#x1ebc;" horiz-adv-x="509" 
d="M456 0h-374v713h374v-54h-319v-254h295v-54h-295v-297h319v-54zM393 859l32 -31q-22 -22 -43.5 -35t-46.5 -13q-24 0 -66.5 22.5t-60.5 22.5q-14 0 -26.5 -6t-32.5 -25l-32 31q22 22 43.5 35t46.5 13q24 0 62.5 -19.5t49.5 -22.5t15 -3q14 0 27.5 6.5t31.5 24.5z" />
    <glyph glyph-name="uni1EBD" unicode="&#x1ebd;" horiz-adv-x="527" 
d="M459 350v-100h-332v-73q0 -37 14 -67t45 -48t80 -18q59 0 96 31.5t41 86.5h55q-2 -38 -15 -66.5t-33 -50t-56.5 -38.5t-87.5 -17q-89 0 -141.5 50.5t-52.5 136.5v173q0 84 53.5 135t140.5 51q32 0 65.5 -8.5t61.5 -30t47 -58t19 -89.5zM403 304v46q0 37 -13.5 67
t-44.5 47.5t-79 17.5q-65 0 -102 -35t-37 -97v-46h276zM390 687l32 -31q-22 -22 -43.5 -35t-46.5 -13q-24 0 -66.5 22.5t-60.5 22.5q-14 0 -26.5 -6t-32.5 -25l-32 31q22 22 43.5 35t46.5 13q24 0 62.5 -19.5t49.5 -22.5t15 -3q14 0 27.5 6.5t31.5 24.5z" />
    <glyph glyph-name="uni1EBE" unicode="&#x1ebe;" horiz-adv-x="509" 
d="M456 0h-374v713h374v-54h-319v-254h295v-54h-295v-297h319v-54zM395 738h-60l-67 71l-67 -71h-61l100 110h55zM376 966l-74 -81h-53l63 81h64z" />
    <glyph glyph-name="uni1EBF" unicode="&#x1ebf;" horiz-adv-x="527" 
d="M459 350v-100h-332v-73q0 -37 14 -67t45 -48t80 -18q59 0 96 31.5t41 86.5h55q-2 -38 -15 -66.5t-33 -50t-56.5 -38.5t-87.5 -17q-89 0 -141.5 50.5t-52.5 136.5v173q0 84 53.5 135t140.5 51q32 0 65.5 -8.5t61.5 -30t47 -58t19 -89.5zM403 304v46q0 37 -13.5 67
t-44.5 47.5t-79 17.5q-65 0 -102 -35t-37 -97v-46h276zM398 574h-60l-67 71l-67 -71h-61l100 110h55zM379 802l-74 -81h-53l63 81h64z" />
    <glyph glyph-name="uni1EC0" unicode="&#x1ec0;" horiz-adv-x="509" 
d="M456 0h-374v713h374v-54h-319v-254h295v-54h-295v-297h319v-54zM394 738h-60l-67 71l-67 -71h-61l100 110h55zM236 885l-74 81h64l63 -81h-53z" />
    <glyph glyph-name="uni1EC1" unicode="&#x1ec1;" horiz-adv-x="527" 
d="M459 350v-100h-332v-73q0 -37 14 -67t45 -48t80 -18q59 0 96 31.5t41 86.5h55q-2 -38 -15 -66.5t-33 -50t-56.5 -38.5t-87.5 -17q-89 0 -141.5 50.5t-52.5 136.5v173q0 84 53.5 135t140.5 51q32 0 65.5 -8.5t61.5 -30t47 -58t19 -89.5zM403 304v46q0 37 -13.5 67
t-44.5 47.5t-79 17.5q-65 0 -102 -35t-37 -97v-46h276zM395 574h-60l-67 71l-67 -71h-61l100 110h55zM237 721l-74 81h64l63 -81h-53z" />
    <glyph glyph-name="uni1EC2" unicode="&#x1ec2;" horiz-adv-x="509" 
d="M456 0h-374v713h374v-54h-319v-254h295v-54h-295v-297h319v-54zM237 970l-30 25q10 8 25.5 14t27.5 6q33 0 55 -21t22 -51q0 -27 -20 -48.5t-49 -26.5v40q13 4 21 13.5t8 21.5q0 14 -10 24t-28 10q-10 0 -22 -7zM395 738h-60l-67 71l-67 -71h-61l100 110h55z" />
    <glyph glyph-name="uni1EC3" unicode="&#x1ec3;" horiz-adv-x="527" 
d="M459 350v-100h-332v-73q0 -37 14 -67t45 -48t80 -18q59 0 96 31.5t41 86.5h55q-2 -38 -15 -66.5t-33 -50t-56.5 -38.5t-87.5 -17q-89 0 -141.5 50.5t-52.5 136.5v173q0 84 53.5 135t140.5 51q32 0 65.5 -8.5t61.5 -30t47 -58t19 -89.5zM403 304v46q0 37 -13.5 67
t-44.5 47.5t-79 17.5q-65 0 -102 -35t-37 -97v-46h276zM238 806l-30 25q10 8 25.5 14t27.5 6q33 0 55 -21t22 -51q0 -27 -20 -48.5t-49 -26.5v40q13 4 21 13.5t8 21.5q0 14 -10 24t-28 10q-10 0 -22 -7zM396 574h-60l-67 71l-67 -71h-61l100 110h55z" />
    <glyph glyph-name="uni1EC4" unicode="&#x1ec4;" horiz-adv-x="509" 
d="M456 0h-374v713h374v-54h-319v-254h295v-54h-295v-297h319v-54zM362 949l29 -26q-16 -19 -32.5 -29t-39.5 -10q-21 0 -55 14q-32 14 -48 14q-22 0 -44 -24l-29 26q15 18 32 28.5t40 10.5q17 0 56 -15q35 -13 47 -13q22 0 44 24zM395 738h-60l-67 71l-67 -71h-61l100 110
h55z" />
    <glyph glyph-name="uni1EC5" unicode="&#x1ec5;" horiz-adv-x="527" 
d="M459 350v-100h-332v-73q0 -37 14 -67t45 -48t80 -18q59 0 96 31.5t41 86.5h55q-2 -38 -15 -66.5t-33 -50t-56.5 -38.5t-87.5 -17q-89 0 -141.5 50.5t-52.5 136.5v173q0 84 53.5 135t140.5 51q32 0 65.5 -8.5t61.5 -30t47 -58t19 -89.5zM403 304v46q0 37 -13.5 67
t-44.5 47.5t-79 17.5q-65 0 -102 -35t-37 -97v-46h276zM360 785l29 -26q-16 -19 -32.5 -29t-39.5 -10q-21 0 -55 14q-32 14 -48 14q-22 0 -44 -24l-29 26q15 18 32 28.5t40 10.5q17 0 56 -15q35 -13 47 -13q22 0 44 24zM393 574h-60l-67 71l-67 -71h-61l100 110h55z" />
    <glyph glyph-name="uni1EC6" unicode="&#x1ec6;" horiz-adv-x="509" 
d="M456 0h-374v713h374v-54h-319v-254h295v-54h-295v-297h319v-54zM301 -168h-72v90h72v-90zM391 780h-50l-77 101l-77 -101h-51l100 147h55z" />
    <glyph glyph-name="uni1EC7" unicode="&#x1ec7;" horiz-adv-x="527" 
d="M459 350v-100h-332v-73q0 -37 14 -67t45 -48t80 -18q59 0 96 31.5t41 86.5h55q-2 -38 -15 -66.5t-33 -50t-56.5 -38.5t-87.5 -17q-89 0 -141.5 50.5t-52.5 136.5v173q0 84 53.5 135t140.5 51q32 0 65.5 -8.5t61.5 -30t47 -58t19 -89.5zM403 304v46q0 37 -13.5 67
t-44.5 47.5t-79 17.5q-65 0 -102 -35t-37 -97v-46h276zM298 -168h-72v90h72v-90zM391 604h-50l-77 101l-77 -101h-51l100 147h55z" />
    <glyph glyph-name="uni1EC8" unicode="&#x1ec8;" horiz-adv-x="220" 
d="M82 713h55v-713h-55v713zM96 758v49q21 0 37 15t16 36t-15.5 36.5t-37.5 15.5q-18 0 -34 -14l-38 30q13 14 32.5 23t39.5 9q19 0 43 -10t41 -35t17 -55q0 -19 -10 -42t-35.5 -40.5t-55.5 -17.5z" />
    <glyph glyph-name="uni1EC9" unicode="&#x1ec9;" horiz-adv-x="219" 
d="M136 0h-54v527h54v-527zM97 585v49q21 0 37 15t16 36t-15.5 36.5t-37.5 15.5q-18 0 -34 -14l-38 30q13 14 32.5 23t39.5 9q19 0 43 -10t41 -35t17 -55q0 -19 -10 -42t-35.5 -40.5t-55.5 -17.5z" />
    <glyph glyph-name="uni1ECA" unicode="&#x1eca;" horiz-adv-x="220" 
d="M82 713h55v-713h-55v713zM145 -168h-72v90h72v-90z" />
    <glyph glyph-name="uni1ECB" unicode="&#x1ecb;" horiz-adv-x="234" 
d="M145 0h-55v527h55v-527zM153 624h-72v89h72v-89zM153 -168h-72v90h72v-90z" />
    <glyph glyph-name="uni1ECC" unicode="&#x1ecc;" 
d="M269 -9q-90 0 -143.5 50.5t-53.5 132.5v363q0 82 53.5 132.5t143.5 50.5q89 0 142.5 -51t53.5 -133v-361q0 -82 -53.5 -133t-142.5 -51zM410 535q0 42 -16.5 71t-49 44.5t-75.5 15.5q-63 0 -102.5 -32.5t-39.5 -98.5v-359q0 -66 39.5 -98.5t102.5 -32.5q28 0 61.5 10
t56.5 40.5t23 80.5v359zM302 -168h-72v90h72v-90z" />
    <glyph glyph-name="uni1ECD" unicode="&#x1ecd;" horiz-adv-x="531" 
d="M459 177q0 -85 -53.5 -136t-139.5 -51q-89 0 -141.5 50.5t-52.5 136.5v173q0 84 53.5 135t140.5 51q32 0 65.5 -8.5t61.5 -30t47 -58t19 -89.5v-173zM404 177v173q0 36 -14 66.5t-45 48t-79 17.5q-65 0 -102 -35t-37 -97v-173q0 -37 14 -67t45 -48t80 -18q64 0 101 35.5
t37 97.5zM299 -168h-72v90h72v-90z" />
    <glyph glyph-name="uni1ECE" unicode="&#x1ece;" 
d="M269 -9q-90 0 -143.5 50.5t-53.5 132.5v363q0 82 53.5 132.5t143.5 50.5q89 0 142.5 -51t53.5 -133v-361q0 -82 -53.5 -133t-142.5 -51zM410 535q0 42 -16.5 71t-49 44.5t-75.5 15.5q-63 0 -102.5 -32.5t-39.5 -98.5v-359q0 -66 39.5 -98.5t102.5 -32.5q28 0 61.5 10
t56.5 40.5t23 80.5v359zM260 758v49q21 0 37 15t16 36t-15.5 36.5t-37.5 15.5q-18 0 -34 -14l-38 30q13 14 32.5 23t39.5 9q19 0 43 -10t41 -35t17 -55q0 -19 -10 -42t-35.5 -40.5t-55.5 -17.5z" />
    <glyph glyph-name="uni1ECF" unicode="&#x1ecf;" horiz-adv-x="531" 
d="M459 177q0 -85 -53.5 -136t-139.5 -51q-89 0 -141.5 50.5t-52.5 136.5v173q0 84 53.5 135t140.5 51q32 0 65.5 -8.5t61.5 -30t47 -58t19 -89.5v-173zM404 177v173q0 36 -14 66.5t-45 48t-79 17.5q-65 0 -102 -35t-37 -97v-173q0 -37 14 -67t45 -48t80 -18q64 0 101 35.5
t37 97.5zM260 585v49q21 0 37 15t16 36t-15.5 36.5t-37.5 15.5q-18 0 -34 -14l-38 30q13 14 32.5 23t39.5 9q19 0 43 -10t41 -35t17 -55q0 -19 -10 -42t-35.5 -40.5t-55.5 -17.5z" />
    <glyph glyph-name="uni1ED0" unicode="&#x1ed0;" 
d="M269 -9q-90 0 -143.5 50.5t-53.5 132.5v363q0 82 53.5 132.5t143.5 50.5q89 0 142.5 -51t53.5 -133v-361q0 -82 -53.5 -133t-142.5 -51zM410 535q0 42 -16.5 71t-49 44.5t-75.5 15.5q-63 0 -102.5 -32.5t-39.5 -98.5v-359q0 -66 39.5 -98.5t102.5 -32.5q28 0 61.5 10
t56.5 40.5t23 80.5v359zM396 738h-60l-67 71l-67 -71h-61l100 110h55zM377 966l-74 -81h-53l63 81h64z" />
    <glyph glyph-name="uni1ED1" unicode="&#x1ed1;" horiz-adv-x="531" 
d="M459 177q0 -85 -53.5 -136t-139.5 -51q-89 0 -141.5 50.5t-52.5 136.5v173q0 84 53.5 135t140.5 51q32 0 65.5 -8.5t61.5 -30t47 -58t19 -89.5v-173zM404 177v173q0 36 -14 66.5t-45 48t-79 17.5q-65 0 -102 -35t-37 -97v-173q0 -37 14 -67t45 -48t80 -18q64 0 101 35.5
t37 97.5zM394 574h-60l-67 71l-67 -71h-61l100 110h55zM375 802l-74 -81h-53l63 81h64z" />
    <glyph glyph-name="uni1ED2" unicode="&#x1ed2;" 
d="M269 -9q-90 0 -143.5 50.5t-53.5 132.5v363q0 82 53.5 132.5t143.5 50.5q89 0 142.5 -51t53.5 -133v-361q0 -82 -53.5 -133t-142.5 -51zM410 535q0 42 -16.5 71t-49 44.5t-75.5 15.5q-63 0 -102.5 -32.5t-39.5 -98.5v-359q0 -66 39.5 -98.5t102.5 -32.5q28 0 61.5 10
t56.5 40.5t23 80.5v359zM394 738h-60l-67 71l-67 -71h-61l100 110h55zM236 885l-74 81h64l63 -81h-53z" />
    <glyph glyph-name="uni1ED3" unicode="&#x1ed3;" horiz-adv-x="531" 
d="M459 177q0 -85 -53.5 -136t-139.5 -51q-89 0 -141.5 50.5t-52.5 136.5v173q0 84 53.5 135t140.5 51q32 0 65.5 -8.5t61.5 -30t47 -58t19 -89.5v-173zM404 177v173q0 36 -14 66.5t-45 48t-79 17.5q-65 0 -102 -35t-37 -97v-173q0 -37 14 -67t45 -48t80 -18q64 0 101 35.5
t37 97.5zM393 574h-60l-67 71l-67 -71h-61l100 110h55zM235 721l-74 81h64l63 -81h-53z" />
    <glyph glyph-name="uni1ED4" unicode="&#x1ed4;" 
d="M269 -9q-90 0 -143.5 50.5t-53.5 132.5v363q0 82 53.5 132.5t143.5 50.5q89 0 142.5 -51t53.5 -133v-361q0 -82 -53.5 -133t-142.5 -51zM410 535q0 42 -16.5 71t-49 44.5t-75.5 15.5q-63 0 -102.5 -32.5t-39.5 -98.5v-359q0 -66 39.5 -98.5t102.5 -32.5q28 0 61.5 10
t56.5 40.5t23 80.5v359zM236 970l-30 25q10 8 25.5 14t27.5 6q33 0 55 -21t22 -51q0 -27 -20 -48.5t-49 -26.5v40q13 4 21 13.5t8 21.5q0 14 -10 24t-28 10q-10 0 -22 -7zM394 738h-60l-67 71l-67 -71h-61l100 110h55z" />
    <glyph glyph-name="uni1ED5" unicode="&#x1ed5;" horiz-adv-x="531" 
d="M459 177q0 -85 -53.5 -136t-139.5 -51q-89 0 -141.5 50.5t-52.5 136.5v173q0 84 53.5 135t140.5 51q32 0 65.5 -8.5t61.5 -30t47 -58t19 -89.5v-173zM404 177v173q0 36 -14 66.5t-45 48t-79 17.5q-65 0 -102 -35t-37 -97v-173q0 -37 14 -67t45 -48t80 -18q64 0 101 35.5
t37 97.5zM233 806l-30 25q10 8 25.5 14t27.5 6q33 0 55 -21t22 -51q0 -27 -20 -48.5t-49 -26.5v40q13 4 21 13.5t8 21.5q0 14 -10 24t-28 10q-10 0 -22 -7zM391 574h-60l-67 71l-67 -71h-61l100 110h55z" />
    <glyph glyph-name="uni1ED6" unicode="&#x1ed6;" 
d="M269 -9q-90 0 -143.5 50.5t-53.5 132.5v363q0 82 53.5 132.5t143.5 50.5q89 0 142.5 -51t53.5 -133v-361q0 -82 -53.5 -133t-142.5 -51zM410 535q0 42 -16.5 71t-49 44.5t-75.5 15.5q-63 0 -102.5 -32.5t-39.5 -98.5v-359q0 -66 39.5 -98.5t102.5 -32.5q28 0 61.5 10
t56.5 40.5t23 80.5v359zM361 949l29 -26q-16 -19 -32.5 -29t-39.5 -10q-21 0 -55 14q-32 14 -48 14q-22 0 -44 -24l-29 26q15 18 32 28.5t40 10.5q17 0 56 -15q35 -13 47 -13q22 0 44 24zM394 738h-60l-67 71l-67 -71h-61l100 110h55z" />
    <glyph glyph-name="uni1ED7" unicode="&#x1ed7;" horiz-adv-x="531" 
d="M459 177q0 -85 -53.5 -136t-139.5 -51q-89 0 -141.5 50.5t-52.5 136.5v173q0 84 53.5 135t140.5 51q32 0 65.5 -8.5t61.5 -30t47 -58t19 -89.5v-173zM404 177v173q0 36 -14 66.5t-45 48t-79 17.5q-65 0 -102 -35t-37 -97v-173q0 -37 14 -67t45 -48t80 -18q64 0 101 35.5
t37 97.5zM361 785l29 -26q-16 -19 -32.5 -29t-39.5 -10q-21 0 -55 14q-32 14 -48 14q-22 0 -44 -24l-29 26q15 18 32 28.5t40 10.5q17 0 56 -15q35 -13 47 -13q22 0 44 24zM394 574h-60l-67 71l-67 -71h-61l100 110h55z" />
    <glyph glyph-name="uni1ED8" unicode="&#x1ed8;" 
d="M269 -9q-90 0 -143.5 50.5t-53.5 132.5v363q0 82 53.5 132.5t143.5 50.5q89 0 142.5 -51t53.5 -133v-361q0 -82 -53.5 -133t-142.5 -51zM410 535q0 42 -16.5 71t-49 44.5t-75.5 15.5q-63 0 -102.5 -32.5t-39.5 -98.5v-359q0 -66 39.5 -98.5t102.5 -32.5q28 0 61.5 10
t56.5 40.5t23 80.5v359zM303 -168h-72v90h72v-90zM395 780h-50l-77 101l-77 -101h-51l100 147h55z" />
    <glyph glyph-name="uni1ED9" unicode="&#x1ed9;" horiz-adv-x="531" 
d="M459 177q0 -85 -53.5 -136t-139.5 -51q-89 0 -141.5 50.5t-52.5 136.5v173q0 84 53.5 135t140.5 51q32 0 65.5 -8.5t61.5 -30t47 -58t19 -89.5v-173zM404 177v173q0 36 -14 66.5t-45 48t-79 17.5q-65 0 -102 -35t-37 -97v-173q0 -37 14 -67t45 -48t80 -18q64 0 101 35.5
t37 97.5zM393 604h-50l-77 101l-77 -101h-51l100 147h55zM302 -168h-72v90h72v-90z" />
    <glyph glyph-name="uni1EDA" unicode="&#x1eda;" horiz-adv-x="579" 
d="M372 927l-87 -147h-49l72 147h64zM529 713h51v-62q0 -56 -29 -88t-86 -34v-354q0 -82 -53.5 -133t-142.5 -51q-90 0 -143.5 50.5t-53.5 132.5v363q0 82 53.5 132.5t143.5 50.5q37 0 77.5 -12.5t72 -46t41.5 -80.5h6q63 0 63 67v65zM410 535q0 42 -16.5 71t-49 44.5
t-75.5 15.5q-63 0 -102.5 -32.5t-39.5 -98.5v-359q0 -66 39.5 -98.5t102.5 -32.5q28 0 61.5 10t56.5 40.5t23 80.5v359z" />
    <glyph glyph-name="uni1EDB" unicode="&#x1edb;" horiz-adv-x="546" 
d="M369 751l-87 -147h-49l72 147h64zM459 177q0 -85 -53.5 -136t-139.5 -51q-89 0 -141.5 50.5t-52.5 136.5v173q0 84 53.5 135t140.5 51q72 0 121.5 -35t64.5 -96q24 3 34.5 17t10.5 41v63h50v-64q0 -95 -88 -108v-4v-173zM404 177v173q0 36 -14 66.5t-45 48t-79 17.5
q-65 0 -102 -35t-37 -97v-173q0 -37 14 -67t45 -48t80 -18q64 0 101 35.5t37 97.5z" />
    <glyph glyph-name="uni1EDC" unicode="&#x1edc;" horiz-adv-x="579" 
d="M296 780h-50l-86 147h64zM529 713h51v-62q0 -56 -29 -88t-86 -34v-354q0 -82 -53.5 -133t-142.5 -51q-90 0 -143.5 50.5t-53.5 132.5v363q0 82 53.5 132.5t143.5 50.5q37 0 77.5 -12.5t72 -46t41.5 -80.5h6q63 0 63 67v65zM410 535q0 42 -16.5 71t-49 44.5t-75.5 15.5
q-63 0 -102.5 -32.5t-39.5 -98.5v-359q0 -66 39.5 -98.5t102.5 -32.5q28 0 61.5 10t56.5 40.5t23 80.5v359z" />
    <glyph glyph-name="uni1EDD" unicode="&#x1edd;" horiz-adv-x="546" 
d="M300 604h-50l-86 147h64zM459 177q0 -85 -53.5 -136t-139.5 -51q-89 0 -141.5 50.5t-52.5 136.5v173q0 84 53.5 135t140.5 51q72 0 121.5 -35t64.5 -96q24 3 34.5 17t10.5 41v63h50v-64q0 -95 -88 -108v-4v-173zM404 177v173q0 36 -14 66.5t-45 48t-79 17.5
q-65 0 -102 -35t-37 -97v-173q0 -37 14 -67t45 -48t80 -18q64 0 101 35.5t37 97.5z" />
    <glyph glyph-name="uni1EDE" unicode="&#x1ede;" horiz-adv-x="579" 
d="M261 758v49q21 0 37 15t16 36t-15.5 36.5t-37.5 15.5q-18 0 -34 -14l-38 30q13 14 32.5 23t39.5 9q19 0 43 -10t41 -35t17 -55q0 -19 -10 -42t-35.5 -40.5t-55.5 -17.5zM529 713h51v-62q0 -56 -29 -88t-86 -34v-354q0 -82 -53.5 -133t-142.5 -51q-90 0 -143.5 50.5
t-53.5 132.5v363q0 82 53.5 132.5t143.5 50.5q37 0 77.5 -12.5t72 -46t41.5 -80.5h6q63 0 63 67v65zM410 535q0 42 -16.5 71t-49 44.5t-75.5 15.5q-63 0 -102.5 -32.5t-39.5 -98.5v-359q0 -66 39.5 -98.5t102.5 -32.5q28 0 61.5 10t56.5 40.5t23 80.5v359z" />
    <glyph glyph-name="uni1EDF" unicode="&#x1edf;" horiz-adv-x="546" 
d="M261 585v49q21 0 37 15t16 36t-15.5 36.5t-37.5 15.5q-18 0 -34 -14l-38 30q13 14 32.5 23t39.5 9q19 0 43 -10t41 -35t17 -55q0 -19 -10 -42t-35.5 -40.5t-55.5 -17.5zM459 177q0 -85 -53.5 -136t-139.5 -51q-89 0 -141.5 50.5t-52.5 136.5v173q0 84 53.5 135t140.5 51
q72 0 121.5 -35t64.5 -96q24 3 34.5 17t10.5 41v63h50v-64q0 -95 -88 -108v-4v-173zM404 177v173q0 36 -14 66.5t-45 48t-79 17.5q-65 0 -102 -35t-37 -97v-173q0 -37 14 -67t45 -48t80 -18q64 0 101 35.5t37 97.5z" />
    <glyph glyph-name="uni1EE0" unicode="&#x1ee0;" horiz-adv-x="579" 
d="M391 859l32 -31q-22 -22 -43.5 -35t-46.5 -13q-24 0 -66.5 22.5t-60.5 22.5q-14 0 -26.5 -6t-32.5 -25l-32 31q22 22 43.5 35t46.5 13q24 0 62.5 -19.5t49.5 -22.5t15 -3q14 0 27.5 6.5t31.5 24.5zM529 713h51v-62q0 -56 -29 -88t-86 -34v-354q0 -82 -53.5 -133
t-142.5 -51q-90 0 -143.5 50.5t-53.5 132.5v363q0 82 53.5 132.5t143.5 50.5q37 0 77.5 -12.5t72 -46t41.5 -80.5h6q63 0 63 67v65zM410 535q0 42 -16.5 71t-49 44.5t-75.5 15.5q-63 0 -102.5 -32.5t-39.5 -98.5v-359q0 -66 39.5 -98.5t102.5 -32.5q28 0 61.5 10t56.5 40.5
t23 80.5v359z" />
    <glyph glyph-name="uni1EE1" unicode="&#x1ee1;" horiz-adv-x="546" 
d="M389 687l32 -31q-22 -22 -43.5 -35t-46.5 -13q-24 0 -66.5 22.5t-60.5 22.5q-14 0 -26.5 -6t-32.5 -25l-32 31q22 22 43.5 35t46.5 13q24 0 62.5 -19.5t49.5 -22.5t15 -3q14 0 27.5 6.5t31.5 24.5zM459 177q0 -85 -53.5 -136t-139.5 -51q-89 0 -141.5 50.5t-52.5 136.5
v173q0 84 53.5 135t140.5 51q72 0 121.5 -35t64.5 -96q24 3 34.5 17t10.5 41v63h50v-64q0 -95 -88 -108v-4v-173zM404 177v173q0 36 -14 66.5t-45 48t-79 17.5q-65 0 -102 -35t-37 -97v-173q0 -37 14 -67t45 -48t80 -18q64 0 101 35.5t37 97.5z" />
    <glyph glyph-name="uni1EE2" unicode="&#x1ee2;" horiz-adv-x="579" 
d="M303 -168h-72v90h72v-90zM529 713h51v-62q0 -56 -29 -88t-86 -34v-354q0 -82 -53.5 -133t-142.5 -51q-90 0 -143.5 50.5t-53.5 132.5v363q0 82 53.5 132.5t143.5 50.5q37 0 77.5 -12.5t72 -46t41.5 -80.5h6q63 0 63 67v65zM410 535q0 42 -16.5 71t-49 44.5t-75.5 15.5
q-63 0 -102.5 -32.5t-39.5 -98.5v-359q0 -66 39.5 -98.5t102.5 -32.5q28 0 61.5 10t56.5 40.5t23 80.5v359z" />
    <glyph glyph-name="uni1EE3" unicode="&#x1ee3;" horiz-adv-x="546" 
d="M301 -168h-72v90h72v-90zM459 177q0 -85 -53.5 -136t-139.5 -51q-89 0 -141.5 50.5t-52.5 136.5v173q0 84 53.5 135t140.5 51q72 0 121.5 -35t64.5 -96q24 3 34.5 17t10.5 41v63h50v-64q0 -95 -88 -108v-4v-173zM404 177v173q0 36 -14 66.5t-45 48t-79 17.5
q-65 0 -102 -35t-37 -97v-173q0 -37 14 -67t45 -48t80 -18q64 0 101 35.5t37 97.5z" />
    <glyph glyph-name="uni1EE4" unicode="&#x1ee4;" 
d="M410 713h55v-538q0 -82 -53.5 -133t-142.5 -51q-90 0 -143.5 50.5t-53.5 132.5v539h55v-537q0 -66 39.5 -98.5t102.5 -32.5q28 0 61.5 10t56.5 40.5t23 80.5v537zM304 -168h-72v90h72v-90z" />
    <glyph glyph-name="uni1EE5" unicode="&#x1ee5;" horiz-adv-x="544" 
d="M461 0h-55v53q-47 -63 -137 -63q-88 0 -139.5 50.5t-51.5 136.5v350h55v-350q0 -23 6.5 -47.5t21 -43t42 -30.5t66.5 -12q28 0 59.5 11.5t54.5 41.5t23 74v356h55v-527zM305 -168h-72v90h72v-90z" />
    <glyph glyph-name="uni1EE6" unicode="&#x1ee6;" 
d="M410 713h55v-538q0 -82 -53.5 -133t-142.5 -51q-90 0 -143.5 50.5t-53.5 132.5v539h55v-537q0 -66 39.5 -98.5t102.5 -32.5q28 0 61.5 10t56.5 40.5t23 80.5v537zM252 758v49q21 0 37 15t16 36t-15.5 36.5t-37.5 15.5q-18 0 -34 -14l-38 30q13 14 32.5 23t39.5 9
q19 0 43 -10t41 -35t17 -55q0 -19 -10 -42t-35.5 -40.5t-55.5 -17.5z" />
    <glyph glyph-name="uni1EE7" unicode="&#x1ee7;" horiz-adv-x="544" 
d="M461 0h-55v53q-47 -63 -137 -63q-88 0 -139.5 50.5t-51.5 136.5v350h55v-350q0 -23 6.5 -47.5t21 -43t42 -30.5t66.5 -12q28 0 59.5 11.5t54.5 41.5t23 74v356h55v-527zM256 585v49q21 0 37 15t16 36t-15.5 36.5t-37.5 15.5q-18 0 -34 -14l-38 30q13 14 32.5 23t39.5 9
q19 0 43 -10t41 -35t17 -55q0 -19 -10 -42t-35.5 -40.5t-55.5 -17.5z" />
    <glyph glyph-name="uni1EE8" unicode="&#x1ee8;" horiz-adv-x="609" 
d="M346 927l-87 -147h-49l72 147h64zM549 713h51v-62q0 -58 -30.5 -90t-93.5 -32h-11v-354q0 -82 -53.5 -133t-142.5 -51q-90 0 -143.5 50.5t-53.5 132.5v539h55v-537q0 -66 39.5 -98.5t102.5 -32.5q28 0 61.5 10t56.5 40.5t23 80.5v537h55v-132h21q63 0 63 67v65z" />
    <glyph glyph-name="uni1EE9" unicode="&#x1ee9;" horiz-adv-x="587" 
d="M362 751l-87 -147h-49l72 147h64zM461 0h-55v53q-46 -62 -137 -62q-88 0 -139.5 50t-51.5 136v350h55v-350q0 -37 13.5 -67t43.5 -47.5t79 -17.5q44 0 78 20t46.5 49t12.5 57v356h55v-123h12q36 0 50.5 14t14.5 45v63h50v-64q0 -38 -14 -62.5t-40 -36t-68 -11.5h-5v-352z
" />
    <glyph glyph-name="uni1EEA" unicode="&#x1eea;" horiz-adv-x="609" 
d="M311 780h-50l-86 147h64zM549 713h51v-62q0 -58 -30.5 -90t-93.5 -32h-11v-354q0 -82 -53.5 -133t-142.5 -51q-90 0 -143.5 50.5t-53.5 132.5v539h55v-537q0 -66 39.5 -98.5t102.5 -32.5q28 0 61.5 10t56.5 40.5t23 80.5v537h55v-132h21q63 0 63 67v65z" />
    <glyph glyph-name="uni1EEB" unicode="&#x1eeb;" horiz-adv-x="587" 
d="M313 604h-50l-86 147h64zM461 0h-55v53q-46 -62 -137 -62q-88 0 -139.5 50t-51.5 136v350h55v-350q0 -37 13.5 -67t43.5 -47.5t79 -17.5q44 0 78 20t46.5 49t12.5 57v356h55v-123h12q36 0 50.5 14t14.5 45v63h50v-64q0 -38 -14 -62.5t-40 -36t-68 -11.5h-5v-352z" />
    <glyph glyph-name="uni1EEC" unicode="&#x1eec;" horiz-adv-x="609" 
d="M549 713h51v-62q0 -58 -30.5 -90t-93.5 -32h-11v-354q0 -82 -53.5 -133t-142.5 -51q-90 0 -143.5 50.5t-53.5 132.5v539h55v-537q0 -66 39.5 -98.5t102.5 -32.5q28 0 61.5 10t56.5 40.5t23 80.5v537h55v-132h21q63 0 63 67v65zM251 758v49q21 0 37 15t16 36t-15.5 36.5
t-37.5 15.5q-18 0 -34 -14l-38 30q13 14 32.5 23t39.5 9q19 0 43 -10t41 -35t17 -55q0 -19 -10 -42t-35.5 -40.5t-55.5 -17.5z" />
    <glyph glyph-name="uni1EED" unicode="&#x1eed;" horiz-adv-x="587" 
d="M461 0h-55v53q-46 -62 -137 -62q-88 0 -139.5 50t-51.5 136v350h55v-350q0 -37 13.5 -67t43.5 -47.5t79 -17.5q44 0 78 20t46.5 49t12.5 57v356h55v-123h12q36 0 50.5 14t14.5 45v63h50v-64q0 -38 -14 -62.5t-40 -36t-68 -11.5h-5v-352zM251 585v49q21 0 37 15t16 36
t-15.5 36.5t-37.5 15.5q-18 0 -34 -14l-38 30q13 14 32.5 23t39.5 9q19 0 43 -10t41 -35t17 -55q0 -19 -10 -42t-35.5 -40.5t-55.5 -17.5z" />
    <glyph glyph-name="uni1EEE" unicode="&#x1eee;" horiz-adv-x="609" 
d="M549 713h51v-62q0 -58 -30.5 -90t-93.5 -32h-11v-354q0 -82 -53.5 -133t-142.5 -51q-90 0 -143.5 50.5t-53.5 132.5v539h55v-537q0 -66 39.5 -98.5t102.5 -32.5q28 0 61.5 10t56.5 40.5t23 80.5v537h55v-132h21q63 0 63 67v65zM389 859l32 -31q-22 -22 -43.5 -35
t-46.5 -13q-24 0 -66.5 22.5t-60.5 22.5q-14 0 -26.5 -6t-32.5 -25l-32 31q22 22 43.5 35t46.5 13q24 0 62.5 -19.5t49.5 -22.5t15 -3q14 0 27.5 6.5t31.5 24.5z" />
    <glyph glyph-name="uni1EEF" unicode="&#x1eef;" horiz-adv-x="587" 
d="M461 0h-55v53q-46 -62 -137 -62q-88 0 -139.5 50t-51.5 136v350h55v-350q0 -37 13.5 -67t43.5 -47.5t79 -17.5q44 0 78 20t46.5 49t12.5 57v356h55v-123h12q36 0 50.5 14t14.5 45v63h50v-64q0 -38 -14 -62.5t-40 -36t-68 -11.5h-5v-352zM388 687l32 -31
q-22 -22 -43.5 -35t-46.5 -13q-24 0 -66.5 22.5t-60.5 22.5q-14 0 -26.5 -6t-32.5 -25l-32 31q22 22 43.5 35t46.5 13q24 0 62.5 -19.5t49.5 -22.5t15 -3q14 0 27.5 6.5t31.5 24.5z" />
    <glyph glyph-name="uni1EF0" unicode="&#x1ef0;" horiz-adv-x="609" 
d="M549 713h51v-62q0 -58 -30.5 -90t-93.5 -32h-11v-354q0 -82 -53.5 -133t-142.5 -51q-90 0 -143.5 50.5t-53.5 132.5v539h55v-537q0 -66 39.5 -98.5t102.5 -32.5q28 0 61.5 10t56.5 40.5t23 80.5v537h55v-132h21q63 0 63 67v65zM306 -168h-72v90h72v-90z" />
    <glyph glyph-name="uni1EF1" unicode="&#x1ef1;" horiz-adv-x="587" 
d="M461 0h-55v53q-46 -62 -137 -62q-88 0 -139.5 50t-51.5 136v350h55v-350q0 -37 13.5 -67t43.5 -47.5t79 -17.5q44 0 78 20t46.5 49t12.5 57v356h55v-123h12q36 0 50.5 14t14.5 45v63h50v-64q0 -38 -14 -62.5t-40 -36t-68 -11.5h-5v-352zM304 -168h-72v90h72v-90z" />
    <glyph glyph-name="Ygrave" unicode="&#x1ef2;" horiz-adv-x="489" 
d="M460 713l-189 -456v-257h-55v258l-188 455h60l156 -388l156 388h60zM292 780h-50l-86 147h64z" />
    <glyph glyph-name="ygrave" unicode="&#x1ef3;" horiz-adv-x="454" 
d="M224 0h-41l-155 527h57l137 -476h15l131 476h57l-176 -630q-19 -67 -51 -95t-106 -28h-5v54h18q37 0 57.5 13.5t31.5 52.5zM265 604h-50l-86 147h64z" />
    <glyph glyph-name="uni1EF4" unicode="&#x1ef4;" horiz-adv-x="489" 
d="M460 713l-189 -456v-257h-55v258l-188 455h60l156 -388l156 388h60zM278 -168h-72v90h72v-90z" />
    <glyph glyph-name="uni1EF5" unicode="&#x1ef5;" horiz-adv-x="454" 
d="M224 0h-41l-155 527h57l137 -476h15l131 476h57l-176 -630q-19 -67 -51 -95t-106 -28h-5v54h18q37 0 57.5 13.5t31.5 52.5zM398 -168h-72v90h72v-90z" />
    <glyph glyph-name="uni1EF6" unicode="&#x1ef6;" horiz-adv-x="489" 
d="M460 713l-189 -456v-257h-55v258l-188 455h60l156 -388l156 388h60zM230 758v49q21 0 37 15t16 36t-15.5 36.5t-37.5 15.5q-18 0 -34 -14l-38 30q13 14 32.5 23t39.5 9q19 0 43 -10t41 -35t17 -55q0 -19 -10 -42t-35.5 -40.5t-55.5 -17.5z" />
    <glyph glyph-name="uni1EF7" unicode="&#x1ef7;" horiz-adv-x="454" 
d="M224 0h-41l-155 527h57l137 -476h15l131 476h57l-176 -630q-19 -67 -51 -95t-106 -28h-5v54h18q37 0 57.5 13.5t31.5 52.5zM214 585v49q21 0 37 15t16 36t-15.5 36.5t-37.5 15.5q-18 0 -34 -14l-38 30q13 14 32.5 23t39.5 9q19 0 43 -10t41 -35t17 -55q0 -19 -10 -42
t-35.5 -40.5t-55.5 -17.5z" />
    <glyph glyph-name="uni1EF8" unicode="&#x1ef8;" horiz-adv-x="489" 
d="M460 713l-189 -456v-257h-55v258l-188 455h60l156 -388l156 388h60zM358 859l32 -31q-22 -22 -43.5 -35t-46.5 -13q-24 0 -66.5 22.5t-60.5 22.5q-14 0 -26.5 -6t-32.5 -25l-32 31q22 22 43.5 35t46.5 13q24 0 62.5 -19.5t49.5 -22.5t15 -3q14 0 27.5 6.5t31.5 24.5z" />
    <glyph glyph-name="uni1EF9" unicode="&#x1ef9;" horiz-adv-x="454" 
d="M224 0h-41l-155 527h57l137 -476h15l131 476h57l-176 -630q-19 -67 -51 -95t-106 -28h-5v54h18q37 0 57.5 13.5t31.5 52.5zM353 687l32 -31q-22 -22 -43.5 -35t-46.5 -13q-24 0 -66.5 22.5t-60.5 22.5q-14 0 -26.5 -6t-32.5 -25l-32 31q22 22 43.5 35t46.5 13
q24 0 62.5 -19.5t49.5 -22.5t15 -3q14 0 27.5 6.5t31.5 24.5z" />
    <glyph glyph-name="endash" unicode="&#x2013;" horiz-adv-x="585" 
d="M502 259h-420v50h420v-50z" />
    <glyph glyph-name="emdash" unicode="&#x2014;" horiz-adv-x="844" 
d="M758 259h-676v50h676v-50z" />
    <glyph glyph-name="afii00208" unicode="&#x2015;" horiz-adv-x="598" 
d="M637 259h-676v50h676v-50z" />
    <glyph glyph-name="quoteleft" unicode="&#x2018;" horiz-adv-x="231" 
d="M112 741h48l-38 -186h-62z" />
    <glyph glyph-name="quoteright" unicode="&#x2019;" horiz-adv-x="230" 
d="M117 555h-48l37 186h62z" />
    <glyph glyph-name="quotesinglbase" unicode="&#x201a;" horiz-adv-x="231" 
d="M118 -104h-48l38 186h62z" />
    <glyph glyph-name="quotedblleft" unicode="&#x201c;" horiz-adv-x="359" 
d="M239 741h48l-37 -186h-63zM112 741h49l-37 -186h-63z" />
    <glyph glyph-name="quotedblright" unicode="&#x201d;" horiz-adv-x="360" 
d="M246 555h-49l38 186h63zM119 555h-48l38 186h63z" />
    <glyph glyph-name="quotedblbase" unicode="&#x201e;" horiz-adv-x="360" 
d="M119 -104h-48l38 186h63zM246 -104h-49l38 186h63z" />
    <glyph glyph-name="dagger" unicode="&#x2020;" horiz-adv-x="444" 
d="M246 -58h-50v544h-118v50h118v234h50v-234h119v-50h-119v-544z" />
    <glyph glyph-name="daggerdbl" unicode="&#x2021;" horiz-adv-x="444" 
d="M246 -58h-50v234h-118v50h118v261h-118v50h118v233h50v-233h119v-50h-119v-261h119v-50h-119v-234z" />
    <glyph glyph-name="bullet" unicode="&#x2022;" horiz-adv-x="372" 
d="M289 354q0 -20 -10.5 -44t-36.5 -42t-57 -18q-20 0 -44 10.5t-41.5 36.5t-17.5 57t17.5 57t41.5 36.5t44 10.5t44 -10.5t42 -36.5t18 -57z" />
    <glyph glyph-name="ellipsis" unicode="&#x2026;" horiz-adv-x="673" 
d="M594 0h-76v87h76v-87zM373 0h-75v87h75v-87zM154 0h-76v87h76v-87z" />
    <glyph glyph-name="perthousand" unicode="&#x2030;" horiz-adv-x="1120" 
d="M1037 124q0 -26 -11.5 -55.5t-42.5 -49t-73 -19.5q-58 0 -92 33.5t-34 90.5v107q0 26 11.5 55.5t42.5 49t72 19.5q27 0 57.5 -11t50 -41t19.5 -72v-107zM986 124v107q0 22 -8.5 40t-27.5 26t-40 8q-35 0 -55 -19.5t-20 -54.5v-107q0 -22 8.5 -40t27 -26t39.5 -8
q36 0 56 19.5t20 54.5zM722 124q0 -26 -11.5 -55.5t-42.5 -49t-73 -19.5q-58 0 -92 33.5t-34 90.5v107q0 26 11.5 55.5t42.5 49t72 19.5q27 0 57.5 -11t50 -41t19.5 -72v-107zM335 482q0 -26 -11.5 -55.5t-42.5 -49t-73 -19.5q-27 0 -57 11t-49.5 41t-19.5 72v107
q0 26 11.5 55.5t42.5 49t72 19.5q42 0 73 -19.5t42.5 -49t11.5 -55.5v-107zM671 124v107q0 22 -8.5 40t-27.5 26t-40 8q-35 0 -55 -19.5t-20 -54.5v-107q0 -22 8.5 -40t27 -26t39.5 -8q36 0 56 19.5t20 54.5zM284 482v107q0 40 -22 57t-54 17q-35 0 -55 -19.5t-20 -54.5
v-107q0 -22 8.5 -40t27 -26t39.5 -8q36 0 56 19.5t20 54.5zM561 769l-269 -825h-51l271 825h49z" />
    <glyph glyph-name="guilsinglleft" unicode="&#x2039;" horiz-adv-x="286" 
d="M213 84l-181 181l181 181v-72l-109 -109l109 -110v-71z" />
    <glyph glyph-name="guilsinglright" unicode="&#x203a;" horiz-adv-x="285" 
d="M252 265l-180 -181v71l110 110l-110 109v72z" />
    <glyph glyph-name="fraction" unicode="&#x2044;" horiz-adv-x="554" 
d="M471 713l-333 -713h-56l334 713h55z" />
    <glyph glyph-name="dong" unicode="&#x20ab;" horiz-adv-x="536" 
d="M243 581v50h155v82h55v-82h77v-50h-77v-581h-55v52q-21 -30 -57.5 -46t-78.5 -16q-86 0 -138 51t-52 136v173q0 86 51.5 136t138.5 50q84 0 136 -62v107h-155zM127 350v-173q0 -63 35.5 -98t99.5 -35q30 0 53 7t41 21t30 41t12 64v173q0 63 -36 97.5t-100 34.5
q-66 0 -100.5 -34.5t-34.5 -97.5zM426 -108h-296v50h296v-50z" />
    <glyph glyph-name="Euro" unicode="&#x20ac;" horiz-adv-x="546" 
d="M502 176q0 -27 -8.5 -58t-29 -60t-58.5 -48t-92 -19q-53 0 -93.5 21t-64.5 65.5t-24 99.5v84h-84v50h84v98h-84v50h84v78q0 53 24.5 97t66 65t95.5 21q40 0 71.5 -11.5t55.5 -33t40.5 -58.5t16.5 -81h-55q0 66 -36 98t-93 32t-94 -32.5t-37 -99.5v-75h195v-50h-195v-98
h195v-50h-195v-83q0 -40 14.5 -69.5t45 -46.5t71.5 -17q57 0 93 32.5t36 98.5h55z" />
    <glyph glyph-name="afii61352" unicode="&#x2116;" horiz-adv-x="880" 
d="M480 0h-77l-266 628v-628h-55v713h74l269 -636v636h55v-713zM814 491q0 -26 -11.5 -55.5t-42.5 -49t-73 -19.5q-27 0 -57 11t-49.5 41t-19.5 72v110q0 26 11.5 55.5t42.5 49t72 19.5q42 0 73 -19.5t42.5 -49t11.5 -55.5v-110zM765 491v110q0 22 -9 40.5t-28.5 27
t-40.5 8.5q-35 0 -56 -20.5t-21 -55.5v-110q0 -36 20 -56t57 -20q36 0 57 20.5t21 55.5z" />
    <glyph glyph-name="uni2117" unicode="&#x2117;" horiz-adv-x="882" 
d="M466 305h-73v-161h-44v398h119q31 0 57 -13.5t38 -41t12 -51.5v-24q0 -24 -13 -52t-39 -41.5t-57 -13.5zM531 412v22q0 18 -7.5 34t-23.5 23t-32 7h-75v-150h76q16 0 31.5 7t23 23t7.5 34zM799 353q0 -72 -28 -138t-77.5 -115.5t-115 -77.5t-137.5 -28t-138 28
t-115.5 77.5t-77.5 115.5t-28 138t28 138t77.5 115.5t115.5 77.5t138 28t137.5 -28t115 -77.5t77.5 -115.5t28 -138zM749 353q0 62 -24 119t-66.5 100t-99 67t-118.5 24t-118.5 -24t-99.5 -67t-67 -100t-24 -119t24 -119t67 -100t99.5 -67t118.5 -24t118.5 24t99 67
t66.5 100t24 119z" />
    <glyph glyph-name="trademark" unicode="&#x2122;" horiz-adv-x="704" 
d="M621 331h-44v325l-68 -223h-36l-68 222v-324h-44v381h71l60 -217l58 217h71v-381zM321 668h-97v-337h-45v337h-97v44h239v-44z" />
    <glyph glyph-name="uni2126" unicode="&#x2126;" horiz-adv-x="538" 
d="M465 177q0 -24 -7 -51.5t-22.5 -47.5t-31.5 -31h101v-47h-210v47q54 8 84.5 41t30.5 89v358q0 42 -16.5 71t-49 44.5t-75.5 15.5q-63 0 -102.5 -32.5t-39.5 -98.5v-358q0 -56 30.5 -89t84.5 -41v-47h-210v47h101q-16 11 -31.5 31t-22.5 47.5t-7 51.5v360q0 82 53.5 132.5
t143.5 50.5q89 0 142.5 -51t53.5 -133v-359z" />
    <glyph glyph-name="partialdiff" unicode="&#x2202;" horiz-adv-x="536" 
d="M463 535v-363q0 -25 -9.5 -56t-32 -59.5t-61 -47t-91.5 -18.5q-27 0 -62.5 8t-69 35.5t-49.5 67t-16 72.5v85q0 26 9.5 57.5t31.5 61t60.5 48.5t91.5 19q45 0 82 -16t61 -46v150q0 40 -15.5 69.5t-48 46.5t-76.5 17v54q27 0 62.5 -8t68.5 -35.5t48.5 -67.5t15.5 -74z
M408 177v81q0 40 -16 69.5t-48.5 46.5t-74.5 17q-32 0 -65 -12.5t-55 -42t-22 -78.5v-81q0 -66 41 -99t101 -33q59 0 99 33t40 99z" />
    <glyph glyph-name="uni2206" unicode="&#x2206;" horiz-adv-x="540" 
d="M513 0h-486l187 713h111zM253 664l-159 -611h351l-158 611h-34z" />
    <glyph glyph-name="product" unicode="&#x220f;" horiz-adv-x="564" 
d="M485 0h-55v659h-297v-659h-55v713h407v-713z" />
    <glyph glyph-name="summation" unicode="&#x2211;" horiz-adv-x="565" 
d="M492 663h-348l288 -274v-56l-289 -283h349v-50h-420v50l316 311l-316 302v50h420v-50z" />
    <glyph glyph-name="minus" unicode="&#x2212;" horiz-adv-x="565" 
d="M467 259h-370v50h370v-50z" />
    <glyph glyph-name="radical" unicode="&#x221a;" horiz-adv-x="613" 
d="M267 -175h24l246 889h57l-262 -940h-106l-148 527h57z" />
    <glyph glyph-name="infinity" unicode="&#x221e;" horiz-adv-x="869" 
d="M465 184l-31 50l-31 -50q-25 -41 -64.5 -67t-86.5 -26q-76 0 -125 54t-49 137t49 137t125 54q47 0 86.5 -26t64.5 -67l31 -51l31 51q25 41 64.5 67t86.5 26q76 0 125 -54t49 -137t-49 -137t-125 -54q-47 0 -86.5 26t-64.5 67zM507 346l-43 -64l43 -64q48 -73 106 -73
q59 0 91.5 40t32.5 97t-32.5 97t-91.5 40q-58 0 -106 -73zM255 419q-59 0 -91.5 -40t-32.5 -97t32.5 -97t91.5 -40q58 0 106 73l43 64l-43 64q-48 73 -106 73z" />
    <glyph glyph-name="integral" unicode="&#x222b;" horiz-adv-x="293" 
d="M156 -95q0 -33 -11.5 -64t-41 -49t-67.5 -18h-18v54h13q31 0 50.5 17t19.5 55v669q0 68 34 106t102 38h37v-54h-47q-19 0 -37 -10t-26 -29t-8 -39v-676z" />
    <glyph glyph-name="approxequal" unicode="&#x2248;" horiz-adv-x="534" 
d="M417 407l34 -27q-26 -26 -49.5 -41.5t-58.5 -15.5q-25 0 -77.5 24t-78.5 24q-19 0 -34 -7.5t-38 -30.5l-33 27q25 25 49 41t59 16q28 0 78 -24t77 -24q19 0 34 7.5t38 30.5zM417 270l34 -27q-26 -26 -49.5 -41.5t-58.5 -15.5q-25 0 -77.5 24t-78.5 24q-19 0 -34 -7.5
t-38 -30.5l-33 27q25 25 49 41t59 16q28 0 78 -24t77 -24q19 0 34 7.5t38 30.5z" />
    <glyph glyph-name="notequal" unicode="&#x2260;" horiz-adv-x="554" 
d="M467 195h-207l-122 -263h-56l123 263h-115v50h138l46 98h-184v50h208l118 252h55l-118 -252h114v-50h-137l-46 -98h183v-50z" />
    <glyph glyph-name="lessequal" unicode="&#x2264;" horiz-adv-x="485" 
d="M384 121h-75l-264 265l261 262h75l-259 -262zM429 0h-370v50h370v-50z" />
    <glyph glyph-name="greaterequal" unicode="&#x2265;" horiz-adv-x="486" 
d="M440 386l-265 -265h-75l262 265l-259 262h75zM425 0h-370v50h370v-50z" />
    <glyph glyph-name="lozenge" unicode="&#x25ca;" horiz-adv-x="540" 
d="M72 356l159 357h76l160 -357l-160 -356h-76zM128 356l141 -317l139 317l-139 318z" />
    <glyph glyph-name="uniFB01" unicode="&#xfb01;" horiz-adv-x="556" 
d="M465 0h-55v472h-238v-472h-55v472h-95v54h95v43q0 68 34 106t102 38h37v-54h-47q-19 0 -37 -10t-26 -29t-8 -39v-55h293v-526zM473 631h-72v89h72v-89z" />
    <glyph glyph-name="uniFB02" unicode="&#xfb02;" horiz-adv-x="557" 
d="M400 131v341h-228v-472h-55v472h-95v54h95v43q0 68 34 106t102 38h37v-54h-47q-19 0 -37 -10t-26 -29t-8 -39v-55h228v187h55v-587q0 -38 19.5 -55t50.5 -17h13v-54h-18q-38 0 -67.5 18t-41 49t-11.5 64z" />
    <glyph glyph-name="glyph311" horiz-adv-x="540" 
d="M459 0l-57 208h-265l-56 -208h-54l196 713h93l197 -713h-54zM262 664l-110 -402h235l-109 402h-16z" />
    <glyph glyph-name="glyph553" horiz-adv-x="419" 
d="M337 574h-60l-67 71l-67 -71h-61l100 110h55zM318 802l-74 -81h-53l63 81h64z" />
    <glyph glyph-name="glyph554" horiz-adv-x="419" 
d="M337 574h-60l-67 71l-67 -71h-61l100 110h55zM179 721l-74 81h64l63 -81h-53z" />
    <glyph glyph-name="glyph555" horiz-adv-x="419" 
d="M179 806l-30 25q10 8 25.5 14t27.5 6q33 0 55 -21t22 -51q0 -27 -20 -48.5t-49 -26.5v40q13 4 21 13.5t8 21.5q0 14 -10 24t-28 10q-10 0 -22 -7zM337 574h-60l-67 71l-67 -71h-61l100 110h55z" />
    <glyph glyph-name="glyph556" horiz-adv-x="419" 
d="M304 785l29 -26q-16 -19 -32.5 -29t-39.5 -10q-21 0 -55 14q-32 14 -48 14q-22 0 -44 -24l-29 26q15 18 32 28.5t40 10.5q17 0 56 -15q35 -13 47 -13q22 0 44 24zM337 574h-60l-67 71l-67 -71h-61l100 110h55z" />
    <glyph glyph-name="glyph557" horiz-adv-x="459" 
d="M229 575q-22 0 -48.5 11.5t-45.5 41t-19 63.5h47q0 -31 18.5 -50.5t47.5 -19.5t47.5 19.5t18.5 50.5h47q0 -22 -11 -49t-39.5 -47t-62.5 -20zM324 799l-74 -81h-53l63 81h64z" />
    <glyph glyph-name="glyph558" horiz-adv-x="459" 
d="M229 575q-22 0 -48.5 11.5t-45.5 41t-19 63.5h47q0 -31 18.5 -50.5t47.5 -19.5t47.5 19.5t18.5 50.5h47q0 -22 -11 -49t-39.5 -47t-62.5 -20zM207 718l-74 81h64l63 -81h-53z" />
    <glyph glyph-name="glyph559" horiz-adv-x="459" 
d="M229 575q-22 0 -48.5 11.5t-45.5 41t-19 63.5h47q0 -31 18.5 -50.5t47.5 -19.5t47.5 19.5t18.5 50.5h47q0 -22 -11 -49t-39.5 -47t-62.5 -20zM194 803l-30 25q10 8 25.5 14t27.5 6q33 0 55 -21t22 -51q0 -27 -20 -48.5t-49 -26.5v40q13 4 21 13.5t8 21.5q0 14 -10 24
t-28 10q-10 0 -22 -7z" />
    <glyph glyph-name="glyph560" horiz-adv-x="461" 
d="M229 575q-22 0 -48.5 11.5t-45.5 41t-19 63.5h47q0 -31 18.5 -50.5t47.5 -19.5t47.5 19.5t18.5 50.5h47q0 -22 -11 -49t-39.5 -47t-62.5 -20zM324 792l29 -26q-16 -19 -32.5 -29t-39.5 -10q-21 0 -55 14q-32 14 -48 14q-22 0 -44 -24l-29 26q15 18 32 28.5t40 10.5
q17 0 56 -15q35 -13 47 -13q22 0 44 24z" />
    <glyph glyph-name="glyph643" horiz-adv-x="461" 
d="M373 623h-72v90h72v-90zM158 623h-72v90h72v-90zM363 784h-266v45h266v-45z" />
    <glyph glyph-name="glyph644" horiz-adv-x="452" 
d="M369 623h-72v90h72v-90zM154 623h-72v90h72v-90zM318 839l-74 -81h-53l63 81h64z" />
    <glyph glyph-name="glyph645" horiz-adv-x="452" 
d="M369 623h-72v90h72v-90zM154 623h-72v90h72v-90zM96 868h60l67 -71l67 71h61l-100 -110h-55z" />
    <glyph glyph-name="glyph646" horiz-adv-x="452" 
d="M369 623h-72v90h72v-90zM154 623h-72v90h72v-90zM201 758l-74 81h64l63 -81h-53z" />
    </font>
</defs>
</svg>
